<?xml version="1.0" encoding="utf-8"?>
<!-- Generator: Adobe Illustrator 18.0.0, SVG Export Plug-In . SVG Version: 6.00 Build 0)  -->
<!DOCTYPE svg PUBLIC "-//W3C//DTD SVG 1.1//EN" "http://www.w3.org/Graphics/SVG/1.1/DTD/svg11.dtd">
<svg version="1.1" id="Layer_15" xmlns="http://www.w3.org/2000/svg" xmlns:xlink="http://www.w3.org/1999/xlink" x="0px" y="0px"
	 viewBox="0 0 587 487" enable-background="new 0 0 587 487" xml:space="preserve">
<g>
	<g>
		<path fill="#17A15B" stroke="#10914F" stroke-width="1.2" stroke-miterlimit="10" d="M570.7,292l-1.4,1l-1.9,1.3l-2.5,2.3
			l-2.3-0.3l-3.3-0.3l-7.9-1.6l-7.8-0.8l-10.5-2.1l-9.9-2.6c0,0-4.1-0.8-4.5-0.9s-3.5-0.6-3.9-0.8s-4.5-0.8-4.9-0.8
			s-3.8-0.4-3.8-0.4l-2.8-1l-4.5-0.5l-2.4-0.8l-24.9-32.6l-0.8-1l-0.4-0.8c0,0-0.1-1-0.1-1.2c0-0.2,0-1.7,0-1.7l-0.9-1.1
			c0,0-0.5-1-1-1.5s-1-0.5-1-0.5s-1.8-0.1-2.1-0.1s-1.5,0-1.5,0l-1.8-0.6v-1c0,0,0.6-1.1,0.9-1.6s0.4-0.8,0.6-1.1s0.5-0.6,1.1-1
			s1.5-1.5,2-2s0.1-1.1,0.1-1.1l-1.1-0.1l-0.6,0.1l-2.4,1.5l-0.1-1.9c0,0-1.4,0.4-1.8,0.5s-2.6,0.6-3,0.6s-3.4,0.1-3.4,0.1l-2.9-1.3
			c0,0-2.8-2.8-3-3.4s-2.5-3.4-2.5-3.4l-2-3.9c0,0-2.4-3-2.6-3.4s-1.1-5.3-1.1-5.8s-0.8-2.9-0.8-2.9l-1.3-2.5l-1.9-1.6
			c0,0-2.3-1.8-2.9-2.5s-2.1-3.8-2.4-4.9s-1.1-2.9-1.1-3.3s-1-3-1-3l0.4-15.5c0,0-0.4-3.6-0.4-4.5S426,169,426,169l-2.3-2.5
			l-7.8-5.8l-5.6-4.1l-1.1-2.1l-1.6-4.4l-3.3-4l-2.8-0.8l-3.6-1l-2.1-0.5l-1.3-0.9l-0.3-2.6l-0.3-3l-2.3-4.3c0,0-1.4-2.4-1.4-2.8
			s-2.3-5.4-2.3-5.4l-3-5.1l-1.8-3.1l-1.1-0.6l-2.4-0.4h-15.1l-2.1-0.6l-0.4-1l-1.5-2.4l-0.6-1.6c0,0-0.3-3.6-0.3-4.1
			s-1.8-3.1-1.8-3.1l-2-1.3l-3.5-1.1l-2.3-0.8h-32.1l-2.3,2l-3.9,4.4l-4.6,4.5l-3.8,4.1l-2.5,4.6l-3.9,5.9l-0.8,3.4l-3.4,4.5l-2.2,3
			l-1.8,2.5l-1.5,2.9l-0.6,3.8l2.8,1.5l2,1.5l1.3,3l1.4,3l3.8,2.8l4,2.3l3.5,1.3h4.5v1.8l3.8,3.8l3,1.5h6l4,2l3.8,3.3l2.5,1.3h7.3
			l5,6l2,1.3l3,1.8h3.3l3.3,1.8v45.5l3.4,2.8l5.5,2.8l3,3.8l4,2l3,4l2.3,5.3l1.5,2.8l0.7,7.8L364,388l-6.5,70.3c0,0,0.1,0,0.1,0
			c0.1,0,0.2,0,0.3,0l2.8-8.3l18-22l23.3-10.7l14-3.3l26-2.7l40-7.3l82-30l19.3-60.7L570.7,292z"/>
		<path fill="#17A15B" stroke="#10914F" stroke-width="1.2" stroke-miterlimit="10" d="M288.5,145.8l-1.1,1.2v1.3h-3V147h-2.8v2.2
			l-1.8,1.5v2.8v2l2.3,1.8l2,1v4.3v1.5l-2.3,1.5l-2,1.8l-3,1.8v1.8h-2.8l-1.8,1.8v2v3.3v1.8v2.3l1.5,1.5l2,1.5l1,1.3l2,2.8l1.5,2.3
			v3v1.5v2.5h1.5v4.8v2.5c0,0-2.3,0-3.3,0s-3.8,0-4.5,0s-5,0-5,0h-5.3l-3.3,1.5l-2.8,3.5l-2,1.5l-3.5,1.5l-3.5,1.8h-2.8l-2.8,2
			l-2.8,2l-2.5,2.3l-2.3,3.3v2.8l1.8,2l-1.8,2h-5.8h-4.5c0,0-5.3-1-6,0s-4.8,0-4.8,0l-3.8,0.4l-1.3,4.3v2.3l-3.8,4.5v2.8v4.3v4.8
			v4.3l2.3,2.3l1.8,1.3l0.8,3l2,6.8v3l1.8,4.9l1,3.4l2.8,1.8h4.8l3.3,1.3h3.8h2.8l1.5,2.3v2l-1.5,3.8l0.5,3h1.8h3h4.5h2.5h2.2v2.5
			v5.3v3.3v2.8v2.5v2.5v2l-1.4,1.3l-0.5,2.3c0,0-0.3,1.3-0.3,3s0.3,4,0.3,4l-1.3,3l2,3.8l2.8,2c0,0,1.8,3.3,2,4.3s1.3,3,1.3,3l3,1.8
			l1.7,1.3l2,4l1.8,2l2.5,3l1,2l-1,2.3c0,0-0.8,0.8-1,1.5s-0.5,1-1.3,2.3s-1,2.8-1,2.8s0,2.8,0,3.5s0,0.8,0,0.8s1.3,2,2.3,2.5
			s1,0.5,1,0.5l7.5,9l3.8,2.8l4.3,4.3l2.3,1.8l4,2l2.5,1h2.8h6h5l4,1.5h6.3l4.3-1.5l5.8-0.3l5.3-0.5l4.8-0.3l4.5-0.5l3.8-0.3
			l3.5-0.3l10.5-2l4-0.5l3.8-1l2.7-0.7l1.4-11.3l2.2-16.7l2.4-18.2l2.3-17.3l2.6-20.1l1.6-11.9l1.5-11.7l0.7-5.2l1-7.4l0.6-4.5
			l0.4-3.4l-0.7-7.8l-1.9-3.7l-1.9-4.3l-3-4l-4-2l-3-3.8l-5.5-2.8l-3.4-2.8v-45.5l-3.3-1.8h-3.3l-5-3l-5-6h-7.3l-2.7-1.5l-3.5-3
			l-3.8-1.9l-6.2-0.1l-3-1.5l-3.8-3.8v-1.8h-4.5l-3.5-1.3l-4-2.3l-3.8-2.8l-2.8-6.1L288.5,145.8z"/>
		<path fill="#17A15B" stroke="#10914F" stroke-width="1.2" stroke-miterlimit="10" d="M357.6,456.7l-0.3,3.3l-2.3,2l-1.8,2l-3,1.5
			h-1.8h-2h-2.8l-1.3-4.4l-2.5-2.6l-2-1.8h-2.3h-2.3h-4.8h-10.3h-12.8l-6.8-3l-2.3-2h-6.3h-10.8H273h-7l-6.3,2l-1.3,1.8L256,454
			l-2.8-0.8v-2.8v-5l-1.5-4.8V437v-6.8V427l3.5-3.5l3.5-3l3.3-4.3l1-2.8c0,0,2-2,2.8-2s1.3,0.5,2.8,0s3.3-3.8,3.3-3.8l0.5-3.8v-4.3
			v-3h2.3l0.5-4.8l0.3-1.8l0.6-2.4l1.6,1.6l1.4,1.3l2.4,1.7l2.1,1.1l1.6,0.8l2.3,0.9H301l4,1.5h6.3l4.3-1.5l4.2-0.2l4.3-0.3l4.2-0.3
			l4.7-0.4l4.5-0.4l5.1-0.4l5.4-1l5.5-1l4.1-0.5l6.3-1.7l-0.6,7l-0.4,4.7l-0.4,4.3l-0.8,8.8l-0.7,7.6l-0.7,7.5l-0.7,7.2l-0.5,4.9
			l-0.6,6.1l-0.5,5.7L357.6,456.7z"/>
		<path fill="#17A15B" stroke="#10914F" stroke-width="1.2" stroke-miterlimit="10" d="M253.3,453.3l-3.9-3.3l-2.7-2.7h-3h-2
			c0,0-4-1.7-4-2.7s-1.3-3.7-1.3-3.7h-2.7v-5.7h-5.3l-2,3v6l-4.7-2.3l-2-3.7l-3.3-1.3l-5.3-0.3l-2.7-3.3H204v-8.7h-3.7V421l1.7-2.3
			l-1.7-5.3l-2-2.7H191V405v-4.3V399h5l4-2.3l3-4.8l-0.7-4.1l0.7-4.9l-2.3-2.7H199l1.7-4l1-3.3l0.3-4c0,0,4-1.7,4-2s0-0.3,0-0.3
			l2-2.7v-1.7l-2-2.7v-3h2.3l2,3.3l1,2l2.7,0.7l3-0.7l1.7-3l1.7-2.3l4.3-3l2.7-1.3l4.7-1.3l3.3-1.7h4.7h1.7l3.3-2.7h3.7h3.1l0.3-2.2
			l4.8,3l0.8,1.5l0.9,1.7l0.9,1.3l1.3,1.5l1.1,1.3l1.4,1.7l0.8,1.6l0.1,0.8l-0.6,1.2l-0.8,1.3l-0.5,0.9l-0.5,1.1l-0.9,1.4l-0.7,1.7
			l-0.2,0.7v1.6v2.7l1.1,1.4l1.2,1.1l1.8,1.5l1.8,2.1l1.7,2l3.2,3.8l2.2,1.6l1.6,1.2l1.1,1.1l0.5,0.5l-0.7,2.7l-0.3,1.9l-0.2,2.3
			l-0.2,2h-2.3v4.6v1.9l-0.1,1.8l-0.2,1.6l-0.4,1.5l-1,1.5l-1,1.2l-1,0.7l-1,0.2l-1.3-0.2l-1.6,0.6l-1.1,1l-0.8,1.4l-0.6,1.8
			l-1.4,1.9l-1,1.2l-1.2,1.4l-1.4,1.2l-1.5,1.2l-1.7,1.6l-2.2,2.2v5.3v2.8v3v2v1l0.9,2.6l0.6,1.8v2.5v2.8V453.3z"/>
		<path fill="#17A15B" stroke="#10914F" stroke-width="1.2" stroke-miterlimit="10" d="M210.1,234.8l-2.3-1.3l-1.8-2.3v-3.8
			l-2.8-3.3v-1.8l-4.3-1.8l-2.3-1.3v-10.8l-5-2l-1.5-1.5l7.3-1.5l0.8-2.5c0,0,1.1,0.5,1.9,0s2.6,0.5,3.3,0s3.3,0.3,2.5-1s1-2.3,0-3
			s-1.8-2.3-1.8-2.3s-1.3-1.8,0.5-2.3s3-0.3,3.8,0s0.8,0.3,0.8,0.3s0.4-1.3,0.8-2.3c0.4-1,0-3.8,0-3.8s0.4-0.8,1.7-1.3
			s1.8,0.8,2.5,0s0.8-0.8,0.8-0.8v-2.8l1.8-3.5c0,0,1.5-0.8,3.3-2s3.3-1.8,4.5-2.8s2.8-1.8,3.8-2.5s1.8-1,3.8-2.3s2.8-1.5,4.3-2.5
			s2.8-1.3,3-2s0-4,0-4s2-1.5,3.8-2s4.8-1.5,5.5-2s3.3-1.5,4-1.8s4.5-1.5,4.5-1.5h4.3l2.3,2.5c0,0,1.8,1.8,2.8,2.3s3.3,2,3.3,2
			l1.8,0.3l2.5,0.3l1.5-1.5l2.5-3.3l2-0.5l2.3,1.8l2,1v5.8l-2.3,1.5l-2,1.8l-3,1.8v1.8H274l-1.8,1.8v9.2l1.3,1.4l1.9,1.4l0.8,0.8
			l4.1,5.7v7h1.5v7.3h-18l-3.3,1.5l-2.8,3.5l-1.8,1.4l-3.7,1.6l-3.5,1.8H246l-5.5,4l-2.5,2.3l-2.3,3.3v2.8l1.8,2l-1.8,2h-10.3
			l-2.6-0.4l-1-0.1l-1,0l-0.5,0.1l-1.1,0.5l-0.6,0.2c0,0-0.9,0.1-1.3,0s-1.1-0.1-1.2-0.1s-0.7-0.1-0.9-0.2c-0.2,0-4.3,0.3-4.3,0.3
			L210.1,234.8z"/>
		<path fill="#17A15B" stroke="#10914F" stroke-width="1.2" stroke-miterlimit="10" d="M191.3,205.3H185h-4.5H177h-3.3l-4.5,4.8
			h-7.8l-8.8,3.8l-2.8-3v-11l-2.5-5.6l2.8-12.2h-4.5v-5.3l2-3c0,0-1-2,0-3.5s3.8-6,3.8-6l3.8-4.5l1-2.8l-3.5-3.5l-4.3-2.8l-0.8-8.8
			l-2-5l-4.8-3l-5-4.5l-7.8-1.5h-3v-2.8l4.8-2.8l7.5-4l6.5-1.5c0,0,6.5-5,7.3-5s5.5-2.8,6.5-3s6.3-2,6.3-2h4.5l2.8,1.3
			c0,0,6.3-1.8,7-1.3s5.8-0.1,5.8-0.1h3l3.3-1.2h4.8l3.8,2.3l5.3-0.8h5.8l5,0.8l5.3,3.3l1.8,2.5l2,1.3c0,0,1,1,2.3,1
			s3.8-0.3,3.8-0.3l3.3-1.5v2.8l2,2.8l4.5,0.3h2l2.5,1.5c0,0,2.5,0.8,3.8,0.8s3.8-1.3,3.8-1.3l2.8-1.8c0,0,1.5,0.5,1.5,1.3
			s1.5,3.5,2,4.5s3.3,5.3,3.3,5.3s-1.3,2.3,0,3.3s2.5,3.8,2.5,3.8l6.3,1.8c0,0,0.5-0.3,1.3-0.3s6,1.5,6,1.5l1.8,1l5.3,4.6v1.2h-2.5
			v2.2l-1.8,1.8v4.4l-2,0.5l-2.5,3.3l-1.5,1.5l-4.3-0.5l-4.3-2.7l-3.9-4H257l-6.8,2.4l-1.5,0.7l-1.8,0.9l-2.3,0.8l-2.5,0.8l-2.8,1.7
			l0.1,3.5l-0.1,0.5l-0.4,0.5l-1.1,0.7l-2.5,1.5l-3.4,1.9l-3.4,2l-4,2.7l-3.6,2.1l-4.2,2.6l-1.8,3.5v2.8l-0.8,0.8l-1.3,0l-1.6,0.1
			l-0.8,0.5l-0.5,0.6l0.1,0.7l0.1,1.3l0,0.8l-0.2,1c0,0-0.3,0.7-0.4,1.1c-0.1,0.4-0.4,1.2-0.4,1.2l-1.7-0.5l-1.2-0.1l-1.2,0.2
			l-1,0.3l-0.4,0.6l0.2,1l0.6,1.1l1,1.3l0.6,0.6l0,0.8l-0.3,0.9l0,0.9l0.1,0.9l-1.4,0.2l-1.1,0.2l-1.8,0l-1.5,0l-1.1,0.2l-0.9-0.2
			l-0.8,2.5L191.3,205.3z"/>
		<path fill="#17A15B" stroke="#10914F" stroke-width="1.2" stroke-miterlimit="10" d="M207.5,356.7v-1.8l-1.5-1.7h-1.2h-2.3l-1,1.8
			h-4.2l-2.5,0.8l-2.2,1l-1.7-1.8l-1-3.4h-1.2H187h-1.2l-1.2,2.6c0,0-0.2,2.9,0,3.6c0.2,0.7-0.1,2.5-0.1,3.5c0.1,1-2.1,3-2.1,3
			l-3.7,1.5l-11.7,9.7c0,0-3.2-1-3.5-1.5c-0.3-0.5-4.2-3.5-5-4.2c-0.8-0.7-5.3-2.5-5.3-2.5s-5.7-3.8-6-3.8c-0.3,0.1-4.3-1.9-5.2-3.8
			c-0.8-1.8-4.5-7.8-4.8-9c-0.3-1.2-8.3-10.3-8.3-10.3s-1.8-4.5-1.8-5s0.7-4.8,0.7-4.8l-2.3-12.8c0,0-1.8-3-1.8-3.7s0-6.2,0-6.2
			s2.8-4.2,2.8-5.2s-0.8-6-0.8-6l-4.5-8.8c0,0-1.7-4.3-1.7-4.8s-2.8-9.2-2.8-9.2l-1.3-2.5l5-1.6h2.3l3.7,4.5l2.5,3.5
			c0,0,2.2,1.7,3.3,1.5c1.2-0.2,3.2-0.7,3.2-0.7h1l0.2,2.2c0,0,1.8,0.5,2.7,0.2c0.8-0.3,4.8-1.7,5.3-1.8s1-0.8,2.3-0.8
			c1.3,0,3,0.8,3,0.8s1,0.8,0.8,1.5c-0.2,0.7-1.7,3.2-2,4.2c-0.3,1-1,2.5-1,2.5l1.3,1.7l1.8,0.7l1.7,0.8c0,0,0.8,1.2,0.8,1.7
			s-0.7,3.7-0.7,3.7l-0.3,1.5l1.3,1l2.8,0.2c0,0,3.2-1.7,3.7-2c0.5-0.3,1.3-2,1.3-2h2.6l3.3,0.8l1.7,0.8c0,0,2-1.3,2.5-2.2
			c0.5-0.8,2.5-4.2,2.8-4.7c0.3-0.5,3.3-2.7,4.5-3.5c1.2-0.8,3.5-2.3,4-2.5c0.5-0.2,3-1.7,3.5-2.2s2.3-2,2.3-2s2.7-0.5,2.7-1.2
			c0-0.7,0-1.7,0-1.7l-3.3-3.8l-1.3-1c0,0,0.7-2,1.7-2.5s4.5-1.3,5.2-1.7c0.7-0.3,2-1.5,2-1.5l3.3-2.2l1.5-3.7l-0.5-2l-0.7-3.3
			l1.5-0.8h2.2h3.2v5.1l3.4,3.1l1.3,3.4l1,3.3l1,3.5v3l1.1,3.1l1.1,3.3l0.6,1.9l2.8,1.8h4.8l3.3,1.3h6.5l1.5,2.3v2l-1.5,3.8l0.5,3
			h13.9V318l-1.4,1.3l-0.7,3.7l0,3.1l0.2,2.5l-1.3,3l1,1.9l1.5,2.2l2.5,2l1.8,3.9l1,2.5l0,2.7H245l-3.3,2.7h-6.3l-2.5,1.3l-1.9,0.7
			l-2,0.6l-2,0.7l-2.2,1.1l-1.9,1.3l-2.4,1.7l-1.7,2.3l-1.3,2.3l-1,0.8l-2.4,0.5l-2.7-0.7l-3-5.3H207.5z"/>
		<path fill="#17A15B" stroke="#10914F" stroke-width="1.2" stroke-miterlimit="10" d="M200.3,424.7l-4.7,5l-3.3-3.8v-5.2
			c0,0-3.8-2.8-4.2-3.5c-0.3-0.7-4.6-3.8-4.6-3.8l0.8-4.3c0,0,0.8-1.5-0.8-2.7c-1.5-1.2,0-4.8,0-4.8l-2.2-1.5c0,0-0.7-2-1.2-3.3
			s-1-3.3-1-3.3s-3.2-1.2-3.2-2.5s-1-4-1-4s-4-3.5-4-4s-0.5-2.5,0-3s-2.5-2.2-2.5-2.2l-1.3-2.5l11.7-9.7l3.7-1.5l1.5-1.7l0.7-3.3
			l-0.1-4l0.5-2l0.8-1.7h4.2l1,3.4l1.7,1.8l4.7-1.8h4.2l1-1.8h3.5l1.5,1.7v1.8H206v3l2,2.7v1.7l-2,3l-4,2l-0.3,4l-1,3.3l-0.6,1.4
			l-1.1,2.6h1.7l2.3,2.7l-0.3,2.3l-0.4,2.6l0.2,1.2l0.2,1.5l0.2,1.4l-3,4.8l-4,2.3h-5v11.7h7.3l2,2.7l0.9,2.8l0.8,2.6l-1.7,2.3
			V424.7z"/>
		<path fill="#17A15B" stroke="#10914F" stroke-width="1.2" stroke-miterlimit="10" d="M241.7,447.3v1.7v1.3v1.8l1.8,3v0.8l-2.7,1.8
			l-0.8,1v2.7c0,0-1,2.2-0.7,3.3c0.3,1.2,0.8,4,0.8,4l1.2,2.7l-0.9,2.5c0,0-2.8,3-3.2,3.5c-0.3,0.5-3.9,3.2-3.9,3.2l-1.1,2h-2
			L228,481l-2.7-6.7l-1-3.3c0,0-3-3.5-3.2-4c-0.2-0.5-2.3-3.8-2.3-3.8l-2-5l-4-6.5l-0.8-2.3l-4-4l-2-2.7l-5-2.5l-3.3-5.7l-2-4.8
			l4.7-5h3.7v8.7h4.3l2.7,3.3l5.3,0.3l3.3,1.3l2,3.7l4.7,2.3v-6l2-3h5.3v5.7h2.7l1.3,3.7l1.3,1.3L241.7,447.3z"/>
		<polygon fill="#17A15B" stroke="#10914F" stroke-width="1.2" stroke-miterlimit="10" points="318.4,99.8 281.3,96 208.7,37.3 
			190.3,29.3 164.3,12.7 131.3,5.7 123,11.3 96,18 93.7,26 93.7,32 96,36 100,42.3 107.3,45.7 125.3,43 133.7,43 141.3,45 147.7,45 
			156,50 176.3,50 183,54.3 192.3,55.3 196.7,63 204.6,68.3 173,88.7 170,93.7 170.7,101.3 166.7,107 171.3,108.3 178.3,107 
			183,107 186.8,106.9 190.3,105.8 195,105.8 198.8,108 204,107.3 209.8,107.3 214.8,108 220,111.3 221.8,113.8 224.6,115.6 
			226,116 229.3,116 233,114.3 233,117 235,119.8 241.5,120 244,121.5 247.8,122.3 250.6,121.4 252.5,120.3 254.3,119.3 
			255.8,120.5 257,123.5 258.6,126.4 261,130.3 260.5,132.6 261,133.5 262.2,134.9 263,136.2 263.5,137.3 269.8,139 271,138.8 
			273.1,139 275.9,139.9 278.1,140.9 279.8,142.1 281.9,144 284,145.8 284.3,148.3 287.3,148.3 287.3,147 288.3,145.8 287.3,145.3 
			287.9,141.5 290.8,136.6 294,132.3 296.8,128.6 297.5,125.3 300.3,121 302.1,118 304.2,114.4 312.6,105.8 		"/>
		<path fill="#17A15B" stroke="#10914F" stroke-width="1.2" stroke-miterlimit="10" d="M115.3,271.3l-5.7-7v-5l-4.7-3l-4-2.7
			l-7.3-5.3l-4-2.8h-5l-3.3-7.2V233h3.3l6.7-4.3l5-2.3l2-17l-4.7-2l-2.3-3.3l-1.3-5.3l-3.7-4.5l-5-5.2H77l-3-3.3l2-7.7l0.7-3.3
			l-4.3-2l-4.3-3.3V164v-4.3l-3.7-3.1l2.3-3.2H74l4.3-2.5h3.3h5h3.2l3.8,4l2.3,4.8c0,0,2-1.3,3.3,0c1.3,1.3,5.7,5.6,5.7,5.6l2.7,4
			l7.7-0.3l5-1.7l7,3c0,0,3.3,1.3,4.3,1.3s9.7-0.7,9.7-0.7l6,0.7l0.4,2l-2,3v5.3h4.5l-2.8,12.2l2.5,5.6v11l2.8,3l8.8-3.8h7.8
			l4.5-4.8h16.5l1.5,1.5l5,2v10.8l2.3,1.3l4.3,1.8v1.8l2.8,3.3v3.8l1.8,2.3l2.3,1.3l-0.3,1.2v2.3l-3.8,4.5v10.9h-5.3l-1.5,0.8
			l0.7,3.3l0.5,2l-1.5,3.7l-3.3,2.2l-2,1.5l-5.2,1.7l-1.7,2.5l1.9,1.7l2.7,3.1v1.7l-1.1,0.8l-1.6,0.4l-2.9,2.5l-2.9,1.7l-4,2.5
			l-4.1,3.1l-2.3,3.5l-1.6,2.3L169,296l-1.7-0.8l-3.3-0.8h-2.6l-1.3,2l-3.7,2l-2.8-0.2l-1.3-1l1-5.2l-0.8-1.7l-3.5-1.5l-1.3-1.7
			l1.3-3.2l1.7-3.5l-0.4-1l-1.2-0.8l-1-0.3l-1.2-0.2l-2.3,0.8l-5.3,1.8l-2.7-0.2l-0.2-2.2l-1.6,0.1l-2.6,0.5l-1.3-0.3l-2-1.2
			l-0.8-1.2l-2.8-3l-2.6-3.8h-2.3L115.3,271.3z"/>
		<path fill="#17A15B" stroke="#10914F" stroke-width="1.2" stroke-miterlimit="10" d="M125.3,126.7h-3.6h-4.3l-2,2.3l-3.7-2.3
			l-1.7-2.3h-3.7c0,0-4.7,0.3-5.7,0c-1-0.3-7-1-7-1l-3.3-4c0,0,0-4.7,0-5.7s0-4.3,0-6c0-1.7,0-3.7,0-3.7h-6l-2.3,4.7v2.7l-2.3,0.7
			l-5,2.3L69,113h-4.7l-6,0.7L54,115l-3.7-4.7l-5.7-4.6l-4.3-1.8h-14h-9.7l-6,1.8L9,116.5L4,129h7h8l4,8l8.3,16.5l7.7,10.2l2.7,3.3
			l4.3,7.3l7.3,9.3l3.7,7h1.7l1.3,7.7c0,0,4.7,3,4.3,4c-0.3,1,2.3,2,3.3,3.7s4.7,7.8,4.7,7.8l3,6.6v6c0,0-2.7,1.3-1.3,2.7
			s5,3.3,5,3.3l2.3,2.5V233h3.3l6.7-4.3l5-2.3l2-17l-4.7-2l-2.3-3.3l-1.3-5.3l-8.7-9.7H77l-3-3.3l2.7-11l-4.3-2l-4.3-3.3v-9.6
			l-3.7-3.1l2.3-3.2H74l4.3-2.5h11.5l3.8,4l2.3,4.8h3.3l5.7,5.6l2.7,4l7.7-0.3l5-1.7l10.6,4.2l10.4-0.6l6,0.7v-0.9l2.4-3.7l1.8-2.9
			l3.8-4.5l1-2.8l-4.1-3.9l-3.3-2.1l-0.6-2.8l-0.2-2.4l-0.3-3.8l-2-5l-4.8-3l-5-4.5l-7-1.4l-3.7-0.1V126.7z"/>
		<polygon fill="#17A15B" stroke="#10914F" stroke-width="1.2" stroke-miterlimit="10" points="10.7,105.8 13.5,90.8 43.8,95.8 
			54.5,87.3 62.3,75.3 83.3,72.5 87.3,61.5 96,56.3 69.8,27.3 96,18 93.7,25 93.7,32 100,42.3 107.3,45.7 123.9,43.2 133.7,43 
			141.3,45 147.7,45 156,50 176.3,50 183,54.3 192.3,55.3 196.7,63 204.6,68.3 173,88.7 170,93.7 170.7,101.3 166.7,107 164,107 
			157.8,109 151.3,112 144,117 137.5,118.5 125.3,125.3 125.3,126.7 117.3,126.7 115.3,129 111.7,126.7 110,124.3 100.7,124.3 
			93.7,123.3 90.3,119.3 90.3,104 84.3,104 82,108.7 82,111.3 75.7,113.9 69,113 63,113.1 58.3,113.7 54.8,114.8 48.5,108.8 
			44.7,105.8 40.3,104 16.7,104 		"/>
	</g>
	<g>
		<g display="none">
			<path display="inline" fill="#FFFFFF" d="M436.4,316c-0.1,0-0.3,0-0.5,0s-0.3-0.1-0.5-0.1s-0.3-0.1-0.5-0.2s-0.3-0.2-0.4-0.4
				s-0.2-0.3-0.3-0.6s-0.1-0.5-0.1-0.7c0-0.4,0.1-0.8,0.2-1.1s0.3-0.5,0.6-0.7s0.5-0.3,0.8-0.4s0.6-0.1,0.9-0.1h1.9v3.4
				c0,0.2,0,0.3,0,0.4s0.1,0.2,0.1,0.3s0.1,0.1,0.3,0.2s0.3,0,0.4,0h0.2c0.2,0,0.3,0,0.4,0.1s0.1,0.2,0.1,0.4c0,0.2,0,0.3-0.1,0.4
				s-0.2,0.1-0.4,0.1h-0.4c-0.2,0-0.4,0-0.6-0.1s-0.4-0.1-0.5-0.2s-0.3-0.2-0.4-0.4s-0.2-0.4-0.2-0.6c-0.2,0.1-0.4,0.1-0.6,0.2
				S436.6,316,436.4,316z M435.2,313.9c0,0.2,0,0.3,0.1,0.5s0.1,0.3,0.2,0.4s0.2,0.2,0.4,0.2s0.4,0.1,0.6,0.1c0.1,0,0.2,0,0.3,0
				s0.2,0,0.3,0s0.2,0,0.3-0.1s0.2-0.1,0.3-0.1v-2.1h-1.1c-0.2,0-0.4,0-0.5,0.1s-0.3,0.1-0.4,0.2s-0.2,0.2-0.3,0.4
				S435.2,313.7,435.2,313.9z M435.4,309.4c0-0.1,0-0.2,0-0.2s0.1-0.1,0.1-0.2s0.1-0.1,0.2-0.1s0.2,0,0.2,0c0.1,0,0.2,0,0.2,0
				s0.1,0.1,0.2,0.1s0.1,0.1,0.1,0.2s0,0.2,0,0.2c0,0.1,0,0.2,0,0.2s-0.1,0.1-0.1,0.2s-0.1,0.1-0.2,0.1s-0.2,0-0.2,0
				c-0.1,0-0.2,0-0.2,0s-0.1-0.1-0.2-0.1s-0.1-0.1-0.1-0.2S435.4,309.5,435.4,309.4z M437,309.4c0-0.1,0-0.2,0-0.2s0.1-0.1,0.1-0.2
				s0.1-0.1,0.2-0.1s0.2,0,0.2,0c0.1,0,0.2,0,0.2,0s0.1,0.1,0.2,0.1s0.1,0.1,0.1,0.2s0,0.2,0,0.2c0,0.1,0,0.2,0,0.2
				s-0.1,0.1-0.1,0.2s-0.1,0.1-0.2,0.1s-0.2,0-0.2,0c-0.1,0-0.2,0-0.2,0s-0.1-0.1-0.2-0.1s-0.1-0.1-0.1-0.2S437,309.5,437,309.4z"/>
			<path display="inline" fill="#FFFFFF" d="M439.7,317c-0.2,0-0.3,0-0.4-0.1s-0.1-0.2-0.1-0.4c0-0.2,0-0.3,0.1-0.4s0.2-0.1,0.4-0.1
				h0.9c0.1,0,0.3,0,0.4,0s0.2-0.1,0.3-0.1s0.1-0.1,0.2-0.3s0.1-0.3,0.1-0.5v-2.7h1v2.3c0,0.2,0,0.4,0,0.5s0.1,0.3,0.2,0.4
				s0.2,0.2,0.3,0.3s0.3,0.1,0.5,0.1c0.2,0,0.3,0,0.4,0.1s0.1,0.2,0.1,0.4c0,0.2,0,0.3-0.1,0.4s-0.2,0.1-0.4,0.1c-0.1,0-0.3,0-0.4,0
				s-0.2-0.1-0.4-0.1s-0.2-0.1-0.3-0.2s-0.1-0.2-0.2-0.3c-0.1,0.1-0.2,0.3-0.3,0.3s-0.3,0.2-0.4,0.2s-0.3,0.1-0.4,0.1s-0.3,0-0.4,0
				H439.7z M440.6,319c0-0.1,0-0.2,0-0.2s0.1-0.1,0.1-0.2s0.1-0.1,0.2-0.1s0.2,0,0.2,0c0.1,0,0.2,0,0.2,0s0.1,0.1,0.2,0.1
				s0.1,0.1,0.1,0.2s0,0.2,0,0.2c0,0.1,0,0.2,0,0.2s-0.1,0.1-0.1,0.2s-0.1,0.1-0.2,0.1s-0.2,0-0.2,0c-0.1,0-0.2,0-0.2,0
				s-0.1-0.1-0.2-0.1s-0.1-0.1-0.1-0.2S440.6,319,440.6,319z M442.2,319c0-0.1,0-0.2,0-0.2s0.1-0.1,0.1-0.2s0.1-0.1,0.2-0.1
				s0.2,0,0.2,0c0.1,0,0.2,0,0.2,0s0.1,0.1,0.2,0.1s0.1,0.1,0.1,0.2s0,0.2,0,0.2c0,0.1,0,0.2,0,0.2s-0.1,0.1-0.1,0.2
				s-0.1,0.1-0.2,0.1s-0.2,0-0.2,0c-0.1,0-0.2,0-0.2,0s-0.1-0.1-0.2-0.1s-0.1-0.1-0.1-0.2S442.2,319,442.2,319z"/>
			<path display="inline" fill="#FFFFFF" d="M445.1,316c-0.1-0.2-0.2-0.4-0.2-0.6s-0.1-0.5-0.1-0.8c0-0.4,0.1-0.7,0.2-1
				s0.3-0.6,0.5-0.8s0.5-0.4,0.8-0.5s0.6-0.2,1-0.2c0.5,0,0.8,0.1,1.1,0.2s0.5,0.4,0.7,0.6s0.3,0.5,0.3,0.8s0.1,0.6,0.1,0.9v2.2
				h-5.8c-0.2,0-0.3,0-0.4-0.1s-0.1-0.2-0.1-0.4c0-0.2,0-0.3,0.1-0.4s0.2-0.1,0.4-0.1H445.1z M445.7,310.4c0-0.1,0-0.2,0-0.2
				s0.1-0.1,0.1-0.2s0.1-0.1,0.2-0.1s0.2,0,0.2,0c0.1,0,0.2,0,0.2,0s0.1,0.1,0.2,0.1s0.1,0.1,0.1,0.2s0,0.2,0,0.2c0,0.1,0,0.2,0,0.2
				s-0.1,0.1-0.1,0.2s-0.1,0.1-0.2,0.1s-0.2,0-0.2,0c-0.1,0-0.2,0-0.2,0s-0.1-0.1-0.2-0.1s-0.1-0.1-0.1-0.2S445.7,310.5,445.7,310.4
				z M445.8,314.6c0,0.2,0,0.5,0.1,0.6s0.2,0.3,0.3,0.4s0.3,0.2,0.5,0.3s0.4,0.1,0.6,0.1h1.1v-1.2c0-0.2,0-0.4,0-0.6
				s-0.1-0.4-0.2-0.5s-0.2-0.3-0.4-0.4s-0.4-0.1-0.7-0.1c-0.2,0-0.4,0-0.5,0.1s-0.3,0.2-0.4,0.3s-0.2,0.3-0.3,0.5
				S445.8,314.4,445.8,314.6z M447.2,310.4c0-0.1,0-0.2,0-0.2s0.1-0.1,0.1-0.2s0.1-0.1,0.2-0.1s0.2,0,0.2,0c0.1,0,0.2,0,0.2,0
				s0.1,0.1,0.2,0.1s0.1,0.1,0.1,0.2s0,0.2,0,0.2c0,0.1,0,0.2,0,0.2s-0.1,0.1-0.1,0.2s-0.1,0.1-0.2,0.1s-0.2,0-0.2,0
				c-0.1,0-0.2,0-0.2,0s-0.1-0.1-0.2-0.1s-0.1-0.1-0.1-0.2S447.2,310.5,447.2,310.4z"/>
			<path display="inline" fill="#FFFFFF" d="M454.1,317c-0.1,0-0.2,0-0.3,0s-0.2-0.1-0.3-0.1s-0.2-0.1-0.3-0.2s-0.1-0.1-0.2-0.2
				c0,0.6,0,1-0.1,1.4s-0.2,0.7-0.4,1s-0.4,0.4-0.7,0.6s-0.7,0.2-1.1,0.2h-0.4v-1h0.4c0.3,0,0.5,0,0.7-0.1s0.3-0.2,0.4-0.4
				s0.1-0.4,0.1-0.7s0-0.6,0-1v-3.9h1v2.3c0,0.2,0,0.4,0.1,0.5s0.1,0.3,0.2,0.4s0.2,0.2,0.3,0.3s0.3,0.1,0.5,0.1
				c0.2,0,0.3,0,0.4,0.1s0.1,0.2,0.1,0.4c0,0.2,0,0.3-0.1,0.4S454.2,317,454.1,317z"/>
			<path display="inline" fill="#FFFFFF" d="M458.2,317c-0.3,0-0.5,0-0.7-0.1s-0.4-0.1-0.5-0.2s-0.2-0.1-0.3-0.2s-0.2-0.2-0.2-0.3
				c-0.1,0.2-0.2,0.3-0.3,0.4s-0.2,0.2-0.4,0.2s-0.4,0.1-0.6,0.1s-0.5,0-0.9,0h-0.2c-0.2,0-0.3,0-0.4-0.1s-0.1-0.2-0.1-0.4
				c0-0.2,0-0.3,0.1-0.4s0.2-0.1,0.4-0.1h0.2c0.3,0,0.5,0,0.7,0s0.3-0.1,0.4-0.1s0.2-0.1,0.2-0.3s0.1-0.3,0.1-0.5V313h1v1.7
				c0,0.2,0,0.4,0,0.5s0.1,0.3,0.2,0.4s0.2,0.2,0.4,0.3s0.4,0.1,0.7,0.1c0.2,0,0.3,0,0.4,0s0.2-0.1,0.3-0.1s0.1-0.1,0.2-0.3
				s0.1-0.3,0.1-0.5V313h1v1.7c0,0.2,0,0.4,0,0.5s0.1,0.3,0.2,0.4s0.2,0.2,0.3,0.3s0.3,0.1,0.5,0.1c0.1,0,0.3,0,0.4,0
				s0.2-0.1,0.3-0.1s0.1-0.1,0.2-0.3s0.1-0.3,0.1-0.5v-2.7h1v2.3c0,0.2,0,0.4,0,0.5s0.1,0.3,0.2,0.4s0.2,0.2,0.3,0.3
				s0.3,0.1,0.5,0.1c0.2,0,0.3,0,0.4,0.1s0.1,0.2,0.1,0.4c0,0.2,0,0.3-0.1,0.4s-0.2,0.1-0.4,0.1c-0.1,0-0.3,0-0.4,0
				s-0.2-0.1-0.4-0.1s-0.2-0.1-0.3-0.2s-0.1-0.2-0.2-0.3c-0.1,0.1-0.2,0.3-0.3,0.3s-0.3,0.2-0.4,0.2s-0.3,0.1-0.4,0.1s-0.3,0-0.4,0
				c-0.2,0-0.4,0-0.6-0.1s-0.3-0.1-0.4-0.1s-0.2-0.1-0.3-0.2s-0.1-0.2-0.2-0.3c-0.1,0.2-0.2,0.3-0.3,0.4s-0.2,0.2-0.4,0.2
				s-0.3,0.1-0.4,0.1S458.3,317,458.2,317z M458,310.4c0-0.1,0-0.2,0-0.2s0.1-0.1,0.1-0.2s0.1-0.1,0.2-0.1s0.2,0,0.2,0
				c0.1,0,0.2,0,0.2,0s0.1,0.1,0.2,0.1s0.1,0.1,0.1,0.2s0,0.2,0,0.2c0,0.1,0,0.2,0,0.2s-0.1,0.1-0.1,0.2s-0.1,0.1-0.2,0.1
				s-0.2,0-0.2,0c-0.1,0-0.2,0-0.2,0s-0.1-0.1-0.2-0.1s-0.1-0.1-0.1-0.2S458,310.5,458,310.4z M458.8,308.9c0-0.1,0-0.2,0-0.2
				s0.1-0.1,0.1-0.2s0.1-0.1,0.2-0.1s0.2,0,0.2,0c0.1,0,0.2,0,0.2,0s0.1,0.1,0.2,0.1s0.1,0.1,0.1,0.2s0,0.2,0,0.2s0,0.2,0,0.2
				s-0.1,0.1-0.1,0.2s-0.1,0.1-0.2,0.1s-0.2,0-0.2,0c-0.1,0-0.2,0-0.2,0s-0.1-0.1-0.2-0.1s-0.1-0.1-0.1-0.2S458.8,309,458.8,308.9z
				 M459.5,310.4c0-0.1,0-0.2,0-0.2s0.1-0.1,0.1-0.2s0.1-0.1,0.2-0.1s0.2,0,0.2,0c0.1,0,0.2,0,0.2,0s0.1,0.1,0.2,0.1
				s0.1,0.1,0.1,0.2s0,0.2,0,0.2c0,0.1,0,0.2,0,0.2s-0.1,0.1-0.1,0.2s-0.1,0.1-0.2,0.1s-0.2,0-0.2,0c-0.1,0-0.2,0-0.2,0
				s-0.1-0.1-0.2-0.1s-0.1-0.1-0.1-0.2S459.5,310.5,459.5,310.4z"/>
			<path display="inline" fill="#FFFFFF" d="M464,317c-0.2,0-0.3,0-0.4-0.1s-0.1-0.2-0.1-0.4c0-0.2,0-0.3,0.1-0.4s0.2-0.1,0.4-0.1
				h1.5v-7.4h1v8.4H464z"/>
			<path display="inline" fill="#FFFFFF" d="M469.2,308.6v8.4h-1v-8.4H469.2z"/>
		</g>
	</g>
	<g>
		<g>
			<g display="none">
				<path display="inline" fill="#FFFFFF" d="M298.2,281c-0.3,0-0.5,0-0.6,0s-0.3-0.1-0.4-0.1s-0.2-0.1-0.3-0.2s-0.1-0.1-0.2-0.2
					v0.1c0,0.5-0.1,1-0.2,1.4s-0.4,0.7-0.6,0.9s-0.6,0.4-1,0.5s-0.9,0.2-1.4,0.2c-1.1,0-1.9-0.2-2.5-0.7s-0.8-1.2-0.8-2.2v-1.6h1
					v1.4c0,0.4,0,0.7,0.1,1s0.2,0.5,0.4,0.6s0.4,0.3,0.7,0.4s0.6,0.1,1,0.1c0.4,0,0.7,0,1-0.1s0.5-0.2,0.7-0.3s0.3-0.4,0.4-0.6
					s0.1-0.6,0.1-1V277h1v1.7c0,0.2,0,0.4,0,0.5s0.1,0.3,0.2,0.4s0.2,0.2,0.4,0.3s0.4,0.1,0.6,0.1h0.2c0.1-0.3,0.2-0.6,0.4-0.9
					s0.3-0.6,0.5-0.9s0.4-0.5,0.7-0.8s0.5-0.5,0.8-0.6s0.6-0.3,0.9-0.4s0.7-0.2,1.1-0.2c0.4,0,0.8,0.1,1.1,0.2s0.6,0.3,0.8,0.5
					s0.4,0.5,0.5,0.9s0.2,0.7,0.2,1.2v2H298.2z M304,280v-0.9c0-0.3,0-0.6-0.1-0.8s-0.2-0.4-0.3-0.6s-0.3-0.3-0.5-0.4
					s-0.5-0.1-0.8-0.1c-0.3,0-0.5,0-0.7,0.1s-0.5,0.2-0.7,0.3s-0.4,0.3-0.6,0.5s-0.4,0.4-0.5,0.6s-0.3,0.4-0.4,0.6s-0.2,0.4-0.3,0.7
					H304z M301.7,274.4c0-0.1,0-0.2,0-0.2s0.1-0.1,0.1-0.2s0.1-0.1,0.2-0.1s0.2,0,0.2,0c0.1,0,0.2,0,0.2,0s0.1,0.1,0.2,0.1
					s0.1,0.1,0.1,0.2s0,0.2,0,0.2c0,0.1,0,0.2,0,0.2s-0.1,0.1-0.1,0.2s-0.1,0.1-0.2,0.1s-0.2,0-0.2,0c-0.1,0-0.2,0-0.2,0
					s-0.1-0.1-0.2-0.1s-0.1-0.1-0.1-0.2S301.7,274.5,301.7,274.4z"/>
				<path display="inline" fill="#FFFFFF" d="M308.9,280.5c0,0.2,0,0.3-0.1,0.4s-0.2,0.1-0.4,0.1h-0.2c-0.3,0-0.5,0-0.7-0.1
					s-0.4-0.1-0.5-0.3s-0.3-0.3-0.4-0.5s-0.1-0.5-0.1-0.8v-6.7h1v6.5c0,0.2,0,0.3,0,0.4s0.1,0.2,0.1,0.3s0.1,0.1,0.3,0.2
					s0.3,0,0.4,0h0c0.2,0,0.3,0,0.4,0.1S308.9,280.3,308.9,280.5z"/>
				<path display="inline" fill="#FFFFFF" d="M308.4,281c-0.2,0-0.3,0-0.4-0.1s-0.1-0.2-0.1-0.4c0-0.2,0-0.3,0.1-0.4
					s0.2-0.1,0.4-0.1h1.8v-3.6h1v4.6H308.4z M308.9,283c0-0.1,0-0.2,0-0.2s0.1-0.1,0.1-0.2s0.1-0.1,0.2-0.1s0.2,0,0.2,0
					c0.1,0,0.2,0,0.2,0s0.1,0.1,0.2,0.1s0.1,0.1,0.1,0.2s0,0.2,0,0.2c0,0.1,0,0.2,0,0.2s-0.1,0.1-0.1,0.2s-0.1,0.1-0.2,0.1
					s-0.2,0-0.2,0c-0.1,0-0.2,0-0.2,0s-0.1-0.1-0.2-0.1s-0.1-0.1-0.1-0.2S308.9,283,308.9,283z M310.5,283c0-0.1,0-0.2,0-0.2
					s0.1-0.1,0.1-0.2s0.1-0.1,0.2-0.1s0.2,0,0.2,0c0.1,0,0.2,0,0.2,0s0.1,0.1,0.2,0.1s0.1,0.1,0.1,0.2s0,0.2,0,0.2
					c0,0.1,0,0.2,0,0.2s-0.1,0.1-0.1,0.2s-0.1,0.1-0.2,0.1s-0.2,0-0.2,0c-0.1,0-0.2,0-0.2,0s-0.1-0.1-0.2-0.1s-0.1-0.1-0.1-0.2
					S310.5,283,310.5,283z"/>
				<path display="inline" fill="#FFFFFF" d="M316,281c-0.1,0-0.2,0-0.3,0s-0.2-0.1-0.3-0.1s-0.2-0.1-0.3-0.2s-0.1-0.1-0.2-0.2
					c0,0.6,0,1-0.1,1.4s-0.2,0.7-0.4,1s-0.4,0.4-0.7,0.6s-0.7,0.2-1.1,0.2h-0.4v-1h0.4c0.3,0,0.5,0,0.7-0.1s0.3-0.2,0.4-0.4
					s0.1-0.4,0.1-0.7s0-0.6,0-1v-3.9h1v2.3c0,0.2,0,0.4,0.1,0.5s0.1,0.3,0.2,0.4s0.2,0.2,0.3,0.3s0.3,0.1,0.5,0.1
					c0.2,0,0.3,0,0.4,0.1s0.1,0.2,0.1,0.4c0,0.2,0,0.3-0.1,0.4S316.2,281,316,281z"/>
				<path display="inline" fill="#FFFFFF" d="M316,281c-0.2,0-0.3,0-0.4-0.1s-0.1-0.2-0.1-0.4c0-0.2,0-0.3,0.1-0.4s0.2-0.1,0.4-0.1
					h1.5v-7.4h1v8.4H316z"/>
				<path display="inline" fill="#FFFFFF" d="M321.2,272.6v8.4h-1v-8.4H321.2z"/>
			</g>
		</g>
	</g>
	<g>
		<g display="none">
			<path display="inline" fill="#FFFFFF" d="M297.8,422.7h1v1.6c0,0.4,0,0.7,0.1,1s0.2,0.5,0.4,0.6s0.4,0.3,0.7,0.4s0.6,0.1,1,0.1
				c0.4,0,0.7,0,1-0.1s0.5-0.2,0.7-0.3s0.3-0.4,0.4-0.6s0.1-0.6,0.1-1v-3.1h1v3.1c0,0.6-0.1,1-0.2,1.4s-0.4,0.7-0.6,0.9
				s-0.6,0.4-1,0.5s-0.9,0.2-1.4,0.2c-1.1,0-1.9-0.2-2.5-0.7s-0.8-1.2-0.8-2.1V422.7z M300.5,420.9c0-0.1,0-0.2,0-0.2
				s0.1-0.1,0.1-0.2s0.1-0.1,0.2-0.1s0.2,0,0.2,0c0.1,0,0.2,0,0.2,0s0.1,0.1,0.2,0.1s0.1,0.1,0.1,0.2s0,0.2,0,0.2c0,0.1,0,0.2,0,0.2
				s-0.1,0.1-0.1,0.2s-0.1,0.1-0.2,0.1s-0.2,0-0.2,0c-0.1,0-0.2,0-0.2,0s-0.1-0.1-0.2-0.1s-0.1-0.1-0.1-0.2S300.5,421,300.5,420.9z"
				/>
			<path display="inline" fill="#FFFFFF" d="M307.1,417.6v8.4h-1v-8.4H307.1z"/>
			<path display="inline" fill="#FFFFFF" d="M311.8,426c-0.1,0-0.2,0-0.3,0s-0.2-0.1-0.3-0.1s-0.2-0.1-0.3-0.2s-0.1-0.1-0.2-0.2
				c0,0.6,0,1-0.1,1.4s-0.2,0.7-0.4,1s-0.4,0.4-0.7,0.6s-0.7,0.2-1.1,0.2h-0.4v-1h0.4c0.3,0,0.5,0,0.7-0.1s0.3-0.2,0.4-0.4
				s0.1-0.4,0.1-0.7s0-0.6,0-1v-3.9h1v2.3c0,0.2,0,0.4,0.1,0.5s0.1,0.3,0.2,0.4s0.2,0.2,0.3,0.3s0.3,0.1,0.5,0.1
				c0.2,0,0.3,0,0.4,0.1s0.1,0.2,0.1,0.4c0,0.2,0,0.3-0.1,0.4S312,426,311.8,426z"/>
			<path display="inline" fill="#FFFFFF" d="M311.8,426c-0.2,0-0.3,0-0.4-0.1s-0.1-0.2-0.1-0.4c0-0.2,0-0.3,0.1-0.4s0.2-0.1,0.4-0.1
				h4.8c0-0.5-0.1-0.9-0.2-1.3s-0.3-0.6-0.5-0.9s-0.5-0.4-0.8-0.5s-0.6-0.1-1-0.1c-0.1,0-0.2,0-0.4,0s-0.3,0-0.4,0s-0.2,0-0.3,0.1
				s-0.2,0-0.3,0.1v-1c0.2-0.1,0.4-0.1,0.6-0.2s0.6-0.1,0.9-0.1c0.6,0,1.1,0.1,1.5,0.3s0.8,0.5,1.1,0.8s0.5,0.7,0.6,1.2
				s0.2,0.9,0.2,1.5h0.7c0.2,0,0.3,0,0.4,0.1s0.1,0.2,0.1,0.4c0,0.2,0,0.3-0.1,0.4s-0.2,0.1-0.4,0.1H311.8z M313.7,427.9
				c0-0.1,0-0.2,0-0.2s0.1-0.1,0.1-0.2s0.1-0.1,0.2-0.1s0.2,0,0.2,0c0.1,0,0.2,0,0.2,0s0.1,0.1,0.2,0.1s0.1,0.1,0.1,0.2s0,0.2,0,0.2
				c0,0.1,0,0.2,0,0.2s-0.1,0.1-0.1,0.2s-0.1,0.1-0.2,0.1s-0.2,0-0.2,0c-0.1,0-0.2,0-0.2,0s-0.1-0.1-0.2-0.1s-0.1-0.1-0.1-0.2
				S313.7,428,313.7,427.9z"/>
			<path display="inline" fill="#FFFFFF" d="M318.3,426c-0.2,0-0.3,0-0.4-0.1s-0.1-0.2-0.1-0.4c0-0.2,0-0.3,0.1-0.4s0.2-0.1,0.4-0.1
				h1.8v-3.6h1v4.6H318.3z M320,419.4c0-0.1,0-0.2,0-0.2s0.1-0.1,0.1-0.2s0.1-0.1,0.2-0.1s0.2,0,0.2,0c0.1,0,0.2,0,0.2,0
				s0.1,0.1,0.2,0.1s0.1,0.1,0.1,0.2s0,0.2,0,0.2c0,0.1,0,0.2,0,0.2s-0.1,0.1-0.1,0.2s-0.1,0.1-0.2,0.1s-0.2,0-0.2,0
				c-0.1,0-0.2,0-0.2,0s-0.1-0.1-0.2-0.1s-0.1-0.1-0.1-0.2S320,419.5,320,419.4z"/>
		</g>
	</g>
	<g>
		<g display="none">
			<path display="inline" fill="#FFFFFF" d="M226.3,399c-0.1,0-0.2,0-0.3,0s-0.2-0.1-0.3-0.1s-0.2-0.1-0.3-0.2s-0.1-0.1-0.2-0.2
				c0,0.6,0,1-0.1,1.4s-0.2,0.7-0.4,1s-0.4,0.4-0.7,0.6s-0.7,0.2-1.1,0.2h-0.4v-1h0.4c0.3,0,0.5,0,0.7-0.1s0.3-0.2,0.4-0.4
				s0.1-0.4,0.1-0.7s0-0.6,0-1v-3.9h1v2.3c0,0.2,0,0.4,0.1,0.5s0.1,0.3,0.2,0.4s0.2,0.2,0.3,0.3s0.3,0.1,0.5,0.1
				c0.2,0,0.3,0,0.4,0.1s0.1,0.2,0.1,0.4c0,0.2,0,0.3-0.1,0.4S226.5,399,226.3,399z"/>
			<path display="inline" fill="#FFFFFF" d="M226.3,399c-0.2,0-0.3,0-0.4-0.1s-0.1-0.2-0.1-0.4c0-0.2,0-0.3,0.1-0.4s0.2-0.1,0.4-0.1
				h0.9c0.1,0,0.3,0,0.4,0s0.2-0.1,0.3-0.1s0.1-0.1,0.2-0.3s0.1-0.3,0.1-0.5v-2.7h1v2.3c0,0.2,0,0.4,0,0.5s0.1,0.3,0.2,0.4
				s0.2,0.2,0.3,0.3s0.3,0.1,0.5,0.1c0.2,0,0.3,0,0.4,0.1s0.1,0.2,0.1,0.4c0,0.2,0,0.3-0.1,0.4s-0.2,0.1-0.4,0.1c-0.1,0-0.3,0-0.4,0
				s-0.2-0.1-0.4-0.1s-0.2-0.1-0.3-0.2s-0.1-0.2-0.2-0.3c-0.1,0.1-0.2,0.3-0.3,0.3s-0.3,0.2-0.4,0.2s-0.3,0.1-0.4,0.1s-0.3,0-0.4,0
				H226.3z M227.3,401c0-0.1,0-0.2,0-0.2s0.1-0.1,0.1-0.2s0.1-0.1,0.2-0.1s0.2,0,0.2,0c0.1,0,0.2,0,0.2,0s0.1,0.1,0.2,0.1
				s0.1,0.1,0.1,0.2s0,0.2,0,0.2c0,0.1,0,0.2,0,0.2s-0.1,0.1-0.1,0.2s-0.1,0.1-0.2,0.1s-0.2,0-0.2,0c-0.1,0-0.2,0-0.2,0
				s-0.1-0.1-0.2-0.1s-0.1-0.1-0.1-0.2S227.3,401,227.3,401z M228.8,401c0-0.1,0-0.2,0-0.2s0.1-0.1,0.1-0.2s0.1-0.1,0.2-0.1
				s0.2,0,0.2,0c0.1,0,0.2,0,0.2,0s0.1,0.1,0.2,0.1s0.1,0.1,0.1,0.2s0,0.2,0,0.2c0,0.1,0,0.2,0,0.2s-0.1,0.1-0.1,0.2
				s-0.1,0.1-0.2,0.1s-0.2,0-0.2,0c-0.1,0-0.2,0-0.2,0s-0.1-0.1-0.2-0.1s-0.1-0.1-0.1-0.2S228.8,401,228.8,401z"/>
			<path display="inline" fill="#FFFFFF" d="M234.4,399c-0.3,0-0.5,0-0.7-0.1s-0.4-0.1-0.5-0.2s-0.2-0.1-0.3-0.2s-0.2-0.2-0.2-0.3
				c-0.1,0.2-0.2,0.3-0.3,0.4s-0.2,0.2-0.4,0.2s-0.4,0.1-0.6,0.1s-0.5,0-0.9,0h-0.2c-0.2,0-0.3,0-0.4-0.1s-0.1-0.2-0.1-0.4
				c0-0.2,0-0.3,0.1-0.4s0.2-0.1,0.4-0.1h0.2c0.3,0,0.5,0,0.7,0s0.3-0.1,0.4-0.1s0.2-0.1,0.2-0.3s0.1-0.3,0.1-0.5V395h1v1.7
				c0,0.2,0,0.4,0,0.5s0.1,0.3,0.2,0.4s0.2,0.2,0.4,0.3s0.4,0.1,0.7,0.1c0.2,0,0.3,0,0.4,0s0.2-0.1,0.3-0.1s0.1-0.1,0.2-0.3
				s0.1-0.3,0.1-0.5V395h1v1.7c0,0.2,0,0.4,0,0.5s0.1,0.3,0.2,0.4s0.2,0.2,0.3,0.3s0.3,0.1,0.5,0.1c0.1,0,0.3,0,0.4,0
				s0.2-0.1,0.3-0.1s0.1-0.1,0.2-0.3s0.1-0.3,0.1-0.5v-2.7h1v2.3c0,0.2,0,0.4,0,0.5s0.1,0.3,0.2,0.4s0.2,0.2,0.3,0.3
				s0.3,0.1,0.5,0.1c0.2,0,0.3,0,0.4,0.1s0.1,0.2,0.1,0.4c0,0.2,0,0.3-0.1,0.4s-0.2,0.1-0.4,0.1c-0.1,0-0.3,0-0.4,0
				s-0.2-0.1-0.4-0.1s-0.2-0.1-0.3-0.2s-0.1-0.2-0.2-0.3c-0.1,0.1-0.2,0.3-0.3,0.3s-0.3,0.2-0.4,0.2s-0.3,0.1-0.4,0.1s-0.3,0-0.4,0
				c-0.2,0-0.4,0-0.6-0.1s-0.3-0.1-0.4-0.1s-0.2-0.1-0.3-0.2s-0.1-0.2-0.2-0.3c-0.1,0.2-0.2,0.3-0.3,0.4s-0.2,0.2-0.4,0.2
				s-0.3,0.1-0.4,0.1S234.5,399,234.4,399z"/>
			<path display="inline" fill="#FFFFFF" d="M240.3,399c-0.2,0-0.3,0-0.4-0.1s-0.1-0.2-0.1-0.4c0-0.2,0-0.3,0.1-0.4s0.2-0.1,0.4-0.1
				h1.5c-0.1-0.1-0.3-0.3-0.4-0.6s-0.1-0.5-0.1-0.8c0-0.4,0.1-0.8,0.2-1.1s0.4-0.5,0.6-0.7s0.5-0.3,0.8-0.4s0.6-0.1,0.9-0.1
				c0.3,0,0.5,0,0.7,0s0.4,0.1,0.4,0.1v1.1c-0.1-0.1-0.3-0.1-0.5-0.1s-0.4-0.1-0.7-0.1c-0.3,0-0.5,0-0.7,0.1s-0.4,0.1-0.5,0.3
				s-0.2,0.3-0.3,0.4s-0.1,0.4-0.1,0.6c0,0.2,0,0.4,0.1,0.6s0.2,0.3,0.3,0.4s0.3,0.2,0.5,0.3s0.4,0.1,0.7,0.1h1.7v1H240.3z"/>
		</g>
	</g>
	<g>
		<g display="none">
			<path display="inline" fill="#FFFFFF" d="M186.7,320c-0.1,0-0.3,0-0.5,0s-0.3-0.1-0.5-0.1s-0.3-0.1-0.5-0.2s-0.3-0.2-0.4-0.4
				s-0.2-0.3-0.3-0.6s-0.1-0.5-0.1-0.7c0-0.4,0.1-0.8,0.2-1.1s0.3-0.5,0.6-0.7s0.5-0.3,0.8-0.4s0.6-0.1,0.9-0.1h1.9v3.4
				c0,0.2,0,0.3,0,0.4s0.1,0.2,0.1,0.3s0.1,0.1,0.3,0.2s0.3,0,0.4,0h0.2c0.2,0,0.3,0,0.4,0.1s0.1,0.2,0.1,0.4c0,0.2,0,0.3-0.1,0.4
				s-0.2,0.1-0.4,0.1h-0.4c-0.2,0-0.4,0-0.6-0.1s-0.4-0.1-0.5-0.2s-0.3-0.2-0.4-0.4s-0.2-0.4-0.2-0.6c-0.2,0.1-0.4,0.1-0.6,0.2
				S186.9,320,186.7,320z M185.5,317.9c0,0.2,0,0.3,0.1,0.5s0.1,0.3,0.2,0.4s0.2,0.2,0.4,0.2s0.4,0.1,0.6,0.1c0.1,0,0.2,0,0.3,0
				s0.2,0,0.3,0s0.2,0,0.3-0.1s0.2-0.1,0.3-0.1v-2.1h-1.1c-0.2,0-0.4,0-0.5,0.1s-0.3,0.1-0.4,0.2s-0.2,0.2-0.3,0.4
				S185.5,317.7,185.5,317.9z M185.7,313.4c0-0.1,0-0.2,0-0.2s0.1-0.1,0.1-0.2s0.1-0.1,0.2-0.1s0.2,0,0.2,0c0.1,0,0.2,0,0.2,0
				s0.1,0.1,0.2,0.1s0.1,0.1,0.1,0.2s0,0.2,0,0.2c0,0.1,0,0.2,0,0.2s-0.1,0.1-0.1,0.2s-0.1,0.1-0.2,0.1s-0.2,0-0.2,0
				c-0.1,0-0.2,0-0.2,0s-0.1-0.1-0.2-0.1s-0.1-0.1-0.1-0.2S185.7,313.5,185.7,313.4z M187.3,313.4c0-0.1,0-0.2,0-0.2
				s0.1-0.1,0.1-0.2s0.1-0.1,0.2-0.1s0.2,0,0.2,0c0.1,0,0.2,0,0.2,0s0.1,0.1,0.2,0.1s0.1,0.1,0.1,0.2s0,0.2,0,0.2c0,0.1,0,0.2,0,0.2
				s-0.1,0.1-0.1,0.2s-0.1,0.1-0.2,0.1s-0.2,0-0.2,0c-0.1,0-0.2,0-0.2,0s-0.1-0.1-0.2-0.1s-0.1-0.1-0.1-0.2S187.3,313.5,187.3,313.4
				z"/>
			<path display="inline" fill="#FFFFFF" d="M194.8,318.7c0.1,0.2,0.2,0.4,0.2,0.6s0.2,0.3,0.2,0.4s0.2,0.2,0.3,0.2s0.2,0.1,0.4,0.1
				c0.2,0,0.3,0,0.4,0.1s0.1,0.2,0.1,0.4c0,0.2,0,0.3-0.1,0.4s-0.2,0.1-0.4,0.1c-0.3,0-0.6-0.1-0.8-0.2s-0.4-0.4-0.5-0.7
				c-0.1,0.2-0.2,0.3-0.3,0.5s-0.3,0.2-0.4,0.3s-0.3,0.1-0.5,0.1s-0.3,0-0.5,0H190c-0.2,0-0.3,0-0.4-0.1s-0.1-0.2-0.1-0.4
				c0-0.2,0-0.3,0.1-0.4s0.2-0.1,0.4-0.1h2.9c0.4,0,0.6-0.1,0.8-0.2s0.2-0.3,0.2-0.6s-0.1-0.5-0.3-0.7s-0.4-0.5-0.7-0.8
				s-0.6-0.5-1-0.7s-0.8-0.4-1.2-0.6v-1.1l3.9-2.5v1.2l-2.8,1.7c0.4,0.2,0.8,0.4,1.1,0.7s0.6,0.5,0.9,0.8s0.4,0.5,0.6,0.8
				S194.8,318.5,194.8,318.7z"/>
			<path display="inline" fill="#FFFFFF" d="M198,320.3c-0.1,0.2-0.2,0.3-0.3,0.4s-0.2,0.2-0.3,0.2s-0.2,0.1-0.4,0.1s-0.3,0-0.4,0
				H196c-0.2,0-0.3,0-0.4-0.1s-0.1-0.2-0.1-0.4c0-0.2,0-0.3,0.1-0.4s0.2-0.1,0.4-0.1h0.5c0.1,0,0.2,0,0.3,0s0.2-0.1,0.3-0.1
				s0.2-0.2,0.3-0.3s0.2-0.3,0.2-0.6c0.1-0.5,0.3-0.9,0.5-1.2s0.4-0.6,0.6-0.7s0.5-0.3,0.7-0.4s0.5-0.1,0.7-0.1
				c0.3,0,0.6,0.1,0.9,0.2s0.5,0.3,0.7,0.5s0.3,0.4,0.4,0.7s0.2,0.6,0.2,0.9c0,0.4,0,0.7-0.1,1s-0.2,0.5-0.4,0.8s-0.4,0.4-0.7,0.5
				s-0.6,0.2-1,0.2c-0.2,0-0.3,0-0.5,0s-0.3-0.1-0.5-0.1s-0.4-0.2-0.6-0.3S198.2,320.5,198,320.3z M201.3,318.9c0-0.2,0-0.4-0.1-0.6
				s-0.1-0.3-0.2-0.4s-0.2-0.2-0.4-0.3s-0.3-0.1-0.5-0.1s-0.4,0-0.5,0.1s-0.3,0.2-0.5,0.4s-0.3,0.4-0.4,0.6s-0.2,0.6-0.3,0.9
				c0.3,0.2,0.6,0.4,0.8,0.5s0.6,0.2,0.8,0.2c0.4,0,0.7-0.1,0.9-0.3S201.3,319.3,201.3,318.9z"/>
		</g>
	</g>
	<g>
		<g display="none">
			<path display="inline" fill="#09904B" d="M128.7,234.7c-0.1,0-0.3,0-0.5,0s-0.3-0.1-0.5-0.1s-0.3-0.1-0.5-0.2s-0.3-0.2-0.4-0.4
				s-0.2-0.3-0.3-0.6s-0.1-0.5-0.1-0.7c0-0.4,0.1-0.8,0.2-1.1s0.3-0.5,0.6-0.7s0.5-0.3,0.8-0.4s0.6-0.1,0.9-0.1h1.9v3.4
				c0,0.2,0,0.3,0,0.4s0.1,0.2,0.1,0.3s0.1,0.1,0.3,0.2s0.3,0,0.4,0h0.2c0.2,0,0.3,0,0.4,0.1s0.1,0.2,0.1,0.4c0,0.2,0,0.3-0.1,0.4
				s-0.2,0.1-0.4,0.1h-0.4c-0.2,0-0.4,0-0.6-0.1s-0.4-0.1-0.5-0.2s-0.3-0.2-0.4-0.4s-0.2-0.4-0.2-0.6c-0.2,0.1-0.4,0.1-0.6,0.2
				S128.9,234.7,128.7,234.7z M127.5,232.5c0,0.2,0,0.3,0.1,0.5s0.1,0.3,0.2,0.4s0.2,0.2,0.4,0.2s0.4,0.1,0.6,0.1c0.1,0,0.2,0,0.3,0
				s0.2,0,0.3,0s0.2,0,0.3-0.1s0.2-0.1,0.3-0.1v-2.1h-1.1c-0.2,0-0.4,0-0.5,0.1s-0.3,0.1-0.4,0.2s-0.2,0.2-0.3,0.4
				S127.5,232.3,127.5,232.5z M127.7,228.1c0-0.1,0-0.2,0-0.2s0.1-0.1,0.1-0.2s0.1-0.1,0.2-0.1s0.2,0,0.2,0c0.1,0,0.2,0,0.2,0
				s0.1,0.1,0.2,0.1s0.1,0.1,0.1,0.2s0,0.2,0,0.2c0,0.1,0,0.2,0,0.2s-0.1,0.1-0.1,0.2s-0.1,0.1-0.2,0.1s-0.2,0-0.2,0
				c-0.1,0-0.2,0-0.2,0s-0.1-0.1-0.2-0.1s-0.1-0.1-0.1-0.2S127.7,228.2,127.7,228.1z M129.2,228.1c0-0.1,0-0.2,0-0.2
				s0.1-0.1,0.1-0.2s0.1-0.1,0.2-0.1s0.2,0,0.2,0c0.1,0,0.2,0,0.2,0s0.1,0.1,0.2,0.1s0.1,0.1,0.1,0.2s0,0.2,0,0.2c0,0.1,0,0.2,0,0.2
				s-0.1,0.1-0.1,0.2s-0.1,0.1-0.2,0.1s-0.2,0-0.2,0c-0.1,0-0.2,0-0.2,0s-0.1-0.1-0.2-0.1s-0.1-0.1-0.1-0.2S129.2,228.2,129.2,228.1
				z"/>
			<path display="inline" fill="#09904B" d="M131.9,235.7c-0.2,0-0.3,0-0.4-0.1s-0.1-0.2-0.1-0.4c0-0.2,0-0.3,0.1-0.4
				s0.2-0.1,0.4-0.1h0.9c0.1,0,0.3,0,0.4,0s0.2-0.1,0.3-0.1s0.1-0.1,0.2-0.3s0.1-0.3,0.1-0.5V231h1v2.3c0,0.2,0,0.4,0,0.5
				s0.1,0.3,0.2,0.4s0.2,0.2,0.3,0.3s0.3,0.1,0.5,0.1c0.2,0,0.3,0,0.4,0.1s0.1,0.2,0.1,0.4c0,0.2,0,0.3-0.1,0.4s-0.2,0.1-0.4,0.1
				c-0.1,0-0.3,0-0.4,0s-0.2-0.1-0.4-0.1s-0.2-0.1-0.3-0.2s-0.1-0.2-0.2-0.3c-0.1,0.1-0.2,0.3-0.3,0.3s-0.3,0.2-0.4,0.2
				s-0.3,0.1-0.4,0.1s-0.3,0-0.4,0H131.9z M133.7,229c0-0.1,0-0.2,0-0.2s0.1-0.1,0.1-0.2s0.1-0.1,0.2-0.1s0.2,0,0.2,0
				c0.1,0,0.2,0,0.2,0s0.1,0.1,0.2,0.1s0.1,0.1,0.1,0.2s0,0.2,0,0.2c0,0.1,0,0.2,0,0.2s-0.1,0.1-0.1,0.2s-0.1,0.1-0.2,0.1
				s-0.2,0-0.2,0c-0.1,0-0.2,0-0.2,0s-0.1-0.1-0.2-0.1s-0.1-0.1-0.1-0.2S133.7,229.1,133.7,229z"/>
			<path display="inline" fill="#09904B" d="M135.9,235.7c-0.2,0-0.3,0-0.4-0.1s-0.1-0.2-0.1-0.4c0-0.2,0-0.3,0.1-0.4
				s0.2-0.1,0.4-0.1h1.8V231h1v4.6H135.9z M136.4,237.6c0-0.1,0-0.2,0-0.2s0.1-0.1,0.1-0.2s0.1-0.1,0.2-0.1s0.2,0,0.2,0
				c0.1,0,0.2,0,0.2,0s0.1,0.1,0.2,0.1s0.1,0.1,0.1,0.2s0,0.2,0,0.2c0,0.1,0,0.2,0,0.2s-0.1,0.1-0.1,0.2s-0.1,0.1-0.2,0.1
				s-0.2,0-0.2,0c-0.1,0-0.2,0-0.2,0s-0.1-0.1-0.2-0.1s-0.1-0.1-0.1-0.2S136.4,237.7,136.4,237.6z M138,237.6c0-0.1,0-0.2,0-0.2
				s0.1-0.1,0.1-0.2s0.1-0.1,0.2-0.1s0.2,0,0.2,0c0.1,0,0.2,0,0.2,0s0.1,0.1,0.2,0.1s0.1,0.1,0.1,0.2s0,0.2,0,0.2c0,0.1,0,0.2,0,0.2
				s-0.1,0.1-0.1,0.2s-0.1,0.1-0.2,0.1s-0.2,0-0.2,0c-0.1,0-0.2,0-0.2,0s-0.1-0.1-0.2-0.1s-0.1-0.1-0.1-0.2S138,237.7,138,237.6z"/>
			<path display="inline" fill="#09904B" d="M145.3,235.7c-0.3,0-0.6-0.1-0.8-0.2s-0.4-0.3-0.5-0.5c-0.1,0.1-0.2,0.3-0.3,0.4
				s-0.2,0.2-0.3,0.2s-0.2,0.1-0.4,0.1s-0.3,0-0.4,0H140v-1h2.7c0.2,0,0.4,0,0.5-0.1s0.2-0.2,0.2-0.2s0-0.2,0-0.3s-0.1-0.2-0.1-0.3
				l-1.5-2.4l0.9-0.6l1.5,2.4c0.2,0.3,0.3,0.5,0.4,0.7s0.2,0.4,0.3,0.5s0.2,0.2,0.3,0.3s0.2,0.1,0.3,0.1c0.2,0,0.3,0,0.4,0.1
				s0.1,0.2,0.1,0.4c0,0.2,0,0.3-0.1,0.4S145.5,235.7,145.3,235.7z"/>
			<path display="inline" fill="#09904B" d="M150.9,234.9c-0.2,0.3-0.4,0.5-0.7,0.7s-0.7,0.3-1.1,0.3c-0.2,0-0.3,0-0.5,0
				s-0.3-0.1-0.5-0.1s-0.4-0.2-0.6-0.3s-0.4-0.2-0.6-0.4c-0.1,0.2-0.2,0.3-0.3,0.4s-0.2,0.2-0.3,0.2s-0.2,0.1-0.3,0.1s-0.3,0-0.4,0
				h-0.1c-0.2,0-0.3,0-0.4-0.1s-0.1-0.2-0.1-0.4c0-0.2,0-0.3,0.1-0.4s0.2-0.1,0.4-0.1h0.1c0.1,0,0.2,0,0.3,0s0.2-0.1,0.3-0.1
				s0.2-0.2,0.3-0.3s0.2-0.3,0.2-0.6c0.1-0.5,0.3-0.9,0.5-1.2s0.4-0.6,0.6-0.7s0.5-0.3,0.7-0.4s0.5-0.1,0.7-0.1
				c0.3,0,0.6,0.1,0.9,0.2s0.5,0.3,0.7,0.5s0.3,0.4,0.4,0.7s0.2,0.6,0.2,0.9c0,0.1,0,0.2,0,0.2s0,0.1,0,0.2c0.1,0.3,0.2,0.4,0.3,0.6
				s0.3,0.2,0.5,0.2c0.2,0,0.3,0,0.4,0.1s0.1,0.2,0.1,0.4c0,0.2,0,0.3-0.1,0.4s-0.2,0.1-0.4,0.1c-0.2,0-0.4-0.1-0.6-0.2
				S151,235.1,150.9,234.9z M150.2,233.5c0-0.2,0-0.4-0.1-0.6s-0.1-0.3-0.2-0.4s-0.2-0.2-0.4-0.3s-0.3-0.1-0.5-0.1s-0.4,0-0.5,0.1
				s-0.3,0.2-0.5,0.4s-0.3,0.4-0.4,0.6s-0.2,0.6-0.3,0.9c0.3,0.2,0.6,0.4,0.8,0.5s0.6,0.2,0.8,0.2c0.4,0,0.7-0.1,0.9-0.3
				S150.2,234,150.2,233.5z"/>
			<path display="inline" fill="#09904B" d="M152,235.7c-0.2,0-0.3,0-0.4-0.1s-0.1-0.2-0.1-0.4c0-0.2,0-0.3,0.1-0.4s0.2-0.1,0.4-0.1
				h1.5v-7.4h1v8.4H152z"/>
			<path display="inline" fill="#09904B" d="M157.2,227.3v8.4h-1v-8.4H157.2z"/>
		</g>
	</g>
	<g>
		<g display="none">
			<path display="inline" fill="#FFFFFF" d="M191.1,153c0,0.5-0.1,0.8-0.3,1.2s-0.4,0.6-0.6,0.8s-0.6,0.4-1,0.5s-0.8,0.1-1.4,0.1
				c-0.5,0-1-0.1-1.4-0.2s-0.8-0.4-1-0.6s-0.5-0.6-0.6-1s-0.2-0.8-0.2-1.3v-1.6h1v1.4c0,0.8,0.2,1.4,0.6,1.8s1,0.6,1.7,0.6
				c0.4,0,0.7,0,1-0.1s0.5-0.2,0.7-0.4s0.3-0.4,0.4-0.7s0.1-0.6,0.1-1v-7.7h1v7.4h1.1c0.2,0,0.3,0,0.4,0.1s0.1,0.2,0.1,0.4
				c0,0.2,0,0.3-0.1,0.4s-0.2,0.1-0.4,0.1H191.1z"/>
			<path display="inline" fill="#FFFFFF" d="M192.1,153c-0.2,0-0.3,0-0.4-0.1s-0.1-0.2-0.1-0.4c0-0.2,0-0.3,0.1-0.4s0.2-0.1,0.4-0.1
				h1.8v-3.6h1v4.6H192.1z M195.6,147H193v-0.6h0.6c-0.2-0.2-0.3-0.5-0.3-0.8c0-0.2,0-0.4,0.1-0.6s0.2-0.3,0.3-0.4s0.3-0.2,0.4-0.2
				s0.3-0.1,0.5-0.1c0.2,0,0.3,0,0.4,0s0.2,0,0.3,0.1v0.7c-0.1,0-0.2-0.1-0.3-0.1s-0.2,0-0.3,0c-0.1,0-0.2,0-0.3,0.1
				s-0.2,0.1-0.2,0.2s-0.1,0.1-0.1,0.2s0,0.2,0,0.3c0,0.2,0.1,0.4,0.2,0.6s0.3,0.2,0.6,0.2h0.8V147z"/>
			<path display="inline" fill="#FFFFFF" d="M199,152.5c0,0.2,0,0.3-0.1,0.4s-0.2,0.1-0.4,0.1h-0.2c-0.3,0-0.5,0-0.7-0.1
				s-0.4-0.1-0.5-0.3s-0.3-0.3-0.4-0.5s-0.1-0.5-0.1-0.8v-6.7h1v6.5c0,0.2,0,0.3,0,0.4s0.1,0.2,0.1,0.3s0.1,0.1,0.3,0.2s0.3,0,0.4,0
				h0c0.2,0,0.3,0,0.4,0.1S199,152.3,199,152.5z"/>
			<path display="inline" fill="#FFFFFF" d="M203.3,152c0-0.5-0.1-0.9-0.2-1.3s-0.3-0.6-0.5-0.9s-0.5-0.4-0.8-0.5s-0.6-0.1-1-0.1
				c-0.1,0-0.2,0-0.4,0s-0.3,0-0.4,0s-0.2,0-0.3,0.1s-0.2,0-0.3,0.1v-1c0.2-0.1,0.4-0.1,0.6-0.2s0.6-0.1,0.9-0.1
				c0.6,0,1.1,0.1,1.6,0.3s0.8,0.5,1.1,0.8s0.5,0.8,0.6,1.2s0.2,1,0.2,1.5v0.9h-5.8c-0.2,0-0.3,0-0.4-0.1s-0.1-0.2-0.1-0.4
				c0-0.2,0-0.3,0.1-0.4s0.2-0.1,0.4-0.1H203.3z"/>
		</g>
	</g>
	<g>
		<g display="none">
			<path display="inline" fill="#FFFFFF" d="M230.4,190.2c0.1,0.3,0.2,0.4,0.3,0.6s0.3,0.2,0.5,0.2c0.2,0,0.3,0,0.4,0.1
				s0.1,0.2,0.1,0.4c0,0.2,0,0.3-0.1,0.4s-0.2,0.1-0.4,0.1c-0.2,0-0.4-0.1-0.6-0.2s-0.4-0.3-0.5-0.6c-0.2,0.3-0.4,0.5-0.7,0.7
				s-0.7,0.3-1.1,0.3c-0.2,0-0.3,0-0.5,0s-0.3-0.1-0.5-0.1s-0.4-0.2-0.6-0.3s-0.4-0.2-0.6-0.4c-0.2,0.1-0.4,0.1-0.5,0.2
				s-0.2,0.2-0.3,0.3s-0.1,0.3-0.1,0.5s0,0.5,0,0.8v1.4h-1v-1.5c0-0.4,0-0.8,0.1-1s0.1-0.5,0.2-0.8s0.3-0.4,0.5-0.5s0.4-0.3,0.8-0.4
				c0.1-0.4,0.2-0.7,0.3-1s0.3-0.5,0.4-0.8s0.3-0.4,0.5-0.5s0.3-0.2,0.5-0.3s0.3-0.1,0.5-0.2s0.3,0,0.5,0c0.3,0,0.6,0.1,0.9,0.2
				s0.5,0.3,0.7,0.5s0.3,0.4,0.4,0.7s0.2,0.6,0.2,0.9c0,0.1,0,0.2,0,0.2S230.4,190.2,230.4,190.2z M229.4,189.9c0-0.2,0-0.4-0.1-0.6
				s-0.1-0.3-0.2-0.4s-0.2-0.2-0.4-0.3s-0.3-0.1-0.5-0.1s-0.4,0-0.5,0.1s-0.3,0.2-0.5,0.4s-0.3,0.4-0.4,0.6s-0.2,0.6-0.3,0.9
				c0.3,0.2,0.6,0.4,0.8,0.5s0.6,0.2,0.8,0.2c0.4,0,0.7-0.1,0.9-0.3S229.4,190.3,229.4,189.9z"/>
			<path display="inline" fill="#FFFFFF" d="M231.2,192c-0.2,0-0.3,0-0.4-0.1s-0.1-0.2-0.1-0.4c0-0.2,0-0.3,0.1-0.4s0.2-0.1,0.4-0.1
				h0.9c0.1,0,0.3,0,0.4,0s0.2-0.1,0.3-0.1s0.1-0.1,0.2-0.3s0.1-0.3,0.1-0.5v-2.7h1v2.3c0,0.2,0,0.4,0,0.5s0.1,0.3,0.2,0.4
				s0.2,0.2,0.3,0.3s0.3,0.1,0.5,0.1c0.2,0,0.3,0,0.4,0.1s0.1,0.2,0.1,0.4c0,0.2,0,0.3-0.1,0.4s-0.2,0.1-0.4,0.1c-0.1,0-0.3,0-0.4,0
				s-0.2-0.1-0.4-0.1s-0.2-0.1-0.3-0.2s-0.1-0.2-0.2-0.3c-0.1,0.1-0.2,0.3-0.3,0.3s-0.3,0.2-0.4,0.2s-0.3,0.1-0.4,0.1s-0.3,0-0.4,0
				H231.2z M232.2,194c0-0.1,0-0.2,0-0.2s0.1-0.1,0.1-0.2s0.1-0.1,0.2-0.1s0.2,0,0.2,0c0.1,0,0.2,0,0.2,0s0.1,0.1,0.2,0.1
				s0.1,0.1,0.1,0.2s0,0.2,0,0.2c0,0.1,0,0.2,0,0.2s-0.1,0.1-0.1,0.2s-0.1,0.1-0.2,0.1s-0.2,0-0.2,0c-0.1,0-0.2,0-0.2,0
				s-0.1-0.1-0.2-0.1s-0.1-0.1-0.1-0.2S232.2,194,232.2,194z M233.7,194c0-0.1,0-0.2,0-0.2s0.1-0.1,0.1-0.2s0.1-0.1,0.2-0.1
				s0.2,0,0.2,0c0.1,0,0.2,0,0.2,0s0.1,0.1,0.2,0.1s0.1,0.1,0.1,0.2s0,0.2,0,0.2c0,0.1,0,0.2,0,0.2s-0.1,0.1-0.1,0.2
				s-0.1,0.1-0.2,0.1s-0.2,0-0.2,0c-0.1,0-0.2,0-0.2,0s-0.1-0.1-0.2-0.1s-0.1-0.1-0.1-0.2S233.7,194,233.7,194z"/>
			<path display="inline" fill="#FFFFFF" d="M246.4,191c0.2,0,0.3,0,0.4,0.1s0.1,0.2,0.1,0.4c0,0.2,0,0.3-0.1,0.4s-0.2,0.1-0.4,0.1
				h-7.6c-0.1,0-0.3,0-0.4,0s-0.2-0.1-0.3-0.1s-0.2-0.1-0.3-0.2s-0.1-0.2-0.2-0.3c-0.1,0.1-0.2,0.3-0.3,0.3s-0.3,0.2-0.4,0.2
				s-0.3,0.1-0.4,0.1s-0.3,0-0.4,0h-0.9c-0.2,0-0.3,0-0.4-0.1s-0.1-0.2-0.1-0.4c0-0.2,0-0.3,0.1-0.4s0.2-0.1,0.4-0.1h0.6
				c0.1,0,0.3,0,0.4,0s0.2-0.1,0.3-0.1s0.1-0.1,0.2-0.3s0.1-0.3,0.1-0.5V188h1v1.7c0,0.2,0,0.4,0,0.5s0.1,0.3,0.1,0.4
				s0.2,0.2,0.3,0.3s0.3,0.1,0.4,0.1c0.1-0.3,0.2-0.6,0.4-0.9s0.3-0.6,0.5-0.9s0.4-0.5,0.7-0.8s0.5-0.5,0.8-0.6s0.6-0.3,0.9-0.4
				s0.7-0.2,1.1-0.2c0.4,0,0.8,0.1,1.1,0.2s0.6,0.3,0.8,0.5s0.4,0.5,0.5,0.9s0.2,0.7,0.2,1.2v1H246.4z M244.6,191v-0.9
				c0-0.3,0-0.6-0.1-0.8s-0.2-0.4-0.3-0.6s-0.3-0.3-0.5-0.4s-0.5-0.1-0.8-0.1c-0.3,0-0.5,0-0.7,0.1s-0.5,0.2-0.7,0.3
				s-0.4,0.3-0.6,0.5s-0.4,0.4-0.5,0.6s-0.3,0.4-0.4,0.6s-0.2,0.4-0.3,0.7H244.6z"/>
			<path display="inline" fill="#FFFFFF" d="M253,191c0.2,0,0.3,0,0.4,0.1s0.1,0.2,0.1,0.4c0,0.2,0,0.3-0.1,0.4s-0.2,0.1-0.4,0.1
				h-6.6c-0.2,0-0.3,0-0.4-0.1s-0.1-0.2-0.1-0.4c0-0.2,0-0.3,0.1-0.4s0.2-0.1,0.4-0.1h1.5c-0.1-0.2-0.2-0.4-0.2-0.6
				s-0.1-0.5-0.1-0.8c0-0.4,0.1-0.7,0.2-1s0.3-0.6,0.5-0.8s0.5-0.4,0.8-0.5s0.6-0.2,1-0.2c0.5,0,0.8,0.1,1.1,0.2s0.5,0.4,0.7,0.6
				s0.3,0.5,0.3,0.8s0.1,0.6,0.1,0.9v1.2H253z M248.4,185.4c0-0.1,0-0.2,0-0.2s0.1-0.1,0.1-0.2s0.1-0.1,0.2-0.1s0.2,0,0.2,0
				c0.1,0,0.2,0,0.2,0s0.1,0.1,0.2,0.1s0.1,0.1,0.1,0.2s0,0.2,0,0.2c0,0.1,0,0.2,0,0.2s-0.1,0.1-0.1,0.2s-0.1,0.1-0.2,0.1
				s-0.2,0-0.2,0c-0.1,0-0.2,0-0.2,0s-0.1-0.1-0.2-0.1s-0.1-0.1-0.1-0.2S248.4,185.5,248.4,185.4z M248.6,189.6c0,0.2,0,0.5,0.1,0.6
				s0.2,0.3,0.3,0.4s0.3,0.2,0.5,0.3s0.4,0.1,0.6,0.1h1.1v-1.2c0-0.2,0-0.4,0-0.6s-0.1-0.4-0.2-0.5s-0.2-0.3-0.4-0.4
				s-0.4-0.1-0.7-0.1c-0.2,0-0.4,0-0.5,0.1s-0.3,0.2-0.4,0.3s-0.2,0.3-0.3,0.5S248.6,189.4,248.6,189.6z M250,185.4
				c0-0.1,0-0.2,0-0.2s0.1-0.1,0.1-0.2s0.1-0.1,0.2-0.1s0.2,0,0.2,0c0.1,0,0.2,0,0.2,0s0.1,0.1,0.2,0.1s0.1,0.1,0.1,0.2s0,0.2,0,0.2
				c0,0.1,0,0.2,0,0.2s-0.1,0.1-0.1,0.2s-0.1,0.1-0.2,0.1s-0.2,0-0.2,0c-0.1,0-0.2,0-0.2,0s-0.1-0.1-0.2-0.1s-0.1-0.1-0.1-0.2
				S250,185.5,250,185.4z"/>
			<path display="inline" fill="#FFFFFF" d="M253,192c-0.2,0-0.3,0-0.4-0.1s-0.1-0.2-0.1-0.4c0-0.2,0-0.3,0.1-0.4s0.2-0.1,0.4-0.1
				h1.5v-7.4h1v8.4H253z"/>
			<path display="inline" fill="#FFFFFF" d="M258.2,183.6v8.4h-1v-8.4H258.2z"/>
		</g>
	</g>
	<g>
		<g display="none">
			<path display="inline" fill="#FFFFFF" d="M214.1,91c-0.1,0-0.3,0-0.5,0s-0.3-0.1-0.5-0.1s-0.3-0.1-0.5-0.2s-0.3-0.2-0.4-0.4
				s-0.2-0.3-0.3-0.6s-0.1-0.5-0.1-0.7c0-0.4,0.1-0.8,0.2-1.1s0.3-0.5,0.6-0.7s0.5-0.3,0.8-0.4s0.6-0.1,0.9-0.1h1.9v3.4
				c0,0.2,0,0.3,0,0.4s0.1,0.2,0.1,0.3s0.1,0.1,0.3,0.2s0.3,0,0.4,0h0.2c0.2,0,0.3,0,0.4,0.1s0.1,0.2,0.1,0.4c0,0.2,0,0.3-0.1,0.4
				s-0.2,0.1-0.4,0.1H217c-0.2,0-0.4,0-0.6-0.1s-0.4-0.1-0.5-0.2s-0.3-0.2-0.4-0.4s-0.2-0.4-0.2-0.6c-0.2,0.1-0.4,0.1-0.6,0.2
				S214.3,91,214.1,91z M212.9,88.9c0,0.2,0,0.3,0.1,0.5s0.1,0.3,0.2,0.4s0.2,0.2,0.4,0.2s0.4,0.1,0.6,0.1c0.1,0,0.2,0,0.3,0
				s0.2,0,0.3,0s0.2,0,0.3-0.1s0.2-0.1,0.3-0.1v-2.1h-1.1c-0.2,0-0.4,0-0.5,0.1s-0.3,0.1-0.4,0.2s-0.2,0.2-0.3,0.4
				S212.9,88.7,212.9,88.9z M213.1,84.4c0-0.1,0-0.2,0-0.2s0.1-0.1,0.1-0.2s0.1-0.1,0.2-0.1s0.2,0,0.2,0c0.1,0,0.2,0,0.2,0
				s0.1,0.1,0.2,0.1s0.1,0.1,0.1,0.2s0,0.2,0,0.2c0,0.1,0,0.2,0,0.2s-0.1,0.1-0.1,0.2S214.1,85,214,85s-0.2,0-0.2,0
				c-0.1,0-0.2,0-0.2,0s-0.1-0.1-0.2-0.1s-0.1-0.1-0.1-0.2S213.1,84.5,213.1,84.4z M214.7,84.4c0-0.1,0-0.2,0-0.2s0.1-0.1,0.1-0.2
				s0.1-0.1,0.2-0.1s0.2,0,0.2,0c0.1,0,0.2,0,0.2,0s0.1,0.1,0.2,0.1s0.1,0.1,0.1,0.2s0,0.2,0,0.2c0,0.1,0,0.2,0,0.2
				s-0.1,0.1-0.1,0.2s-0.1,0.1-0.2,0.1s-0.2,0-0.2,0c-0.1,0-0.2,0-0.2,0s-0.1-0.1-0.2-0.1s-0.1-0.1-0.1-0.2S214.7,84.5,214.7,84.4z"
				/>
			<path display="inline" fill="#FFFFFF" d="M217.4,92c-0.2,0-0.3,0-0.4-0.1s-0.1-0.2-0.1-0.4c0-0.2,0-0.3,0.1-0.4s0.2-0.1,0.4-0.1
				h0.9c0.1,0,0.3,0,0.4,0s0.2-0.1,0.3-0.1s0.1-0.1,0.2-0.3s0.1-0.3,0.1-0.5v-2.7h1v2.3c0,0.2,0,0.4,0,0.5s0.1,0.3,0.2,0.4
				s0.2,0.2,0.3,0.3s0.3,0.1,0.5,0.1c0.2,0,0.3,0,0.4,0.1s0.1,0.2,0.1,0.4c0,0.2,0,0.3-0.1,0.4s-0.2,0.1-0.4,0.1c-0.1,0-0.3,0-0.4,0
				s-0.2-0.1-0.4-0.1s-0.2-0.1-0.3-0.2s-0.1-0.2-0.2-0.3c-0.1,0.1-0.2,0.3-0.3,0.3s-0.3,0.2-0.4,0.2S219.1,92,219,92s-0.3,0-0.4,0
				H217.4z M218.3,94c0-0.1,0-0.2,0-0.2s0.1-0.1,0.1-0.2s0.1-0.1,0.2-0.1s0.2,0,0.2,0c0.1,0,0.2,0,0.2,0s0.1,0.1,0.2,0.1
				s0.1,0.1,0.1,0.2s0,0.2,0,0.2c0,0.1,0,0.2,0,0.2s-0.1,0.1-0.1,0.2s-0.1,0.1-0.2,0.1s-0.2,0-0.2,0c-0.1,0-0.2,0-0.2,0
				s-0.1-0.1-0.2-0.1s-0.1-0.1-0.1-0.2S218.3,94,218.3,94z M219.9,94c0-0.1,0-0.2,0-0.2s0.1-0.1,0.1-0.2s0.1-0.1,0.2-0.1
				s0.2,0,0.2,0c0.1,0,0.2,0,0.2,0s0.1,0.1,0.2,0.1s0.1,0.1,0.1,0.2s0,0.2,0,0.2c0,0.1,0,0.2,0,0.2s-0.1,0.1-0.1,0.2
				s-0.1,0.1-0.2,0.1s-0.2,0-0.2,0c-0.1,0-0.2,0-0.2,0s-0.1-0.1-0.2-0.1s-0.1-0.1-0.1-0.2S219.9,94,219.9,94z"/>
			<path display="inline" fill="#FFFFFF" d="M221.4,92c-0.2,0-0.3,0-0.4-0.1s-0.1-0.2-0.1-0.4c0-0.2,0-0.3,0.1-0.4s0.2-0.1,0.4-0.1
				h1.5v-7.4h1V92H221.4z"/>
			<path display="inline" fill="#FFFFFF" d="M227.9,91.5c0,0.2,0,0.3-0.1,0.4s-0.2,0.1-0.4,0.1h-0.2c-0.3,0-0.5,0-0.7-0.1
				s-0.4-0.1-0.5-0.3s-0.3-0.3-0.4-0.5s-0.1-0.5-0.1-0.8v-6.7h1v6.5c0,0.2,0,0.3,0,0.4s0.1,0.2,0.1,0.3s0.1,0.1,0.3,0.2s0.3,0,0.4,0
				h0c0.2,0,0.3,0,0.4,0.1S227.9,91.3,227.9,91.5z"/>
			<path display="inline" fill="#FFFFFF" d="M232.9,91.2c-0.2,0.3-0.4,0.5-0.7,0.7s-0.7,0.3-1.1,0.3c-0.2,0-0.3,0-0.5,0
				s-0.3-0.1-0.5-0.1s-0.4-0.2-0.6-0.3s-0.4-0.2-0.6-0.4c-0.1,0.2-0.2,0.3-0.3,0.4s-0.2,0.2-0.3,0.2S228,92,227.9,92s-0.3,0-0.4,0
				h-0.1c-0.2,0-0.3,0-0.4-0.1s-0.1-0.2-0.1-0.4c0-0.2,0-0.3,0.1-0.4s0.2-0.1,0.4-0.1h0.1c0.1,0,0.2,0,0.3,0s0.2-0.1,0.3-0.1
				s0.2-0.2,0.3-0.3s0.2-0.3,0.2-0.6c0.1-0.5,0.3-0.9,0.5-1.2s0.4-0.6,0.6-0.7s0.5-0.3,0.7-0.4s0.5-0.1,0.7-0.1
				c0.3,0,0.6,0.1,0.9,0.2s0.5,0.3,0.7,0.5s0.3,0.4,0.4,0.7s0.2,0.6,0.2,0.9c0,0.1,0,0.2,0,0.2s0,0.1,0,0.2c0.1,0.3,0.2,0.4,0.3,0.6
				s0.3,0.2,0.5,0.2c0.2,0,0.3,0,0.4,0.1s0.1,0.2,0.1,0.4c0,0.2,0,0.3-0.1,0.4s-0.2,0.1-0.4,0.1c-0.2,0-0.4-0.1-0.6-0.2
				S233.1,91.5,232.9,91.2z M232.2,89.9c0-0.2,0-0.4-0.1-0.6s-0.1-0.3-0.2-0.4s-0.2-0.2-0.4-0.3s-0.3-0.1-0.5-0.1s-0.4,0-0.5,0.1
				s-0.3,0.2-0.5,0.4s-0.3,0.4-0.4,0.6s-0.2,0.6-0.3,0.9c0.3,0.2,0.6,0.4,0.8,0.5s0.6,0.2,0.8,0.2c0.4,0,0.7-0.1,0.9-0.3
				S232.2,90.3,232.2,89.9z"/>
			<path display="inline" fill="#FFFFFF" d="M238.2,92c-0.3,0-0.5,0-0.7-0.1s-0.4-0.1-0.5-0.2s-0.2-0.1-0.3-0.2s-0.2-0.2-0.2-0.3
				c-0.1,0.2-0.2,0.3-0.3,0.4s-0.2,0.2-0.4,0.2s-0.4,0.1-0.6,0.1s-0.5,0-0.9,0h-0.2c-0.2,0-0.3,0-0.4-0.1s-0.1-0.2-0.1-0.4
				c0-0.2,0-0.3,0.1-0.4s0.2-0.1,0.4-0.1h0.2c0.3,0,0.5,0,0.7,0s0.3-0.1,0.4-0.1s0.2-0.1,0.2-0.3s0.1-0.3,0.1-0.5V88h1v1.7
				c0,0.2,0,0.4,0,0.5s0.1,0.3,0.2,0.4s0.2,0.2,0.4,0.3s0.4,0.1,0.7,0.1c0.2,0,0.3,0,0.4,0s0.2-0.1,0.3-0.1s0.1-0.1,0.2-0.3
				s0.1-0.3,0.1-0.5V88h1v1.7c0,0.2,0,0.4,0,0.5s0.1,0.3,0.2,0.4s0.2,0.2,0.3,0.3s0.3,0.1,0.5,0.1c0.1,0,0.3,0,0.4,0
				s0.2-0.1,0.3-0.1s0.1-0.1,0.2-0.3s0.1-0.3,0.1-0.5v-2.7h1v2.3c0,0.2,0,0.4,0,0.5s0.1,0.3,0.2,0.4s0.2,0.2,0.3,0.3
				s0.3,0.1,0.5,0.1c0.2,0,0.3,0,0.4,0.1s0.1,0.2,0.1,0.4c0,0.2,0,0.3-0.1,0.4S244.2,92,244,92c-0.1,0-0.3,0-0.4,0s-0.2-0.1-0.4-0.1
				s-0.2-0.1-0.3-0.2s-0.1-0.2-0.2-0.3c-0.1,0.1-0.2,0.3-0.3,0.3s-0.3,0.2-0.4,0.2s-0.3,0.1-0.4,0.1s-0.3,0-0.4,0
				c-0.2,0-0.4,0-0.6-0.1s-0.3-0.1-0.4-0.1s-0.2-0.1-0.3-0.2s-0.1-0.2-0.2-0.3c-0.1,0.2-0.2,0.3-0.3,0.4s-0.2,0.2-0.4,0.2
				s-0.3,0.1-0.4,0.1S238.3,92,238.2,92z M238,85.4c0-0.1,0-0.2,0-0.2s0.1-0.1,0.1-0.2s0.1-0.1,0.2-0.1s0.2,0,0.2,0
				c0.1,0,0.2,0,0.2,0s0.1,0.1,0.2,0.1s0.1,0.1,0.1,0.2s0,0.2,0,0.2c0,0.1,0,0.2,0,0.2s-0.1,0.1-0.1,0.2s-0.1,0.1-0.2,0.1
				s-0.2,0-0.2,0c-0.1,0-0.2,0-0.2,0s-0.1-0.1-0.2-0.1s-0.1-0.1-0.1-0.2S238,85.5,238,85.4z M238.8,83.9c0-0.1,0-0.2,0-0.2
				s0.1-0.1,0.1-0.2s0.1-0.1,0.2-0.1s0.2,0,0.2,0c0.1,0,0.2,0,0.2,0s0.1,0.1,0.2,0.1s0.1,0.1,0.1,0.2s0,0.2,0,0.2s0,0.2,0,0.2
				s-0.1,0.1-0.1,0.2s-0.1,0.1-0.2,0.1s-0.2,0-0.2,0c-0.1,0-0.2,0-0.2,0s-0.1-0.1-0.2-0.1s-0.1-0.1-0.1-0.2S238.8,84,238.8,83.9z
				 M239.5,85.4c0-0.1,0-0.2,0-0.2s0.1-0.1,0.1-0.2s0.1-0.1,0.2-0.1s0.2,0,0.2,0c0.1,0,0.2,0,0.2,0s0.1,0.1,0.2,0.1s0.1,0.1,0.1,0.2
				s0,0.2,0,0.2c0,0.1,0,0.2,0,0.2s-0.1,0.1-0.1,0.2s-0.1,0.1-0.2,0.1s-0.2,0-0.2,0c-0.1,0-0.2,0-0.2,0s-0.1-0.1-0.2-0.1
				s-0.1-0.1-0.1-0.2S239.5,85.5,239.5,85.4z"/>
			<path display="inline" fill="#FFFFFF" d="M244,92c-0.2,0-0.3,0-0.4-0.1s-0.1-0.2-0.1-0.4c0-0.2,0-0.3,0.1-0.4s0.2-0.1,0.4-0.1
				h1.5v-7.4h1V92H244z"/>
			<path display="inline" fill="#FFFFFF" d="M249.2,83.6V92h-1v-8.4H249.2z"/>
		</g>
	</g>
	<g>
		<g display="none">
			<path display="inline" fill="#FFFFFF" d="M124.3,73c-0.1-0.2-0.2-0.4-0.2-0.6S124,72,124,71.7c0-0.4,0.1-0.7,0.2-1
				s0.3-0.6,0.5-0.8s0.5-0.4,0.8-0.5s0.6-0.2,1-0.2c0.5,0,0.8,0.1,1.1,0.2s0.5,0.4,0.7,0.6s0.3,0.5,0.3,0.8s0.1,0.6,0.1,0.9V74h-8.9
				c-0.5,0-0.9,0-1.2-0.1s-0.6-0.2-0.7-0.3s-0.3-0.3-0.4-0.5s-0.1-0.5-0.1-0.8v-1.9h1v1.5c0,0.2,0,0.4,0.1,0.6s0.2,0.3,0.3,0.3
				s0.3,0.1,0.6,0.2s0.6,0,0.9,0H124.3z M125,71.6c0,0.2,0,0.5,0.1,0.6s0.2,0.3,0.3,0.4s0.3,0.2,0.5,0.3s0.4,0.1,0.6,0.1h1.1v-1.2
				c0-0.2,0-0.4,0-0.6s-0.1-0.4-0.2-0.5s-0.2-0.3-0.4-0.4s-0.4-0.1-0.7-0.1c-0.2,0-0.4,0-0.5,0.1s-0.3,0.2-0.4,0.3s-0.2,0.3-0.3,0.5
				S125,71.4,125,71.6z M125.9,67.4c0-0.1,0-0.2,0-0.2s0.1-0.1,0.1-0.2s0.1-0.1,0.2-0.1s0.2,0,0.2,0c0.1,0,0.2,0,0.2,0
				s0.1,0.1,0.2,0.1s0.1,0.1,0.1,0.2s0,0.2,0,0.2c0,0.1,0,0.2,0,0.2s-0.1,0.1-0.1,0.2s-0.1,0.1-0.2,0.1s-0.2,0-0.2,0
				c-0.1,0-0.2,0-0.2,0s-0.1-0.1-0.2-0.1s-0.1-0.1-0.1-0.2S125.9,67.5,125.9,67.4z"/>
			<path display="inline" fill="#FFFFFF" d="M134.6,74c0,0.5-0.1,0.9-0.3,1.2s-0.4,0.6-0.6,0.8s-0.6,0.3-1,0.4s-0.9,0.1-1.5,0.1
				h-0.5v-1h0.4c0.5,0,0.9,0,1.2-0.1s0.6-0.1,0.8-0.2s0.4-0.3,0.4-0.5s0.1-0.5,0.2-0.8h-1.4c-0.3,0-0.6,0-0.9-0.1s-0.5-0.2-0.7-0.4
				s-0.4-0.4-0.5-0.7s-0.2-0.6-0.2-1c0-0.3,0.1-0.7,0.2-1s0.3-0.6,0.5-0.8s0.5-0.4,0.7-0.6s0.6-0.2,1-0.2c0.4,0,0.8,0.1,1.1,0.2
				s0.5,0.4,0.7,0.6s0.3,0.6,0.4,1s0.1,0.8,0.1,1.3V73h0.8c0.2,0,0.3,0,0.4,0.1s0.1,0.2,0.1,0.4c0,0.2,0,0.3-0.1,0.4
				s-0.2,0.1-0.4,0.1H134.6z M131,71.7c0,0.4,0.1,0.7,0.4,0.9s0.6,0.3,1,0.3h1.3v-0.9c0-0.3,0-0.6-0.1-0.8s-0.1-0.4-0.2-0.6
				s-0.2-0.3-0.4-0.4s-0.4-0.1-0.6-0.1c-0.2,0-0.4,0-0.6,0.1s-0.3,0.2-0.4,0.4s-0.2,0.3-0.2,0.5S131,71.5,131,71.7z"/>
			<path display="inline" fill="#FFFFFF" d="M135.5,74c-0.2,0-0.3,0-0.4-0.1s-0.1-0.2-0.1-0.4c0-0.2,0-0.3,0.1-0.4s0.2-0.1,0.4-0.1
				h4.8c0-0.5-0.1-0.9-0.2-1.3s-0.3-0.6-0.5-0.9s-0.5-0.4-0.8-0.5s-0.6-0.1-1-0.1c-0.1,0-0.2,0-0.4,0s-0.3,0-0.4,0s-0.2,0-0.3,0.1
				s-0.2,0-0.3,0.1v-1c0.2-0.1,0.4-0.1,0.6-0.2s0.6-0.1,0.9-0.1c0.6,0,1.1,0.1,1.5,0.3s0.8,0.5,1.1,0.8s0.5,0.7,0.6,1.2
				s0.2,0.9,0.2,1.5h0.7c0.2,0,0.3,0,0.4,0.1s0.1,0.2,0.1,0.4c0,0.2,0,0.3-0.1,0.4S142.2,74,142,74H135.5z M137.4,75.9
				c0-0.1,0-0.2,0-0.2s0.1-0.1,0.1-0.2s0.1-0.1,0.2-0.1s0.2,0,0.2,0c0.1,0,0.2,0,0.2,0s0.1,0.1,0.2,0.1s0.1,0.1,0.1,0.2s0,0.2,0,0.2
				c0,0.1,0,0.2,0,0.2s-0.1,0.1-0.1,0.2s-0.1,0.1-0.2,0.1s-0.2,0-0.2,0c-0.1,0-0.2,0-0.2,0s-0.1-0.1-0.2-0.1s-0.1-0.1-0.1-0.2
				S137.4,76,137.4,75.9z"/>
			<path display="inline" fill="#FFFFFF" d="M142,74c-0.2,0-0.3,0-0.4-0.1s-0.1-0.2-0.1-0.4c0-0.2,0-0.3,0.1-0.4s0.2-0.1,0.4-0.1
				h1.5v-7.4h1V74H142z"/>
			<path display="inline" fill="#FFFFFF" d="M147.2,65.6V74h-1v-8.4H147.2z"/>
		</g>
	</g>
	<g>
		<g display="none">
			<path display="inline" fill="#FFFFFF" d="M56.3,138h-7.3c-0.5,0-0.9,0-1.2-0.1s-0.6-0.2-0.7-0.3s-0.3-0.3-0.4-0.5
				s-0.1-0.5-0.1-0.8v-1.9h1v1.5c0,0.2,0,0.4,0.1,0.6s0.2,0.3,0.3,0.3s0.3,0.1,0.6,0.2s0.6,0,0.9,0h5.7v-7.4h1V138z M52.8,134.5
				h-2.2v-0.6h0.5c-0.1-0.1-0.1-0.2-0.1-0.3s0-0.2,0-0.3c0-0.2,0-0.3,0.1-0.5s0.1-0.2,0.2-0.3s0.2-0.2,0.3-0.2s0.2-0.1,0.4-0.1
				c0.1,0,0.2,0,0.3,0s0.2,0,0.2,0.1v0.6c-0.2-0.1-0.3-0.1-0.5-0.1c-0.1,0-0.2,0-0.2,0s-0.1,0.1-0.2,0.1s-0.1,0.1-0.1,0.2
				s0,0.1,0,0.2c0,0.2,0.1,0.3,0.2,0.4s0.3,0.2,0.5,0.2h0.7V134.5z"/>
			<path display="inline" fill="#FFFFFF" d="M62.5,138c0,0.5-0.1,0.9-0.3,1.2s-0.4,0.6-0.6,0.8s-0.6,0.3-1,0.4s-0.9,0.1-1.5,0.1
				h-0.5v-1h0.4c0.5,0,0.9,0,1.2-0.1s0.6-0.1,0.8-0.2s0.4-0.3,0.4-0.5s0.1-0.5,0.2-0.8h-1.4c-0.3,0-0.6,0-0.9-0.1s-0.5-0.2-0.7-0.4
				s-0.4-0.4-0.5-0.7s-0.2-0.6-0.2-1c0-0.3,0.1-0.7,0.2-1s0.3-0.6,0.5-0.8s0.5-0.4,0.7-0.6s0.6-0.2,1-0.2c0.4,0,0.8,0.1,1.1,0.2
				s0.5,0.4,0.7,0.6s0.3,0.6,0.4,1s0.1,0.8,0.1,1.3v0.7h0.8c0.2,0,0.3,0,0.4,0.1s0.1,0.2,0.1,0.4c0,0.2,0,0.3-0.1,0.4
				s-0.2,0.1-0.4,0.1H62.5z M58.8,135.7c0,0.4,0.1,0.7,0.4,0.9s0.6,0.3,1,0.3h1.3v-0.9c0-0.3,0-0.6-0.1-0.8s-0.1-0.4-0.2-0.6
				s-0.2-0.3-0.4-0.4s-0.4-0.1-0.6-0.1c-0.2,0-0.4,0-0.6,0.1s-0.3,0.2-0.4,0.4s-0.2,0.3-0.2,0.5S58.8,135.5,58.8,135.7z"/>
			<path display="inline" fill="#FFFFFF" d="M63.3,138c-0.2,0-0.3,0-0.4-0.1s-0.1-0.2-0.1-0.4c0-0.2,0-0.3,0.1-0.4s0.2-0.1,0.4-0.1
				h0.9c0.1,0,0.3,0,0.4,0s0.2-0.1,0.3-0.1s0.1-0.1,0.2-0.3s0.1-0.3,0.1-0.5v-2.7h1v2.3c0,0.2,0,0.4,0,0.5s0.1,0.3,0.2,0.4
				s0.2,0.2,0.3,0.3s0.3,0.1,0.5,0.1c0.2,0,0.3,0,0.4,0.1s0.1,0.2,0.1,0.4c0,0.2,0,0.3-0.1,0.4s-0.2,0.1-0.4,0.1c-0.1,0-0.3,0-0.4,0
				s-0.2-0.1-0.4-0.1s-0.2-0.1-0.3-0.2s-0.1-0.2-0.2-0.3c-0.1,0.1-0.2,0.3-0.3,0.3s-0.3,0.2-0.4,0.2S65.1,138,65,138s-0.3,0-0.4,0
				H63.3z M64.9,139.9c0-0.1,0-0.2,0-0.2s0.1-0.1,0.1-0.2s0.1-0.1,0.2-0.1s0.2,0,0.2,0c0.1,0,0.2,0,0.2,0s0.1,0.1,0.2,0.1
				s0.1,0.1,0.1,0.2s0,0.2,0,0.2c0,0.1,0,0.2,0,0.2s-0.1,0.1-0.1,0.2s-0.1,0.1-0.2,0.1s-0.2,0-0.2,0c-0.1,0-0.2,0-0.2,0
				s-0.1-0.1-0.2-0.1s-0.1-0.1-0.1-0.2S64.9,140,64.9,139.9z"/>
			<path display="inline" fill="#FFFFFF" d="M67.3,138c-0.2,0-0.3,0-0.4-0.1s-0.1-0.2-0.1-0.4c0-0.2,0-0.3,0.1-0.4s0.2-0.1,0.4-0.1
				h1.8v-3.6h1v4.6H67.3z M68.1,131.4c0-0.1,0-0.2,0-0.2s0.1-0.1,0.1-0.2s0.1-0.1,0.2-0.1s0.2,0,0.2,0c0.1,0,0.2,0,0.2,0
				s0.1,0.1,0.2,0.1s0.1,0.1,0.1,0.2s0,0.2,0,0.2c0,0.1,0,0.2,0,0.2s-0.1,0.1-0.1,0.2s-0.1,0.1-0.2,0.1s-0.2,0-0.2,0
				c-0.1,0-0.2,0-0.2,0s-0.1-0.1-0.2-0.1s-0.1-0.1-0.1-0.2S68.1,131.5,68.1,131.4z M69.7,131.4c0-0.1,0-0.2,0-0.2s0.1-0.1,0.1-0.2
				s0.1-0.1,0.2-0.1s0.2,0,0.2,0c0.1,0,0.2,0,0.2,0s0.1,0.1,0.2,0.1s0.1,0.1,0.1,0.2s0,0.2,0,0.2c0,0.1,0,0.2,0,0.2
				s-0.1,0.1-0.1,0.2s-0.1,0.1-0.2,0.1s-0.2,0-0.2,0c-0.1,0-0.2,0-0.2,0s-0.1-0.1-0.2-0.1s-0.1-0.1-0.1-0.2S69.7,131.5,69.7,131.4z"
				/>
		</g>
	</g>
	<g>
		<g display="none">
			<path display="inline" fill="#FFFFFF" d="M175.6,379c-0.1,0-0.3,0-0.5,0s-0.3-0.1-0.5-0.1s-0.3-0.1-0.5-0.2s-0.3-0.2-0.4-0.4
				s-0.2-0.3-0.3-0.6s-0.1-0.5-0.1-0.7c0-0.4,0.1-0.8,0.2-1.1s0.3-0.5,0.6-0.7s0.5-0.3,0.8-0.4s0.6-0.1,0.9-0.1h1.9v3.4
				c0,0.2,0,0.3,0,0.4s0.1,0.2,0.1,0.3s0.1,0.1,0.3,0.2s0.3,0,0.4,0h0.2c0.2,0,0.3,0,0.4,0.1s0.1,0.2,0.1,0.4c0,0.2,0,0.3-0.1,0.4
				s-0.2,0.1-0.4,0.1h-0.4c-0.2,0-0.4,0-0.6-0.1s-0.4-0.1-0.5-0.2s-0.3-0.2-0.4-0.4s-0.2-0.4-0.2-0.6c-0.2,0.1-0.4,0.1-0.6,0.2
				S175.8,379,175.6,379z M174.4,376.9c0,0.2,0,0.3,0.1,0.5s0.1,0.3,0.2,0.4s0.2,0.2,0.4,0.2s0.4,0.1,0.6,0.1c0.1,0,0.2,0,0.3,0
				s0.2,0,0.3,0s0.2,0,0.3-0.1s0.2-0.1,0.3-0.1v-2.1h-1.1c-0.2,0-0.4,0-0.5,0.1s-0.3,0.1-0.4,0.2s-0.2,0.2-0.3,0.4
				S174.4,376.7,174.4,376.9z M174.6,372.4c0-0.1,0-0.2,0-0.2s0.1-0.1,0.1-0.2s0.1-0.1,0.2-0.1s0.2,0,0.2,0c0.1,0,0.2,0,0.2,0
				s0.1,0.1,0.2,0.1s0.1,0.1,0.1,0.2s0,0.2,0,0.2c0,0.1,0,0.2,0,0.2s-0.1,0.1-0.1,0.2s-0.1,0.1-0.2,0.1s-0.2,0-0.2,0
				c-0.1,0-0.2,0-0.2,0s-0.1-0.1-0.2-0.1s-0.1-0.1-0.1-0.2S174.6,372.5,174.6,372.4z M176.1,372.4c0-0.1,0-0.2,0-0.2
				s0.1-0.1,0.1-0.2s0.1-0.1,0.2-0.1s0.2,0,0.2,0c0.1,0,0.2,0,0.2,0s0.1,0.1,0.2,0.1s0.1,0.1,0.1,0.2s0,0.2,0,0.2c0,0.1,0,0.2,0,0.2
				s-0.1,0.1-0.1,0.2s-0.1,0.1-0.2,0.1s-0.2,0-0.2,0c-0.1,0-0.2,0-0.2,0s-0.1-0.1-0.2-0.1s-0.1-0.1-0.1-0.2S176.1,372.5,176.1,372.4
				z"/>
			<path display="inline" fill="#FFFFFF" d="M183.7,379c0-0.5-0.1-0.9-0.2-1.3s-0.3-0.6-0.5-0.9s-0.5-0.4-0.8-0.5s-0.6-0.1-1-0.1
				c-0.1,0-0.2,0-0.4,0s-0.3,0-0.4,0s-0.2,0-0.3,0.1s-0.2,0-0.3,0.1v-1c0.2-0.1,0.4-0.1,0.6-0.2s0.6-0.1,0.9-0.1
				c0.6,0,1.1,0.1,1.6,0.3s0.8,0.5,1.1,0.8s0.5,0.8,0.6,1.2s0.2,1,0.2,1.5v0.9h-5.8c-0.2,0-0.3,0-0.4-0.1s-0.1-0.2-0.1-0.4
				c0-0.2,0-0.3,0.1-0.4s0.2-0.1,0.4-0.1H183.7z"/>
			<path display="inline" fill="#FFFFFF" d="M188.5,379.5c0,0.2,0,0.3-0.1,0.4s-0.2,0.1-0.4,0.1h-0.2c-0.3,0-0.5,0-0.7-0.1
				s-0.4-0.1-0.5-0.3s-0.3-0.3-0.4-0.5s-0.1-0.5-0.1-0.8v-6.7h1v6.5c0,0.2,0,0.3,0,0.4s0.1,0.2,0.1,0.3s0.1,0.1,0.3,0.2s0.3,0,0.4,0
				h0c0.2,0,0.3,0,0.4,0.1S188.5,379.3,188.5,379.5z"/>
			<path display="inline" fill="#FFFFFF" d="M188,380c-0.2,0-0.3,0-0.4-0.1s-0.1-0.2-0.1-0.4c0-0.2,0-0.3,0.1-0.4s0.2-0.1,0.4-0.1
				h0.9c0.1,0,0.3,0,0.4,0s0.2-0.1,0.3-0.1s0.1-0.1,0.2-0.3s0.1-0.3,0.1-0.5v-2.7h1v2.3c0,0.2,0,0.4,0,0.5s0.1,0.3,0.2,0.4
				s0.2,0.2,0.3,0.3s0.3,0.1,0.5,0.1c0.2,0,0.3,0,0.4,0.1s0.1,0.2,0.1,0.4c0,0.2,0,0.3-0.1,0.4s-0.2,0.1-0.4,0.1c-0.1,0-0.3,0-0.4,0
				s-0.2-0.1-0.4-0.1s-0.2-0.1-0.3-0.2s-0.1-0.2-0.2-0.3c-0.1,0.1-0.2,0.3-0.3,0.3s-0.3,0.2-0.4,0.2s-0.3,0.1-0.4,0.1s-0.3,0-0.4,0
				H188z M189.6,381.9c0-0.1,0-0.2,0-0.2s0.1-0.1,0.1-0.2s0.1-0.1,0.2-0.1s0.2,0,0.2,0c0.1,0,0.2,0,0.2,0s0.1,0.1,0.2,0.1
				s0.1,0.1,0.1,0.2s0,0.2,0,0.2c0,0.1,0,0.2,0,0.2s-0.1,0.1-0.1,0.2s-0.1,0.1-0.2,0.1s-0.2,0-0.2,0c-0.1,0-0.2,0-0.2,0
				s-0.1-0.1-0.2-0.1s-0.1-0.1-0.1-0.2S189.6,382,189.6,381.9z"/>
			<path display="inline" fill="#FFFFFF" d="M192,380c-0.2,0-0.3,0-0.4-0.1s-0.1-0.2-0.1-0.4c0-0.2,0-0.3,0.1-0.4s0.2-0.1,0.4-0.1
				h1.5v-7.4h1v8.4H192z"/>
			<path display="inline" fill="#FFFFFF" d="M197.2,371.6v8.4h-1v-8.4H197.2z"/>
		</g>
	</g>
	<g>
		<g display="none">
			<path display="inline" fill="#FFFFFF" d="M217.1,451.7h1v1.6c0,0.4,0,0.7,0.1,1s0.2,0.5,0.4,0.6s0.4,0.3,0.7,0.4s0.6,0.1,1,0.1
				c0.4,0,0.7,0,1-0.1s0.5-0.2,0.7-0.3s0.3-0.4,0.4-0.6s0.1-0.6,0.1-1v-3.1h1v3.1c0,0.6-0.1,1-0.2,1.4s-0.4,0.7-0.6,0.9
				s-0.6,0.4-1,0.5s-0.9,0.2-1.4,0.2c-1.1,0-1.9-0.2-2.5-0.7s-0.8-1.2-0.8-2.1V451.7z M219.8,449.9c0-0.1,0-0.2,0-0.2
				s0.1-0.1,0.1-0.2s0.1-0.1,0.2-0.1s0.2,0,0.2,0c0.1,0,0.2,0,0.2,0s0.1,0.1,0.2,0.1s0.1,0.1,0.1,0.2s0,0.2,0,0.2c0,0.1,0,0.2,0,0.2
				s-0.1,0.1-0.1,0.2s-0.1,0.1-0.2,0.1s-0.2,0-0.2,0c-0.1,0-0.2,0-0.2,0s-0.1-0.1-0.2-0.1s-0.1-0.1-0.1-0.2S219.8,450,219.8,449.9z"
				/>
			<path display="inline" fill="#FFFFFF" d="M226.3,446.6v8.4h-1v-8.4H226.3z"/>
			<path display="inline" fill="#FFFFFF" d="M229,450.4h1v4c0,0.6,0,1.1-0.1,1.5s-0.2,0.7-0.3,1s-0.4,0.4-0.7,0.6s-0.7,0.2-1.1,0.2
				h-0.4v-1h0.4c0.3,0,0.5,0,0.7-0.1s0.3-0.2,0.4-0.4s0.1-0.4,0.1-0.7s0-0.6,0-1V450.4z M228.9,448.4c0-0.1,0-0.2,0-0.2
				s0.1-0.1,0.1-0.2s0.1-0.1,0.2-0.1s0.2,0,0.2,0c0.1,0,0.2,0,0.2,0s0.1,0.1,0.2,0.1s0.1,0.1,0.1,0.2s0,0.2,0,0.2c0,0.1,0,0.2,0,0.2
				s-0.1,0.1-0.1,0.2s-0.1,0.1-0.2,0.1s-0.2,0-0.2,0c-0.1,0-0.2,0-0.2,0s-0.1-0.1-0.2-0.1s-0.1-0.1-0.1-0.2S228.9,448.5,228.9,448.4
				z"/>
			<path display="inline" fill="#FFFFFF" d="M234,454.5c0,0.2,0,0.3-0.1,0.4s-0.2,0.1-0.4,0.1h-0.2c-0.3,0-0.5,0-0.7-0.1
				s-0.4-0.1-0.5-0.3s-0.3-0.3-0.4-0.5s-0.1-0.5-0.1-0.8v-6.7h1v6.5c0,0.2,0,0.3,0,0.4s0.1,0.2,0.1,0.3s0.1,0.1,0.3,0.2s0.3,0,0.4,0
				h0c0.2,0,0.3,0,0.4,0.1S234,454.3,234,454.5z"/>
			<path display="inline" fill="#FFFFFF" d="M238.3,454c0-0.5-0.1-0.9-0.2-1.3s-0.3-0.6-0.5-0.9s-0.5-0.4-0.8-0.5s-0.6-0.1-1-0.1
				c-0.1,0-0.2,0-0.4,0s-0.3,0-0.4,0s-0.2,0-0.3,0.1s-0.2,0-0.3,0.1v-1c0.2-0.1,0.4-0.1,0.6-0.2s0.6-0.1,0.9-0.1
				c0.6,0,1.1,0.1,1.6,0.3s0.8,0.5,1.1,0.8s0.5,0.8,0.6,1.2s0.2,1,0.2,1.5v0.9h-5.8c-0.2,0-0.3,0-0.4-0.1s-0.1-0.2-0.1-0.4
				c0-0.2,0-0.3,0.1-0.4s0.2-0.1,0.4-0.1H238.3z M235.4,456.9c0-0.1,0-0.2,0-0.2s0.1-0.1,0.1-0.2s0.1-0.1,0.2-0.1s0.2,0,0.2,0
				c0.1,0,0.2,0,0.2,0s0.1,0.1,0.2,0.1s0.1,0.1,0.1,0.2s0,0.2,0,0.2c0,0.1,0,0.2,0,0.2s-0.1,0.1-0.1,0.2s-0.1,0.1-0.2,0.1
				s-0.2,0-0.2,0c-0.1,0-0.2,0-0.2,0s-0.1-0.1-0.2-0.1s-0.1-0.1-0.1-0.2S235.4,457,235.4,456.9z"/>
		</g>
	</g>
</g>
</svg>
