<?xml version="1.0" encoding="utf-8"?>
<!-- Generator: Adobe Illustrator 22.1.0, SVG Export Plug-In . SVG Version: 6.00 Build 0)  -->
<svg version="1.1" id="Layer_1" xmlns="http://www.w3.org/2000/svg" xmlns:xlink="http://www.w3.org/1999/xlink" x="0px" y="0px"
	 viewBox="0 0 673 551" style="enable-background:new 0 0 673 551;" xml:space="preserve">
<style type="text/css">
	.st0{fill:#FEFEFE;}
	.st1{fill:#169F5B;}
	.st2{fill:#129451;}
	.st3{fill:#119452;}
	.st4{fill:#32A068;}
	.st5{fill:#119451;}
	.st6{fill:#CDEADC;}
	.st7{fill:#CFEBDD;}
	.st8{fill:#D2ECDF;}
	.st9{fill:#FBFDFC;}
	.st10{fill:#A9DCC2;}
	.st11{fill:#A7DBC1;}
	.st12{fill:#9AD5B7;}
	.st13{fill:#A5DABF;}
	.st14{fill:#F7FBF9;}
	.st15{fill:#F6FBF8;}
	.st16{fill:#D4EDE0;}
	.st17{fill:#DCF0E6;}
	.st18{fill:#AEDDC5;}
	.st19{fill:#D7EEE2;}
	.st20{fill:#F9FCFA;}
	.st21{fill:#EAF6F0;}
	.st22{fill:#9FD7BB;}
	.st23{fill:#C5E7D6;}
	.st24{fill:#C0E5D3;}
	.st25{fill:#DBF0E6;}
	.st26{fill:#E3F3EB;}
	.st27{fill:#B8E2CD;}
	.st28{fill:#A4D9BE;}
	.st29{fill:#A9DBC2;}
	.st30{fill:#ACDDC4;}
	.st31{fill:#D0EBDD;}
	.st32{fill:#C9E9D9;}
	.st33{fill:#D8EFE3;}
	.st34{fill:#CBE9DA;}
	.st35{fill:#EFF8F4;}
	.st36{fill:#EDF7F2;}
	.st37{fill:#98D5B6;}
	.st38{fill:#1AA15D;}
	.st39{fill:#44B27B;}
	.st40{fill:#51B784;}
	.st41{fill:#41A973;}
	.st42{fill:#219B5C;}
	.st43{fill:#1F9A5A;}
	.st44{fill:#159553;}
	.st45{fill:#0B914C;}
	.st46{fill:#67BA8F;}
	.st47{fill:#64B98D;}
	.st48{fill:#189656;}
	.st49{fill:#ADDDC5;}
	.st50{fill:#F2F9F5;}
	.st51{fill:#B3DFC9;}
	.st52{fill:#97D4B5;}
	.st53{fill:#4DB682;}
	.st54{fill:#49B47E;}
	.st55{fill:#C8E8D8;}
	.st56{fill:#F1F9F5;}
	.st57{fill:#34AC70;}
	.st58{fill:#B1DFC8;}
	.st59{fill:#D3EDE0;}
	.st60{fill:#BCE3D0;}
	.st61{fill:#9ED7BA;}
	.st62{fill:#E5F4EC;}
	.st63{fill:#CEEBDC;}
	.st64{fill:#BDE4D0;}
	.st65{fill:#C3E6D5;}
	.st66{fill:#CEE8DB;}
	.st67{fill:#D1EADD;}
	.st68{fill:#22A563;}
	.st69{fill:#26A666;}
	.st70{fill:#41B179;}
</style>
<g>
	<path class="st0" d="M674,352c0,65.1,0,130.3,0,195.4c0,0.7-0.1,1.3,0,2c0.3,2-0.1,3.1-2.4,2.6c-0.8-0.2-1.7,0-2.5,0
		c-221.1,0-442.2,0-663.2,0c-1.6,0-3.6,0.4-4.7-0.3c-0.7-0.5-0.1-2.8-0.1-4.3C1,410.9,1,274.4,1,138c5.3-2.4,10.7-1.3,16.1-0.7
		c2.1,0.2,3.2,2.3,4,4.1c8.9,21,23.3,38.5,36.2,57c3.7,5.2,7.7,10.3,9.2,16.9c0.8,3.6,4.4,5.7,6.7,8.5c3.8,4.7,6.9,9.7,9.3,15.2
		c1.4,3.3,2.2,6.7,1.2,10.2c-0.9,3,0.3,4.8,2.8,6.1c3.3,1.7,4.8,4.4,4.9,8.1c1.4,4.8,3.9,7.4,9.2,9.3c8.1,3,14.7,9.4,21.9,14.4
		c1,0.7,1.5,1.9,1.5,3c-0.1,3.5,2,5.8,3.9,8.3c2.6,3.1,4.4,6.7,5.6,10.5c2.2,7,4.4,14,8,20.4c2.2,4.1,2.3,8.3,0.3,12.5
		c-2,4.4-1.7,8.5-0.1,13c2.2,6.1,3.8,12.5,3,19c-0.4,3.6,0.8,6.7,3,9.2c5.1,6,9.6,12.3,13.1,19.4c2.4,5,7.9,6.7,12.3,9
		c5.5,2.9,10.4,6.6,15.5,10c0.6,0.4,1.2,0.8,1.7,1.3c0.5,0.5,0.9,1.1,1.4,1.6c0.5,0.5,1,1,1.4,1.5c3.7,8.8,10.7,15.6,14.2,24.6
		c1.7,4.3,3.5,8.5,3,13.3c-0.2,2,0.7,3.5,2.2,4.7c1.8,1.4,3.4,3.1,5,4.8c0.3,0.3,0.6,0.7,0.9,1c0.4,0.5,0.8,1.1,1.1,1.8
		c0.6,1.8,0.3,3.8,1,5.6c0.2,0.4,0.3,0.7,0.5,1.1c0.1,0.2,0.2,0.3,0.3,0.5c0.2,0.3,0.5,0.6,0.7,0.9c0.1,0.1,0.3,0.3,0.4,0.4
		c0.3,0.3,0.5,0.6,0.7,0.9c0.2,0.3,0.4,0.7,0.6,1.1c0.3,0.5,0.6,1.1,0.9,1.6c0.2,0.4,0.4,0.8,0.7,1.2c2,4.5,4.8,7.9,9,10.8
		c6.6,4.6,10.6,11.8,13.9,19.1c3.6,8,9.3,14.9,12.2,23.4c1.3,3.9,3.8,4.1,6.8,1.3c1.7-1.5,3.5-3.1,5.1-4.8c2.4-2.5,3.2-5.2,2.1-8.6
		c-1.6-4.9-1.2-9.5,2.2-13.7c1.1-1.4,0.9-2.8,0.3-4.2c-0.2-0.5-0.3-1-0.3-1.5c-0.2-1.6-0.2-3.1,0.7-4.5c3.2-2.3,5.7-0.7,8.1,1.5
		c0.3,0.3,0.7,0.6,1,1c0.1,0.2,0.3,0.3,0.4,0.5c0.3,0.3,0.6,0.6,0.8,0.9c0.1,0.1,0.3,0.3,0.4,0.5c0.3,0.3,0.6,0.6,0.9,0.8
		c0.2,0.1,0.3,0.2,0.5,0.3c0.6,0.3,1.2,0.5,1.8,0.6c0.7,0.2,1.4,0.4,2.1,0.7c0.8,0.3,1.7,0.6,2.4,0.2c8.5-4.6,17.8-3.2,26.9-3.4
		c3.8-0.1,7.6,0.1,11.5,0c3.6-0.1,6.8,0.7,9.9,2.7c3.7,2.4,7.8,3.4,12.3,3.4c9.1-0.1,18.3,0,27.4,0c4.2,0,7.3,1.7,9.6,5.2
		c3.7,5.4,4.1,5.5,10.6,3.9c2.2-0.9,3.7-2.9,5.5-4.3c0.7-0.6,1.1-1.3,1.4-2.2c1.4-3.4,2-7,3.8-10.2c0.4-0.6,0.8-1.2,1.2-1.8
		c0.5-0.8,1.1-1.7,1.8-2.4c3.9-5,8.2-9.7,11.9-14.8c3.6-4.9,8.2-7.9,13.7-10.3c11.4-5.1,22.6-10.7,35.1-12.4
		c10.2-1.4,20.5-1.9,30.7-3.5c26-4.1,51.7-8.9,76.3-19.1c19.1-7.9,38.7-14.4,58.1-21.4c4.5-1.6,7.1-4.2,8.5-8.8
		c6.2-19.3,12.1-38.8,18.6-58C671.5,354.8,671.3,352.3,674,352z"/>
	<path class="st0" d="M188,1c160.5,0,321,0,481.5,0c1,0,2,0.1,3,0c1.3-0.2,1.7,0.2,1.5,1.5c-0.1,1,0,2,0,3c0,114.8,0,229.7,0,344.5
		c-2.6,0-3.1-2.2-4.1-3.8c-3.1-4.9-6.1-9.9-9-15c-1.6-2.8-3.1-4-6.2-1.7c-4,2.9-8.5,1.6-13,1.1c-16.8-1.9-32.9-6.8-49.5-9.6
		c-4.4-0.8-8.8-1.5-13.3-2.3c-4.4-0.8-7.6-2.8-10.2-6.4c-7.1-9.5-14.3-18.9-21.5-28.2c-2.4-3-4.8-6-5.7-9.8c-0.6-2.3-2.5-3.3-4.7-4
		c-4-1.3-4.3-2.4-2.1-6.1c0.6-0.9,2.1-1.8,1.3-3c-0.6-1-2.2-0.8-3.3-0.5c-10.4,2.8-15.6-3.4-20.1-11.3c-2.6-4.5-5.1-8.9-5.9-14.1
		c-0.4-2.5-1.9-4.5-3.7-6.4c-6.6-6.6-10-14.3-8.5-23.8c1.8-11.6-1-21.3-11.7-28c-6-3.8-11.7-8-14.2-15.5c-1.2-3.4-4.7-5.1-8.3-5.7
		c-3.9-0.7-5.6-2.7-6.8-6.7c-2.6-8.6-6.5-16.7-11.5-24.3c-1.3-2-3.3-2.6-5.6-2.6c-4,0-8,0-12,0c-6.5-0.1-9.5-2.5-10.4-9
		c-0.5-3.3-1.4-6.2-4.7-7.6c-0.7-0.3-1.4-0.6-2.1-0.8c-0.7-0.2-1.4-0.5-2.2-0.7c-0.8-0.2-1.6-0.4-2.4-0.6
		c-11.7-0.4-23.3-0.1-34.9-0.2c-2.6,0-5.2,0.1-7.8-0.3c-1.6-0.4-3.2-0.8-4.8-0.7c-1.9,0-3.7,0-5.5-0.4c-1.5-0.5-3-0.7-4.6-0.6
		c-1.8,0-3.6,0-5.4-0.4c-1.5-0.5-2.9-0.7-4.5-0.6c-1.5,0-3,0-4.5-0.4c-1.6-0.5-3.3-0.7-5-0.8c-0.7,0-1.4-0.2-2.1-0.4
		c-0.7-0.2-1.3-0.5-1.9-0.9c-1.2-0.7-2.3-1.6-3.4-2.6c-26-21-51.9-42-78-62.8c-6-4.8-13.9-6.3-20.6-9.8
		C208.7,17.1,199.1,9.9,189,3.5C188.2,3,187.5,2.2,188,1z"/>
	<path class="st1" d="M409,104.2c4.3,1.2,6.1,4.2,6,8.5c0,1.9,0.7,3.5,1.6,5.1c1.2,2.1,2.8,3.1,5.3,3c5-0.1,10,0.1,15-0.1
		c3.2-0.1,5,1.3,6.7,4.1c4.1,6.5,6.5,13.8,10.2,20.5c0.6,1.1,0.8,2.5,1,3.8c0.5,3.9,0.5,4.1,4.6,4.9c6.4,1.2,10.4,4.6,12.2,10.9
		c0.6,2.3,2.2,4,4.2,5.3c3.7,2.6,7.3,5.2,10.8,8c6.1,4.7,10,10.5,9.3,18.7c-0.3,3.8-0.5,7.7-0.5,11.5c0,7,2,13.6,7.3,18.3
		c3,2.7,5.3,5.6,5.5,9.6c0.4,6.4,5,10.7,7.7,15.9c0.5,0.9,1.3,1.6,1.8,2.4c2.9,4.8,7,6.4,12.3,4.6c2.5-0.9,5,0.1,7.6-0.3
		c1.7-0.3,1.7,1.4,1,2.4c-1.1,1.5-2.6,2.6-3.7,4c-1.7,2.2-1.3,3.1,1.4,3.4c4.8,0.5,5.7,1.3,6.6,6.2c0.3,1.6,1.2,2.8,2,3.9
		c8.8,11.7,17.8,23.3,26.6,35c1.3,1.7,2.9,2.6,5,2.9c14.2,2.2,28.4,4.9,42.4,8.5c5.3,1.4,10.7,2.1,16.2,2.6c2.5,0.2,4.9,0.7,7.3,1.3
		c4.8,1.2,9.3,1.5,13.4-2.3c2.5-2.3,2.8-2,4.6,0.9c4.5,7.3,8.5,15,13.4,22.1c0,0.7,0,1.3,0,2c-3.2,7.6-5.3,15.6-7.8,23.5
		c-4.7,14.2-9.1,28.4-13.5,42.7c-0.8,2.7-2.3,4-4.8,5c-19,6.9-38,13.9-57,20.8c-8.7,3.2-17.5,6.1-26.1,9.7
		c-8.1,3.3-16.6,4.5-25.1,6.2c-10.8,2.1-21.5,4-32.4,5.6c-7.7,1.2-15.5,1.7-23.3,2.6c-8.9,1-17.7,2.8-25.9,6.5
		c-6.3,2.9-12.7,5.8-19,8.6c-1.8,0.8-3.3,2-4.7,3.6c-5.5,6.5-10.4,13.4-16.3,19.5c-0.7,0.2-1.2,0.6-1.7,1.1c-1,1-1.4,3.3-3.1,2.6
		c-2-0.8-1.6-3.1-1.4-4.9c1.9-17.5,3.2-35,4.9-52.5c1.7-17.3,4.3-34.5,6.5-51.8c2.4-19.1,5-38.1,7.4-57.2c1.9-15,3.9-29.9,5.9-44.9
		c1.7-7.8,1.2-15.3-2.2-22.8c-3.6-7.8-10.3-12-16.9-16.3c-4.7-3.1-7.1-6.3-7-12c0.3-13.5,0-27,0.2-40.5c0-3.9-0.9-6.3-5.2-6.9
		c-4.9-0.7-8.2-4.2-11.4-7.6c-1.6-1.7-3.2-3.4-5.9-3.1c-4.3,0.5-7.8-1.2-10.9-3.9c-2.5-2.2-5.3-3.1-8.7-3.2
		c-4.8-0.1-8.8-2.1-11.3-6.2c-1.2-2-2.8-2.4-4.9-2.7c-7.5-1.1-13.5-4.6-16.6-11.9c-0.5-1.3-1.3-2.2-2.3-3.2
		c-4.2-3.8-4.8-5.4-1.6-9.8c6.2-8.7,10.4-18.5,16.4-27.3c4.4-6.5,10.7-11.4,16.3-16.8c1.4-1.4,3.3-1.3,5.2-1.3
		c10.2,0,20.3,0.1,30.5-0.1C403.3,102.9,405.9,105,409,104.2z"/>
	<path class="st1" d="M188,1c4.8,4.3,10.7,7.1,15.9,10.8c9.2,6.5,19.2,11.8,29.8,15.7c6.5,2.3,11.1,7.2,16.3,11.3
		c22.6,18,45,36.2,67.5,54.4c0.6,0.5,1.1,1.2,1.7,1.8c1.4,3.2,4.3,3.8,7.4,4.1c11.2,1.2,22.5,2.1,33.7,3.5c1.1,0.1,2.5-0.4,3.1,1
		c0.6,1.5-0.4,2.5-1.3,3.5c-3,3.1-6,6.3-9,9.4c-5.3,5.6-9.3,12.1-12.1,19.2c-1.1,2.8-3.4,4.9-5.1,7.4c-2.7,4-5.8,7.6-5.9,12.9
		c-0.1,2.8-2.3,3.4-4.1,1.3c-4.8-5.5-10.8-7.9-17.9-8.7c-5-0.5-8.1-3.4-9.2-8.5c-0.9-4.3-4-7.6-5.7-11.6c-0.9-2.1-2.6-1.3-4.3-0.8
		c-8.4,2.6-15.9,1.1-22-5.3c-1.2-1.3-2.3-0.9-3.6-0.5c-4.4,1.3-7.8-0.4-10.7-3.6c-3.7-4.1-8.3-5.8-13.7-5.9
		c-5.6-0.1-11.3,1.2-16.6-1.7c-1.4-0.7-3.3-0.5-4.9,0c-6.6,2.2-13.5,1.3-20.3,2.3c-4.5,0.7-6.1-1.7-4.3-6c0.9-2.1,1.3-4.1,1.2-6.3
		c-0.4-6.3,2.4-10.7,7.8-14c9.1-5.5,18-11.3,26.9-17.2c4.7-3.1,4.7-3.3,0.2-6.1c-3.6-2.2-5.8-5.4-7.7-8.9c-1.2-2.1-2.7-3.1-5.2-3.1
		c-4.3,0.1-8.2-1.3-11.7-3.8c-2.2-1.6-4.7-2.3-7.5-2.2c-3.7,0.1-7.3-0.2-11,0.1c-5.7,0.4-10.9-0.6-15.5-4.1
		c-1.2-0.9-2.6-1.6-4.1-1.8c-13-1.6-26-3.1-39.1,0.1c-7.7,1.9-12.8-1.1-17.4-7.5c-4.3-5.9-5.5-11.8-3.7-18.8
		c0.9-3.3,2.9-5.2,5.2-7.1c5.2-3.6,11.4-3.6,17.3-4.7c0.9-0.2,2,0.2,2.8-0.5C150,1,169,1,188,1z"/>
	<path class="st1" d="M90.2,263.9c0.4-3.8-1.6-6.3-4.8-7.9c-0.7-0.4-1.4-0.8-2.1-1.3c-1.7-1.3-2.9-2.3-1.1-4.8
		c1.7-2.3,1.3-5.5,0.2-8.1c-2.7-6.4-5.7-12.7-10.8-17.7c-1.8-1.8-2.9-4.4-5.4-5.7c-0.5-0.3-1.1-1-1.1-1.6c0-4.5-2.8-7.7-4.9-11.3
		c-2.2-3.8-4.6-7.3-7.3-10.7c-2.4-3-4.7-6-6.5-9.4c-2.5-4.6-5.9-8.4-9.1-12.5c-3.6-4.6-6.7-9.5-9.3-14.7c-2.8-5.8-5.8-11.6-8.6-17.4
		c-1-2-2.1-3.1-4.5-2.9c-4.6,0.3-9.3,0.2-14,0.2c0-1.3,0-2.7,0-4c1.3-3.7,1.1-7.9,4.4-10.8c2-2.7,1.6-6.1,2.2-9.1
		c0.6-3.2,2.2-5,5.4-5.7c2.1-0.5,4.3-0.7,6.4-0.8c6.3,0,12.7,0.2,19-0.1c5.9-0.2,11.1,1.4,14.6,6.1c4,5.3,8.7,6.6,14.8,4.7
		c3.8-1.1,7.5-0.9,11.4-0.1c6.4,1.2,10.1-0.7,13.2-6.7c1.3-2.4,3-4.1,5.9-3.6c3.1,0.6,3,3.1,3.1,5.5c0.1,2.8-0.1,5.7,0.1,8.5
		c0.2,4.8,2.8,7.7,7.5,8.5c1.1,0.2,2.3,0.2,3.5,0.3c5.6,0.5,11.7-0.7,16.2,4.4c0.9,1,2.1,0.5,3.2-0.1c3.5-1.9,7-1.8,10.6-0.1
		c0.8,0.4,1.6,0.7,2.4,0.6c8.6-0.5,14.1,5.1,20,10c2.4,2.1,3.3,5,3.6,8c0.5,4.9,1.3,9.3,6.2,12.2c3.3,2,3.3,5.6,1.1,8.8
		c-0.7,1-1.5,1.7-2.3,2.6c-2.5,3-3.2,8.1-7.7,8.7c-6.9,0.9-14,1.6-20.8-0.6c-5.3-1.7-10.2-3.6-15.9-1.3c-3.6,1.5-7.2-0.1-10.4-2.2
		c-5.2-4.9-12.3-7.4-16.4-13.9c-3.3-5.3-9.2-4.2-14.1-2.8c-3.3,0.9-6.5,2.4-10.1,2.3c-2.1,0-3.1,1-2.1,3.2c0.5,1.1,1.2,2.1,1.1,3.3
		c-0.5,6.5,1.8,11.2,8.1,13.9c2,0.8,2.1,3.3,1.8,5.3c-0.3,2-0.9,3.9-1.3,5.9c-0.7,2.9,0.1,4.8,3.2,5.7c7.7,2.1,11.4,8.2,14.4,14.8
		c1.4,3.1,2.6,6.1,5.8,7.8c2.8,1.5,3.3,4,3.1,6.8c-0.4,4.3-0.9,8.6-1.4,12.9c-0.4,3-1.9,5.3-4.8,6.5c-3.7,1.6-6.7,4.4-10.6,5.5
		c-1.6,0.3-3.1,0.7-3.3,2.7C92,262.7,91.8,264,90.2,263.9z"/>
	<path class="st0" d="M5.8,123.7c-2.3,3.1-2.6,7.2-4.8,10.3C1,90.7,1,47.5,1,4.2C1,1,1,1,4.2,1C46.5,1,88.7,1,131,1
		c-5.7,2.6-12,3.2-18,5c-0.8,0.2-1.7,0.2-2.2,0.9c-0.4,0.9-1.4,0.5-2.1,0.9c-0.6,0.2-1.1,0.6-1.6,0.8c-0.4,0.2-0.8,0.3-1.2,0.4
		c-0.8,0.3-1.6,0.6-2.4,0.9c-0.4,0.2-0.9,0.4-1.3,0.5c-6.3,2.7-12.9,4.5-19.3,6.9c-3.3,1.2-4.3,2.1-1.5,5.2
		c7.4,8.3,15.2,16.4,22.4,24.9c3.9,4.6,3.9,5.7-1.2,8.8c-3.5,2.1-5.8,4.9-6.7,8.9c-1.1,4.8-4,7.3-9.1,7.7c-3.8,0.3-7.6,1.2-11.4,1.3
		c-5,0.2-8.1,2.5-10.3,6.7C61.9,87,57,91.6,51.4,95.6c-3.1,2.2-6.2,3-9.9,2.3c-7-1.3-14.1-2.4-21.2-3.6c-0.9-0.1-1.8-0.2-2.7-0.5
		c-1-0.3-2-0.6-3-0.7c-0.5,0-1.1,0-1.6,0.2c-0.5,0.3-0.6,0.8-0.8,1.3c-0.1,0.8-0.2,1.5-0.4,2.3c-0.2,0.8-0.4,1.6-0.5,2.4
		c-0.1,0.8-0.2,1.7-0.4,2.5c-0.2,0.8-0.5,1.6-0.6,2.5c-0.1,0.9-0.2,1.7-0.4,2.6c-0.2,0.9-0.4,1.7-0.6,2.6c-0.3,1.1-0.7,2.1-0.7,3.3
		C8,113.8,8,115,7.9,116.1c-0.4,1.1-0.4,2.2-0.4,3.3c-0.2,0.9-0.5,1.7-0.6,2.6C6.7,122.7,6.5,123.4,5.8,123.7z"/>
	<path class="st1" d="M189,422.9c-1.3,0.1-2.3-0.5-3.1-1.3c-5.7-5.6-13.2-8.2-19.8-12.3c-2.8-1.7-5.2-3.4-6.6-6.5
		c-3.3-6.8-7.5-12.9-12.5-18.5c-2.8-3.1-4.6-6.9-3.2-11.4c0.7-2.2-0.2-4.3-0.6-6.4c-0.9-4.7-1.5-9.4-3.5-13.9
		c-1.4-3.2-1.5-7.2,0.8-10.5c2.6-3.7,2.3-7.8,0.4-11.4c-4.1-7.5-6.9-15.4-9.2-23.6c-0.9-3.1-3-5.5-4.7-8.1c-0.4-1.1,0.3-1.2,1.1-1.3
		c2,0.9,4,1.6,6.2,0.7c3.3-1.2,6.1,0,7.7,2.9c3.2,5.9,8.8,7.5,14.7,8.9c2.3,0.5,4.3-0.5,6.3-1.1c2.1-0.7,4.1-1.2,6.3-0.4
		c3.4,1.3,4.2,3.6,2.7,6.7c-1.4,2.8-1.2,4.9,1.6,6.8c1.9,1.3,2.5,3.4,2.3,5.7c-0.2,3.1,1.5,3.8,3.6,2.1c3.3-2.9,6.8-3.9,11-2.5
		c1.4,0.5,2.7-0.2,3.4-1.4c4-7,11.2-10.3,17.4-14.6c3.3-2.3,5-4,1.3-7.5c-2.8-2.8-0.3-5.2,2.1-6.3c3.8-1.7,7.2-4.1,11.1-5.7
		c2.4-1.2,2.5-3.2,2.3-5.5c-0.3-2.2,0.3-4.1,2.8-4.5c2.6-0.4,3.9,0.8,5.5,3c5.5,7.7,6.6,16.9,9,25.6c1.3,4.6,3.7,7.2,8.7,7.1
		c2.8,0,5.6,0.8,8.4,1c4.7,0.3,6.1,2.2,5.5,6.9c-0.8,6-0.8,6,5.5,6c9.9,0.1,9.5,0.1,10.1,10c0.5,9.2-1.8,18.1-2.5,27.2
		c-0.3,3.4,0.5,5.8,2.5,8.1c1.2,1.4,2.5,2.6,3.4,4.3c3.5,6.5,2.4,7.3-4.5,9.4c-8,2.4-16.5,3.2-24.1,7c-3,1.5-5.4,3.8-7.6,6.4
		c-4.8,5.8-8.2,5.5-12.2-1.1c-0.6-1-1.2-2-1.7-3c-1.2-2.4-3-3-5.4-1.8c-2.4,1.3-5.2,1.1-7.7,1.9c-2.5,0.8-4.6,0.2-6-2.1
		c-0.9-1.5-1.9-2.8-3.9-2.3c-2.1,0.5-2.3,2.3-2.2,3.9c0.2,6.1-2.2,10.3-8,13.1c-3.3,1.6-6,4.6-8.8,7.2
		C193,421.3,191.2,422.5,189,422.9z"/>
	<path class="st1" d="M406.3,526.1c-3,3-6.8,1.7-10.4,1.9c-1.2,0.1-1.7-0.8-1.9-1.9c-0.3-1.8-1-3.4-2.3-4.9c-2-2.2-4-3.4-7.3-3.3
		c-9.5,0.3-18.9-0.1-28.4,0.2c-5.3,0.2-9.7-1.7-13.9-4.5c-1.6-1.1-3.1-1.6-5-1.6c-9.8,0-19.6,0-29.4,0.1c-3.8,0-7.5,0.9-10.5,3.6
		c-0.8,0.7-1.3,0.8-2,0.3c-1.1-0.7-2.3-1.3-3.4-2c-0.5-1.2-2-1.7-2-3.2c0.3-7.4-2.7-14.4-2.2-21.8c0.2-3.1,0.6-6.1,2.6-8.4
		c4-4.6,8.8-8.6,12-13.9c0.6-1,1.8-1.6,2.9-1.8c5.4-1.1,6.9-4.8,6.4-9.6c-0.6-5.3,3.2-9.2,4.3-14c0.5-2.2,2.8-2.2,4.5-0.9
		c2.7,1.9,5.7,3.3,8.8,4.6c2.1,0.9,4.3,0.6,6.4,0.6c4.8,0.1,9.6-0.3,14.4,0.8c2.4,0.5,5.1,0.5,7.5,0c12.4-2.6,25.2-2,37.6-3.8
		c5.9-0.9,11.8-2.2,17.7-3.1c5.3-0.8,5.5-0.7,5.1,4.5c-1.4,17.6-3,35.1-4.7,52.6c-0.5,5.2-1.6,10.5-0.9,15.9
		C413.2,518.3,409.2,522,406.3,526.1z"/>
	<path class="st1" d="M218,474.9c-3.3-1.7-5.3-4.9-8.3-6.9c-1.7-1.1-0.8-3.1-0.5-4.6c0.3-1.6,0.9-3.2-0.7-4.5
		c-0.1-0.1-0.3-0.3-0.2-0.4c0.8-3.9-2.4-6.5-3.3-9.9c-0.6-2.2-2.1-3.8-3.4-5.6c-2.5-3.7-4.5-7.7-7.3-11.3c-1.1-1.4-0.4-4.1-2.5-5.5
		c-0.4-2-1-3.9,1-5.4c4.2-3.2,7.7-7.4,12.6-9.8c3.6-1.8,5.2-4.4,5.1-8.3c0-1.3,0-2.6,0.3-4c0.4-1.7,0.7-3.3,2.9-3.5
		c1.9-0.2,3.4,0.7,3.9,2.4c1.1,3.4,3.3,3.2,5.9,2.2c2.9-1.1,6.1-0.9,9-2.4c2-1.1,4.4-0.1,4.1,3.1c-0.2,2.2,0.1,4.2,0.9,6.3
		c1.2,3.2-0.6,5.7-3.1,7.2c-3.3,2-3,5.3-4.1,8.1c-1.2,3.1-1,5.5,0.9,8.7c4.7,7.9-0.3,17.9-9.4,19.5c-2.4,0.4-3.6,1.3-3.5,3.8
		c0.1,1.8,0.1,3.7,0,5.5c-0.2,2.9,1.1,4,4.1,4.3c6.8,0.5,9.7,5.1,7.5,11.8c-0.7,2.2-0.8,4.6-2.6,6.4c-1.2,1.2-2.4,2.7-4.2,2.2
		c-2-0.6-3.2-2.3-3.6-4.4C219.2,478,220.4,475.9,218,474.9z"/>
	<path class="st1" d="M278,513c1.8,1.7,2.7,3.4-0.1,5.1c-3.4,2.1-2.4,5.8-2.9,9c-0.1,0.8,0.1,1.7,0.5,2.4c3.2,5.8-0.1,9.6-4.1,13.2
		c-1.2,1.1-2.6,2-3.8,3.2c-2.8,2.9-5.8,2.7-7.7-0.9c-1.2-2.3-2-4.9-3-7.3c-0.4-1.1-0.5-2.4-1.2-3.2c-6.1-7.6-8.9-17-14.3-24.9
		c-2.6-3.8-5.4-8-10.2-9.8c-3.4-1.2-4.1-4.6-5.7-7.2c-0.7-1.1-1-2.4-1.5-3.6c0.6-1.1-0.4-2.3,0.2-3.4c1.3-2.5,3-5.2,6.1-5.1
		c3.3,0.1,2.8,3.2,2.8,5.4c0.1,2.4,1,3.2,3.2,4.2c3.9,1.6,7.5,3.8,11.9,4.5c3.1,0.5,4.3,3.9,6.9,5.5c2,1.2,3.6,2.1,3.5-1.6
		c-0.1-2,0.5-3.9,2.2-5.3c2.4-1.9,6.3-1.6,6.7,0.9c0.5,3.5,2.6,5.7,4.7,7.9C275.2,505.2,277.1,508.8,278,513z"/>
	<path class="st2" d="M278,513c-0.2,0.5-0.5,0.9-1,0.5c-0.9-0.7-1.1-1.6-1-2.7c0-1,0.3-2.6-0.2-2.9c-3-2-4.1-5.8-6.9-7.7
		c-1.6-1.1-1.8-1.9-1.9-3.3c-0.2-1.6,1-3.9-2.2-3.9c-2.9,0-4.5,1.4-4.8,4.4c0,0.2,0,0.3,0,0.5c-0.3,1.9,0.6,3.8-0.5,5.6
		c-2.5-0.9-5.5-1.5-6.8-3.7c-2.3-3.8-5.3-5.2-9.4-4.8c-1.1,0.1-2-0.2-2.7-1c-1.7-2.3-3.9-3.4-6.9-3c-1.3,0.2-1.7-0.8-1.7-1.9
		c0-1.7,0.1-3.3,0-5c-0.1-1.1,0.5-2.4-1-2.9c-1.4-0.4-2,0.8-3,1.4c-2.5,1.5-2.7,4.3-3.8,6.5c-0.2-0.2-0.3-0.5-0.2-0.8
		c-0.2-0.4-0.5-0.8-0.7-1.1c-0.2-0.2-0.4-0.5-0.3-0.8c-0.2-0.5-0.6-0.8-0.9-1.2l0,0c-0.3-0.3-0.6-0.6-0.9-1l-0.1-0.1
		c-0.4-0.2-0.6-0.5-0.8-0.8c-2.3-2-1.1-4.6-1.3-7c-0.3-0.4-0.6-0.7-0.8-1.1l-0.1-0.1c0.6-0.9,1.4-1.2,1.7-0.1
		c0.3,1.1,0.3,2.3,0.2,3.4c-0.3,2.4,1.4,3.6,2.8,5c0.3,0.3,0.8,0.6,1.3,0.2c0.1-0.1,0.3-0.2,0.4-0.3c1.2-1.5,3.3-2.4,3.6-4.6
		c0.4-3.6,2.6-7.1,0.3-11c-1.1-1.9-2.3-2.5-4.3-2.5c-7-0.2-7-0.2-7-7.1c0-0.7-0.1-1.3,0-2c0.2-1.9-0.7-4.1,0.6-5.8
		c1.4-1.9,3.7-0.8,5.6-1.1c4.1-0.6,8.2-5.3,7.7-9.5c-0.2-1.5-0.2-2.8,0.1-4.2c0.4-2.4,0.1-4.8-2.4-6c-1.9-0.9-1.9-2-0.9-3.6
		c1-1.6,1.1-3.4,1.6-5.1c0.8-3.1,0.6-7,5.2-8c1-0.2,1.7-2,2.3-3.1c0.8-1.5-0.3-2.4-1.1-3.5c-1.2-1.8-1-3.9-0.2-5.7
		c0.8-2,0-2.4-1.7-2.3c-0.3,0-0.8-0.1-1,0c-3,2.8-7.1,1.6-10.5,2.9c-3.1,1.2-3.9,0.8-5.3-2.1c-0.3-0.6-0.3-1.3-0.6-1.8
		c-1.3-1.7-3.5-1.2-4.5,0.8c-1,2-1.1,4.2-0.9,6.3c0.4,3.4-1.3,5.5-4,6.8c-5.3,2.6-8.9,7.3-13.8,10.2c-2.4,1.4,0.1,3.7-1.5,5
		c-0.6-0.1-0.8-0.5-0.8-1.1c-0.3-0.3-0.5-0.6-0.7-1c-0.4-0.4-0.9-0.8-1.3-1.1c5.8-4.8,10.8-10.6,17.8-13.8c2.9-1.3,2.4-4.1,3.1-6.3
		c0.4-1.2,0-2.6,0.1-4c0.2-4.2,1-4.8,5-4.9c2,0,2.7,0.7,3.4,2.6c1.2,3.5,1.6,3.6,5,2.2c2.9-1.2,6.1-0.4,8.8-2.6
		c1.7-1.4,5,0.2,5.6,2.6c0.6,2.4,2.2,4,3.2,6c1.5,2.9,4.6,3.2,6.9,0.8c0.5-0.6,0.8-1.4,1.3-2.1c3-3.6,6.3-6.8,10.9-8.1
		c5-1.4,9.6-4.4,15.2-3.5c0.4,0.1,1.2-0.1,1.4-0.4c2.3-3.4,5.9-2.4,9.1-2.6c2.2-0.1,2.6-0.8,1.7-2.8c-1.4-2.9-2.4-6-5-8.3
		c-2.4-2.2-4.9-5.1-2.6-9.1c0.6-1,0.1-2.6,0.1-3.9c0-2.6-0.3-5.3,1.4-7.7c0.7-0.9,0.6-1.9,0.6-2.9c0-6.2-0.1-12.3,0-18.5
		c0-2.2-0.8-2.9-2.9-2.8c-3.7,0.1-7.3,0-11,0c-1.4,0-2.2-0.5-2.1-2c0.1-1.6-0.1-3.2,0.4-4.9c1.4-5.1,0.6-6.1-4.8-6
		c-3.8,0.1-7.5-1-11.3-1.3c-2.2-0.2-4.5-1.9-5.6-5.3c-1.9-6.1-2.7-12.4-4.6-18.5c-0.6-1.8-1.1-3.5-2.4-4.8c-1.6-1.5-2.8-3-2.8-5.5
		c-0.1-2.9-2.8-1.5-4.3-1.6c-1.7-0.1-1.9,1.6-1.4,2.5c1.7,3,0,5.4-1.3,7.8c-0.6,1-1.3,0.7-1.8-0.3c0-0.2,0-0.4,0-0.6
		c0-0.4,0.1-0.8,0.2-1.2c0.1-0.4,0.2-0.8,0.3-1.2c0.1-0.6,0.1-1.3,0-1.9c-0.9-6.2-1-6.3,4.8-8.5c2.6-1,2.2-2.9,2.3-4.8
		c0.1-3.4-0.2-7,2.5-9.7c0.4-0.5,0.9-0.9,1.3-1.4c0.4-0.7,0.6-1.4,1-2.1c-0.1-0.4,1.1-0.4,0.3-1c-0.3-0.2-0.7-0.4-1-0.7
		c-0.3-0.3-0.6-0.6-0.9-1c-0.3-0.7-0.2-1.3,0.3-1.9c5.7-4.4,12.4-3.6,19-3.7c1.6,0,3.3,0.4,4.9,0.5c6,0.2,5.8,0.1,7.3-5.6
		c0.8-3,2-6.1,6-6.2c0.5,0.7,0.7,1.4,0.6,2.2c-1,2.6-1.9,5-1.4,8.1c0.6,3.9-2.7,4.9-5.9,5c-6.3,0.3-12.6,0-18.9,0.8
		c-3.6,0.5-6.1,1.2-6.6,5.2c-0.1,1.2-0.8,2.2-1.4,3.2c-4.7,8-5.1,15.8,0.6,23.6c2.5,3.4,3.1,7.7,4.1,11.7c0.2,0.8,0.2,1.7,0.3,2.5
		c1.5,9,3.2,10.7,12.3,12c0.8,0.1,1.6,0.2,2.5,0.3c9.1,0.8,9.2,0.8,9.6,10c0.1,2.2,1.2,2.9,3.1,3c2.3,0.1,4.7,0.1,7,0.1
		c3.8,0,5.6,1.9,5.4,5.6c-0.3,8.4,0.6,16.8-1.5,25.3c-1.5,6.1-1.2,12.1,3.3,18.2c4.5,6.3,10.4,11.5,14.5,18.1c2.5,4,3.6,7,1.3,11.3
		c-3.8,7.1-3.4,7.8,1.9,14c7.1,8.4,15.2,15.7,24.3,21.9c0.2,1-0.3,1.5-1.1,1.9c-3-1.7-6.4-2.6-8.9-5.3c-0.9-1-1.7-0.7-2.2,0.5
		c-0.5,1.1-1,2-0.9,3.3c0.2,1.9,0.1,3.7-2.1,4.6c-1.2,0.5-0.9,1.6-0.9,2.6c0,1.8,0,3.7,0,5.5c-0.1,5.2-1.9,7.8-6.8,8.7
		c-1.9,0.4-3.3,1.1-3.9,2.6c-1.5,3.9-4.5,6.7-7.5,9.1c-6.5,4.9-6.4,11.7-5.5,18.4c0.7,4.7,2,9.3,1.8,14.1c-0.1,1.6-0.1,2.9,2.1,3.1
		c0.8,0.1,0,0.6-0.3,0.7c-0.3,0.1-0.7,0.1-1,0.1c-0.7,0.1-1.3,0.2-1.9-0.3c-0.4-0.2-0.7-0.5-0.9-0.8l0,0c-0.4-0.3-0.7-0.6-1-0.9l0,0
		c-0.4-0.3-0.6-0.7-1.1-0.9l0,0c-0.3-0.5-0.2-0.9,0.3-1.3c1.2-7-0.9-13.9-0.7-20.9c0.2-4.9,1.3-8.7,5.1-11.9
		c2.9-2.5,5.4-5.4,7.3-8.8c1.4-2.6,3.4-4.5,6.3-5.3c2.9-0.9,4.2-2.9,4.6-5.9c0.6-4.4,1-8.9,3.1-13c1.4-2.8,1.2-5.9-1.5-8.2
		c-4.2-3.8-7.8-8.2-11.6-12.4c-4.7-5.2-5.6-8.9-2.1-14.8c2.4-4.1,2-7.1-1.1-10.3c-0.7-0.7-1.3-1.5-1.9-2.3c-3.7-5-6.9-6.7-12.2-3.9
		c-6,3.2-12.5,3.2-18.6,5.3c-5.2,1.8-9.7,4.3-12.8,9c-1.5,2.4-3.7,3.8-6.6,3.7c-1.7-0.1-5.7-3.3-5.7-3.3c1.9,2.3,0.5,4.3-0.8,6.3
		c-0.8,1.3-2.1,2.1-3.2,3.2c-3.4,3.4-4.3,9.4-2,13.7c4.5,8.8,0.5,19-9.1,22.2c-3.2,1.1-3.5,3-3.5,5.7c0,2.6,1.1,3.7,3.8,4.2
		c5.6,1,9,5.8,8.4,11.7c-0.2,2.1-0.5,3.9,1.5,5.3c0.7,0.5,1,1.4,1,2.2c0,7.8,5.6,9.6,11.6,10.9c2.9,0.6,5.4,1.7,7.2,4.1
		c1.6,2.1,2.6,2.3,3.4-0.6c0.8-2.9,2.6-5,5.8-5.4c2.9-0.4,5,0.2,6.3,3.4c2.3,5.7,5.6,10.5,12.5,11.4c2.6,0.4,5.1,1.7,5.2,5.1
		c-0.4,0.4-0.8,0.5-1.3,0.2c-2.2-2.1-4.5-3.8-7.8-3.1c-0.9,1.6-0.4,3.3-0.3,4.9C277.8,512.3,277.9,512.6,278,513z"/>
	<path class="st3" d="M328,446c0.1-0.6,0.4-0.9,1-1c5-2.9,10.6-2.1,15.6-1.1c7.1,1.4,13.7,0.7,20.7-0.2c14.5-1.9,29.2-2.1,43.6-5.1
		c7.2-1.5,7.9-1.8,8.8-9c5.4-41.3,10.9-82.6,16.3-123.9c0.3-2.7,0-5.8,2.4-7.9c0.6-0.2,1.2-0.1,1.7,0.3c-0.4,4.6-0.9,9.1-1.8,13.6
		c-0.5,2.7-0.9,5.6-1,8.3c-0.5,9.2-2.2,18.2-3.4,27.3c-1.1,8.7-1.9,17.5-3.6,26.2c-1.2,5.9-1.2,12.1-2.2,18
		c-1.2,6.4-1.6,13-2.6,19.4c-0.6,3.5-1.1,7.1-1.4,10.7c-0.5,6.3-1.7,12.6-2.6,18.9c-0.1,0.6-0.3,1.3-0.3,1.9
		c0.5,5.5-0.9,10.8-1.2,16.3c-0.4,7.5-1.4,15-1.9,22.6c-0.5,6.9-1.8,13.7-1.9,20.6c0,2.3-1.4,4.4-1,6.8c0.1,0.3,0.2,0.6,0.2,1
		c0.4-0.2,1-0.2,1.2-0.5c0.7-1.1,1.2-2.3,2.3-3.2c0.7-0.6,1.1-0.3,1.3,0.5c-0.5,0.6-0.9,1.2-1.4,1.8c-0.2,0.4-0.4,0.6-0.8,0.9
		c-1.7,3.6-2.2,7.6-4.2,11.1c-0.3,0.5-0.3,1.2-0.8,1.7c-1.6,1.5-3.1,2.9-4.7,4.4c-1.3-0.4-0.9-1.1-0.2-1.7c4.2-3.3,4.8-7.7,5.1-12.7
		c0.3-5.5,0.5-11.1,1.7-16.6c0.8-3.5,0.7-7.2,0.9-10.8c0.3-5.3,1-10.5,1.4-15.7c0.5-5.5,0.4-11.1,1.7-16.6c0.8-3.5-0.6-7.2,0.9-10.8
		c0.4-1-0.7-1.5-1.6-1.2c-5.5,1.6-11.2,2.1-16.8,3.2c-4.2,0.8-8.3,1.5-12.6,1.8c-9.3,0.7-18.6,0.7-27.9,2.7
		c-3.6,0.8-7.5,0.6-11.3-0.4c-4.5-1.1-9.2-0.3-13.9-0.4C331.8,446.9,329.8,447.3,328,446z"/>
	<path class="st4" d="M127.8,298c-0.5,0.1-0.7,0.5-0.8,1c-2.6-2.4-4.8-4.9-4.1-8.9c0.3-1.4-0.8-2-1.8-2.6c-6.3-4.3-12.6-8.5-18.7-13
		c-1.8-1.3-3.6-1.6-5.5-1.5c-1.9,0.1-3.1-0.4-3.8-2.3c-0.8-2.3-1.9-4.5-2.8-6.8c0.9-0.5,0.7-1.3,0.8-2.1c0.2-3.7,0.2-3.7,4.1-3.8
		c0.2,1.8-1.8,2.7-1.7,4.5c0.2,2.9,0.7,5.9,3.9,6.8c10.1,2.8,16.6,11.3,25.5,15.9c0.6,0.3,1.3,0.8,1.4,1.4
		C124.9,290.6,127.1,294.1,127.8,298z"/>
	<path class="st1" d="M277.6,511.9c-0.9-1.7-1.3-3.4,0.3-4.9C277.8,508.6,277.7,510.3,277.6,511.9z"/>
	<path class="st1" d="M411,521.7c0-0.7,0-1.4,0.8-1.7C411.9,520.8,411.9,521.5,411,521.7z"/>
	<path class="st1" d="M220.3,483c0.3,0.3,0.5,0.6,0.8,0.8C220.6,483.8,220.2,483.6,220.3,483z"/>
	<path class="st1" d="M221.1,484c0.5,0.1,0.8,0.5,0.9,1C221.5,484.8,221.1,484.6,221.1,484z"/>
	<path class="st1" d="M222,485c0.6,0.1,0.9,0.5,0.9,1.2C222.4,486,222.1,485.6,222,485z"/>
	<path class="st1" d="M223.3,487c0.6,0.2,0.8,0.6,0.7,1.1C223.4,487.9,223.1,487.6,223.3,487z"/>
	<path class="st1" d="M218.1,475c0.5,0.2,0.8,0.5,0.8,1.1C218.7,475.7,218.4,475.3,218.1,475z"/>
	<path class="st1" d="M416,508.9c0.3-0.3,0.5-0.6,0.8-0.9C416.8,508.6,416.4,508.8,416,508.9z"/>
	<path class="st1" d="M190.3,424c0.5,0.1,0.7,0.5,0.7,1C190.6,424.8,190.2,424.6,190.3,424z"/>
	<path class="st1" d="M287,510c0,0.4,0,0.7-0.1,1.1c-0.6-0.1-1-0.4-1.2-1C286.2,510.1,286.6,510,287,510C287,510,287,510,287,510z"
		/>
	<path class="st1" d="M286.9,511c0.6,0,1,0.3,1.1,0.9C287.4,511.9,287.1,511.6,286.9,511z"/>
	<path class="st1" d="M288,512c0.6,0.1,0.9,0.4,1,0.9C288.4,512.9,288.1,512.5,288,512z"/>
	<path class="st1" d="M289.1,513c0.5,0.1,0.8,0.3,0.9,0.8C289.4,513.9,289.1,513.5,289.1,513z"/>
	<path class="st5" d="M438,298c-0.3,0-0.7,0-1,0c-2.2-2.8-1.3-6.1-1.3-9.2c0-9-3.5-15.9-10.6-21.5c-3.6-2.9-7.1-6-11.2-8.3
		c-3.8-2.1-5.4-5.4-5.4-9.9c0.2-13.5,0-27,0.1-40.5c0-4.3-1.2-6.9-5.7-7.8c-3.5-0.7-6.4-2.9-8.6-5.7c-2-2.5-4.4-4-7.7-4
		c-3.3,0-6.3-1.2-8.7-3.3c-3.6-3-7.5-4.9-12.2-4.8c-2.2,0-4.5-0.7-5.9-2.3c-3.4-4-8-5.5-12.8-7.1c-5.3-1.8-9.7-4.9-12.3-10.3
		c-1.2-2.6-8.2-3.4-10-1.3c-1.6,1.9-0.8,3.6,0.6,5.4c4.6,6,4.2,9.8-1.5,14.4c-2.4,2-4.5,4.3-7.2,6.1c-3.3,2.3-3.2,7.7,0.4,10.9
		c6.8,6,8.2,13.8,8.3,22.1c0.1,5-1.1,6.1-6.2,6.3c-1.7,0.1-3.3,0.1-5,0c-7.3-0.6-13.3,0.9-19,6.3c-5.7,5.3-14.1,6.8-21.1,10.4
		c0-0.7,0-1.3,0-2c0.9-4.4,4.6-5.9,8.1-6.9c5.5-1.6,10.6-3.7,14.4-8.4c1.8-2.2,4.4-2.9,7.1-3c3.7-0.1,7.3,0,11-0.1
		c5.6-0.1,5.8-0.7,5.5-6.1c-0.2-6.5-2.6-11.7-7.1-16.4c-4.7-5-3.2-14.4,2.3-18.3c2.3-1.6,4.7-3.2,6.5-5.4c1.5-1.8,2.5-3.9,0.3-5.7
		c-1.9-1.7-3.4,0-4.5,1.5c-2.2,2.8-4.9,3-8.1,2.1c-3-0.9-5.7-2.2-7.8-4.4c-3.4-3.6-7-3.7-11.3-1.9c-3.5,1.5-7,3.1-10.6,4.3
		c-1.5,0.5-2.9,1.3-3.3,2.8c-1,4.5-4.5,6.4-8,8.3c-4.8,2.6-9.4,5.7-14,8.7c-3.2,2.1-5.9,4.3-6.6,8.3c-0.2,1.4-1.2,2.5-2.4,3
		c-2.2,1-2.8,3-3.9,4.8c-2.1,3.5-5.1,6.4-5.1,11.1c0,1.6-2.2,2.4-3.9,2.7c-4.6,0.6-8.3,3.1-11.9,5.7c-0.5,0.1-1,0.1-1.5,0
		c-0.5-0.1-0.9-0.3-1.4-0.5c-0.2-0.1-0.5-0.2-0.7-0.3c-0.7-0.2-1.5-0.4-2.2-0.4c-5.5-0.3-10.9,0.5-16.4-0.4
		c-4.3-3.1-0.3-3.7,1.5-4.1c3.8-0.7,7.8-0.9,11.4-0.2c7.3,1.3,13-3.2,19.5-4.5c2-0.4,1.4-1.9,0.8-3.2c-1.6-3.4-0.5-5.4,3.1-6.3
		c0.8-0.2,2.1-0.4,2.2-1c0.7-4.9,5.8-6.7,7.4-10.8c1-2.5,2.7-4.6,5.1-6c4.9-2.8,9.4-6.3,14.4-9c3.7-2,7.5-3.7,8.3-8.6
		c0.2-1.5,1.8-2.4,3.2-3c5.2-1.8,10.1-4.4,15.4-5.9c5.3-1.5,9.9-1,14.3,3.1c5.7,5.5,10.2,4.2,13.3-3.3c0.4-0.9,0.6-1.9,1-2.8
		c2.4-6.2,1.6-7.9-4.8-10.1c-2.4-0.8-4.9-1.1-7.3-1.4c-5.9-0.7-9.3-4-10.6-9.7c-0.4-1.6-1-3.2-1.7-4.7c-3.1-6.1-3.1-6.1-9.8-4.8
		c-2,0.4-4,0.1-5.9-0.7c-2.6-1.2-5.9-1-8.1-2.2c-5.2-2.9-10.9-3.9-16.4-5.7c-0.3-0.1-0.6-0.3-0.8-0.6c-6.1-7.4-14.4-8.2-23.1-7.5
		c-1.3,0.1-2.7,0.2-4-0.2c-8.9-3-17.8-0.6-26.6,0.1c-3.2,0.3-6.3,0.8-9.4-0.3c-1.8-0.6-3.6-0.4-5.4,0.2c-2.2,0.7-4.5,1.3-6.5,2.5
		c-9.2,5.1-18.5,9.7-28.3,13.6c-1.5,0.6-4,1.1-3.8,2.7c0.1,1.8,2.7,1.3,4.2,1.7c10,2.3,18.3,11.5,19.3,21.9c0.3,3.2,2.1,5.1,4.3,7
		c6.1,5.4,6.1,6.8,1.4,13.3c-2.8,3.9-5.9,7.5-6.5,12.7c-0.3,3.1-1.5,5.8,2,7.7c1.1,0.6,1.1,2,0.9,3.2c-0.9,4.9-1.4,9.8-3.2,14.5
		c-0.4,0.3-0.9,0.4-1.4,0.2c-0.6-0.5-1-1.1-1.3-1.7c-0.2-0.7-0.3-1.3-0.2-2c0.2-0.8,0.4-1.7,0.6-2.5c0.1-0.6,0.2-1.2,0.4-1.8
		c0.2-0.8,0.4-1.5,0.5-2.3c0.1-0.8,0.2-1.5,0.4-2.3c0.2-0.7,0.2-1.4-0.6-1.9c-4-1.1-4.2-4-3.6-7.4c0.1-0.6,0.4-1.2,0.6-1.8
		c0.1-0.4,0.3-0.7,0.5-1c0.2-0.5,0.3-1,0.1-1.6c-0.6-0.7-1.4-0.8-2.2-1.1c-3-0.5-6-0.5-9,0.3c-1.9,0.4-3.8,0.5-5.8,0.1
		c-0.7-0.1-1.3-0.4-1.9-0.6c-0.4-0.2-0.7-0.3-1.1-0.5c-0.5-0.3-1-0.5-1.6-0.7c-0.5-0.2-1-0.3-1.6-0.5c-0.5-0.2-1-0.5-1.4-0.7
		c-0.3-0.1-0.6-0.3-1-0.4c-0.5-0.2-1-0.4-1.5-0.5c-0.6-0.1-1.1-0.3-1.7-0.4c-0.9-0.2-1.7-0.1-2.5,0.2c-0.4,0.2-0.8,0.3-1.2,0.4
		c-0.8,0.3-1.7,0.6-2.5,0.8c-1.8,0.4-3.6,0.3-5.5,0.3c-0.9,0-1.8-0.1-2.6-0.3c-0.4-0.1-0.8-0.2-1.2-0.4c-0.4-0.2-0.7-0.5-1-0.7
		c-0.2-0.1-0.3-0.3-0.5-0.4c-0.3-0.3-0.5-0.6-0.7-1c-0.1-0.4-0.1-0.8,0.1-1.2c0.2-0.8,0.8-1.1,1.3-0.4c2.5,3.3,6.4,3.1,9.1,1.8
		c5.5-2.6,10.2-0.9,15.1,1.2c2,0.9,4,1.3,6.2,1.2c4.5-0.1,9-0.1,13.5,0c1.8,0,3-0.4,4-2.2c2.1-3.3,3.9-6.9,6.9-9.6
		c1.8-1.6,1.3-4.5-0.5-6.2c-0.2-0.2-0.5-0.6-0.8-0.6c-6.2-1.9-6.3-7.3-6.8-12.2c-0.4-4-1.4-7.3-5.3-9.3c-2.2-1.1-3.8-3.1-5.7-4.7
		c-2.9-2.4-6.1-2.9-9.6-3.2c-2-0.2-3.7-0.5-5.6-1.3c-2.9-1.3-6.5-1.9-9.1,1.1c-1.1,1.2-2,1.3-3.3,0.1c-1.3-1.2-3.1-1.8-4.3-3.4
		c-1.3-1.7-3.3-2.1-4.9-1.4c-4.2,1.8-8.1-0.1-12-0.7c-4.7-0.7-7.1-4.4-7.2-9.2c0-3.3,0-6.7,0-10c0-1.2,0.7-2.9-1.4-3.2
		c-1.6-0.2-3.4-0.4-4.4,1.4c-0.4,0.7-1,1.5-1.1,2.2c-0.4,5.5-4.8,6.2-8.8,7.1c-2,0.4-4.3,0.5-6.4-0.4c-2.6-1-5.5-1.1-7.8-0.3
		c-2.7,1-5.6,0.2-8.2,1.6c-1.8,0.9-3.8,0.2-5.3-1.6c-1.8-2.1-3.9-4.1-6-6c-2.8-2.8-6.1-4.3-10.2-4.2c-7.3,0.2-14.7,0-22,0.1
		c-1.3,0-2.9-0.3-3.9,0.3c-1.5,0.9-3.4,0.1-4.7,1.4c-1.4,1.4-0.3,3.3-1,4.7c-1.4,2.9-0.1,6.3-2.2,9c-0.1,0.1-0.3,0.1-0.4,0
		c-0.2-0.2-0.4-0.5-0.6-0.7c0.1-0.6,0.3-1.2,0.4-1.7c0.3-0.7,0.3-1.5,0.6-2.3c0.1-1.2,0.2-2.5,0.3-3.7c0.6-1,0.1-2.2,0.7-3.2
		c-0.1-1.3-0.1-2.6,0.3-3.8c0.3-0.7,0.2-1.5,0.7-2.1c0.1-1,0.2-1.9,0.3-2.9c0.3-0.7,0.3-1.5,0.7-2.2c0.1-0.9,0.2-1.9,0.3-2.8
		c0.4-0.7,0.4-1.5,0.7-2.3c0.1-0.9,0.2-1.8,0.3-2.7c0.4-0.6,0.3-1.3,0.8-1.8c0.7-0.3,1.4-0.2,2,0c1,0.6,2.2,0,3.1,0.7
		c0.9,0.1,1.9,0.2,2.8,0.3c-0.1,1.9-1.7,1.8-2.9,2.1c-1.8,0.4-3,1-3.7,2.9c-2.4,6.3-1.5,7.7,5.1,7.6c6.5-0.1,13,0.2,19.5-0.1
		c7.1-0.3,12.6,2.8,17.4,7.5c3.1,3.1,6.2,4.4,10.6,3.8c5.4-0.7,11-0.2,16.5-0.2c3.9,0,6.8-1.4,8.1-5.3c0.6-1.9,1.6-3.7,3.5-4.7
		c4.7-2.7,9.1-0.3,9.3,5.1c0.1,3.2,0,6.3,0.1,9.5c0.1,4.3,2.2,6.8,6.5,7.5c2.8,0.5,5.6,1,8.4,0.9c3.2-0.1,6.1,0.9,9.1,2
		c5.1,1.8,10.7,0.9,15.2-2c9.6-6.2,21-8.4,30.3-15c3.6-2.6,8.2-3.6,12.5-4.8c4.8-1.3,6.6-3.6,6.3-8.7c-0.4-6.7,2.4-11.5,7.9-15.1
		c8.5-5.5,17.1-11,25.6-16.5c4.1-2.6,3.4-2.3,0.5-6c-5.1-6.5-11.1-10.1-19-12.9c-6.2-2.1-12-3.5-18.3-3.3c-6.9,0.2-13-1.6-19.6-4.2
		c-9.8-3.9-20.6-4.9-31.4-3.4c-4,0.5-7.9,1.3-11.9,1.8c-7.5,1-13.1-1.8-17.5-8c-4.3-6.1-7.1-12.4-4.8-20c0.4-1.5-0.6-2.9-0.4-4.4
		c0.3-0.2,0.5-0.3,0.9-0.2c0.6-0.5,1.5-0.3,2.1-0.8c0.2-0.2,0.5-0.3,0.8-0.2c0.5-0.1,0.8-0.5,1.2-0.7c0.9-0.1,1.9-0.2,2.8-0.3
		c0.5,0.1,1.1,0,1.4,0.3c0.7,0.6-0.1,0.8-0.4,0.8c-2.9-0.4-3.5,1.5-4.2,3.8c-0.6,1.7-1.1,3.6-1.3,5.2c-0.6,3.9-1,8,2.3,11.2
		c0.9,0.9,1.8,2.1,2.2,3.3c1.1,3.6,3.9,5.3,7,6.4c2.9,1,5.8,1.1,9.1,0.5c6.6-1.1,13.2-2.7,20-2.4c2.6,0.1,5.3,0,7.8,1
		c3,1.2,6.1,1.2,9.3,1c2.4-0.1,4.6,0.3,6.5,1.9c4,3.2,8.5,4.7,13.7,4.2c4.3-0.4,8.7,0,13-0.1c2.6-0.1,4.8,0.3,6.9,2
		c3.7,3.1,8,4.5,12.9,4c2-0.2,3.4,0.3,4.3,2.4c2.2,5.1,5.8,8.9,10.8,11.6c3.5,1.9,3.4,2.3,0.2,4.3c-10.6,6.9-21.2,13.9-31.8,20.7
		c-3.7,2.4-5.4,5.6-5.4,9.8c0,3.6,0.5,7.3-2.5,10.3c-1,0.9-0.1,1.8,0.8,2.4c1,0.7,2.4,0.7,3.4,0.3c3.2-1.4,6.5-0.9,9.8-0.8
		c3.3,0,6.4-1.2,9.7-1.6c3.2-0.5,6.5-1.4,9.4,1.3c0.5,0.5,1.5,1,2.7,0.7c3.7-1,7.6-0.4,11.4-0.4c5.5,0,9.9,2.2,13.7,6.4
		c3.7,4,5.5,4.8,10.9,2.5c2.6-1.1,3.2-1,3.7,1.7c0.3,2.2,1.2,2.9,3.3,3.5c3.1,0.8,6.4,1,9.5,2.6c2.4,1.3,5.1,0,7.5-1.3
		c4-2.2,5.3-1.8,6.6,2.3c0.7,2.3,2.3,3.9,3.2,6c0.8,1.9,2,3.5,2.2,5.9c0.2,3,2.4,5.1,5.3,6c1.7,0.6,3.5,1.3,5.2,1.2
		c7.2-0.2,12,3.9,16.3,8.9c0.5,0.5,0.8,1.2,1.5,0.8c0.3-0.2,0.6-0.8,0.5-1.3c-0.3-5.6,3.3-9.6,6.1-13.7c2.3-3.4,4.5-6.6,6.3-10.4
		c2.3-5,5.1-9.9,9.1-14c3.9-4.1,7.1-8.8,11.4-12.5c0.6-0.5,1.4-1.1,0.9-2.1c-0.5-0.9-1.4-0.6-2.2-0.6c-8.2-0.1-16.4-1.5-24.6-2.3
		c-4.3-0.4-8.9,0.2-13.2-1.6c-2-0.8-3.2-2.1-4.3-3.7c0,0,0.5-0.4,0.7-0.5c1.2,0.4,2,1.4,2.9,2.3c0.4,0.2,0.7,0.5,1,0.8
		c0.7,0.1,1.3,0.1,2,0.2c1.6,0.8,3.5-0.2,5.1,0.7c1.6,0.1,3.2,0.2,4.9,0.3c1.4,0.7,2.9,0,4.3,0.7c1.9,0.1,3.8,0.2,5.7,0.3
		c1.3,0.7,2.9,0,4.3,0.7c1.9,0.1,3.8,0.2,5.7,0.3c1.3,0.7,2.9,0,4.2,0.7c2.6,0.1,5.2,0.2,7.8,0.3c10.4,0.7,20.9,0.1,31.3,0.3
		c2,0,4-0.4,5.9,0.4c0.6,0.1,1.2,0.2,1.8,0.4c0.4,0.2,0.8,0.6,1.3,0.6c0.6,0.1,1.1,0.2,1.7,0.3c-0.5,0.9-1.4,1-2.1,0.7
		c-4.2-1.6-8.5-0.9-12.8-0.9c-8.2-0.1-16.3,0-24.5-0.1c-2.2,0-3.7,0.6-5.2,2.2c-4.4,4.5-8.8,9.1-13.4,13.4c-2.4,2.3-3,5.4-4.9,8
		c-1.9,2.6-3.5,5.3-4.4,8.6c-0.9,3.1-3.6,5.9-5.9,8.4c-1.8,2-2.6,4.6-4.3,6.6c-1.3,1.6-0.7,3.9,1.5,5.1c2.5,1.4,3.6,3.5,4.8,5.9
		c2.9,6.1,8.3,9.1,14.9,9.7c2.7,0.3,4.7,0.1,5.9,3.6c1.2,3.4,5.2,5.6,8.9,5.3c4.9-0.3,8.8,1.3,12.1,4.5c2.4,2.4,5,3,8.1,2.7
		c2.9-0.3,5.1,0.4,7.1,3c2.1,2.7,4.4,5.4,7.8,6.8c1.4,0.5,2.6,1.1,4.2,1.3c4.5,0.4,5.3,1.5,5.3,5.9c0,14.6,0.1,29.3-0.1,43.9
		c-0.1,4.2,1.3,7,5.2,8.6c2.8,1.2,5.1,2.9,7.2,5.2c0.8,0.9,1.6,1.9,2.6,2.2c3.9,1.3,5.5,4.5,7.3,7.6c3.7,6.4,5.4,13.2,4.9,20.7
		C439,294.9,437.8,296.3,438,298z"/>
	<path class="st1" d="M404.3,102.9c-11.7,0-23.4,0.1-35.1,0.1c-0.8,0-1.7,0.1-2.1-0.8c11.7-0.1,23.4-0.1,35-0.2
		C402.9,102.1,403.7,102.1,404.3,102.9z"/>
	<path class="st1" d="M330.2,98.9c-1.7-0.2-3.6,0.8-5.1-0.7C326.8,98.1,328.6,97.8,330.2,98.9z"/>
	<path class="st1" d="M359.3,101.9c-1.4-0.1-3,0.9-4.2-0.7C356.5,101.1,358,100.8,359.3,101.9z"/>
	<path class="st1" d="M339.3,99.9c-1.4-0.1-3.1,0.9-4.3-0.7C336.5,99.1,338,98.8,339.3,99.9z"/>
	<path class="st1" d="M349.3,100.9c-1.4-0.1-3.1,0.9-4.3-0.7C346.5,100.1,348,99.8,349.3,100.9z"/>
	<path class="st1" d="M407.3,103.9c-0.6,0.1-1-0.1-1.3-0.6C406.6,103.1,407,103.4,407.3,103.9z"/>
	<path class="st1" d="M323.1,98c-0.5,0-0.9-0.2-1-0.8C322.6,97.2,322.9,97.5,323.1,98z"/>
	<path class="st6" d="M511.1,355.1c-3,0-5.9,0.1-8.8-1.1c-1.4-0.6-2.4-1.1-2.3-2.7c0.1-2,1.6-2.9,3.3-3.1c1.6-0.2,2.5,0.7,2.5,2.3
		c0,0.5,0,1,0.1,1.5c0.1,0.5,0.4,0.9,1,0.9c0.6,0,0.9-0.3,1.1-0.8c0.2-0.5,0.1-1,0.3-1.5c0.2-0.7,0.6-1.4,1.3-1.3
		c0.3,0,0.4,1.1,0.6,1.7c0,0.2,0,0.4,0,0.5c0.2,0.4,0.3,1,0.7,1.2c0.5,0.3,0.9-0.2,1.2-0.6c0.3-0.4,0.4-0.9,0.6-1.3
		c0.9-1.4,2.1-2.3,3.7-1.7c1.6,0.7,1.8,2.2,1.8,3.8c0,1.5-0.6,2.1-2.1,2.1C514.4,355.1,512.8,355.1,511.1,355.1z"/>
	<path class="st7" d="M533.8,352.1c0.6,0.9,1.6,1.7,2,0.2c0.5-1.7,0.2-3.6,0.3-5.4c0-0.7,0.1-1.4,0.9-1.5c1-0.1,0.9,0.7,1,1.3
		c1,8.1,0.5,8.6-7.5,8.4c-0.5,0-1-0.1-1.5-0.1c-0.7-0.5-1.3-0.5-2,0c-0.7,0-1.3,0-2,0c-0.2-0.2-0.3-0.5-0.3-0.8
		c0-0.3,0.1-0.4,0.1-0.4c1-0.7,0.3-2.1,1.2-2.9c1.7,2.5,1.8,2.5,2.8,0.4c0.2-0.4,0.2-1,0.7-0.9c0.3,0.1,0.5,0.8,0.5,1.2
		c0.1,1.2,0.7,1.7,1.9,1.4C532.5,352.5,532.8,351.5,533.8,352.1z"/>
	<path class="st8" d="M525,353.9c0,0.3,0,0.7,0,1c-1.5,0.2-2.9,0.6-3.6,2.2c-0.6,0.4-1.2,0.3-1.7-0.3c1.5-1.4,1.1-3.3,1.1-5
		c0-0.8-0.1-2.1,0.5-2.2c0.9-0.1,0.7,1.1,0.8,1.9c0.2,2,1.5,1.7,2.8,1.4c0.3,0.2,0.4,0.4,0.4,0.6C525.2,353.8,525.1,353.9,525,353.9
		z"/>
	<path class="st9" d="M541.1,350.3c-0.4,1.4,0.9,3.4-0.9,4.1c-0.4,0.1-0.4-2.7-0.4-4.1c0.1-1.6-0.8-3.4,0.8-4.8
		C541.6,347,540.8,348.7,541.1,350.3z"/>
	<path class="st10" d="M528.9,348c-0.1,0-0.9,0.1-0.8-0.9c0.1-1,0.5-2,1.6-2.1c0.9,0,1.2,0.9,1.2,1.8C531.1,348,530.3,348,528.9,348
		z"/>
	<path class="st11" d="M510.9,357.1c0.1,0.8-0.6,0.9-1.3,0.9c-0.8,0-1.8,0.4-2-0.6c-0.2-0.6,0.6-1.2,1.3-1.3
		C509.6,356.1,510.6,355.9,510.9,357.1z"/>
	<path class="st12" d="M533.8,352.1c-0.6,0.3-1.2,0.6-1.8,0.9c0-0.5-0.1-1,0-1.4c0.1-0.9-0.3-2.4,1-2.2
		C534.6,349.5,533.9,351.1,533.8,352.1z"/>
	<path class="st13" d="M503.2,347.1c-0.7,0-1.6,0.1-1.6-0.7c0-0.9,0.8-1.3,1.8-1.3c0.7,0,1.4,0.1,1.5,0.9
		C505,347.4,503.8,346.8,503.2,347.1z"/>
	<path class="st13" d="M516.9,347.1c0.1,0.9-0.6,0.9-1.3,0.9c-0.8,0-1.8,0.4-2.1-0.6c-0.2-0.6,0.6-1.2,1.3-1.3
		C515.6,346.1,516.6,345.9,516.9,347.1z"/>
	<path class="st14" d="M525,353.9c0-0.3-0.1-0.7-0.1-1c0-0.6-0.1-1.3,0.1-1.9c0.2-0.7,0.6-1.1,1.1-0.2
		C525.6,351.9,526.7,353.3,525,353.9z"/>
	<path class="st8" d="M527,354.9c0.7-1.2,1.3-1.2,2,0C528.3,355.2,527.7,355.2,527,354.9z"/>
	<path class="st15" d="M519.7,356.8c0.6,0.1,1.1,0.2,1.7,0.3c-0.5,0.7-1.1,1.2-1.9,0.7C519,357.5,519.3,357.1,519.7,356.8z"/>
	<path class="st16" d="M262.9,90c1.6-2.1,3-1.6,4,0.4c0.4,0.9,0.5,2.1,1.7,2c1-0.1,1-1.2,1.1-2c0.1-0.4,0.5-0.8,0.7-1.2
		c0.2,0.4,0.6,0.8,0.6,1.2c0.1,0.8,0.2,1.8,1.2,1.9c1,0.1,1.3-0.7,1.5-1.6c0.1-0.6,0-1.4,0.8-1.3c0.2,0,0.4,0.8,0.4,1.3
		c0.1,0.9,0.5,1.8,1.4,1.6c0.6-0.1,0.5-1.1,0.5-1.7c0-0.5,0-1,0.1-1.5c0.1-0.6,0.6-0.7,0.9-0.2c0.2,0.4,0.2,1,0.4,1.4
		c0.3,1,0.8,2.1,1.9,1.9c1.3-0.3,0.6-1.6,0.7-2.5c0.1-1.6,0.1-3.3,0.2-4.9c0-0.2,0.4-0.5,0.6-0.5c0.3,0,0.7,0.2,0.7,0.4
		c0.6,2.8,0.4,5.6,0.2,8.4c-0.1,0.9-1.2,1-2,1c-6.8,0-13.5,0-20.3,0c-1.6,0-2.5-0.6-2.5-2.3c0-2.2,0-4.3,0-6.5c0-0.5,0.3-1.1,0.7-1
		c0.3,0.1,0.6,0.8,0.6,1.2c0.1,1.5,0,3,0.1,4.5c0,0.6-0.1,1.4,0.6,1.7c1,0.4,1.4-0.6,1.9-1.1C262.1,90.4,262.6,90.2,262.9,90
		c0.5,0.4-0.1-0.2,0.4,0.3C263.4,90.4,263.3,90.3,262.9,90z"/>
	<path class="st8" d="M256.3,89c0,1,0,2,0,3c0.1,1.4-0.5,2.2-2,2.1c-3.4-0.1-6.9,0.2-10.2-1.1c-1.4-0.6-2.3-1.4-2.1-2.9
		c0.3-1.8,1.6-2.4,3.2-2.4c1.5,0,2.6,0.2,2.6,2.1c0,0.6,0,1.4,0.3,1.9c0.2,0.4,0.8,0.8,1.2,0.7c0.4,0,0.9-0.5,1.1-0.9
		c0.3-0.8,0.2-1.6,0.4-2.4c0.1-0.3,0.4-0.5,0.6-0.7c0.2,0.2,0.5,0.4,0.5,0.7c0.1,0.6,0.1,1.3,0.2,2c0.1,0.8,0.7,1.1,1.4,1
		c0.8,0,1.2-0.5,1.2-1.3c0-1.7,0-3.3,0.1-5c0-0.6,0.1-1.6,0.8-1.5c0.6,0.1,0.7,1,0.7,1.7C256.3,87.1,256.3,88,256.3,89z"/>
	<path class="st17" d="M284.1,88.6c0-1.1-0.1-2.3,0-3.4c0-0.4,0.2-1,0.9-0.9c0.6,0.1,0.8,0.6,0.8,1c0,2.5,0.1,4.9,0,7.4
		c0,0.4-0.4,1-0.8,1c-0.9,0.2-1-0.6-1-1.2C284,91.2,284,89.9,284.1,88.6C284,88.6,284,88.6,284.1,88.6z"/>
	<path class="st18" d="M275.9,86.1c-0.4,1.4-1.6,0.8-2.5,0.9c-0.8,0.1-1.1-0.5-0.7-1.3c0.3-0.7,0.5-1.8,1.5-1.7
		C275.4,84.1,275.6,85.2,275.9,86.1z"/>
	<path class="st13" d="M245.4,84.1c1,0.1,1.7,0.4,1.5,1.2c-0.3,1.1-1.3,0.7-2.1,0.7c-0.5,0-1.5,0.2-1.2-0.9
		C244,84.2,244.8,84,245.4,84.1z"/>
	<path class="st11" d="M252.9,96.3c-0.5,1.3-1.7,0.5-2.5,0.7c-0.3,0.1-1.1-0.1-0.8-0.8c0.5-1.2,1.5-1.1,2.5-0.9
		C252.6,95.3,253,95.7,252.9,96.3z"/>
	<path class="st0" d="M147,186.7c2.3,0.6,4.7,0.3,7.1,0.1c3.3-0.5,6.6-0.5,10,0c1.3,0.3,3.2-0.1,3,2.2c-0.3,0.2-0.6,0.5-0.7,0.9
		c-0.3,0.2-0.4,0.5-0.4,0.8c-0.2,0.4-0.5,0.8-0.8,1.2c-0.1,0.8-0.3,1.6-0.3,2.4c-0.1,4.1-0.1,4.1,4.3,4.8c0.3,0,0.5,0.4,0.8,0.6
		c-0.4,0.6-0.4,1.4-0.7,2.2c-0.1,0.9-0.2,1.8-0.4,2.8c-0.4,0.7-0.4,1.5-0.7,2.2c-0.1,0.6-0.2,1.3-0.2,1.9c-0.5,0.6-0.4,1.4-0.7,2.1
		c-0.3,0.7-0.3,1.4-0.1,2c0.2,0.4,0.6,0.8,0.7,1.3c-0.1,0.3,0,0.5,0.2,0.7c2.6,2,3.1,5,3.2,8c0.1,2.3-0.1,4.6,0.2,6.9
		c0.4,3,2,4.7,5.1,3.4c4.3-1.9,8.8-2.7,13.5-2.7c3.4,0,4.9-3.8,8.1-4.4c6.3,0,12.5,0,18.8,0c0.4,0.3,0.7,0.6,1.1,0.9l0,0
		c0.2,0.3,0.5,0.6,0.9,0.8c0.3,0.1,0.7,0.2,1,0.3c4.4,0.1,5.6,2.9,5.3,6.6c-0.3,4.3,0.8,7.4,4.8,9.9c4.7,3,6.7,8,6.8,13.7
		c0.1,0.6,0.5,0.8,1.1,0.8c0.3,0.3,0.7,0.7,1.1,0.9l0,0c0.2,0.2,0.3,0.4,0.2,0.6c0,0.2,0,0.4-0.1,0.4c-0.1,1-0.2,1.9-0.3,2.9
		c-0.2,0.5-0.6,0.8-0.9,1.1c-2.6,1.8-3.6,4.2-3.2,7.2c0.1,0.7,0,1.3,0,2c-0.1,2,0.4,4.2-0.4,5.8c-0.9,1.8-3.3,0.5-5,0.9
		c-2.1,0.4-2.7,1.6-2.4,3.5c0.3,1.8,1.2,3.5,0.9,5.3c-0.2,0.4-0.5,0.8-0.7,1.2c-0.1,0.3-0.2,0.6-0.3,1c-0.3,0.4-0.7,0.7-0.9,1.1l0,0
		c-3.5,1.8-6.5,4.5-10.6,5.2c-1.4,0.2-1.9,1.7-2.7,2.8c-0.6,0.8-0.4,1.5,0.4,2.1c1.9,1.5,4.3,3.3,4.2,5.3c-0.1,2.1-3.4,2.5-5.2,4
		c-3.1,2.5-6.5,4.5-9.9,6.6c-2.9,1.8-4.9,4.4-6.7,7.2c-2.3,3.5-2.4,3.5-6.3,2.4c-3-0.8-5.7-1.5-7.8,1.9c-0.6,1-2.2,1.5-3.4,1.9
		c-2.7,0.9-4-0.3-3.5-3.1c0.8-4.6,0.9-4.7-3.3-6.9c-2.1-1.1-2.6-2.3-1.6-4.3c0.5-0.9,1-1.8,1.3-2.7c0.4-1.3,1.9-2.6,0.5-4.1
		c-1.5-1.4-3.3-2.3-5.4-1.6c-2.2,0.7-4.4,1.6-6.6,2.2c-1.5,0.4-3.2,1.1-4.3-1.1c-0.6-1.4-2.1-0.8-3.1-0.7c-3.2,0.6-5.4-0.7-7.2-3.3
		c-1.1-1.6-2.6-3.1-3.7-4.7c-2.4-3.3-2.6-3.6-6.6-2.1c-2.9,1-5,0.8-6.7-1.9c-2-2.8-4.4-5.4-3.6-9.3c0.3-1.3-1.1-2-2-2.6
		c-6.6-3.9-12.6-8.6-18.8-13c-1.8-1.3-3.6-2.4-5.9-2c-1.7,0.3-2.8-0.5-3.4-2.1c-0.6-1.7-1.6-3.3-2.1-5c-0.3-1.2-0.1-2.6,0-3.9
		c0.2-1.8,2.5-0.6,3.1-1.9c4.2-1.9,7.8-5.1,12.1-6.7c1.2-0.5,1.7-1.2,1.9-2.5c1-5.7,1.5-11.5,2-17.3c0.1-1.7-0.5-2.5-1.9-2.9
		c-4.1-1.3-6.1-4.4-6.8-8.3c-0.4-2.3-1.5-4-3-5.6c-2-2.2-4-4.4-6-6.7c-1.2-1.5-2.6-2.2-4.7-2.4c-4.4-0.2-5.7-2.1-4.7-6.4
		c0.6-2.4,1.3-4.8,1.9-7.2c0.4-1.8-0.1-3.2-2-3.9c-0.8-0.3-1.5-0.6-2.3-1c-3.9-1.9-6.3-4.5-5.7-9.3c0.4-2.8,0.8-5.9-2.4-8
		c-1.3-0.8-0.5-3,1.1-3.5c0.9-0.3,2-0.3,3-0.2c3.2,0.2,6.1-0.6,9-2c4.1-2,8.9-1.4,13.2-0.4c2.5,0.6,4.3,3.4,5.5,6.1
		c0.9,2,1.5,4.4,4.8,3.6c1.1-0.3,2,1.1,2.8,1.9c2,2,4,4,6,6c0,0.3,0.1,0.6,0.4,0.8c0.1,0.4,0.4,0.7,0.7,0.9l0,0
		c0.3,0.4,0.6,0.7,0.9,1.1l0,0c1.1,0.8,2.2,0.5,3.3,0.1c2.3,0.2,4.5,0.1,6.7-0.3c0.6-0.4,1.5-0.2,2-0.8c0.3-0.1,0.7-0.1,1-0.2
		c1-0.4,1.9-0.3,2.9-0.2c0.6,0.2,1.2,0.3,1.8,0.5c0.5,0.1,0.8,0.5,1.3,0.7c0.3,0.2,0.6,0.3,0.9,0.2c0.3,0.3,0.7,0.5,1.1,0.7
		c0.5,0.1,1.1,0.3,1.6,0.4c0.6,0,0.9,0.4,1.4,0.7c0.3,0.2,0.6,0.3,0.9,0.2C146.2,186.3,146.6,186.5,147,186.7z"/>
	<path class="st19" d="M74,146.8c-2.2,0.3-4.7-0.3-5.9,2.5c-0.3,0.8-1.4,0.8-2.2,0.8c-0.5,0-1.2-0.1-1.4-0.3c-0.5-0.9,0.5-0.9,1-1.1
		c2.2-0.9,1.4-1.2-0.3-1.7c-1.4-0.4-2.1-1.8-1.9-3.1c0.2-1.3,1.2-2.4,2.7-2.6c1.8-0.3,2.8,0.7,3.1,2.4c0.1,0.5,0.2,1.1,0.5,1.3
		c0.8,0.7,1.8,1.1,2.3-0.3c0.2-0.4,0.1-1,0.1-1.5c0-0.6-0.1-1.6,0.6-1.6c1.1-0.1,1.3,0.9,1.2,1.8c-0.1,1.2,0.6,1.8,1.4,2.5
		C75.1,146.5,74.5,146.5,74,146.8z"/>
	<path class="st20" d="M57.5,147.1c-1.9,0-3.3,0-4.6,0c-2,0-2.4-1.5-2.6-3c0-0.3,0.2-0.7,0.4-0.8c0.4-0.3,1-0.3,1.1,0.4
		c0.2,1.3,0.6,2.2,2.1,2.1c2-0.1,4,0.1,5.9-0.4c1.2-0.3,0.7-2,0.9-3.1c0.3-1.6-0.8-3.5,0.8-4.9c1,1.5,0.5,3.2,0.5,4.8
		C62.1,147.8,62.7,147,57.5,147.1z"/>
	<path class="st21" d="M74,146.8c0.2-0.6,0.7-0.8,1.2-1c0.4-0.3,0.8-0.5,1.2-0.9c0.9-0.9-0.4-2.6,1.2-3.3c0.1,1,0.2,1.9,0.3,2.9
		c0.3,2-0.6,2.7-2.5,2.5C75,147,74.5,146.9,74,146.8z"/>
	<path class="st22" d="M56.5,143.1c-0.7-0.2-1.5-0.4-1.3-1.2c0.3-0.9,0.7-2,1.9-1.7c1,0.2-0.1,1.1,0.2,1.5
		C58.1,143,57.2,142.9,56.5,143.1z"/>
	<path class="st23" d="M77.3,140.1c-0.6-0.3-1.8,0.4-1.7-0.9c0-0.6,0.8-1,1.5-1c0.7,0,1.3,0.3,1.5,1
		C78.8,140.3,77.7,139.8,77.3,140.1z"/>
	<path class="st24" d="M72.5,148.4c0.2,0.2,0.4,0.5,0.5,0.7c0.2,0.6-0.2,0.7-0.7,0.7c-0.4-0.1-0.5-0.3-0.3-0.7
		C72.1,148.9,72.3,148.7,72.5,148.4z"/>
	<path class="st1" d="M103,9.1c2.8,1.5,2.9,1.6,2,4.4c-1.8,5.6-1.7,11,2.1,15.9c1,1.3,2,2.7,2.7,4.1c1.3,2.7,3.7,4,6.2,5.4
		c4.7,2.8,9.7,1.7,14.3,0.7c7-1.6,14-1.6,21.1-1.7c1,0,1.9,0.3,2.9,0.6c2,0.6,4.2,1.6,6.2,1.3c5.8-0.9,10.3,1.9,14.6,4.8
		c1.5,1,2.9,1.3,4.6,1.3c5.8,0,11.7,0.1,17.5,0c2.6,0,4.9,0.2,6.9,2c3.5,3.2,8,3.5,12.4,4c1.6,0.2,2.8,0.4,3.6,2
		c2.6,4.8,5.6,9.3,10.9,11.6c1.4,0.6,0.5,1.6-0.4,2.2c-4.8,3.1-9.7,6.1-14.5,9.2c-5.5,3.6-10.9,7.4-16.5,10.7
		c-5.6,3.4-7.5,8.5-6.2,14.3c0.6,2.6-0.7,3.7-1.5,5.2c-1,1.8-2.3,3.4-4.9,3.8c-6.7,1-12.8,3.6-18.4,7.6c-3,2.2-6.3,3.9-10.2,4.7
		c-6,1.3-11,5.1-16.2,8.2c-1.7,1-3.2,1.5-5.1,1.5c-2.3,0-4.6-0.4-6.5,1.6c-0.9,1-2.3,0.5-3-0.6c-2.2-3.3-5.5-3.4-8.9-3
		c-3.9,0.5-7.5-1-11.3-1.1c-2.5-0.1-5.4-4.1-5.4-6.8c-0.1-4.5-0.1-9,0-13.5c0-1.9-0.7-2.6-2.6-2.6c-5.2-0.2-6.5,0.6-8.3,5.7
		c-0.4,1.1,0.4,2.7-1.3,3.4c-1.8,0.7-3.4,2-5.5,2c-5.5-0.1-11,0-16.5,0c-1.2,0-2.6-0.4-3.5,0.1c-3.9,2.2-6-0.3-8.5-2.7
		c-3.3-3.2-6.6-6.4-11.3-7.7c-1.6-0.5-3.2-0.7-4.8-0.7c-7.2,0-14.3,0-21.5,0c-2,0-3.9,0.4-5.8,0.9c-1.9,0.5-2.7-0.4-2.2-2.5
		c0.6-2.7,1.4-5.4,1.7-8.1c0.2-2.7,1.5-3.3,3.9-3.3c1.4,0,3,0.8,4.1-0.8c7,1.1,14.1,2,21,3.4c4.1,0.8,7.1-0.1,10.5-2.5
		c6.3-4.5,10.7-10.4,14.4-16.9c1.6-2.8,3.8-3.8,6.8-4.2c5.8-0.6,11.5-1.4,17.3-2.1c1.7-0.2,2.8-0.7,3.2-2.5c0.1-0.6,0.6-1.2,0.7-1.8
		c1.4-5.9,4.2-10.6,10.2-12.9c2.1-0.8,2.1-2,0.5-3.7c-8.6-9.4-17.2-19-25.7-28.5c-0.6-0.6-1.2-1.2-1.7-1.8c-0.8-0.9-1-1.5,0.5-2
		C86.2,15,94.6,12.1,103,9.1z"/>
	<path class="st1" d="M17.2,92.9c-1.1-0.1-2.4,0.6-3.1-0.7C15.2,92.1,16.3,92,17.2,92.9z"/>
	<path class="st1" d="M7.9,112.8c-0.1,1.1,0.7,2.4-0.7,3.2C7.1,114.8,7,113.7,7.9,112.8z"/>
	<path class="st1" d="M12,92.2c0,0.7,0,1.5-0.8,1.8C11.1,93.2,10.8,92.3,12,92.2z"/>
	<path class="st1" d="M10.9,96.7c0.1,0.9,0.4,1.8-0.7,2.3C10,98.1,10.1,97.3,10.9,96.7z"/>
	<path class="st1" d="M9.9,101.8c0.1,0.8,0.4,1.7-0.7,2.2C9.1,103.1,9.2,102.3,9.9,101.8z"/>
	<path class="st1" d="M106,8.1c-0.4,1-1.3,0.9-2.1,0.8C104.4,8.2,105.1,8,106,8.1z"/>
	<path class="st1" d="M8.9,106.8c0.1,0.8,0.3,1.6-0.7,2.1C8.1,108.1,8.2,107.4,8.9,106.8z"/>
	<path class="st1" d="M6.9,119.7c0.1,0.9,0.4,1.8-0.6,2.3C6.1,121.1,6.1,120.3,6.9,119.7z"/>
	<path class="st1" d="M108,7.2c-0.2,0.6-0.6,0.8-1.2,0.7C107,7.4,107.4,7.1,108,7.2z"/>
	<path class="st25" d="M226.9,356c0.7-1.7,2.1-1.4,3.2-0.8c1.1,0.7,1.2,1.9,0.9,3.1c-0.2,1.1-1,1.9-2.1,1.8
		c-5.4-0.7-10.8,0.9-16.2-1c-1.9-0.7-3-1.4-2.6-3.4c0.3-1.5,2.9-2.4,4.6-1.9c1.3,0.4,0.9,1.5,1.1,2.5c0.5,2.1,1.8,2.9,3.9,2.4
		c1.1-0.3,1.2-1,0.5-1.9c-0.3-0.4-0.7-0.7-1.1-1c-0.6-0.7-2-1.1-1.3-2.3c0.7-1.2,1.9-1.9,3.1-2.3c0.2-0.1,0.7,0.2,0.7,0.4
		c0.1,0.2-0.2,0.6-0.3,0.8c-0.4,0.7-1.9,0.9-1.3,1.8c1,1.5,2.3,2.8,3.5,4.1c0.4,0.4,0.9,0,1.2-0.4
		C225.7,357.3,225.8,356.1,226.9,356c0.3,0.2,0.4,0.3,0.4,0.3C227.4,356.4,227.3,356.3,226.9,356z"/>
	<path class="st11" d="M215,351.2c-0.1,0.9-0.8,0.8-1.4,0.8c-0.6,0-1.4,0.2-1.5-0.7c-0.2-1.6,1-0.6,1.6-0.7
		C214.4,350.4,214.9,350.3,215,351.2z"/>
	<path class="st26" d="M354.7,483.9c1.8-1.7,1-4,1.2-6c0.1-0.5,0.3-0.9,0.5-1.4c0.2,0.4,0.6,0.8,0.7,1.2c0.9,2.6,2.3,3.7,4.8,3
		c2-0.6,1.4-1.7,0.1-2.7c-0.2-0.9,0-1.4,1.1-1c1.2,0.5,1.7,1.5,2.1,2.6c0.2,0.7,0.9,1,1.5,1c0.7-0.1,1.1-0.7,1.2-1.4
		c0.1-0.7,0.1-1.3,0.2-2c0-0.2,0.4-0.6,0.6-0.6c0.6,0.1-0.1-0.2,0.2,0.4c1.3,2.2-0.2,5.1-2.7,5.2c-2.3,0.1-4.7,0.3-7-0.1
		c-1.9-0.3-2.1,1.2-2.9,2C355.7,484.5,355.2,484.4,354.7,483.9z"/>
	<path class="st27" d="M349.9,478.9c0,3.4-1.3,5-4,5.2c-2.6,0.2-4.5-1.5-4.7-4.1c-0.1-0.7,0.2-1.4,0.9-1.6c1.1-0.4,0.9,0.7,1,1.2
		c0.1,1.3,0.6,2.3,2,2.4c1.4,0.1,2.8,0.3,2.8-1.8c0-0.7,0-1.3,0-2c0.1-0.8-0.1-1.9,1.1-1.8c1.1,0.1,0.8,1.2,0.9,2
		C350,478.6,349.9,478.7,349.9,478.9z"/>
	<path class="st17" d="M353.1,477.2c-0.8,1.4,1,4.2-1.2,4.3c-1.5,0.1-0.7-2.8-0.7-4.3c0-1.6-0.9-4.6,0.9-4.6
		C353.8,472.6,352.5,475.6,353.1,477.2z"/>
	<path class="st28" d="M363.1,476.9c-0.5,0.2-1,0.4-1.1,1c-0.6,0-1.3,0-1.9,0c-0.5,0-0.9-0.3-0.9-0.9c0-0.6,0.4-0.9,0.9-1
		C361.1,476,362.3,475.7,363.1,476.9z"/>
	<path class="st29" d="M346.7,475.9c0.1,0.6-0.3,0.8-0.8,1c-0.6,0.2-0.8-0.3-0.9-0.7c-0.2-0.6,0.2-0.9,0.7-1
		C346.3,475,346.6,475.4,346.7,475.9z"/>
	<path class="st30" d="M360,484.2c0.5-0.3,0.8-0.6,1.3-0.7c0.7-0.3,0.7,0.4,0.7,0.8c0,0.5-0.3,0.9-0.9,0.7
		C360.8,484.9,360.6,484.7,360,484.2z"/>
	<path class="st31" d="M368.3,473.5c0.2,0.1,0.5,0.2,0.6,0.4c0.2,0.5,0,0.9-0.5,1.1c-0.1,0-0.5-0.4-0.5-0.6
		C368,474.1,368.2,473.8,368.3,473.5z"/>
	<path class="st15" d="M354.7,483.9c0.5,0.1,1.1,0.1,1.6,0.2c-0.4,0.8-1.1,1.2-1.9,0.7C354,484.5,354.2,484.1,354.7,483.9z"/>
	<path class="st32" d="M217.9,428c-1,0.1-2,0.1-3,0.1c-1.9,0.1-2.7-1-2.8-2.7c0-0.5-0.1-1,0-1.5c0.3-1.9-0.7-3.9,0.8-5.6
		c2.3,1.3,0.6,3.5,1.1,5.2c0.1,0.5,0,1,0.1,1.5c0.1,0.4,0.2,1,0.9,1c0.6,0,0.9-0.3,1.1-0.7c0.2-0.6,0.2-1.3,0.5-1.9
		c0.2-0.4,0.7-0.6,1.1-0.9c0.2,0.4,0.4,0.9,0.5,1.3c0.1,0.3,0,0.7,0.1,1c0.1,1,0.5,1.5,1.6,1.4c0.8-0.1,1-0.7,1.1-1.4
		c0-1.8,0-3.7,0.1-5.5c0-0.3,0.1-1.1,0.8-0.8c0.3,0.1,0.6,0.4,0.7,0.6c0.8,2.6,0.4,5.3,0.3,7.9c0,0.9-1,1.2-1.9,1.2c-1,0-2,0-3,0
		C217.9,428.1,217.9,428,217.9,428z"/>
	<path class="st33" d="M205.9,428.1c-2.2,0.9-4.4-1-6.8-1.3c-1.4-0.2-2.2-1.6-1.8-3c0.5-1.7,1.9-2.1,3.5-2.1c1.3,0,2.4,0.4,2.2,1.9
		c-0.4,2.9,1.3,3.3,3.5,3.1c0.9-0.1,2.2,0.3,2.4-1.1c0.2-1.2-0.9-1.6-2-1.7c-0.5-0.1-1-0.1-1.4-0.2c-0.4-0.1-0.5-0.4-0.3-0.8
		c0.2-0.3,0.4-0.6,0.7-0.7c2.3-0.5,4.7,1.2,5.1,3.6c0.2,1.3-0.1,2.3-1.8,2.3C208.2,428.1,207.2,428.1,205.9,428.1z"/>
	<path class="st9" d="M225.2,423.2c0,1,0,2,0,3c0,0.6,0,1.3-0.7,1.6c-0.2-0.4-0.5-0.9-0.5-1.3c0-2.3,0-4.6,0-7
		c0-0.5,0.2-0.9,0.7-1.1c0.2,0.4,0.5,0.8,0.6,1.3C225.3,420.8,225.2,422,225.2,423.2C225.2,423.2,225.2,423.2,225.2,423.2z"/>
	<path class="st11" d="M202,419.3c-0.7,1.2-1.7,0.7-2.5,0.5c-0.6-0.1-0.6-1-0.3-1.1c0.6-0.3,1.4-0.2,2.1-0.3
		C202.1,418.3,201.9,419,202,419.3z"/>
	<path class="st7" d="M217,430.9c-0.3-0.2-0.5-0.3-0.8-0.5c0.3-0.2,0.5-0.4,0.8-0.4c0.3,0,0.5,0.3,0.8,0.5
		C217.5,430.6,217.3,430.8,217,430.9z"/>
	<path class="st34" d="M272.1,509.9c1,0.4,1.6,1.2,1.8,2.2c0.6,2.1,0,3-2.3,3.1c-8,0.1-6.6,0.3-6.7-6.5c0-0.7,0-1.3,0-2
		c0.1-0.6,0-1.4,0.9-1.4c0.8,0.1,0.9,0.8,0.9,1.5c0,1.2,0,2.3,0,3.5c0.1,2.8,0.7,3.3,3.6,3c0.7-0.1,1.4-0.2,1.3-1
		c0-1.1-1-1.1-1.8-1.3C270.1,509,271.2,509.6,272.1,509.9z"/>
	<path class="st27" d="M255.8,514.9c-0.8,2.6-3,2.4-4.8,2c-1.9-0.4-3-1.9-3-4c0-0.7,0.1-1.5,0.7-1.6c0.7-0.2,1.2,0.4,1.2,1.2
		c0,0.3,0.1,0.7,0.1,1c0.2,1.6,1.3,1.7,2.5,1.6c1.3,0,1.6-0.8,1.7-1.9c0.1-1.1-0.5-2.4,0.8-3.1C256.1,511.5,255,513.3,255.8,514.9z"
		/>
	<path class="st35" d="M263.2,513.7c-0.2,1.2,0.6,3-1.2,4.1c-0.3,0.2-0.9,0.1-1.4,0c-0.5-0.1-0.6-0.4-0.2-0.7
		c2.4-1.7,1.1-4.2,1.5-6.4c0.1-0.4,0.4-0.8,0.6-1.2c0.2,0.4,0.5,0.9,0.6,1.3C263.3,511.6,263.2,512.4,263.2,513.7z"/>
	<path class="st9" d="M259.2,510.1c-0.5,1.6,0.7,3.4-0.9,4.6c-1-1.3-0.6-2.9-0.5-4.3c0.1-1.7-0.9-3.5,0.7-5
		C259.7,506.9,258.6,508.6,259.2,510.1z"/>
	<path class="st36" d="M255.8,514.9c-1.6-1.4-0.3-3.3-0.8-4.9c0.3-0.6,0.8-0.5,0.9,0C256.2,511.6,256.3,513.3,255.8,514.9z"/>
	<path class="st28" d="M272.1,509.9c-0.8,0.2-1.7-0.1-2.1,1c-0.8,0.1-1.7,0.5-1.9-0.8c-0.1-0.8,0.7-1,1.3-1.1
		C270.5,509,271.5,508.9,272.1,509.9z"/>
	<path class="st29" d="M252,508.2c0.6-0.1,0.8,0.3,0.9,0.7c0.1,0.6-0.3,0.9-0.7,1c-0.6,0.1-0.9-0.3-1-0.7
		C251.1,508.5,251.5,508.3,252,508.2z"/>
	<path class="st30" d="M270.5,516.3c0.2,0.3,0.4,0.6,0.4,0.9c0,0.9-0.6,0.9-1.2,0.7c-0.4-0.1-0.5-0.4-0.2-0.7
		C269.8,516.8,270.2,516.6,270.5,516.3z"/>
	<path class="st37" d="M263.7,507.2c-0.2,0.3-0.3,0.7-0.5,0.8c-0.5,0.2-1,0-1.1-0.5c-0.2-0.4,0.1-1,0.5-1
		C262.9,506.4,263.3,506.9,263.7,507.2z"/>
	<path class="st1" d="M274,244c0.7-0.5,1.4-0.9,2-1.5c2.5-2.4,5.2-3.9,8.8-4.8c4.2-1,8.5-2.9,11.4-6.5c3.3-4.1,7.3-5.8,12.6-5.3
		c4.1,0.4,8.3,0,12.5,0.1c1.9,0,2.5-0.6,2.7-2.5c0.4-4.8-0.7-9.6-1.4-14.2c-0.5-3.6-3.7-6.8-6.8-9.3c-1.3-1-2.9-1.9-2.8-3.8
		c0.2-2.8-0.7-5.6,0.7-8.3c0.3-0.6,0.9-1.2,1.4-1.4c4.5-1,6.4-5.4,10.1-7.5c3.1-1.8,2.5-7.8-0.5-10.1c-3.5-2.7-3.7-4.7-1-8.4
		c0.8-1.1,1.2-0.8,2.2-0.7c1.8,0.1,4,1.1,5.4-1.2c0.5-0.8,1.2-0.5,1.7-0.1c1.1,1,2.6,1.8,2.9,3.3c1.5,6.6,7.2,8.5,12.3,11.1
		c0.7,0.4,1.6,0.9,2.3,0.8c4.2-0.8,6.1,2.2,8.4,4.7c2.2,2.5,4.8,4,8.3,3.6c4.1-0.5,7.4,1.2,10.3,4c2.9,2.8,6.2,4.5,10.2,4
		c3.3-0.4,5.4,1,7.1,3.5c2.5,3.8,5.8,6,10.4,6.5c3.9,0.5,4.8,1.7,4.8,6c0,14.2,0.4,28.3-0.2,42.4c-0.2,5.2,1.7,8.6,5.8,10.2
		c5.4,2,8.8,6.3,12.8,9.7c5.3,4.5,8.6,10.8,8.6,18.2c0,3.8,0,7.7,0,11.5c-0.7,0.3-0.9,0.8-1,1.5c-0.7,7.6-1.6,15.3-2.9,22.8
		c-1,6-1.1,12.1-2.2,18c-1.5,8.8-2.3,17.8-3.6,26.7c-0.9,6.3-1.9,12.6-2.4,19c-0.5,6.2-1.8,12.3-2.6,18.4c-0.4,3.6-0.8,7.1-1.3,10.7
		c-0.7,6.2-1.9,12.3-2.2,18.5c-0.2,3.8-1.2,4.6-5.2,5.2c-9.4,1.4-18.5,3.9-28.1,4.3c-7.5,0.3-15,1-22.5,1.8
		c-1.6,0.2-3.2,0.8-4.7,1.3c-3.3,1-6.5,1.3-9.6-0.5c-1.6-0.9-3.2-0.9-4.8-0.9c-5,0-10,0-15,0c-0.2-1-1.2-1.1-1.9-1.4
		c-4.4-1.8-7.6-5.1-11.2-8c-5.9-4.6-9.7-11.1-15.5-15.8c-1.9-1.6-2-6.6-0.5-9.2c0.9-1.6,1.8-3.1,2.7-4.7c1.7-3.4,1.7-4.1-1.1-6.9
		c-2.2-2.1-4.1-4.4-5-7.3c-0.8-2.4-2.9-3.2-4.6-4.2c-1.9-1.1-3.2-2.5-3.6-4.4c-0.6-2.8-2.2-4.7-4.1-6.6c-2.2-2.2-3.9-4.3-2.2-7.8
		c0.7-1.5,0.1-3.6,0.2-5.4c0.1-2.3-0.6-4.7,1.5-6.5c0.8-0.7,0.5-1.9,0.5-2.9c0-6.7-0.1-13.3,0.1-20c0.1-2.6-1-3.1-3.2-3
		c-3.3,0.1-6.7,0.1-10,0c-2.7-0.1-3.2-0.6-2.8-3.3c0.2-1.1,0.8-2.2,0.9-3.3c0.5-4-1.5-6.6-5.4-6.3c-4.4,0.3-8.4-1.4-12.8-1.2
		c-2.2,0.1-3-1.8-3.9-3.7c-2.8-5.5-2.8-11.7-4.6-17.5c-0.9-2.8-2-5.2-4.1-7.1c-1.7-1.4-2.3-3.1-2.1-5.2c0.2-2.5,0.1-5,0-7.5
		c-0.1-3.7-0.3-7.2,3.2-9.8c1.5-1.1,1.7-3.4,1.9-5.4c0.2-2.9,1.3-3.3,4.1-3.7c7.7-1,15.5-1.1,23.3-0.9c1.5,0,2.6-0.5,3.5-1.5
		c0.7-0.8,1.4-1.6,0.4-2.6c-2.6-2.6-1.4-4.7,0.8-6.7C273.6,244.9,273.7,244.4,274,244z"/>
	<path class="st1" d="M287,510c-1.7-4-5.6-4.2-9-5c-0.9-0.2-2.3,0.4-2.8-0.5c-2.1-3.9-7-6.2-7.1-11.3c-0.1-1.8-0.9-2.1-2.4-2.3
		c-5.6-0.6-7.1,2.7-7.6,6.9c-0.1,0.9,0.6,2.3-0.5,2.6c-0.7,0.2-1.8-0.6-2.6-1.2c-0.5-0.3-1.1-0.9-1.4-1.4c-1.7-4-5.2-4.8-8.9-4.8
		c-2.1,0-3.9-0.1-4.8-2.5c-0.4-1.2-1.6-1.7-2.9-1.5c-2.7,0.4-3-1.2-2.9-3.3c0.1-1.2,0-2.3,0-3.5c0.1-1.8,0-3.1-2.4-3.3
		c-2.4-0.3-1.7-2.3-1-3.8c2.5-5.4-1.4-11.9-7.4-12c-0.5,0-1,0-1.5,0c-1.8,0.2-2.9-0.4-2.7-2.5c0.1-1.3,0-2.7,0-4
		c0.1-1.6-0.6-3.5,0.4-4.9c1-1.4,2.8-0.4,4.2-0.7c3.5-0.6,8.6-5.5,9.3-8.8c0.2-0.8-0.1-1.6-0.5-2.4c-0.7-1.4-0.8-3-0.1-4.3
		c1.3-2.6,0.7-4.5-1.4-6.1c-1.7-1.3-1.8-2.7-1-4.7c0.6-1.5,1.2-3,1.2-4.7c0-2.2,0.9-4.1,3.2-5.1c1-0.5,1.8-1.4,2.6-2.3
		c2.4-2.7,2.4-3.6,0.5-6.8c-0.5-0.8-0.9-1.8-1.2-2.7c-0.1-0.2,0.2-0.6,0.5-0.8c0.2-0.1,0.7,0,0.9,0.1c0.9,1.2,1.7,2.4,2.5,3.6
		c2.9,4,7.6,3.9,10-0.3c2.9-5.3,7.6-8.1,13.1-9.6c3.9-1.1,7.7-3,12-2.1c1.7,0.4,2.6-1.3,3.8-2c2-1.3,4.1-1.6,6.4-2.1
		c5.1-1.1,8.3,0,10.5,5.1c1,2.2,3.1,4.2,4.8,6.2c1.2,1.4,1.1,2.9,0.2,4.5c-1.2,2.1-2.8,4-3.4,6.5c-0.7,3.4-0.8,6.3,2.2,9
		c5.1,4.7,8.7,10.9,14.5,14.9c0.9,0.6,0.9,1.3,0.9,2.1c0,3.2,0.4,6.6-2.4,9.1c-0.7,0.6-0.6,1.5-0.5,2.3c0.4,3.3-1.2,6.4-1.2,9.8
		c0.1,2.4-2,4.2-4.5,4.5c-3.2,0.4-5,2-6.3,4.8c-2.1,4.4-5.7,7.7-9.3,10.9c-2.1,2-2.8,4.1-2.9,7c-0.2,7,0.7,13.9,1.1,20.8
		C289.1,508.9,288.9,510.1,287,510L287,510z"/>
	<path class="st1" d="M236.9,258.2c-1-0.6-2.1-1.5-1.9-2.6c0.5-3.4-1.8-5.4-3.2-7.9c-0.9-1.6-1.9-2.6-3.5-3c-3.7-1-4.9-3.4-4.3-7
		c0.1-0.8-0.1-1.7,0-2.5c0.6-3.5-0.3-6.1-4-7.1c0.5-0.1,1.1,0,1.4-0.3c0.7-0.8-1.9-0.8-0.5-2c0.9-0.7,1.8-0.7,2.8-0.7
		c0.5,0,1.3,0.1,1.4-0.1c1.9-3.3,5.2-2.6,8.2-3.1c3.3-0.6,4.1-4.2,1.9-7.1c-0.5-0.6-1.4-1.2-0.9-2.1c0.5-0.8,1.5-0.5,2.3-0.6
		c3.4-0.3,4.2-0.9,4.3-4.5c0.1-2.3,0.3-3.7,3.2-3.7c1.7,0,3.1-1.4,3-3.8c-0.1-2.6,1.5-4.5,3.7-6c6.7-4.5,13.5-8.8,20.5-12.7
		c2.2-1.2,4-2.4,3.6-5.3c-0.2-2.1,1.3-2.9,2.9-3.5c5.3-2.1,10.7-4,16.1-6.1c2.6-1,4.7-0.5,6.7,1.6c3.1,3.3,6.8,5.5,11.3,6.5
		c2.1,0.5,3.1-0.1,4.3-1.4c0.3-0.4,0.5-0.9,0.8-1.3c2.4-3.4,4.2-3.7,6.8-1.5c1.7,1.4,1.8,5.3-0.1,7.2c-2.8,2.9-6,5.6-9.7,7.4
		c-1.4,0.6-2.1,1.5-2.1,3c0,1.7,0.1,3.3,0,5c-0.4,3.7,0.6,6.6,3.6,9.2c3.7,3.2,6.2,7.3,5.4,12.6c-0.3,2.2,1.2,4.1,1.1,6.3
		c-0.2,3.1-0.6,3.8-3.8,3.9c-4.7,0.1-9.3,0.1-14,0c-3.3-0.1-5.8,0.7-7.9,3.9c-2.6,4.1-7.4,6-11.7,6.9c-4.6,0.9-7.6,3.4-10.7,6.3
		c-2.6,1-3.3,3.6-4.7,5.6c-0.8,1.1-0.5,2.8,0.1,4.3c1.2,2.7,1,3.2-1.5,3.1c-4.3-0.2-8.6,1-12.8-0.8c-1-0.4-2.5-0.4-3.4,0.1
		c-2.2,1.2-4.5,0.6-6.8,0.8c-2,0.1-4.1-0.4-5,2.2C239.4,258.9,237.3,256.2,236.9,258.2z"/>
	<path class="st1" d="M239,259.9c-0.4-0.3-0.7-0.6-1.1-0.9C238.5,259.1,238.9,259.4,239,259.9z"/>
	<path class="st1" d="M238,265c0.1-0.6,0.4-1,0.9-1.1C238.9,264.5,238.6,264.9,238,265z"/>
	<path class="st1" d="M227.3,291c-0.1-0.6,0.2-0.9,0.7-1.2C228,290.4,227.8,290.8,227.3,291z"/>
	<path class="st1" d="M226,293c0.3-0.4,0.6-0.7,0.9-1.1C226.9,292.5,226.6,292.9,226,293z"/>
	<path class="st1" d="M239.2,261c-0.1-0.3-0.1-0.7-0.2-1C239.8,260.2,240.2,260.5,239.2,261z"/>
	<path class="st1" d="M198.1,226.1c-0.7,0.9-1.6,1.7-2.2,2.6c-1.8,2.5-4.2,3.6-7.3,3.1c-4.3-0.6-8,1.3-11.8,2.8
		c-1.2,0.5-2.5,2.2-4,0.7c-1.4-1.3-3.2-2.5-3-4.8c0.1-1.3-0.1-2.6,0-4c0.3-4-0.2-7.9-1.7-11.6c1.8-2.7,0.6-6,1.8-8.9
		c0.6-1.4,1.1-3,1.2-4.7c0.2-2.4,0.9-4.6-2.8-4.4c-1,0.1-1.3-0.9-1.2-1.8c0.1-1.6-0.5-3.4,1-4.7c0.5-0.4,1.2-1.2,0.8-1.7
		c-2.1-2.9,0.5-4.7,1.7-6.5c2-3,3.8-6.2,6.4-8.8c2.2-2.1,1.9-4.1-0.2-6.2c-1.4-1.4-2.7-3.1-4.4-4c-2.5-1.4-3.5-3.5-3.3-6.1
		c0.3-3.4-0.7-6.5-2-9.6c-0.7-1.7-1.7-2.8-3.2-3.6c-1.3-0.7-2.8-1.1-3.8-2.3c-3.8-5.2-9.2-6.6-15.2-6.6c-0.7,0-1.4,0-1.7-0.7
		c-0.3-0.8,0.3-1.2,0.7-1.7c0.7-0.9,1.8-1.4,2.8-1.9c4.9-2.4,9.5-5.2,14.9-6.4c2-0.4,3.6-1.3,5.3-2.5c5.7-4.2,12.2-6.9,18.9-9.1
		c1.5-0.5,3.1-0.9,4.3-0.3c4.2,2.2,8.2,0.9,12.3,0.1c1.4-0.3,3-0.2,4.5-0.3c3.1-0.2,6.2,0.1,9.3-0.8c2.4-0.7,5.3-0.8,7.7,0.8
		c1.5,1,3.1,1,4.8,1c3.8-0.1,7.7,0.1,11.5-0.1c4.3-0.2,7.7,1.5,10.6,4.4c1.4,1.4,2.8,2.7,4.5,3.9c2.8,2,5.3,2.4,8.3,0.9
		c1.2-0.6,2.2-1.3,2.5,1c0.5,3.1,2.7,4.2,5.8,3.9c2.3-0.3,4.3,0.2,6.5,1.5c3.2,2,6.7,1.9,10.2-0.4c2.7-1.8,2.8-1.4,4.5,1.4
		c1.4,2.4,2.2,5.2,4.1,7.4c0.4,0.5,0.8,1.3,0.7,1.8c-0.9,3.9,2,6.4,4.1,8.5c1.7,1.6,4.8,1.7,7.4,1.9c5.3,0.3,10,2,13.4,6.3
		c0.5,0.6,0.4,0.9,0.1,1.9c-1,2.6-2.5,5.1-3.1,8c-0.8,3.3-3.7,5.7-6.5,7.6c-0.9,0.6-2.2,0.3-3.3-0.3c-2.2-1.1-4.6-2.1-6.1-4.2
		c-3.1-4.3-7.5-4-11.6-2.8c-5.6,1.7-11,4.1-16.6,6.2c-1.7,0.6-3,1.6-2.6,3.6c0.4,2.6-1.1,3.6-3.1,4.8c-6.3,3.5-12.4,7.5-18.6,11.2
		c-3.3,2-5.6,4.6-6.2,8.4c-0.3,1.7-0.7,2.1-2.4,2.4c-1.9,0.3-3.7,0.8-2.9,3.9c0.7,2.5-1,3.8-4.1,4c-1.4,0.1-2.7,0.1-3.4,1.5
		c-0.8,1.5,0.1,2.5,1.1,3.5c1,0.9,2,1.9,1.4,3.4c-0.7,1.7-2.2,1.7-3.8,1.7c-2.7-0.1-5.2-0.3-6.8,2.7c-0.7,1.3-2.8,1.3-4.6,1.3
		c-6.2-0.1-12.3,0-18.5,0c-1.3,0-2.7-0.2-3.6,1.1C197.2,225.6,197.6,225.9,198.1,226.1z"/>
	<path class="st1" d="M164,186.8c-3.3,0-6.6,0-10,0C157.3,185.5,160.7,185.5,164,186.8z"/>
	<path class="st1" d="M136.9,182.7c-1,0.1-1.9,0.1-2.9,0.2C134.9,181.6,135.9,181.6,136.9,182.7z"/>
	<path class="st1" d="M124.3,184.1c-1.1,0.8-2.2,1.2-3.3-0.1C122.1,184.1,123.2,184.1,124.3,184.1z"/>
	<path class="st1" d="M167.2,211c-0.2-0.8,0-1.6,0.7-2.1C168,209.7,168.2,210.5,167.2,211z"/>
	<path class="st1" d="M168.2,207c-0.2-0.9-0.1-1.7,0.7-2.2C169,205.6,169.3,206.5,168.2,207z"/>
	<path class="st1" d="M169.3,202c-0.2-0.8,0-1.6,0.7-2.2C170,200.6,170.2,201.5,169.3,202z"/>
	<path class="st1" d="M133,183c-0.5,0.8-1.1,1-2,0.8C131.4,182.9,132.2,183,133,183z"/>
	<path class="st1" d="M165.2,192c-0.1-0.6,0.2-1,0.8-1.2C166,191.4,165.7,191.8,165.2,192z"/>
	<path class="st1" d="M121,184c-0.7,0-0.9-0.4-0.9-1.1C120.6,183.1,120.9,183.5,121,184z"/>
	<path class="st1" d="M120,183c-0.4-0.2-0.8-0.4-0.7-0.9C119.5,182.3,119.8,182.7,120,183z"/>
	<path class="st1" d="M167.9,214.3c-0.5-0.3-0.8-0.7-0.7-1.3C167.8,213.2,168,213.7,167.9,214.3z"/>
	<path class="st1" d="M140,183.8c-0.6,0.1-1-0.2-1.3-0.7C139.3,183,139.8,183.2,140,183.8z"/>
	<path class="st1" d="M218,226.9c-0.6-0.1-0.9-0.4-1.1-0.9C217.5,226.1,217.9,226.4,218,226.9z"/>
	<path class="st1" d="M219,227.7c-0.6,0.1-0.8-0.3-0.9-0.8C218.5,227,218.9,227.3,219,227.7z"/>
	<path class="st1" d="M166.3,190c-0.1-0.5,0.3-0.8,0.7-0.9C166.8,189.3,166.6,189.7,166.3,190z"/>
	<path class="st1" d="M142,184.7c-0.6,0.2-0.9-0.2-1.1-0.7C141.4,184,141.8,184.2,142,184.7z"/>
	<path class="st1" d="M145,185.8c-0.6,0.1-1.1-0.1-1.4-0.7C144.2,185,144.7,185.2,145,185.8z"/>
	<path class="st1" d="M147,186.7c-0.6,0.2-0.9-0.2-1.1-0.7C146.4,186,146.8,186.2,147,186.7z"/>
	<path class="st38" d="M515.5,353.5c-0.6-0.1-1.2-0.4-1.3-1.1c-0.1-0.7,0.1-1.3,0.9-1.3c0.7,0,1.2,0.4,1.3,1.1
		C516.6,352.9,516.2,353.3,515.5,353.5z"/>
	<path class="st39" d="M504,351.4c-0.2,0.6-0.3,1.4-1.2,1.2c-0.7-0.2-0.9-0.8-0.9-1.5c0-0.6,0.4-0.9,0.9-0.9
		C503.8,350.1,503.9,350.8,504,351.4z"/>
	<path class="st40" d="M262.9,90c0.2,0,0.3,0.1,0.5,0.1c1.1,0.1,2.5-0.2,2.4,1.6c0,0.8-0.6,1.2-1.3,1.2c-1.8,0-1.6-1.3-1.5-2.5
		C263,90.3,263,90.1,262.9,90L262.9,90z"/>
	<path class="st39" d="M243.9,90.2c0.1-0.8,0.7-1.1,1.4-0.9c0.3,0.1,0.6,0.8,0.6,1.2c0,0.6-0.2,1.4-1.1,1.2
		C244.1,91.5,243.9,90.9,243.9,90.2z"/>
	<path class="st41" d="M152.1,261c-2.5,1-4.7-0.6-7.1-1c-1.5-0.3-2.2-1.4-2-3c0.3-1.7,1.6-2.5,3.2-2.7c1.5-0.2,2.6,0.4,2.7,2.2
		c0,0.5,0,1,0.1,1.5c0.1,0.4,0.5,0.9,0.8,1.1c0.7,0.2,1.2-0.2,1.3-1c0.1-0.3,0-0.7,0.1-1c0.2-0.6,0.4-1.5,1.1-1.5
		c0.9,0,0.7,0.9,0.8,1.4c0,0.2,0,0.3,0,0.5c0,0.9,0.3,1.6,1.3,1.7c1.1,0.1,1.4-0.6,1.4-1.5c0-0.5,0-1,0.1-1.5
		c0.1-0.2,0.4-0.6,0.6-0.5c0.3,0.1,0.6,0.3,0.7,0.6c1.4,3.1,0.2,5-3.2,5C153.5,261.2,152.9,261,152.1,261z"/>
	<path class="st42" d="M172,259c0.9,0.4,2,1,2.1-0.6c0.2-2,0.1-3.9,0.2-5.9c0-0.4,0.4-0.9,0.7-1.1c0.7-0.4,0.9,0.4,0.9,0.8
		c0.1,2.5,0.1,4.9,0.1,7.4c0,1-0.5,1.6-1.5,1.5c-1.1-0.1-2.3-0.3-3.4-0.5C171,259.8,171.3,259.3,172,259z"/>
	<path class="st43" d="M172,259c-0.3,0.5-0.6,1.1-0.9,1.6c-1.7,1.2-3.4,0.1-5.1,0.2c-0.7-0.6-2.6,0.1-1.9-1.9
		c1.4,0.7,1.9-0.4,2.6-1.3C169.2,254.6,170.6,255,172,259z"/>
	<path class="st44" d="M164,258.9c0,1.3,1.7,0.9,1.9,1.9c-1.6,0.1-3.3,0.3-4.9,0.3c-0.6,0-1.2-0.3-1.9-0.5c0.2-0.8,0.9-0.8,1.5-0.9
		c1.9-0.2,1.5-1.3,0.9-2.4c-0.4-0.6-0.5-1.2-0.1-1.8c0.5,0.4,1.1,0.8,1.4,1.3C163.4,257.4,163.7,258.2,164,258.9z"/>
	<path class="st45" d="M179.1,256c-0.5,1.5,0.7,3.3-0.8,4.7c-1.1-1.5-0.5-3.1-0.5-4.7c0-1.6-0.6-3.2,0.6-4.7
		C179.7,252.7,178.8,254.4,179.1,256z"/>
	<path class="st46" d="M147.8,252.5c-0.4,1-1.5,0.4-2.4,0.5c-0.4,0-1-0.1-0.8-0.8c0.4-1.2,1.5-1.1,2.5-1
		C147.5,251.3,148,251.6,147.8,252.5z"/>
	<path class="st47" d="M157.9,263.1c0.1,0.9-0.6,0.9-1.3,0.9c-0.8,0-1.8,0.4-2-0.6c-0.1-0.7,0.6-1.2,1.3-1.3
		C156.7,262,157.6,262,157.9,263.1z"/>
	<path class="st48" d="M152.9,253.4c-0.2,0.2-0.5,0.5-0.7,0.4c-0.5-0.1-0.9-0.3-0.5-0.9c0.2-0.2,0.5-0.3,0.8-0.5
		C152.7,252.8,152.8,253.1,152.9,253.4z"/>
	<path class="st38" d="M66.6,145.5c-0.7,0-1.2-0.3-1.4-1c-0.2-0.7,0-1.3,0.8-1.4c0.7-0.1,1.2,0.3,1.5,1
		C67.7,144.8,67.3,145.2,66.6,145.5z"/>
	<path class="st20" d="M152.8,70.1c1.4,1.4,4.9,2.3,5.7,1.2c0.9-1.2-0.3-2-1.4-2.5c-0.3-0.9,0-1.4,1-1c0.5,0.4,1.1,0.7,1.5,1.2
		c0.7,0.9,0.7,3,2.5,2.4c1.5-0.6,0.6-2.3,0.8-3.5c0-0.2,0-0.3,0-0.5c0.3-1.3-0.6-2.9,0.7-4c1.1,1.3,0.6,2.9,0.6,4.3
		c0,5.8,0.9,5.4-5.1,5.4c-2,0-4,0-6,0c-0.7,0.5-1.5,0.5-2.2,0c-0.6,0-1.2-0.1-1.9-0.1C149.3,70.7,150.9,70.2,152.8,70.1z"/>
	<path class="st49" d="M134,71c0.7,0.1,1.3,0.2,2,0.2c1.9,0,3.6,0.3,4.8-2.3c1.2-2.7,2.7-2.3,5,0.4c-0.2,2-0.5,3.9-3.3,3.2
		c-0.5-0.8-1.1-0.4-1.7,0C138.4,71.9,135.7,74,134,71z"/>
	<path class="st50" d="M142,71c1.2,1.7,2.2,1.6,3-0.3c0.2-0.6,0.1-1.2,0.8-1.5c0.1,3.8,0.1,3.9-3.3,3.9c-2.5,0-4.9,0-7.4,0
		c-1.7,0-2.2-1.1-2.6-2.4c-0.2-0.7-0.1-1.5,0.7-1.5c1.3-0.1,0.8,1.1,1,1.8C136.7,73.2,139.3,72.1,142,71L142,71z"/>
	<path class="st51" d="M152.8,70.1c-0.8,1.5-2.5,1.8-3.7,2.8c-1.8-0.4-2.5-1.7-1.9-3.3c0.5-1.4,1.6-2.6,3.3-2.5
		C152.1,67.2,153.1,68.2,152.8,70.1z"/>
	<path class="st9" d="M167.3,67.9c-0.3,1.6,0.5,3.3-0.6,4.8c-1.5-1.5-0.6-3.3-0.7-5c-0.1-1.4-0.5-3,0.5-4.3
		C168,64.7,166.9,66.4,167.3,67.9z"/>
	<path class="st20" d="M150.9,73c0.7,0,1.5,0,2.2,0c-0.7,1.3-1.1,2.9-3,3c-0.7,0-1.6,0.2-1.8-0.4c-0.2-0.8,0.7-0.8,1.3-0.8
		C150.7,74.6,151.1,74,150.9,73z"/>
	<path class="st52" d="M158.1,67.9c-0.5,0.2-1,0.4-1,1c-0.5,0.1-1,0.2-1.5,0.1c-0.4-0.1-0.9-0.3-1.3-0.5c0.3-0.4,0.4-1,0.8-1.2
		C156.2,66.8,157.3,66.6,158.1,67.9z"/>
	<path class="st37" d="M144,65c0.1,0.6-0.2,0.9-0.7,1c-0.3,0-0.6-0.2-0.9-0.3c0.2-0.4,0.3-0.9,0.6-1.1C143.5,64.1,143.8,64.5,144,65
		z"/>
	<path class="st0" d="M156.5,75c0.1,0.2,0.2,0.4,0.3,0.6c0,0.1-0.2,0.2-0.3,0.3c-0.1-0.2-0.2-0.4-0.3-0.6
		C156.2,75.2,156.4,75.1,156.5,75z"/>
	<path class="st53" d="M226.9,356c1.1,0.3,2.8-0.4,3,1.5c0.1,0.9-0.6,1.5-1.5,1.4C226.3,358.7,227.2,357,226.9,356L226.9,356z"/>
	<path class="st54" d="M213,357.7c-0.8-0.1-1-0.7-1-1.3c0-0.6,0.3-1.2,1.1-1.2c0.8,0,1.1,0.6,1,1.2C214.1,357,213.9,357.6,213,357.7
		z"/>
	<path class="st54" d="M200.4,423.2c0.6,0.1,0.8,0.6,0.7,1.3c-0.1,0.5-0.2,1-0.8,0.9c-0.9-0.1-1.4-0.7-1.2-1.7
		C199.2,423.4,199.6,423,200.4,423.2z"/>
	<path class="st55" d="M336.6,316.2c-2.1,0-3.5-1-3.7-3.2c-0.1-0.8-0.2-2,0.5-2.3c0.9-0.3,1.4,0.7,1.4,1.6c0.1,1.9,1.4,2,2.8,1.9
		c1.7-0.2,1.4-1.5,1.5-2.6c0-0.7,0-1.3,0.1-2c0.1-0.4,0.3-1,0.7-1.2c0.9-0.4,1.1,0.3,1.2,1c0.2,1.6,0.7,2.3,1.9,0.7
		c0.7-0.9,1.5-1.8,2.5-2.3c2.7-1.4,5.4,0.3,5.5,3.4c0,1.2-0.4,1.9-1.7,2c-1,0.1-2,0-3,0c-2.4,0.1-4.9-0.7-6.5,2.2
		C339.2,316.4,337.7,316.1,336.6,316.2z"/>
	<path class="st56" d="M359,315.1c2.1-1.5,1.6-3.8,1.8-5.9c0-0.3,0.3-0.9,0.4-0.8c0.5,0.1,0.7,0.4,0.7,1c0,0.5,0,1,0.2,1.5
		c0.1,0.5,0.4,0.9,1,0.9c0.7,0,1.4-0.4,1.4-1.1c0.1-1.8,0.1-3.7,0.2-5.5c0-0.8,0-1.7,1.1-1.9c2.3,3.3,2.2,6.6,0.1,9.9
		c-1.8,0.3-4-0.5-4.8,2.2c-0.2,0.8-1.2,0.9-2.1,0.6c-0.4-0.1-0.5-0.3-0.4-0.5C358.8,315.2,358.9,315.1,359,315.1z"/>
	<path class="st15" d="M351.9,307.6c0-0.5,0-1,0-1.5c0.1-1-0.2-2.6,0.6-2.6c1,0,0.7,1.6,0.7,2.6c0,0.8,0,1.7,0,2.5
		c0.1,1.3-0.3,3,1.6,3c1.7,0.1,1.2-1.6,1.4-2.6c0.1-0.4,0.4-1,1-0.7c0.2,0.1,0.4,0.5,0.4,0.8c0.6,3.2-0.4,4.3-3.5,4
		c-1.3-0.1-2.2-0.6-2.3-2.1C351.9,309.9,351.9,308.7,351.9,307.6C351.9,307.6,351.9,307.6,351.9,307.6z"/>
	<path class="st57" d="M365.9,313c0-3.3-0.1-6.6-0.1-9.9c0.8,0,1.6,0,2.4,0c0.4,3.3,0.6,6.6-0.1,9.9C367.4,313,366.7,313,365.9,313z
		"/>
	<path class="st9" d="M368.1,313c0-3.3,0.1-6.6,0.1-9.9C369.7,306.3,369.7,310.3,368.1,313z"/>
	<path class="st58" d="M359,315.1c0,0.2,0,0.5,0,0.7c-0.2,0-0.3,0.1-0.5,0.1c-1.2,0.2-2.4,0.5-3.5-0.5c-0.1-0.1,0-0.9,0.1-0.9
		C356.5,314.6,357.9,314.1,359,315.1z"/>
	<path class="st37" d="M347.2,306c-0.3-0.1-0.8-0.2-0.8-0.4c-0.1-0.7,0.4-1.2,1.1-1.3c0.1,0,0.4,0.4,0.5,0.7
		C348.1,305.7,347.7,305.9,347.2,306z"/>
	<path class="st59" d="M271,448c2,1.1,1.6-0.6,1.8-1.5c0.2-0.7-0.3-1.8,0.8-1.8c0.5,0,0.4,1.1,0.5,1.8c0.1,0.6,0.1,1.4,0.9,1.5
		c0.8,0.1,0.8-0.8,1.2-1.3c0.4-0.7,0.9-1.4,1.6-1.9c0.8-0.6,2.1-1.1,2.6-0.1c0.9,1.6-0.9,1.1-1.5,1.5c-1.6,1.1-0.9,1.8,0.4,2.4
		c0.7,0.3,2.2,0,2,0.9c-0.2,1.1-1.6,0.6-2.5,0.6c-5.3,0-10.6-0.1-15.8-0.2c0.9-1.7,2.3-2.9,3.9-3.9c0.4,2.5,0.5,2.5,2.1,1.9
		C269.7,447.4,270.3,447.4,271,448z"/>
	<path class="st60" d="M266.9,446.1c-0.8,1.8-2.2,2.9-3.9,3.9c-2.4,0.2-4.9-0.1-6.2,2.7c-0.3,0.6-1.2,0.6-1.8,0.2
		c-0.9-0.6-0.2-1.1,0.3-1.5c1.4-1.4,0.8-3.1,0.9-4.7c0.1-0.9,0.1-1.9,1-2.1c1.3-0.2,0.8,1.1,0.9,1.7c0.1,0.9,0.2,1.6,1.3,1.7
		c1.5,0.1,1.5-0.9,1.6-1.9c0.1-0.8-0.1-1.8,1.1-1.8c0.8,0,0.8,0.9,0.9,1.5c0.1,0.8-0.1,1.8,1,2c1.2,0.1,0.9-1,1.2-1.7
		C265.6,445.1,266.2,444.4,266.9,446.1z"/>
	<path class="st61" d="M261.3,451.1c1-0.1,1.9,0.2,2.1,1c0.2,1.3-1,0.9-1.6,0.9c-0.7,0-1.8,0.2-1.7-1
		C260.2,451.2,260.8,451,261.3,451.1z"/>
	<path class="st52" d="M271,448c-0.7,0-1.4,0-2,0c0-0.3,0-0.6,0-1c0.1-0.8-0.1-1.8,1-1.8c1.1,0,0.9,1,1,1.8
		C271,447.3,271,447.7,271,448z"/>
	<path class="st62" d="M266.9,207.8c0-0.5-0.1-1,0-1.5c0-0.6-0.1-1.6,0.6-1.7c0.8-0.1,0.7,0.8,0.8,1.4c0.1,1,0,2.1,1.5,2.1
		c1.2,0,1-1,1.2-1.8c0.2-1,0.8-1.7,1.2-0.2c0.6,2.4,1.2,1.9,2.2,0.3c0.7-1,1.7-1.6,2.8-2c1.4-0.6,3-0.4,3.5,0.9
		c1.1,3.1,1.6,3.6,3.4,0.3c1.4-2.5,3.6-1.9,5,1.1c0.3,0.8,0.4,1.8,1.4,1.7c1.3-0.1,1.2-1.3,1.3-2.3c0.2-1.9-0.5-3.9,0.6-5.8
		c1.8,1.7,0.7,3.9,0.8,5.8c0.2,3.7,0.4,3.9-3.7,3.9c-8.4-0.1-16.9-0.2-25.3-0.3C263.9,207.5,266.5,209.3,266.9,207.8z"/>
	<path class="st63" d="M266.9,207.8c-0.1,2-2.5,0.5-2.9,2c-1.1,0.1-2.3,0.5-3.4,0.3c-1.7-0.3-2.9-0.2-2.9,2c0,0.4-0.6,0.9-1.1,0.7
		c-0.4-0.1-0.7-0.6-0.7-1.1c0.1-3,2-5.1,4.1-6.8c1.5-1.2,3-0.1,3.5,1.4C264.3,208.2,265.3,208.6,266.9,207.8z"/>
	<path class="st9" d="M296.1,205.3c-0.4,1.4,0.9,3.4-0.9,4.1c-0.4,0.1-0.4-2.7-0.4-4.1c0.1-1.6-0.8-3.4,0.8-4.8
		C296.6,202,295.8,203.7,296.1,205.3z"/>
	<path class="st13" d="M286.8,201.1c0.3,0,1.1,0.1,1.1,0.9c0,1.3-1.1,0.9-1.8,1c-0.6,0.1-1.5,0.2-1.5-0.7
		C284.7,201.4,285.5,201.1,286.8,201.1z"/>
	<path class="st64" d="M269,212.3c-0.4,1.2-1.3,0.6-2,0.7c-0.8,0-1.2-0.5-0.8-1.2c0.5-0.8,1.3,0.1,2.1-0.2
		C269,211.2,268.8,212,269,212.3z"/>
	<path class="st65" d="M223,162.4c0.3,1.7-0.3,3.1-2.9,2.8c-1.5-0.2-1.8,1.1-2.6,1.8c-2.5,2.2-6.3,1.3-7.3-1.7
		c-0.3-0.9-0.6-2.3,0.4-2.7c1.5-0.6,1.3,0.9,1.4,1.7c0.1,1.6,1.1,1.9,2.4,1.8c1.6,0,1.9-1,1.9-2.3c0-2.2,0-4.3,0-6.5
		c0-0.8,0.1-1.9,1.1-2c1.2-0.1,0.8,1.1,0.8,1.8c0.1,1.3,0,2.7,0,4c0,0.8,0,1.7,1.1,1.9c1.4,0.2,1.7-0.6,1.8-1.7c0-0.3,0-0.7,0.1-1
		c0.1-0.5,0.3-1,0.9-1c0.6,0,0.8,0.5,0.8,1C222.9,160.9,222.9,161.4,223,162.4z"/>
	<path class="st31" d="M231.3,159.8c1.8,0.4,2.2,1.9,2.6,3.4c0.2,0.8,0,1.8-1,1.9c-2.6,0.1-5.9,1.3-7.7-0.6
		c-2.1-2.2-1.1-5.6-0.8-8.5c0-0.2,0.4-0.5,0.7-0.6c0.7-0.2,0.9,0.4,0.9,0.8c0.1,1.2,0.1,2.3,0.1,3.5c0.1,3.7,0.2,3.8,4,3.6
		c0.6,0,1.5,0.2,1.6-0.7c0.1-1-0.8-1.3-1.6-1.7C229.9,159.9,230.2,159.4,231.3,159.8z"/>
	<path class="st22" d="M231.3,159.8c-0.6,0.2-1.1,0.5-1.2,1.1c-0.9,0.1-2.3,0.6-2.5-0.4c-0.2-0.9,0.9-1.5,2-1.4c0.3,0,0.6,0,0.9,0.2
		C230.8,159.3,231,159.6,231.3,159.8z"/>
	<path class="st66" d="M147,257.4c-0.2,0.6-0.2,1.4-1.1,1.2c-0.7-0.1-0.9-0.7-0.9-1.4c0-0.6,0.4-0.9,0.9-1
		C146.7,256.1,146.9,256.7,147,257.4z"/>
	<path class="st67" d="M169.8,259.9c-1.6-0.1-1.9-0.7-1.9-1.4c0.1-0.8,0.5-1.5,1.5-1.4c0.7,0.1,1.2,0.8,1.2,1.3
		C170.5,259.2,170,259.9,169.8,259.9z"/>
	<path class="st1" d="M142,71c0.1-0.7-0.1-1.7,1-1.8c0.5,0,0.9,0.4,0.8,0.9C143.7,71.3,142.8,71,142,71L142,71z"/>
	<path class="st1" d="M150.9,70.2c-0.2,0.4-0.4,0.9-1,0.7c-0.5-0.1-0.9-0.5-0.7-1c0.1-0.5,0.4-0.9,1-0.7
		C150.6,69.3,151,69.6,150.9,70.2z"/>
	<path class="st68" d="M346.3,311.7c-0.6-0.2-2,0.4-1.8-0.8c0.2-1.4,1.2-2.1,2.9-1.7c0.7,0.2,1.7-0.2,1.6,1.1
		C348.8,312.2,347.4,311.6,346.3,311.7z"/>
	<path class="st69" d="M277.3,208.8c-0.7-0.2-2,0.3-1.9-0.9c0.1-1.2,1.2-2.1,2.5-1.8c0.7,0.2,2.2-0.3,2.1,1.3
		C279.8,209.4,278.3,208.6,277.3,208.8z"/>
	<path class="st38" d="M287.6,207.5c-0.2,0.8-0.6,1.2-1.4,1c-0.7-0.2-1.1-0.7-1.1-1.5c0.1-0.8,0.6-1.1,1.4-1
		C287.2,206.2,287.5,206.8,287.6,207.5z"/>
	<path class="st70" d="M261.1,208.8c-0.8-0.1-1.5-0.4-1.5-1.1c-0.1-0.9,0.6-1.4,1.5-1.5c0.9-0.1,1.1,0.7,1.1,1.3
		C262.1,208.1,261.9,208.8,261.1,208.8z"/>
</g>
</svg>
