<?xml version="1.0" encoding="utf-8"?>
<!-- Generator: Adobe Illustrator 22.1.0, SVG Export Plug-In . SVG Version: 6.00 Build 0)  -->
<svg version="1.1" id="Layer_1" xmlns="http://www.w3.org/2000/svg" xmlns:xlink="http://www.w3.org/1999/xlink" x="0px" y="0px"
	 viewBox="0 0 1280 1024" style="enable-background:new 0 0 1280 1024;" xml:space="preserve">
<style type="text/css">
	.st0{fill:#169F5B;}
	.st1{fill:#FEFEFE;}
	.st2{fill:#139452;}
	.st3{fill:#FCFDFD;}
	.st4{fill:#BFE4D2;}
</style>
<g>
	<path class="st0" d="M454,246c17.3,0,34.7,0,52,0c0.7,2.8,2.9,2.9,5.1,2.9l-0.1,0c0.1,2.2,1.5,2.1,3.1,2l-0.1-0.1
		c0,2.2,1.5,2.2,3.1,2l-0.1-0.1c0,2.4,1.7,2.2,3.2,2.1c0.7,0,1.3,0.3,1.6,1c0.1,2.1,1.6,2.1,3.1,2l-0.1,0c0.1,2.2,1.5,2.1,3.1,2
		l-0.1-0.1c0,2.2,1.5,2.2,3.1,2l-0.1-0.1c0,2.4,1.7,2.2,3.2,2.1c0.7,0,1.3,0.3,1.6,1c3,4.5,7.9,5.3,12.7,6.4c0.1,0,0.2-0.2,0.3-0.4
		c1.2,0,2.1,0.5,3,1.2c0.7,2,1.6,3.5,4,1.8c2.6,0.3,4.5,1.9,6.1,3.8c0,2.8,1.7,3.3,4,3.2c0.9,0.2,1.5,0.9,2,1.6
		c-0.1,2.2,1.3,2.5,3,2.4c0.9,0.2,1.6,0.9,2,1.7c-0.1,2.2,1.3,2.4,2.9,2.4c0.9,0.2,1.6,0.9,2.1,1.7c-0.1,2.1,1.3,2.4,2.9,2.3
		c1,0.3,1.6,0.9,2.1,1.7c-0.1,2.1,1.3,2.3,2.9,2.3c1,0.3,1.6,0.9,2.1,1.7c0,2.8,1.7,3.3,4,3.2c0.5,0,0.9,0.3,1,0.8
		c0,2.8,1.7,3.3,4,3.2c0.9,0.2,1.5,0.9,2,1.6c-0.1,2.2,1.3,2.4,2.9,2.4c0.9,0.2,1.6,0.9,2.1,1.7c-0.1,2.1,1.3,2.4,2.9,2.3
		c1,0.2,1.6,0.9,2.1,1.7c-0.1,2.1,1.3,2.3,2.9,2.3c1,0.3,1.6,0.9,2.1,1.7c0,2.8,1.7,3.3,4,3.2c0.5,0,0.9,0.2,1,0.8
		c0,2.8,1.7,3.3,4,3.2c0.9,0.2,1.6,0.9,2,1.6c-0.1,2.2,1.3,2.4,2.9,2.4c0.9,0.2,1.6,0.9,2.1,1.7c-0.1,2.1,1.3,2.4,2.9,2.3
		c0.9,0.3,1.6,0.9,2.1,1.7c-0.1,2.1,1.3,2.3,2.9,2.3c1,0.3,1.6,0.9,2.1,1.7c0.1,1.1-0.1,2.6,1.9,1.4c0.7,0.3,1.4,0.6,2,1
		c0.3,1.8,1.6,1.8,3,1.9c1.8,0,3.7-0.1,5.5,0.1c9.3,1.2,18.7,2.5,28.1,2.9c0.8,0,1.7,0.1,2.1,1.3c-2.4,4.3-7.8,6.6-9.2,11.9
		c3.8-3,7.3-6.3,10.6-9.7c1.6-1.7,3.3-2.6,5.7-2.5c12.1,0.4,24.2-0.7,36.3,0.6c0.3,0,0.8-0.5,1.1-0.8c1.9,0.1,3.6,0.6,4.9,2.2
		c0.3,1.9,0.7,3.8,1,5.7c0.2,1.3,0.5,2.2,1.9,2.4c0.1,0.5,0.2,1.1,0.2,1.6c0.5,5.6,1.2,6.4,6.5,6.4c2,0,4,0,6,0
		c5.4,0.1,10.9-0.9,15.6,2.9c0.8,0.3,0.9,1,0.9,1.7c-0.1,1.6-0.3,3.2,2,3.4c1.2,1.1,1.9,2.4,2,4c-1.8,2.4-0.2,3.3,1.8,4.1
		c0.9,1.5,1.9,2.9,2.2,4.6c-0.2,2.9,1.3,5.7,1,8.6c-0.1,1.2,0.9,1.6,2,1.7l0-0.1c0.1,1.1,0.5,1.8,1.7,2.2c3.2,0.9,6.2,2.2,9.6,1.8
		c0.8,0.5,1.4,1.1,1.7,2c-0.1,3.2,1.9,5.8,2.9,8.7c0.3,1,1.3,1.4,2.4,1.3l-0.1-0.1c-0.1,2.3,1.4,2.2,3,2.2c0.5,0,0.8,0.2,1,0.7
		c-0.1,2.2,1.3,2.4,3,2.3l-0.1-0.1c0,2.8,1.8,3.3,4.1,3l-0.1-0.1c0,2.1,1.4,2.2,2.9,2.2c1.9,0.8,3,2.2,4,3.9c0,1.5,0,3,2.2,2.9
		l-0.1-0.1c0.5,4.1,1.1,8.2,0.9,12.4c-0.2,4,0.1,8-0.1,12c-0.2,5.1,2.4,9.3,4.1,13.7c0.3,0.9,1.3,1,2.1,1.1c0.9,0.4,1.5,1,1.9,1.8
		c0.1,2.7,1.5,4,4.2,4.2c0.8,0.5,0.9,1.2,0.9,2c-0.9,3.9-0.1,7.5,2.1,10.8c0.1,0.2,0.6,0.1,1,0.2c0.5,0.1,0.8,0.5,0.8,1
		c0.3,3,0.5,6.1,4.3,7c0.5,0.1,0.7,0.4,0.7,0.9c-0.1,1.6,0,3.1,2.2,3.1c1.2,0.7,2.1,1.7,2.8,2.9c0.2,1.3,0.3,2.7,2,1
		c1,0.1,2,0.2,2.9,0.3c1.3,1.3,3,0.6,4.6,0.9c2.1,0.4,4.6,0.1,5.4,2.9c-0.7,1-1.4,2-2.1,3c-0.8,0.2-1.6,0.4-1.6,1.4
		c0,1,0.7,1.4,1.5,1.5c2.5,0.3,5,0.7,7.6,1c0.5,0.1,0.7,0.5,0.7,1c0.1,1.4-0.4,3,1,4.1c0.2,0.2,0.3,0.4,0.1,0.6
		c-0.2,2.3,0.1,4.3,3.1,4.3c0.6,0.1,0.8,0.5,0.8,1c0,1.6,0.1,3,2.2,3c0.6,0.1,0.8,0.5,0.8,1c0,1.6,0.1,3.1,2.3,3
		c0.5,0.1,0.7,0.5,0.7,1c-0.1,1.6,0.1,3.1,2.3,3c0.5,0.1,0.7,0.4,0.7,0.9c-0.1,1.7,0.1,3.2,2.3,3.1c0.5,0.1,0.7,0.4,0.7,0.9
		c-0.2,2.3,0.3,4.1,3.2,4.1c0.6,0.1,0.8,0.5,0.8,1c0,1.6,0.1,3,2.2,3c0.5,0.1,0.8,0.5,0.8,1c0,1.6,0.1,3.1,2.3,3
		c0.5,0.1,0.7,0.5,0.7,1c-0.1,1.7,0.1,3.1,2.3,3c0.8,0.5,1.3,1.2,1.7,2c0.1,1.8,1.4,1.8,2.8,2.2c11.4,2.8,23.3,3.4,34.5,7
		c8.9,2.8,18.1,3.7,27.3,5c3.3,0.5,6.5,1.5,9.8,1.8c2,0.2,4.9,1.7,5.5-2.2c0.4-0.8,1-1.5,2-1.7c1.8,0,3.6,0,5.4-0.1l-0.1-0.1
		c-0.1,2.3-0.1,4.6,3,5.1l-0.1-0.1c0,2.3,0,4.6,3,5.1l-0.1-0.1c0,2.3,0,4.6,3.1,5.1c0.8,0.3,0.9,0.9,1,1.7c-0.1,1.6-0.3,3.2,2,3.3
		c0.8,0.4,1,1.1,1.1,1.9c-0.4,0.5-0.9,1-1.1,1.6c-3,9.5-6,19-9,28.5c-4,12.7-8.2,25.3-12.1,38c-0.7,2.3-2.2,3.2-4.1,3.9
		c-6.5,2.4-13.1,4.8-19.7,7.2c-20.7,7.6-41.5,15.3-62.3,22.7c-4.5,1.6-9,3.4-13.8,4.3c-10.6,1.9-21.2,3.8-31.7,5.9
		c-10.1,2-20.3,2.9-30.5,3.9c-6.3,0.6-12.5,1.5-18.6,3.1c-1.2,0.3-2.3,0.5-2.5,1.9c-0.6,0.1-1.3,0.2-1.9,0.3c-2.4-1.4-4-0.6-5.1,1.7
		c-1.5,1.1-3.1,1.9-5,2.2c-3.1-1.4-4.7,0.3-6,2.8c-1.5,1.1-3.1,1.9-4.9,2.2c-3.1-0.7-5.7,0.5-8.1,3.8c-0.5,0.4-1.1,0.8-1.6,1.2
		c-2.2-0.1-2.4,1.3-2.4,2.9c-0.3,0.9-0.9,1.6-1.7,2.1c-2.8-0.1-3.4,1.7-3.3,4c-0.2,0.9-0.9,1.5-1.6,2c-2.2-0.1-2.4,1.3-2.4,2.9
		c-0.3,0.9-0.9,1.6-1.7,2.1c-2.8-0.1-3.4,1.7-3.3,4c-0.2,0.9-0.9,1.5-1.6,2c-1.8,0-2.5,0.9-2.2,2.6l-0.1,0.3c-3.3-2.1-1.2-5-1.1-7.7
		c0.6-10.9,1.9-21.7,2.9-32.6c1.1-11.2,1.8-22.4,3.2-33.6c0.8-6.7,1.9-13.4,2.8-20.1c0.8-5.9,1.5-11.8,2.2-17.7
		c0.8-6.6,1.7-13.1,2.6-19.7c0.8-6.1,1.6-12.1,2.4-18.2c0.9-6.6,1.7-13.1,2.6-19.7c0.8-6.1,1.6-12.1,2.4-18.2
		c0.9-6.7,1.9-13.4,2.6-20.1c0.6-5.4,2-10.8,1.3-16.3c-0.3-2.6,0.2-5.7-3-7.2c-0.7-0.5-0.9-1.2-1-2c1.1-3.2-0.9-5.1-3-7l0,0
		c-0.1-2-1.5-3.1-3.1-4c-1.7-1-3.3-2-5-3c-1.4,0-2.4-0.7-3-2c-0.8-3.1-3.6-3.2-6-4c-0.3-0.3-0.7-0.7-1-1c-1.8-2-2.1-4.4-2.1-6.9
		c0.1-14.6,0.1-29.3,0-43.9c0-4-0.7-5.5-3.9-5.8c-2.9-0.3-5.3-1.8-8.1-2.3l0,0c-1.3-2.1-2.9-3.7-5-5c-0.8,0-1.5-0.2-2-1
		c0-1.4-0.1-2.9-1.9-2.9c-2.7,0.1-5.6-1.1-8.1,0.9c-0.8,0-1.5-0.2-2-1c-0.2-2.6-1.9-3.1-4-3c-0.3-0.3-0.7-0.7-1-1
		c-0.5-2.6-2.5-3.1-4.5-2.9c-3.8,0.3-7.1-0.9-10.5-2.1c-0.7-1.3-1.7-2.3-3-3c0-2-0.4-4.1-2.8-3.8c-4.6,0.5-8.2-2-12.3-3.2v0
		c-0.9-1.6-2-2.9-4-3l0,0c-0.6-6.1-5.6-9.2-9.1-13.4c-1.9,1.1,0,3.6-1.8,4.9c-2.6-1.4-3.5-5.1-8.2-5.5c3.3,2.6,2.6,5.3,2.1,8
		c-0.1,0.6,0,1.3,0,2v0c-2.5,2.6-4.1,5.6-5,9c-3.1,1.8-6.3,2.2-9.6,0.3c-0.7-0.4-1.6-0.2-2.4-0.3c-3-6.7-5.8-8-12.3-5.7
		c-4.5,1.6-8.9,3.5-13.4,5.1c-6.3,2.2-6.3,2.2-6.3,8.6c-1.8,0.4-3.7,0.7-4,3c-4.5,0.4-7.9,2.9-11,6c-1.4,0-2.4,0.7-3,2
		c-3.2,0.6-5.8,2.4-7.8,4.8c-1.2,1.5-2.1,3.4-2.3,5.4c-0.2,2.4-4,1.1-3.9,3.7c-3.4,0.6-0.9,4.2-2.9,5.6c-6.1,1-6.1,1-4.6,5.8
		c0.4-3.2,2.2-3.4,4-3.4c2.3,0,3.1-1.6,3.4-3.5c0.2-1.5,0.1-3,0.1-4.4c5-0.1,5-0.1,6.1-4.6c0.6-2.3,1.8-4.1,3.9-5.4
		c1.5-1,3.7-1.6,4-3.9c1.5,0,2.9-0.1,3-2c4.5-0.4,7.8-3.2,11-6c1.8-0.4,3.7-0.7,4-3c1.8-0.2,2-1.5,2-2.9c0-1.7,1-2.8,2.5-3.4
		c5.6-2.1,11.2-4.3,16.7-6.4c2.4-0.9,4.5-0.3,6.3,1.6c1.2,1.3,2.3,2.9,4.4,3c1.4,2.5,3.9,2.7,6.3,3.3c3.8,0.8,3.8,0.8,5.7-3.3
		c3.6-2.3,4.6-2.3,6.8,0c1.8,1.8,1.6,4.4-0.4,7.1c-0.5,0.7-1,1.3-1.5,2c-0.3,0.3-0.7,0.7-1,1c-3.9,0.4-5.6,4.2-8.9,5.7
		c-2,0.9-1.6,7.8,0,10c0.1,0.2,0.6,0.2,0.9,0.3c0.7,1,1.3,2,2,3c0.1,1.9,1.1,2.9,3,3c-0.1,1.6,0.5,2.9,1.4,4.1
		c1.1,1.5,1.7,3.2,1.6,5.1c-0.1,2.3,0.3,4.6,0.8,6.9c0.9,4.4-0.3,6.1-4.8,5.9c-4.7-0.2-9.3-0.1-14,0c-4.1,0.1-5.1,1.1-6,5
		c-1,0.6-2.3,0.9-3,2c-4.5,1.1-8.1,4.4-13,4.6c-1.6,0.1-3,1.4-3,3.4l0,0c-6.9,1.4-9.9,6.7-8,14c-0.3,0.3-0.7,0.7-1,1
		c-5-0.2-10-0.7-14.9-0.6c-5.2,0.2-11.4-1.3-15.9,3.5c-0.3,0.3-1,0.2-1.5,0.2c0,0,0.1,0.1,0.1,0.1c0.2-2.3-0.4-4.4-1.9-6.2
		c-0.3-0.6-0.7-1.2-1-1.8c0.1-1.6,0-3.1-2.1-3.2c-0.6-0.7-1.2-1.3-1.8-2c-3.1-2.9-4.8-6.2-4.1-10.7c0.6-3.4-0.1-6.3-4.2-7.2
		c-0.7-0.2-1.2-0.6-1.2-1.4c0-1.7-1.3-1.7-2.4-1.7c-5.8,0-11.6,0-17.4,0c-1.5,0-2.6,0.4-2.7,2.1c-1,1.5-2.3,2.9-3.8,3.9
		c-6.6-0.5-13-0.1-19,3.3c-0.9,0.5-2.2,0.5-3.3,0.7l0,0c-0.1-3.1-1.2-6.1-1-9.3c0.3-3.6,0.1-7.3-1.4-10.7c-0.9-2.1-0.6-4.2,0-6.3
		c0.9-3.3,1.8-6.6,1.9-10.1c-4.3-1.3-5.5-2.3-4.2-5.1c1.4-3,0.7-5.7,0.8-8.6c1.3-0.1,1.9-0.7,2-2c2.1-1.7,3.7-3.8,4.9-7.3
		c-3.7,1.9-4.8,4.3-4.9,7.3c-1.3,0.1-1.9,0.7-2,2c-9.2,1.6-18.4,2.4-27.2-1.7c-2.4-1.1-4.8-2-7.2-1c-5,2.2-9.9,2.1-14.8-0.3l0.1,0.1
		c-0.1-4.9-3.7-7.5-7.4-8.8c-2.7-1-4-2.3-5.1-4.6c-1.2-2.4-2.9-5.1-5.4-5.4c-4.3-0.6-8.8-1.4-13,0.6c-0.2,0.2-0.4,0.3-0.6,0.1
		c-3.5,0.1-6.9,1.3-10.5,1c-1.1-0.1-1.7,0.7-1.9,1.8c-0.6,0.4-1.2,0.8-1.8,1.2c-1.2,0-2.7,0.2-2.7,1.6c-0.1,1.7,1.6,1.1,2.7,1.3
		c0.5,0,0.8,0.2,0.9,0.8c0,3.3-0.1,6.6-0.1,9.8c0.1,4.1,0.8,4.8,5.2,5.4c0.4,0,0.8,0.1,0.9,0.6c0.1,0.5,0,1.3,0.2,1.4
		c4.9,2,3.3,5.6,2.5,9.1c-0.4,1.7-1.6,3.5,0.3,5c1,1.5,2.3,2.8,3.8,3.8c1.4,1.7,3.1,1,4.8,0.8c5,4.6,10.1,9,11.4,16.2
		c0.4,2.2,2.2,4.1,4.5,5c1.2,0.5,2.5,0.8,3.5,2.1c-0.3,6-1,12.1-2,18.1c-0.2,1.1,0.1,2.4-1.4,2.9c-5.7,1.9-9.9,6.6-15.6,8.2
		c-0.6,4.1,0.2,7.4,2.2,10.5c0.6,0.9,1.3,1.6,2.4,1.4c3.6-0.6,5.9,1.6,8.5,3.4c5.4,3.8,10.9,7.7,16.4,11.3c1.9,1.2,3,2.5,2.7,4.8
		c-0.3,2.1,0.6,3.8,2,5.4c1.1,1.2,2.4,2.3,2.8,4c-3.4-1.2-6.2-4.8-6.1-8.5c0-2.3-0.9-3.6-2.7-4.8c-4.5-2.9-8.8-6-13.2-9.1
		c-3.9-2.8-7.5-6.2-12.8-4.7c-1.7-3.6-4.1-6.6-4.2-10.1c-0.1-3.4-1.9-5.1-4.4-6.7c-1.8-1.1-3.9-1.9-4.7-4.2
		c2.4-4.4,2.6-7.6,0.5-12.2c-3.7-8.1-8.3-15.5-15.1-21.3c-0.6-0.5-1.3-1-1.4-2c-0.4-4-2.3-7.1-4.4-10.5
		c-5.5-9.2-12.1-17.5-18.1-26.2c-6.7-9.6-13.4-19-18.3-29.6c-1.5-3.2-3.1-6.3-4.6-9.4c-0.7-1.3-1.1-2.8-2.6-3.5
		c-0.5-1.4-1.6-1.4-2.8-1.4c-2.6,0-5.3,0-7.9,0c-2,0-3.6-0.3-4.4-2.4c0.3-2,1-3.9,2.2-5.6c1.3-0.3,2.4-0.6,0.9-2
		c0.6-2,1.2-3.9,1.8-5.9c1-0.5,1.4-1.2,0.3-2.1c-0.1-1.4-0.2-2.8,0.6-4.1c1.8-3.3,4.9-4.5,8.5-4.8c1-0.1,2-0.1,3,0
		c9.8,0.5,19.7-1.4,29.5,1.1c-2-2.3-4.7-3.1-7.5-3.1c-9.6,0.3-19.3-1-28.8,0.8c-0.7,0.1-1.3-0.1-2.1-1c0.5-2.4,1.1-5.1,1.6-7.9
		c1.1-5.2,1.8-5.5,6.9-4.6c8.8,1.6,17.6,3,26.4,4.5c1.5,0.3,2.6-0.1,2.8-1.9l0,0c1.6,0,3-0.2,2.9-2.3c0.5-0.8,1.1-1.4,2.1-1.7
		c1.6,0,3-0.2,2.9-2.3c2.3-2,4.1-4.4,6-6.7c2.1-0.1,2.1-1.6,2-3.1l0,0.1c2.2-0.1,2.1-1.5,2-3.1l-0.1,0.1c2.2,0,2.2-1.5,2-3.1l0,0.1
		c4.5,0.8,8.9-0.6,13.3-1.2c3.7-0.6,7.6-0.2,11.2-1.7c1.2-0.5,1.7-0.9,0.6-2c0-1.1,0.3-2.1,1.1-3c3.3-2.2,3.4-5.8,3.9-9.2l-0.1,0
		c2.3,0,4.6,0.1,5.1-3.1l-0.1,0.1c1.5,0.2,3,0,4.1-1c1.6-1.6,1-2.6-1.1-2.8c-1.2-0.8-2.2-1.8-2.8-3.1c0-2.4-0.7-4-3.5-3.8
		c-2.1-1.8-4-3.8-5.5-6.1c0-2.9-1.2-4.8-4.4-4.9c-2.1-1.8-4.1-3.8-5.6-6.2c0.1-2.4-0.7-4-3.5-3.8c-0.8-0.4-1.4-1-1.6-1.9
		c1-2.4,3-3.4,5.3-4.2c5.8-2,11.7-3.7,17.3-6c1.1-0.5,2.3-1.4,3.9-0.4c0.4,1.6-0.7,3-1,4.6c-1.1,6.6-0.9,11.9,4.5,14.8
		c0.1,2.5,0.7,4.6,3,6c3.7,3.2,7.6,5.4,12.9,4.3c5.3-1.1,10.7-1.8,16.2-2.2c9.8-0.9,19.3,1.9,29,2.9c1.1,2,2.9,2.6,5,3
		c1.1,2.3,3.2,2,5.2,2c7.6,0,15.2,0,22.8,0c0.1,1.9,1.5,2,3,2c0.5,2.5,2.5,2.7,4.4,3c4.1,0.7,8.3,0.9,11.6,4c0.1,2.2,0.2,4.4,3,5
		c0,2.2,1.9,2.8,3.3,3.8c1.4,1,3.1,1.9,2.7,4.2c-1.3,0.1-1.9,0.7-2,2c-1.5,0-2.9,0.1-3,2c-3.8,0.2-6.6,2.3-9,5c-1.3,0.1-1.9,0.7-2,2
		c-1.5,0-2.9,0.1-3,2c-3.8,0.2-6.6,2.3-9,5c-1.3,0.1-1.9,0.7-2,2c-1.7-0.1-3.2,0.2-4,2c-2.7,2.1-4,4.9-3.9,8.2
		c0,3.7-0.3,7.3-1.1,10.8c-3.1,1.6-6.5,2.2-9.9,3c-3.5,0.8-8.6,3.5-10.6,5.6c2.6,0.6,4.2-1.1,6.1-1.9c5.5-2.5,10.9-5.2,17-2.1
		c0.2,0.1,0.6-0.2,1.4-0.6c-1.7-1.2-4.2-1.5-4-4c2-1,3-2.9,2.9-4.9c-0.3-4.9,0.9-9.5,2.1-14.1c1.7,0.1,3.2-0.2,4-2
		c1.3-0.1,1.9-0.7,2-2c3.8-0.2,6.6-2.3,9-5c1.4,0,2.4-0.7,3-2c1.3-0.1,1.9-0.7,2-2c3.8-0.2,6.6-2.3,9-5c1.4,0,2.4-0.7,3-2
		c1.3-0.1,1.9-0.7,2-2c1.1-0.1,2.4,0.2,2.8-1.3c0.2-1.1-0.4-1.9-1.3-2.4c-2.5-1.4-4.5-3.7-7.5-4.3c-0.4-2-1-3.9-3-5
		c-0.5-2.5-1.2-5.1-4.4-4.9c-4.1,0.3-7.8-1.1-11.6-2.1c-0.6-1.3-1.6-2-3-2c-1.1-2.3-3.2-2-5.2-2c-7.6,0-15.2,0-22.8,0
		c-0.6-2.8-2.8-2.9-5-3c-0.7-3-3.2-3-5.5-3c-3.3,0-6.6,0.1-9.8-1.1c-2.5-0.9-5.2-0.9-7.8-1c-5.2-0.2-10.2,0.9-15.2,1.6
		c-5.8,0.8-11.7,2.4-17.2-1.3c-0.6-0.4-1.6-0.2-2.4-0.3c-0.1-2.5-0.7-4.6-3-6c0-1.2-0.4-2.4-1.2-3.2c-2.2-2.3-2.3-5.3-1.7-7.9
		c0.9-4.5,0.3-10.2,6.6-11.8c0.2,0,0.2-0.6,0.3-0.9c0.6-0.1,1.3-0.2,1.9-0.3c1.3,1.5,1.8,0.7,2.1-0.7c0.6-0.1,1.3-0.2,1.9-0.3
		c1.3,1.5,1.8,0.7,2.1-0.7c0.6-0.1,1.3-0.2,1.9-0.3c3,1.1,8.6-0.2,11-2.4C454,246.4,454,246.2,454,246z M590.9,335
		c0.1-0.5-0.1-0.9-0.7-0.8c-0.2,0-0.3,0.5-0.4,0.7c-0.1,0.6-0.1,1.2-0.2,1.8c-2.2,1.6-2.2-1.9-3.7-1.7l0,0c-0.2-1.9-1.4-1.4-2.5-1.1
		c-1.5,0.4-1.5,2.6-3.3,2.7c-1.2-2.3,0.4-5.2-1.7-8.2c-0.9,4-1,7.1-0.1,10.5c8.1,0,16.1,0,24.4,0c-0.1-3.6,0.9-6.7-0.9-10.3
		c-1.8,2.9,0,6-1.5,8.3c-2.3-0.2-1-2.9-2.6-3.3c-1.5,0.7-0.1,2.7-1.6,3.3c-1.6-0.2-0.5-2.1-1.7-2.7c-1.6,0.2-0.6,3.8-3.3,2.6
		C591,336.3,591,335.6,590.9,335z M592.1,450.9c-0.1-0.2-0.2-0.7-0.4-0.7c-0.6-0.1-0.7,0.3-0.7,0.8c0,0.6-0.1,1.2-0.1,1.9
		c-3.3,1-1.4-3.2-3.4-3.4c-1.5,0.7,0.2,3.6-2.4,3.6c-1.4-0.5-1-2.3-2.2-3c-1.1-0.6-1.6-0.5-2.9,0.9l0,0c-3.5,2.1-4.1,3.4-3.3,6.9
		c1.7-0.2,0.8-2,1.7-2.7c0.3,0,0.6-0.1,0.9-0.1c3.5,0.2,3.5,0.3,7.6,2.8c0.4,0.3,1.6,0.6,1.9-0.5c0.3-1.2-2-0.6-1.3-2.3
		c8.3,0,16.8,0,25.6,0c-0.2-3.4,0.5-6.6-0.6-10.5c-2.2,2.9-0.2,6.2-1.9,8.2c-1.8,0.4-1.1-2.1-2.7-1.8l0,0c-0.3-2.5-1.7-2-3.3-1.2
		c-1.3,0.6-1.2,2.3-2.2,3.1c-2.9-4.3-3-4.3-7.1-2.4c-0.3,0.3-0.6,0.7-0.9,1c-0.7,0.7-1.4,1.1-2.3,0.3
		C592.3,451.5,592.3,451.2,592.1,450.9z M820.8,595c-1.4,1.9-1,3.2,1.3,3.8c0.6,0.1,1.3,0.1,1.9,0.2c1,1.6,3.9,1.1,4.2,3.7
		c0.1,0.5,1.9,0.4,2.6-0.1c-0.1-1.7-2.4-0.6-1.8-2.5c2.9,0.1,5.9,0.5,9.1-0.2c0.1-2.1,0.8-4.2-1.5-5.4c-3.3-1.7-3.7,2.2-5.4,3.5
		c-1.5-1-0.4-2.8-1.7-3.6c-1.9,0.4-0.2,3.5-2.7,3.5c-1.4-0.6-0.6-2.2-1.3-3.1C823.9,592.7,822.4,593.3,820.8,595z M564.1,337.8
		c0.6,0.1,1.3,0.1,1.9,0.2c0.8,1.8,3,0.6,4,1.9c0,0.9-0.6,1.9,1.1,2.1c1.7,0.1,1.9-0.8,1.8-2.1c0.9-1.1,2.7-0.2,3.6-1.8
		c-0.2-2.8,1.1-6-1-9.2c-2,2.6,0.3,5.9-1.9,8.1c-2.2-0.5-0.8-3-2.3-3.5c-1.8,0.5-0.1,3.5-2.6,3.6c-1.4-0.7-0.6-2.2-1.3-3.1
		c-1.6-2.2-3.2-1.6-4.8,0C561.3,335.9,561.8,337.2,564.1,337.8z M657,387c-2.5,0.2-3.1,1.9-3,4c-2.4,0.5-2.8,2.1-2.8,4.9
		c1.9-1.6,2.6-3.1,2.8-4.9C655.6,390.1,656.9,389,657,387c1.6-0.9,2.9-2,3-4c2.9-1.5,1.8-4.7,3-7c1.3-0.6,2-1.6,2-3
		c1.7-1,2.7-2.4,2.3-4.9c-2.1,1.4-2.4,3.1-2.3,4.9c-1.9,0.1-2,1.5-2,3c-3.4,1.3-2.8,4.3-3,7C657.5,383.2,656.9,384.9,657,387z
		 M848.9,599l0-0.3c-2,0.2-2.5-1.1-2.7-2.7c-0.1-0.2-0.2-0.7-0.4-0.7c-0.6-0.1-0.7,0.3-0.7,0.8c0,0.6-0.1,1.2-0.1,1.9
		c-3.3,1.2-2.1-2.5-3.7-3.5c-0.9,2.8,0.2,6-2.4,8.1c1.7,0.9,2.8,0.3,3.1-0.9c0.5-1.8,2.2-1.1,3.1-1.9c1.3,0,2.6,0,3.9,0
		c2.9,0.3,5.9,0.6,8.7,0c0.7-6.2,0.7-6.7-0.7-9.6c-1.8,2.3,0.3,5.6-1.5,7.7c-2.2-0.4-0.6-3.1-2.6-3.3c-0.7,2-1.2,2.5-2.6,3.2
		c-0.3-0.7,0.5-1.9-1.1-2.4C849,596.7,848.9,597.9,848.9,599z M573,364c0.8,1.8,2.3,2.1,4,2c0.4,2.4,2.3,1.9,3.9,2
		c1.7,0.1,2.9-1.5,4.6-1.1c2.6,5.6,2.8,5.7,9.6,4.4c-4.1-0.8-7.9-1.8-7.7-7.6c-3.7,1.7-6.9,2.9-10.5,2.4
		C576.2,364.2,574.7,363.9,573,364c0.2-2.8-1.2-4.2-4-4c-1.4-3.7-4.9-3.6-7.9-3.9c-3.9-0.4-8-0.2-11.9,0.1c-1.4,0.1-2.7,0.3-3.8-0.5
		c-2.8-2.3-5.9-1.8-9-1.3c-4.7,0.8-9.4,1.9-14.2,1.7c-1.2-0.1-2.6-0.5-3.5,0.8c0.1,0.7,0.5,1.1,1,1c5.5-1.8,11.2,0,16.7-1.6
		c2.2-0.6,4.7-0.7,6.8,0.5c2.6,1.5,5.4,1.3,8.2,1.3c5.9,0.1,12-0.8,17.6,2C570,361.7,571.3,363,573,364z M397.7,387.1
		c-1-1.3,1.2-2,0.7-3.2c-1-0.7-1.9-0.8-2.8,0.1c0,1.3,1.8,1.8,1.4,3.3c-0.6,1.5-0.3,3.8-3.1,3.1c-0.4-1.3,0.6-3-1-3.9
		c-1.8,0.8-0.2,3.2-2,3.6c-2.3,0-1.5-2.3-2.7-3.2c-1.7-1.2-3.1-0.9-4.3,0.6c-0.5,0.6-1,1.4-0.7,2.3c0.5,1.6,1.7,2.3,3.3,2.7
		c-0.9,0.9-2,0.7-2.2,1.7c0,0.1,0,0.3,0,0.5c1.3,0.7,2.9,0.8,3.6-0.3c1.5-2.4,3.9-2.2,6.1-2.6c1.3,0.2,2.5,0.6,3.7-0.4
		C398.1,390,398,388.5,397.7,387.1z M618,382c0-1.9-0.3-3.6-3-5.2C615.7,379.6,616.2,381.2,618,382c0,3-0.7,6.3,3,8
		c0.1,1.2,0.5,2.3,1.8,2.7c4.8,1.4,9.8,1.3,14.7,2.5c-5-3.5-11.3-2.5-16.5-5.2c-0.4-2.2-0.8-4.4-1.2-6.7
		C619.6,382.4,618.8,382.1,618,382z M465,313.2c-3.4-1.5-4.1-1.1-4.7,3c-2.8,0.9-5.5,1.3-7.5-2.8c0.2,4.3,0.2,4.6,1.8,4.6
		c3.7,0.1,7.5,0.6,11.2-0.4C465.9,315.9,466.3,314.4,465,313.2z M487,366c-6.9,1.8-13.8,3.4-19.8,7.9c1.2,1.1,1.9,0.5,2.6,0.1
		c4.1-2.1,8.3-4.1,12.8-5.1C484.4,368.5,486.1,367.8,487,366c1-0.1,2.1-0.2,2.3-1.6C487.5,363.8,487.2,364.9,487,366z M477,312.6
		c-1.3-0.8-2.1-0.5-2.5,0.9c0.9,0.6,1.7,0.5,2.5,0.3c0.9,0.5,1.6,1,1.1,2.2c-3.3,0.6-3.3,0.6-5.4-1c0.1-1.9-0.9-2.8-2.6-2.9
		c-1.5-0.1-2.5,0.9-2.9,2.3c-0.5,1.6,0.1,2.9,1.9,3.4c0.6,0.3,1.4,0.1,1.6,0.7c-0.1,1.6-2.3,0.5-2.4,2c1.3,0.8,2.9,0.7,3.5-0.4
		c1.4-2.5,3.5-2,5.6-2.1c2.3-0.2,4.6,0.6,7-0.7c-0.4-2.9,0.6-5.9-0.7-9.1c-1.6,2.7,0.4,5.9-1.6,8.2
		C479.6,315.8,479.7,312.4,477,312.6z M411,361c2.4-0.2,1.8-2.4,2.4-3.8c1.4-3.1,2.3-3.5,6.6-2.1c0,3.7,0,7.5,0,11.3
		c0.1,6.8,3.1,10.2,9.9,10.6c3.4,0.2,6.8,1.7,10.3,0.2c1.4-0.6,2.9,0.4,4,1.5c1.7,1.8,3.8,3.2,6.5,4.4c1.8-3.1,5.2-4,7.8-2.8
		c4.1,2,8.4,1.3,12.5,2.5c1.8,0.5,3.5,1,4.8,2.3c0.7,0.7,1.6,1.3,2.7,0.2c-3.4-5.6-9.6-4.2-14.6-5.8c-1.1-0.8,0.6-2.3-1-3.3
		c-2,1.8-4.6,1.9-7.3,1.8c-1.3-0.1-2.7,0-3.8,0.9c-1.8,1.5-3.4,1.1-4.8-0.5c-1.8-2.3-4.2-2.4-6.7-2.4c-3.3,0.1-6.6-0.1-9.9-0.8
		c-6.7-1.4-8.2-2.9-8.3-9.9c-0.1-4.3,0.7-8.6-0.5-12.7c-7.6-1.3-9.6,0.1-10.4,7.4C411,360.3,411,360.7,411,361
		c-4.3,2.1-8.9,2.1-13.6,2c-4.3-0.1-8.8-0.7-12.9,0.3c-4,1-6.2-0.3-8.7-2.9c-1.3-1.4-2.4-3.6-5.9-3c2.3,2.3,4.2,4.1,6,6.1
		c2,2.2,4.1,2.8,7.1,2.1c5.1-1,10.3-2.6,15.7-0.8c1.6,0.6,3.7,0.5,5.4,0C406.6,364.1,410,364.6,411,361z M537.5,400.3
		c-1,0.1-1,0.9-1.1,1.5c-0.1,2.3-0.1,4.7-0.1,7c0,1.3-0.4,2.3-1.9,2.4c-1.3,0.1-2.3-0.3-2.4-1.8c-0.1-0.8-0.1-1.7-1.4-1.9
		c-1.2,2.1-0.4,3.8,1.3,5c1.6,1.1,4,1.3,5-0.1c1.5-2.2,4-1.9,6-2.9c0-1.2-0.1-2.2,0-3.2c0.1-1-0.9-2.2,0.5-3
		c0.2,0.3,0.5,0.6,0.5,0.8c0.7,6.3,0.7,6.3,7.2,6c0.8,0,1.7,0,2.5-0.8c0.5-2-0.3-3.7-2.2-4.7c-1.3-0.7-2.8-1.3-3.7,0.7
		c1.1,1.2,3.7-0.2,3.8,2.5c-1.7,0.7-3.4,0.6-5.1,0.1c-1-2.6,0.1-5.2-0.8-7.5c-1.6-0.6-1.6,2.5-3.3,1.2c-0.3-0.6,0.8-1.7-0.9-2
		c-3.4,2.2,2.3,6.2-1.6,8.5C536.4,406.5,539.7,402.4,537.5,400.3z M480.8,387.4c-0.2,0.5-0.4,0.7-0.3,0.8c0.2,0.4,0.3,1.1,0.7,1.2
		c4.3,2.3,5.8,6,6,10.7c0.1,2,0.8,3.8,1,5.9c0.2,2.8,2.8,4.4,6.1,4.3c-4.5-4.7-4.3-4.8-5.3-11.9
		C488.2,393.5,486.4,388.9,480.8,387.4z M379.9,390.4c-3.3,0.1-6.7,1.5-9.2-3.1c-0.3,3-0.1,4.6,2.4,4.7c2.9,0.1,5.8,0,8.7,0
		c0-3.6,0-6.6,0-10.7C379.9,384.8,381.3,387.6,379.9,390.4z M614.6,375.4c-1.1-4.9-1.8-5.7-4.1-5c-2,0.7-3.9,2-5.9,2.4
		c-1.9,0.4-4,0.1-6.5,0.1c3.3,2.2,6.2,2.9,9.1,1C609.8,372.2,612.1,371.9,614.6,375.4z M556.1,461.4c-1.1,3.1-3.4,3.9-6.3,3.6
		c-3.4-0.4-5,1.6-6.2,4.2c0.6,0.8,1.5,0.9,1.9,0.4c1.8-2.3,4.2-2.7,7-2.8C555.3,466.7,556.5,464.6,556.1,461.4z M604.8,338.8
		c1.3-3.2,1.6-6.3,0-9.4C603.6,332.5,603.8,335.6,604.8,338.8z M615.6,445.4c-1.3,5.1-1.2,7.2,0.5,9.2
		C616,451.4,616.4,448.4,615.6,445.4z M496.9,419.2c1.2-2.8,1.7-4.6-0.7-7.3C496.1,414.6,495.7,416.4,496.9,419.2z M486.6,307.4
		c-0.9,4.1-1,7.1,0.1,10.1C487.4,314.5,487.6,311.5,486.6,307.4z M860.4,600.8c0.9-4.1,1-7.2-0.2-10.2
		C859.6,593.6,859.3,596.7,860.4,600.8z M376.9,384.9c-1.1,1-1.9,1.7-1.2,2.7c0.2,0.3,1.1,0.4,1.3,0.2
		C377.9,387,377.3,386.1,376.9,384.9z M594.4,328.9c-1.1,0.6-1.7,1.4-1.3,2.8c1,0.3,1.9,0.6,2.7-0.3
		C595.7,330.4,595.4,329.5,594.4,328.9z M567.2,330.4c-1.3-1-2.2-1.8-3.5,0.3C565,331,565.9,331.2,567.2,330.4z M608.7,447.2
		c-2-0.7-3.1-1.6-3.8,0.3C605.9,448.2,606.8,448.1,608.7,447.2z M821.8,591.5c1.2,0.7,2.1,0.5,2.9-0.4
		C823.9,590.9,823,589.5,821.8,591.5z M837.2,592.4c-1.3-1-2.2-1.7-3.5,0.4C835,593,835.9,593.2,837.2,592.4z M463.2,310.9
		c0.3-0.1,0.7-0.2,0.7-0.4c0.1-0.4-0.1-1-0.6-1c-0.2,0-0.6,0.2-0.7,0.5C462.3,310.6,462.7,310.8,463.2,310.9z M851,592.4
		c-0.1-0.1-0.2-0.3-0.3-0.3c-0.2,0-0.4,0.2-0.6,0.3c0.1,0.1,0.2,0.3,0.3,0.3C850.5,592.7,850.7,592.5,851,592.4z M848.5,592
		c-0.1,0.1-0.3,0.2-0.3,0.3c0,0.2,0.2,0.4,0.3,0.6c0.1-0.1,0.3-0.2,0.3-0.3C848.8,592.4,848.7,592.2,848.5,592z M850,590.5
		c-0.1-0.1-0.2-0.3-0.3-0.3c-0.2,0.1-0.4,0.2-0.7,0.3c0.1,0.1,0.2,0.3,0.3,0.3C849.6,590.8,849.8,590.6,850,590.5z"/>
	<path class="st1" d="M737.4,752.1c0.8-0.5,1.4-1.1,1.6-2c1.4-1.1,2.4-2.5,3.3-4c0.8-0.5,1.4-1.1,1.7-2.1c1.1-0.7,1.8-1.8,2.4-2.9
		c0.8-0.5,1.4-1.1,1.6-2c1.4-1.1,2.4-2.5,3.3-4c0.8-0.5,1.4-1.1,1.7-2.1c1.1-0.7,1.8-1.8,2.4-2.9c0.5-0.4,1.1-0.8,1.6-1.2
		c2.8-0.9,5.6-2.1,8.1-3.8c1.9-0.3,3.5-1.1,4.9-2.2c2.2-0.6,4.2-1.5,6-2.8c1.9-0.3,3.5-1.1,5-2.2c1.7-0.6,3.4-1.2,5.1-1.7
		c0.6-0.1,1.3-0.2,1.9-0.3c9.1-2.2,18.3-3.5,27.6-4.1c3.8-0.3,7.6-0.6,11.4-1.3c11.3-1.9,22.6-3.9,33.9-6c6-1.1,12.2-1.7,18-3.8
		c29.5-10.8,59-21.7,88.5-32.4c3-1.1,4.5-2.7,5.4-5.7c6.3-20.1,12.7-40.2,19.2-60.3c0.5-1.5,0.4-3.3,2-4.3c0,66.3,0,132.6,0,199
		c-224.2,0-448.4,0-673,0c0-138,0-276,0-414c5.3-0.2,10.7-0.4,16-0.5c1.5,0.7,2,2.2,2.6,3.5c1.6,3.1,3.2,6.2,4.6,9.4
		c4.9,10.6,11.6,20,18.3,29.6c6.1,8.7,12.7,17.1,18.1,26.2c2,3.4,4,6.5,4.4,10.5c0.1,0.9,0.8,1.4,1.4,2c6.8,5.8,11.4,13.2,15.1,21.3
		c2.1,4.6,1.9,7.8-0.5,12.2c0.7,2.3,2.9,3.1,4.7,4.2c2.5,1.6,4.3,3.2,4.4,6.7c0.1,3.5,2.5,6.4,4.2,10.1c5.3-1.5,8.9,2,12.8,4.7
		c4.3,3.1,8.7,6.2,13.2,9.1c1.8,1.2,2.8,2.4,2.7,4.8c0,3.7,2.8,7.3,6.1,8.5l-0.2-0.2c-1.3,0.7-0.3,1.4,0.1,2c1,1.6,2,3.1,2.5,4.9
		c2.4,8.3,5.3,16.4,9.3,24.1c1.7,3.2,2.3,7,0,10.5c-2.8,4.3-2.4,8.7-0.6,13.2c2.3,5.7,3.6,11.9,3.2,18c-0.3,4.7,0.6,8.6,3.6,11.9
		c5.1,5.6,9.2,11.8,12.5,18.5c1.5,3,3.7,4.9,6.7,6.4c5.3,2.7,10.4,5.7,15.6,8.6c0.7,1.1,1.8,1.8,3,2.4c0.1,0.5,0.3,0.7,0.8,0.7
		c2,1.8,4.9,2.7,6.3,5.2c0.5,0.9,1.9,1.2,1.8,2.3c-0.3,3.3,2.3,4.8,3.7,7.2c2.3,4.1,5,7.8,7.2,11.9c0.6,1,0.6,2.3,1.2,3.2
		c2.6,4.2,3.7,8.8,3,13.7c-0.3,1.8,0.1,3.1,1.7,4.3c2.9,2.2,5.6,4.7,8.3,7.1c0.3,2.3-1.1,5,1.3,6.9c0.4,0.9,0.9,1.6,1.8,2.1
		c0.6,1,1.2,2.1,1.9,3.1c1.7,5.4,3.8,10.6,9.8,12.9c0.7,0.3,1.4,0.9,1.9,1.5c5.2,5,9.1,11.1,11.9,17.6c3.7,8.5,10.3,15.5,12.5,24.7
		c0.4,1.8,2.1,2.6,3.6,3.1c1,0.4,2.6,0.6,3.2-0.5c2.2-3.4,6-5.2,8.3-8.5c1.5-2.1,2.4-4,1.3-6.8c-2.2-5.9-2.5-11.6,3.5-15.8
		c-0.6-1.3-0.7-2.5-1.8-3.2c-0.3-1.9-1-3.8,0-5.7c1.6-0.4,3.2-0.3,4.8,0c1,1.6,2.3,2.9,4,3.8c2.2,3.6,6.4,3.4,9.3,5.3
		c1.2-0.6,1.7-1.3,2.2-2.2l0.4,0l0.3-0.2c4.9-1.7,10-2,15.1-1.9c8.6,0.1,17.2,0,25.9-0.1c0.6,0.4,1.2,0.7,1.8,1.1
		c3.8,3,8,4.9,13,4.9c11.4,0,22.8,0.1,34.2,0.2c1.1,1.5,2.4,2.8,3.9,3.8c0.4,1.4,0.9,2.8,1.2,4.2c0.4,1.6,1.4,2.1,2.9,1.7
		c4.9,0.7,9.3,0.1,12.1-4.6c1.3-0.7,2.4-1.6,2.9-3.1c1-3.4,2.7-6.6,3.1-10.1l0.1-0.3C736.3,754.2,736.9,753.2,737.4,752.1z"/>
	<path class="st1" d="M822.1,471.7c-0.4-0.8-1-1.4-1.9-1.8c-3.5-6.9-5.7-14-4.6-22c0.5-4.1,0.6-8.3-0.1-12.4
		c-0.3-1.8-0.6-3.6-2.3-4.8l0.1,0.1c-0.4-1.2-1.1-2.2-2.2-2.9c-0.9-1.7-2.1-3.2-4-3.9c-0.7-1.1-1.8-1.7-2.9-2.2l0.1,0.1
		c-1.1-1.4-2.5-2.3-4.1-3l0.1,0.1c-0.7-1.1-1.8-1.8-3-2.3c-0.1-0.5-0.5-0.7-1-0.7c-0.8-1.1-1.8-1.7-3-2.2l0.1,0.1
		c-2-3.2-2.1-7.3-5.2-9.9c-0.2-0.9-0.9-1.6-1.7-2c-3.3-2.6-7.7-2.2-11.3-4l0,0.1c-0.5-3.6-0.1-7.4-3-10.3c-0.3-1.8-1.3-3.1-2.2-4.6
		c-0.2-1.5-0.7-2.9-1.8-4.1c-0.1-1.6-0.8-2.9-2-4c-0.3-1.3-0.9-2.5-2-3.4c0-0.7-0.2-1.3-0.9-1.7c-0.6-2.9-2.6-4-5.4-4
		c-4.3,0-8.6-0.4-12.8,0c-4.7,0.4-8-1-9.9-5.3c-0.1-0.5-0.2-1.1-0.2-1.6c0.4-3.2-0.1-6-2.9-8c-1.3-1.6-3-2.1-4.9-2.2
		c-2.5-1.7-5.3-1.7-8.1-1.7c-17.9,0-35.9,0.6-53.7-2c-7-1-14.2-1.3-21.3-2c-0.7-0.3-1.4-0.6-2-1c-0.5-0.7-1-1.2-1.9-1.4
		c-0.5-0.9-1.1-1.5-2.1-1.7c-0.7-1.1-1.7-1.8-2.9-2.3c-0.5-0.8-1.1-1.4-2.1-1.7c-0.7-1.1-1.8-1.8-2.9-2.3c-0.5-0.8-1.1-1.4-2.1-1.7
		c-0.7-1.1-1.8-1.8-2.9-2.4c-0.5-0.8-1.1-1.4-2-1.6c-1.1-1.4-2.5-2.4-4-3.2c-0.1-0.5-0.4-0.8-1-0.8c-1.1-1.4-2.5-2.4-4-3.2
		c-0.5-0.9-1.1-1.5-2.1-1.7c-0.7-1.1-1.7-1.8-2.9-2.3c-0.5-0.8-1.1-1.4-2.1-1.7c-0.7-1.1-1.8-1.8-2.9-2.3c-0.5-0.8-1.1-1.4-2.1-1.7
		c-0.7-1.1-1.8-1.8-2.9-2.4c-0.5-0.8-1.1-1.4-2-1.6c-1.1-1.4-2.4-2.4-4-3.2c-0.1-0.5-0.4-0.8-1-0.8c-1.1-1.4-2.5-2.4-4-3.2
		c-0.5-0.9-1.1-1.5-2.1-1.7c-0.7-1.1-1.7-1.8-2.9-2.3c-0.5-0.8-1.1-1.5-2.1-1.7c-0.7-1.1-1.8-1.8-2.9-2.3c-0.5-0.8-1.1-1.4-2.1-1.7
		c-0.7-1.1-1.8-1.8-2.9-2.4c-0.5-0.8-1.1-1.4-2-1.7c-0.7-1.1-1.8-1.8-3-2.4c-0.5-0.8-1.1-1.4-2-1.6c-1.1-1.4-2.5-2.4-4-3.2
		c-1.6-1.9-3.4-3.5-6.1-3.8c-1.1-1.1-2.5-1.6-4-1.8c-0.8-0.7-1.8-1.3-3-1.2c-4.1-2.5-8.7-3.9-13-6c-0.3-0.7-0.9-1-1.6-1
		c-0.8-1.1-1.9-1.7-3.2-2.1l0.1,0.1c-0.8-1.1-1.9-1.7-3.1-2l0.1,0.1c-0.8-1.1-1.9-1.7-3.1-2l0.1,0c-0.8-1-1.9-1.7-3.1-2
		c-0.3-0.7-0.9-1-1.6-1c-0.8-1.1-1.9-1.7-3.2-2.1l0.1,0.1c-0.8-1.1-1.9-1.7-3.1-2l0.1,0.1c-0.8-1.1-1.9-1.7-3.1-2l0.1,0
		c-0.7-1.4-2.7-1.3-3.1-2.9c162,0,324,0,486,0c0,116.3,0,232.7,0,349l-0.3-0.4l-0.4,0.2c-0.2-0.8-0.3-1.5-1.1-1.9
		c-0.3-1.3-0.9-2.5-2-3.3c0-0.7-0.2-1.4-1-1.7c-0.7-1.9-1.6-3.6-3.1-5.1l0.1,0.1c-0.7-1.9-1.6-3.6-3-5.1l0.1,0.1
		c-0.7-1.9-1.6-3.6-3-5.1l0.1,0.1c-0.2-1.1-0.7-2.1-2-2.6c-1.1,0.9-2.2,1.7-3.3,2.6c-1,0.2-1.5,0.9-2,1.7c-2.1,1.1-4.3,0.7-6.3,0.3
		c-7.5-1.5-15.1-2.2-22.6-3.4c-10.6-1.8-20.8-5.5-31.5-6.9c-6.6-0.9-13-2.2-19.5-3.6c-0.3-0.8-0.9-1.6-1.7-2c-0.5-1.2-1.2-2.3-2.3-3
		c0-0.5-0.2-0.9-0.7-1c-0.5-1.2-1.2-2.3-2.3-3c0-0.5-0.2-0.9-0.8-1c-0.5-1.2-1.2-2.2-2.2-3c0-0.5-0.2-0.9-0.8-1
		c-0.8-1.6-1.7-3-3.2-4.1c0-0.5-0.2-0.8-0.7-0.9c-0.6-1.2-1.2-2.3-2.3-3.1c0-0.5-0.2-0.8-0.7-0.9c-0.5-1.2-1.2-2.3-2.3-3
		c0-0.5-0.2-0.9-0.7-1c-0.5-1.2-1.2-2.3-2.3-3c0-0.5-0.2-0.9-0.8-1c-0.5-1.2-1.2-2.2-2.2-3c0-0.5-0.2-0.9-0.8-1
		c-0.7-1.6-1.9-3-3.1-4.3c0.2-0.2,0.1-0.4-0.1-0.6c0.1-1.5,0.6-3-1-4.1c0-0.5-0.1-0.9-0.7-1c-0.9-2.2-2.9-1.9-4.7-2
		c-1.4,0-2.7,0-2.8-1.9c0.7-1,1.4-2,2.1-3c1.7-1,3.4-2.1,2.9-4.7c-4.4-0.6-8.6,0-12.9,0.9c-1-0.1-2-0.2-2.9-0.3
		c-0.5-0.8-1.3-0.8-2-1c-0.7-1.2-1.6-2.2-2.8-2.9c-0.5-1.2-1.1-2.3-2.2-3.1c0-0.5-0.2-0.9-0.7-0.9c-1.3-2.4-2.1-5.2-4.3-7
		c0-0.5-0.2-0.9-0.8-1c-1.9-3.4-1.1-7.6-3.1-11c0-0.8-0.1-1.5-0.9-2C825.7,473.7,823.8,472.8,822.1,471.7z"/>
	<path class="st1" d="M327.6,358.9c-0.8,1.3-0.7,2.7-0.6,4.1c-0.1,0.7-0.2,1.4-0.3,2.1c-0.6,2-1.2,3.9-1.8,5.9
		c-0.7,0.5-0.9,1.2-0.9,2c-1.2,1.7-1.9,3.5-2.2,5.6c-0.3,0.1-0.6,0.3-0.9,0.4c0-44.3,0-88.7,0-133c43.3,0,86.7,0,130,0
		c-2.3,2-5.6,1.2-8.1,2.9c-0.6,0.1-1.3,0.2-1.9,0.3c-0.8-0.1-1.5,0.1-2.1,0.7c-0.6,0.1-1.3,0.2-1.9,0.3c-0.8-0.1-1.5,0-2.1,0.7
		c-0.6,0.1-1.3,0.2-1.9,0.3c-12.5,2.8-24.2,8.1-36.5,12.1c0.4,0.9,0.6,1.4,0.9,1.7c0.4,0.5,1,0.9,1.5,1.3c0.2,0.9,0.9,1.4,1.6,1.9
		c0.9,1.5,2,2.9,3.5,3.8c1.5,2.4,3.5,4.3,5.6,6.2c1.2,1.9,2.6,3.6,4.4,4.9c1.5,2.3,3.5,4.3,5.5,6.1c0.9,1.5,2,2.9,3.5,3.8
		c0.6,1.3,1.6,2.3,2.8,3.1c0.7,2.6-2.3,2.3-3,3.8l0.1-0.1c-1.9,0.7-3.6,1.6-5.1,3.1l0.1,0c-2.5,2.6-2.8,6-3.9,9.2
		c-0.8,0.8-1.1,1.8-1.1,3c-0.7,0.3-1.5,0.8-2.2,0.9c-5.8,0.8-11.7,1.4-17.5,2.2c-1.9,0.3-4,0-5.4,1.8l0-0.1c-1.1,0.8-1.7,1.9-2,3.1
		l0.1-0.1c-1.1,0.8-1.7,1.9-2,3.1l0-0.1c-1,0.8-1.7,1.9-2,3.1c-1.9,2.3-3.7,4.8-6,6.7c-1.2,0.5-2.2,1.2-2.9,2.3
		c-1,0.2-1.6,0.8-2.1,1.7c-1.2,0.5-2.2,1.2-2.9,2.3l0,0c-1.6,0.5-3.3,0.2-4.9-0.1c-6.8-1.1-13.7-2.4-20.5-3.4
		c-3.7-0.5-7.3-2-11.2-1.2C330.2,344.7,328.2,351.6,327.6,358.9z"/>
	<path class="st2" d="M993.3,594.9c0,0,0.4-0.2,0.4-0.2l0.3,0.4c0,1,0,2,0,3c-1.6,1-1.5,2.8-2,4.3c-6.4,20.1-12.9,40.2-19.2,60.3
		c-0.9,2.9-2.4,4.6-5.4,5.7c-29.5,10.7-59,21.6-88.5,32.4c-5.8,2.1-12,2.7-18,3.8c-11.3,2.1-22.6,4.1-33.9,6
		c-3.8,0.6-7.6,1-11.4,1.3c-9.3,0.6-18.5,1.9-27.6,4.1c0.2-1.5,1.3-1.6,2.5-1.9c6.1-1.6,12.3-2.4,18.6-3.1c10.2-1.1,20.4-2,30.5-3.9
		c10.6-2.1,21.1-4,31.7-5.9c4.8-0.9,9.3-2.6,13.8-4.3c20.8-7.5,41.5-15.1,62.3-22.7c6.6-2.4,13.1-4.8,19.7-7.2
		c1.9-0.7,3.3-1.6,4.1-3.9c3.9-12.7,8-25.3,12.1-38c3-9.5,6-19,9-28.5C992.3,595.8,992.9,595.4,993.3,594.9z"/>
	<path class="st2" d="M321,379c0.3-0.1,0.6-0.3,0.9-0.4c0.8,2.1,2.4,2.4,4.4,2.4c2.6,0,5.3,0,7.9,0c1.2,0,2.4,0,2.8,1.4
		c-5.3,0.2-10.7,0.4-16,0.5C321,381.7,321,380.3,321,379z"/>
	<path class="st2" d="M442.9,248.9c2.4-1.6,5.7-0.9,8.1-2.9c1,0,2,0,3,0c0,0.2,0,0.4-0.1,0.5C451.5,248.7,445.9,249.9,442.9,248.9z"
		/>
	<path class="st2" d="M508,246c0.4,1.6,2.5,1.5,3.1,2.9c-2.3,0-4.5-0.1-5.1-2.9C506.7,246,507.3,246,508,246z"/>
	<path class="st0" d="M606.9,756c-1.7-0.8-3-2.2-4-3.8c-0.1-2.5-2-2.2-3.6-2.3c-1.6-0.1-3.7,0.5-4.7-1.1c-1.9-3.2-5.5-5.4-5.6-9.5
		c-0.1-2.6-1.6-3.3-3.9-3.4c-3.8-0.1-5.9,1.4-6.9,5.1c-0.4,1.4,0.5,3-0.8,4.2c-3.9-0.2-4.1-4.6-7-6c-3-1.4-6.1-1.3-9.3-1.3l0,0
		c-0.3-4.1-4-3.7-6.4-4.5c-0.9-1.9-0.6-3.6-0.6-5.2c-0.1-2,0.2-3.9-2.6-4.5c-2-0.4-1.3-2.4-1.4-3.8l0,0c2.2-2.7,1.4-6.4-2-9
		c-0.3-0.3-0.7-0.7-1-1c-0.2-1.7-1.4-2-2.8-2c-1.6-0.1-3.3,0.5-4.9-1c-0.3-3.4-0.7-6.9,0.3-10.4c6.8-1.2,8.3-2.3,10.6-4.8
		c4.3-4.5,1.4-10,2.4-14.9c0.1-0.6-1-0.8-1.6-0.9c-0.9-0.4-1.6-1.1-2-2c1.2-5.6,2.1-11.4,6-16c2.4-0.1,3.1-2,3.7-3.8
		c0.4-1.4-0.4-2.1-1.7-2.2l0,0c-0.2-1.1-0.3-2.2-0.6-3.2c-0.3-1.3,0.6-1.6,1.6-1.8l0,0c0.1,1.3,0.7,1.9,2,2c0,1.1-0.1,2.2,1,3
		c3.1,2.6,6.2,2.6,8.5-0.3c1.1-1.4,2.5-2.7,2.6-4.7c0.3-0.3,0.7-0.7,1-1c1.9-0.2,2.9-1.1,3-3h0c0.7-0.1,1.3,0,2-0.2
		c5.7-1.4,11-4.4,17.2-3.9c1.2,0.1,1.7-0.8,1.9-1.9c3.7-1.2,7.5-2,11.4-2.4c2.8-0.3,4.4,0.6,5.7,2.7c0.8,1.3,0.9,3.2,3.6,3.3
		c-0.7-3.3-1.9-5.7-4.7-7.3c-2-1.1-4.1-2.3-4.7-4.9c-0.7-3.1-2.5-5.3-4.7-7.4c-1.4-1.4-2.9-3.1-2.3-5.2c1.2-3.9,0.4-7.9,0.7-11.8
		c0-0.3,0-0.6,0-1c2.1-1,2-2.8,2-4.7c0-5,0.1-10,0-14.9c0-2.3,0.5-4.6-0.6-7c-4.9-1-9.9,0.3-14.5-0.7c-1.3-1.9-0.6-3.5-0.2-5.1
		c1.1-5.2-0.7-7.7-6-7.5c-4,0.1-7.8-1.4-11.8-1.2c-1.6,0.1-3-1-3.4-2.5c-1.1-4-3-7.6-3.6-11.8c-0.6-4.4-0.7-9.4-4.8-12.6
		c-0.3-0.3-0.7-0.7-1-1c-1.3-1.9-2.7-3.7-1.5-6.3c0.7-1.5,0.1-2.5-1.6-2.7c-0.3-3.3-0.4-6.7,0.1-10c3.5-2,5.6-4.8,6.1-8.9
		c0.2-2.4,1.1-4.1,4-4.1c5.6,0.1,11.1-2,16.7-0.1c1.6,0.6,3.6,0.1,5.4,0c1.2,0,1.7-0.8,1.9-1.9c0.3-0.3,0.7-0.7,1-1
		c0.9-0.1,2,0.2,2.5-0.9c-2.2-4.9-2.2-4.9,1.6-8.7c1.4-1.4,3-2.6,3.9-4.3l0,0c2.5-0.6,4.9-1.7,7.3-2.5c3.2-1.1,7.1-1.7,8.7-5.5
		c0.7-1.1,1.9-1.4,3-2c3.4-3.5,7.5-4.3,12.2-4.1c4.7,0.2,9.5,0.6,14.2-0.4c1.5-4.5-0.3-8.7-0.3-12.9c0-4.2-1.8-7.2-5.1-9.6
		c-0.1-1.9-1.1-2.9-3-3c-0.7-1-1.3-2-2-3c0-2.2,0-4.3,0-6.5c0-2.1,0.9-3.9,2.8-4.2c3.2-0.6,3.9-3.1,5.1-5.3c0.3-0.3,0.7-0.7,1-1
		c2.4,0.1,4.5-0.8,4.8-3.3c0.3-2.6,1.5-5.8-1.7-7.6c-3-1.7-3.3-4.2-3.1-7.1v0c2.6-4,7.7-0.3,10.3-3.9c1.9,1.5,3.4,2.7,3.9,4.9
		c0.4,1.4,1,2.9,2.8,3l0,0c0.2,2.5,1.9,3.1,4,3v0c1.4,3.5,4.8,4.4,7.8,4.8c2.6,0.4,4.9,1.2,7.2,2.2c1.3,0.7,2.3,1.7,3,3
		c0.4,2.6,2.5,3.1,4.5,2.9c3.8-0.3,7.1,0.9,10.5,2.1c0.3,0.3,0.7,0.7,1,1c0.9,1.6,2,2.9,4,3c0.5,0.7,1.2,0.9,2,1
		c1.2,1.4,2.9,1,4.5,1c1.9,0,3.8,0,5.5,1c0.5,0.7,1.2,0.9,2,1c0.7,4.1,1,4.3,5,5l0,0c0.6,2.8,2.9,2.7,5,3.1c4.2,0.7,4.9,1.7,5,5.9
		c0.1,5.3,0,10.6,0,15.9c0,9.8,0,19.6,0,29.3c0,2.9,0.6,5,4,4.8c0.3,0.3,0.7,0.7,1,1c0.8,3.1,3.6,3.2,6,4c0.6,1.3,1.6,1.9,3,2
		c0.8,4.4,4.9,5.2,8,7l0,0c0,2.8,1.2,5,3,7c0,0.8,0.2,1.5,1,2c1.8,5.9,1.6,12,0.7,17.8c-1.3,8.8-2.4,17.7-3.5,26.5
		c-1.5,11.3-3,22.6-4.3,33.9c-1.5,12.6-3.3,25.2-5,37.8c-1.6,12.6-3.7,25.2-4.9,37.9c-0.4,4.1-1.4,4.8-5.3,6.2
		c-3.1,1-6.2,0.8-9.3,1.5c-6,1.2-12,2.4-18.2,2.6c-4.6,0.2-9.3,0.2-13.8,1c-5,0.8-10.3,0.3-15.2,2.5c-1.9,0.9-4.5,0.9-6.4,0
		c-4.3-2.2-8.8-1.7-13.2-1.6c-4.7,0.1-9.3-0.1-13.4-2.9c-1.3-0.8-2.7-1.3-4.3-1.2c-0.5-0.7-1.2-0.9-2-1c-0.1-3.6-2.3-5.4-5.3-6.7
		c-0.6,1.4,0.2,1.9,0.6,2.5c2.2,3.1,2.5,8-0.1,10.6c-2.1,2.1-2.3,4.2-2.3,6.7c0,1.8,0,3.7,0,5.5c-0.1,2.7-1.8,4.8-4,5.1
		c-6.4,0.7-7.4,5.6-8.9,10.3c-2,0.1-3.1,1.4-4,3c-1,2-1.8,4-4,5c-1.4,0.2-2,1-2,2.3c0.3,5.9-0.5,11.8,0.6,17.7
		C609.3,750,610.5,753.7,606.9,756z M672.6,557.4c0.6,0.8,1.5,0.7,2.4,0.6c0.1,0.9,0.2,1.8,0.4,3c2.2-0.7,5.2,1.8,6.4-2.1
		c1.1-1.5,2.8-0.5,4.2-0.9c0.7,0,1.4,0,2,0c1.8-2.8,1.8-6.5,0.1-9.9c-0.8,0-1.5,0-2.3,0c-2.2,1.3-0.8,3.5-1.2,5.3
		c-0.2,1.2,0.3,2.8-1.6,2.9c-1.5-0.3-0.7-2.2-2-3.2c-0.2,2.2-0.4,4-0.6,5.7c-1.6,1-2.9,0.3-4.1-0.9c0.9-0.5,1.3-1.1-0.1-1.4
		c-0.9-0.2-2,0-2.9,0c-0.2-2.7,0.5-5.5-0.9-8.2C672.2,551.4,671.2,554.4,672.6,557.4z M624,669c-0.2-1.5-0.6-2.7-2.6-2.5
		C621.4,668.6,622.7,668.8,624,669c-0.1,3.1,1.5,4.7,4.5,5.8C627.3,671.6,627.3,671.6,624,669z M664.5,554c-0.6,0-1.2,0.3-1.5,0.8
		c-0.1,0.9-0.6,1.7-1.5,1.4c-0.8-0.3-0.5-1.4-0.7-2.1c0.1-0.5-0.1-0.9-0.7-0.8c-0.5,0-0.8,0.4-0.6,0.9c0,1.2-0.1,2.5-0.1,3.7
		c-1,1.5-2.3,1.7-3.9,1c-1.4-0.6-0.2-3.1-2.4-3.2c-0.7,2.5-0.4,4.4,2.2,5.4c2.3,0.9,4-0.1,5.9-3c3-0.3,6.1,0.5,9.2-0.5
		c0.3-2.3,0.5-4.4-2.4-5.1C666.3,551.7,665.2,552.4,664.5,554z M576.6,689c-0.5,3.4,0.2,6.4-2.1,8.6c3,1.3,3-1.7,4.9-2.8
		c0.5,2.2,2,4.8,3.5,2.4c1.6-2.5,3.3-2,5.3-2.2c4.4-0.4,8.8,0.7,13.1-0.3c-0.2-2.2-3-0.7-3.2-2.7c-0.1-1.7,2.8-0.3,2.3-2.6
		c-3.2-1.3-4,1.6-5.1,3.3c-1.9-0.6-0.6-2.8-2-3.2c-1.3,0.8,0,2.7-1.4,3.3c-1.7,0-0.5-2.3-2.1-2.4c-1.4,0.3-0.3,2.4-1.9,2.5
		c-1.7-0.1-0.2-2.7-2.1-2.6c-1.4,0.4-0.3,2.9-2.4,2.6c-1.3-0.8-0.1-2.7-1.7-3.4c-2,0.4,0,3.6-2.4,3.6
		C577.2,693.1,578.7,690.6,576.6,689z M621.8,648.1c-1.7,5-6.6,9.2-3.4,15.3c-0.2-4.9,2.4-8.7,4.3-12.8c1.8-3.7,0.9-5.6-3.4-7.6
		C618.8,645.3,621.2,646,621.8,648.1z M676.8,556.9c1.1-1.4,1.4-2.6,0.7-4c-0.1-0.2-0.5-0.2-0.9-0.3
		C675.9,553.9,676,555.1,676.8,556.9z M667.2,550.9c0.3-0.1,0.7-0.2,0.7-0.4c0.1-0.4-0.1-1-0.6-1c-0.2,0-0.6,0.2-0.7,0.5
		C666.3,550.6,666.7,550.8,667.2,550.9z"/>
	<path class="st3" d="M555,515c-0.4,3.3-0.3,6.7-0.1,10c-1.2,1.4-2.8,0.8-4.2,0.9c-3.6,0.3-4.4,1-3.5,4.2c0.9,3,0.4,5.5-1.3,7.9
		c-4,3.8-10.8,3.4-13.8,8.8c1.8,2.5,4.4,4,5.5,7c-4.1,2.7-8.2,5.4-12.4,8.1c-3.7,2.3-7,4.9-9.3,8.8c-2.4,4-2.6,3.9-7.1,2.7
		c-2.9-0.7-5.2-0.7-7.5,2c-1.6,1.9-4.3,3.3-7.3,1.1c1.3-4.2,1.8-8.2-3.9-9.8c-1.3-0.4-1.4-1.8-0.9-3c0.4-1.1,1-2.1,1.4-3.2
		c0.5-1.4,2.2-2.9,0.5-4.5c-1.5-1.4-3.3-2.2-5.4-1.5c-1.9,0.7-3.8,1.3-5.6,2c-1.1,0.4-2.9,1.1-3.3,0.5c-2-3.4-5-1.6-7.6-1.9
		c-1.4-0.2-2.4-1-3.3-2c-1.4-1.7-2.9-3.2-4.2-5c-3.2-4.3-3.2-4.4-8.6-2.8c-1.6,0.5-2.8,0.8-4.1-0.3l0.2,0.2c-0.5-1.7-1.8-2.8-2.8-4
		c-1.4-1.6-2.3-3.3-2-5.4c0.3-2.3-0.8-3.5-2.7-4.8c-5.6-3.7-11-7.5-16.4-11.3c-2.6-1.8-5-4-8.5-3.4c-1.1,0.2-1.8-0.5-2.4-1.4
		c-2-3.1-2.8-6.4-2.2-10.5c5.7-1.6,10-6.3,15.6-8.2c1.5-0.5,1.2-1.8,1.4-2.9c1-6,1.8-12.1,2-18.1c-1-1.3-2.3-1.6-3.5-2.1
		c-2.3-0.9-4.1-2.8-4.5-5c-1.3-7.3-6.5-11.7-11.4-16.2c-1.4-1.7-3.1-1-4.8-0.8c-1.6-1-2.8-2.3-3.8-3.8c1.3-4.1,2.7-8.3,2.9-12.8
		c-2.1-1-4-1.9-5.9-2.7c-0.1-0.4-0.5-0.6-0.9-0.6c-2.7-1.8-3.7-4.4-3.3-7.6c0.2-1.5,0-3,0-4.5c0.1-1.5-0.5-2.6-1.9-3.1
		c-0.1-0.5-0.4-0.7-0.9-0.8c-0.5-1-0.4-1.9,0-2.9c0.6-0.4,1.2-0.8,1.8-1.2c4.4,0.4,8.9,0.8,12.4-2.8c0.2,0.2,0.4,0.1,0.6-0.1
		c2.5,0.1,5,0.5,7.4,0.1c4.4-0.7,6.9,1.8,9,4.8c1.8,2.6,2.3,6.2,6.8,5.8c0.7-0.1,1.5,1.1,2.2,1.8c1.9,1.8,3.7,3.7,5.6,5.6l-0.1-0.1
		c0.8,2.9,2.6,4,5.6,3.4c3.2-0.6,6.6-0.2,9.8-1.5c1.5-0.6,3-0.3,4.3,0.4c6.5,3.7,13.5,4,20.7,3.4c2.5-0.2,5.2-0.3,8,1
		c-2.5,3.6-3.2,7.2-2.1,10.9c1.5,0.7,3.1-0.2,4.4,1.1c-0.7,3.3-1.5,6.5-2.2,9.8c-0.3,1.3-0.9,2.7-0.2,3.9c3.3,5.2,2.5,10.9,2.5,16.5
		c0,1.8,0.5,3.2,2.2,4.1l0,0c0.9,2.1,2.2,1.9,3.9,1c4.7-2.4,9.6-4.1,15.1-3.4c1.4,0.2,2.6-0.2,3.3-1.6c1.6-1,2.8-2.4,3.8-3.9
		c3.5,0,7,0.2,10.5-0.2c5.8-0.7,10.6,1.2,15.4,4.5c0,3,0.1,6.2,0,9.3c-0.1,1.9,0.6,3.2,2.4,3.9c1.2,0.5,2.3,1.4,3.7,1.3
		c0.6,0.7,1.2,1.3,1.8,2c-0.1,1.6,1,2.4,2.1,3.2c0.3,0.6,0.7,1.2,1,1.8c-0.4,2.4-0.5,4.7,1.9,6.2l-0.1-0.1c3,3.2,2.9,4,0.5,7.3
		C556.3,511.8,554.4,512.8,555,515z M465,504.7c1,0.3,1.9,0.5,2.9,0.8c3,1.1,6.1,0.4,9.3,0.4c0.1-1.9,0.8-3.6-0.7-5.3
		c-0.2,0.7-0.3,1-0.4,1.3c-0.2,1,0.3,2.5-1.5,2.5c-1.4-0.1-1.3-1.2-1.4-2.2c-0.2-1.5-1-2.8-0.7-4.3c-0.7,2.3,0.2,5-2.2,6.5
		c-2.3-0.8-0.5-3.3-2.2-4.2c-1.6-0.8-3-1-4.1,0.8C462.4,502.8,462.9,504,465,504.7z M483.4,502.9c-0.3-1.1-0.7-2-1.9-2.3
		c-0.4,1.3,0.2,1.8,0.8,2.4c0.6,2.5-2.9,0.8-2.9,2.9c2.3,0.4,4.5,0.1,6.7-0.1c3.2,0.4,6.4,0.4,9.9,0c0-3.3,0.3-6.3-0.3-9.9
		c-2.5,2.7,0,6.3-2.2,8.5c-1.9-0.5-1.3-2.5-2.5-3.1c-1.2-0.6-2.4-1.2-3,0.8l0.1-0.1c-1.6,0-1.7,1.2-1.9,2.3
		C484.6,504.8,484.2,503.4,483.4,502.9z M498.7,496.8c-1.4,2.7-1.4,5.9,0,9C498.7,502.8,498.7,499.8,498.7,496.8z M468.1,497.6
		c-1.3-1.3-2.1-1.1-3.2-0.3C466,498.3,466.8,497.7,468.1,497.6z M477.7,508.1c-0.8,0.4-2.2-1.6-2.6,0.6
		C476,508.9,476.9,509.1,477.7,508.1z"/>
	<path class="st2" d="M640,686c1.6-0.1,3,0.3,4.3,1.2c4.1,2.8,8.6,3,13.4,2.9c4.4-0.1,8.9-0.6,13.2,1.6c1.9,1,4.4,0.9,6.4,0
		c4.9-2.2,10.1-1.6,15.2-2.5c4.5-0.8,9.2-0.8,13.8-1c6.2-0.2,12.2-1.4,18.2-2.6c3.1-0.6,6.3-0.4,9.3-1.5c3.8-1.3,4.9-2.1,5.3-6.2
		c1.2-12.7,3.3-25.2,4.9-37.9c1.6-12.6,3.4-25.2,5-37.8c1.4-11.3,2.9-22.6,4.3-33.9c1.2-8.8,2.2-17.7,3.5-26.5
		c0.9-5.8,1.1-11.9-0.7-17.8c3.2,1.5,2.6,4.6,3,7.2c0.7,5.5-0.7,10.9-1.3,16.3c-0.8,6.7-1.7,13.4-2.6,20.1
		c-0.8,6.1-1.6,12.1-2.4,18.2c-0.9,6.6-1.7,13.1-2.6,19.7c-0.8,6.1-1.6,12.1-2.4,18.2c-0.9,6.6-1.8,13.1-2.6,19.7
		c-0.8,5.9-1.4,11.8-2.2,17.7c-0.9,6.7-1.9,13.4-2.8,20.1c-1.3,11.2-2.1,22.4-3.2,33.6c-1,10.9-2.3,21.7-2.9,32.6
		c-0.1,2.6-2.2,5.5,1.1,7.7c-0.4,3.6-2.1,6.8-3.1,10.1c-0.5,1.5-1.5,2.4-2.9,3.1c1.5-5,1.6-10.1,2.2-15.2c0.6-5.6,1.1-11.2,1.5-16.8
		c0.4-4.9,1-9.9,1.5-14.8c0.4-3.8,0.2-7.6,0.9-11.4c1-6.2,1.5-12.5,1.7-18.7c0.1-2,1.2-4.1,0.2-6.4c-4.1,0.8-8,1.4-11.8,2.2
		c-11.7,2.4-23.6,3.4-35.5,3.7c-1.3,0-2.6,0.3-3.9,0.5c-5,1-10.2,2.3-15.3,1.3c-5.8-1.1-11.6-0.7-17.4-0.9
		C647.9,691.8,643.7,689.4,640,686z"/>
	<path class="st2" d="M411,361c0-0.3,0-0.7,0-1c0.9-7.3,2.9-8.7,10.4-7.4c1.2,4.1,0.4,8.5,0.5,12.7c0.1,6.9,1.6,8.5,8.3,9.9
		c3.3,0.7,6.6,0.9,9.9,0.8c2.6-0.1,4.9,0.1,6.7,2.4c1.3,1.7,3,2,4.8,0.5c1.1-0.9,2.5-0.9,3.8-0.9c2.7,0.1,5.3,0.1,7.3-1.8
		c1.6,1-0.1,2.4,1,3.3c5,1.5,11.1,0.2,14.6,5.8c-1.1,1-2,0.4-2.7-0.2c-1.4-1.4-3-1.8-4.8-2.3c-4.1-1.2-8.4-0.5-12.5-2.5
		c-2.6-1.3-5.9-0.3-7.8,2.8c-2.7-1.2-4.7-2.6-6.5-4.4c-1.1-1.2-2.5-2.1-4-1.5c-3.5,1.5-6.9,0-10.3-0.2c-6.8-0.4-9.8-3.8-9.9-10.6
		c0-3.8,0-7.6,0-11.3c-4.3-1.4-5.2-1.1-6.6,2.1C412.8,358.6,413.5,360.8,411,361L411,361z"/>
	<path class="st2" d="M644,343.1c7.1,0.6,14.2,1,21.3,2c17.8,2.5,35.8,1.9,53.7,2c2.8,0,5.6,0,8.1,1.7c-0.4,0.3-0.8,0.9-1.1,0.8
		c-12.1-1.3-24.2-0.2-36.3-0.6c-2.4-0.1-4.1,0.8-5.7,2.5c-3.3,3.4-6.8,6.7-10.6,9.7c1.5-5.2,6.8-7.5,9.2-11.9
		c-0.4-1.2-1.2-1.2-2.1-1.3c-9.4-0.4-18.7-1.7-28.1-2.9c-1.8-0.2-3.6-0.1-5.5-0.1C645.6,345,644.3,344.9,644,343.1z"/>
	<path class="st2" d="M491.9,479.1c-1.7-0.9-2.2-2.3-2.2-4.1c0-5.6,0.7-11.3-2.5-16.5c-0.7-1.1-0.1-2.6,0.2-3.9
		c0.8-3.2,1.5-6.5,2.2-9.8c-1.2-1.3-2.9-0.4-4.4-1.1c-1.1-3.7-0.4-7.3,2.1-10.9c-2.8-1.3-5.5-1.2-8-1c-7.2,0.6-14.2,0.2-20.7-3.4
		c-1.3-0.7-2.8-1.1-4.3-0.4c-3.1,1.3-6.5,0.9-9.8,1.5c-3,0.6-4.8-0.5-5.6-3.4c4.9,2.4,9.7,2.4,14.8,0.3c2.4-1,4.8-0.1,7.2,1
		c8.8,4.1,18,3.2,27.2,1.7l0,0c0,2.9,0.7,5.6-0.8,8.6c-1.3,2.7-0.1,3.8,4.2,5.1c-0.1,3.4-0.9,6.8-1.9,10.1c-0.6,2.2-0.9,4.3,0,6.3
		c1.5,3.5,1.7,7.1,1.4,10.7C490.7,473,491.8,476,491.9,479.1z"/>
	<path class="st2" d="M327.6,358.9c0.6-7.3,2.6-14.2,3.7-21.6c4-0.8,7.6,0.7,11.2,1.2c6.9,1,13.7,2.3,20.5,3.4
		c1.6,0.3,3.3,0.6,4.9,0.1c-0.2,1.8-1.3,2.1-2.8,1.9c-8.8-1.5-17.6-2.9-26.4-4.5c-5.1-0.9-5.8-0.6-6.9,4.6c-0.6,2.7-1.1,5.4-1.6,7.9
		c0.8,0.9,1.4,1.1,2.1,1c9.6-1.8,19.2-0.5,28.8-0.8c2.8-0.1,5.4,0.8,7.5,3.1c-9.8-2.5-19.7-0.6-29.5-1.1c-1-0.1-2,0-3,0
		C332.5,354.4,329.4,355.5,327.6,358.9z"/>
	<path class="st4" d="M608,451c1.6-0.4,0.8,2.2,2.7,1.8c1.6-2.1-0.3-5.3,1.9-8.2c1.1,3.9,0.5,7.1,0.6,10.5c-8.8,0-17.3,0-25.6,0
		c-0.8,1.7,1.6,1,1.3,2.3c-0.3,1.1-1.5,0.8-1.9,0.5c-4.1-2.5-4.1-2.6-7.6-2.8c-0.3,0-0.6,0.1-0.9,0.1c-0.9,0.7,0,2.5-1.7,2.7
		c-0.8-3.5-0.2-4.8,3.3-6.9c0,0.5,0,1,0,1.5c0,0.5,0.3,1,0.9,1c0.3,0,0.7-0.1,0.8-0.3c0.4-0.6,0.4-1.3-0.3-1.7
		c-0.4-0.2-0.9-0.3-1.4-0.5c1.3-1.5,1.8-1.6,2.9-0.9c1.2,0.7,0.8,2.5,2.2,3c2.6,0,0.9-2.9,2.4-3.6c2,0.2,0.1,4.4,3.4,3.4
		c1.6,0.9,0.7-0.9,1.3-1.1c0.9,0.8,1.6,0.4,2.3-0.3c0.3,0.3,0.6,0.6,0.9,0.9c1.3,2,2.8,1,4.6,0.6c-0.8-2.5-2.3-1.9-3.7-1.6
		c-0.3-0.3-0.6-0.6-1-0.9c4.1-2,4.2-1.9,7.1,2.4c1.1-0.8,1-2.4,2.2-3.1C606.2,449,607.7,448.5,608,451c-0.5,0-1,0-1.4,0
		c-0.7,0.1-1.4,0.2-1.3,1.1c0,0.3,0.2,0.7,0.5,0.8c0.7,0.3,1.2,0,1.6-0.7C607.5,451.9,607.8,451.4,608,451z"/>
	<path class="st2" d="M893,560.9c6.4,1.4,12.9,2.8,19.5,3.6c10.7,1.4,20.9,5.1,31.5,6.9c7.5,1.3,15.1,2,22.6,3.4
		c2,0.4,4.3,0.8,6.3-0.3c-0.6,3.8-3.5,2.4-5.5,2.2c-3.3-0.3-6.5-1.3-9.8-1.8c-9.2-1.3-18.4-2.2-27.3-5c-11.3-3.5-23.1-4.2-34.5-7
		C894.4,562.7,893.1,562.7,893,560.9z"/>
	<path class="st4" d="M537.5,400.3c2.2,2.1-1.1,6.1,2.3,7.9c3.9-2.3-1.8-6.3,1.6-8.5c1.7,0.3,0.6,1.4,0.9,2c1.7,1.3,1.7-1.8,3.3-1.2
		c1,2.2-0.1,4.8,0.8,7.5c1.6,0.5,3.3,0.6,5.1-0.1c-0.1-2.7-2.8-1.3-3.8-2.5c0.9-2,2.4-1.4,3.7-0.7c1.9,1,2.7,2.7,2.2,4.7
		c-0.9,0.9-1.7,0.8-2.5,0.8c-6.4,0.3-6.4,0.3-7.2-6c0-0.3-0.3-0.5-0.5-0.8c-1.4,0.8-0.4,2-0.5,3c-0.1,1,0,2,0,3.2
		c-2,1.1-4.5,0.8-6,2.9c-1,1.4-3.4,1.3-5,0.1c-1.7-1.2-2.5-2.9-1.3-5c1.3,0.1,1.3,1.1,1.4,1.9c0.2,1.5,1.1,1.9,2.4,1.8
		c1.5-0.1,1.9-1.1,1.9-2.4c0-2.3,0-4.7,0.1-7C536.4,401.2,536.5,400.5,537.5,400.3z"/>
	<path class="st2" d="M734,501c-3.5,0.2-4.1-1.9-4-4.8c0.1-9.8,0-19.6,0-29.3c0-5.3,0-10.6,0-15.9c0-4.2-0.8-5.2-5-5.9
		c-2.1-0.4-4.4-0.3-5-3.1c2.8,0.5,5.2,2,8.1,2.3c3.2,0.4,3.9,1.9,3.9,5.8c0,14.6,0,29.3,0,43.9C732,496.6,732.2,499,734,501z"/>
	<path class="st4" d="M591.1,336.9c2.7,1.2,1.7-2.4,3.3-2.6c1.2,0.5,0.1,2.4,1.7,2.7c1.6-0.6,0.1-2.6,1.6-3.3c1.7,0.3,0.3,3,2.6,3.3
		c1.5-2.3-0.3-5.3,1.5-8.3c1.8,3.6,0.8,6.7,0.9,10.3c-8.3,0-16.3,0-24.4,0c-0.9-3.4-0.9-6.5,0.1-10.5c2.1,3,0.5,5.9,1.7,8.2
		c1.8-0.1,1.8-2.3,3.3-2.7c1.1-0.3,2.3-0.8,2.5,1.1c-0.1,0.1-0.2,0.3-0.4,0.3c-0.9,0.2-2.4-0.2-2.3,1.6c0,0.2,0.4,0.6,0.6,0.6
		c1.8,0.3,1.4-1.2,1.7-2.1c0-0.1,0.2-0.2,0.3-0.4c1.6-0.1,1.5,3.3,3.7,1.7C590.1,337.3,590.6,337.7,591.1,336.9z"/>
	<path class="st2" d="M490,286c-9.7-1.1-19.1-3.8-29-2.9c-5.4,0.5-10.8,1.1-16.2,2.2c-5.3,1.1-9.2-1.1-12.9-4.3l0,0
		c0.8,0.1,1.8-0.1,2.4,0.3c5.5,3.7,11.4,2.1,17.2,1.3c5-0.7,10-1.8,15.2-1.6c2.7,0.1,5.3,0.1,7.8,1c3.2,1.1,6.5,1.1,9.8,1.1
		C486.8,283,489.3,283,490,286L490,286z"/>
	<path class="st2" d="M398.9,266.3c-0.5-0.4-1-0.8-1.5-1.3c-0.3-0.3-0.4-0.8-0.9-1.7c12.3-3.9,23.9-9.3,36.5-12.1
		c-0.1,0.3-0.2,0.8-0.3,0.9c-6.3,1.6-5.6,7.3-6.6,11.8c-0.6,2.7-0.5,5.6,1.7,7.9c0.8,0.8,1.1,2,1.2,3.2l0,0
		c-5.4-2.9-5.6-8.2-4.5-14.8c0.3-1.6,1.4-3,1-4.6c-1.6-1-2.8,0-3.9,0.4c-5.7,2.3-11.5,4.1-17.3,6
		C401.9,262.9,399.9,263.9,398.9,266.3z"/>
	<path class="st2" d="M550,490c-1.4,0-2.5-0.9-3.7-1.3c-1.8-0.7-2.5-1.9-2.4-3.9c0.1-3.1,0-6.3,0-9.3c-4.8-3.2-9.7-5.2-15.4-4.5
		c-3.5,0.4-7,0.1-10.5,0.2c0.1-1.7,1.3-2.1,2.7-2.1c5.8,0,11.6,0,17.4,0c1.2,0,2.5-0.1,2.4,1.7c0,0.8,0.5,1.2,1.2,1.4
		c4,0.9,4.7,3.8,4.2,7.2C545.2,483.7,546.9,487.1,550,490z"/>
	<path class="st2" d="M569,360c-5.6-2.8-11.6-1.9-17.6-2c-2.8,0-5.6,0.1-8.2-1.3c-2.1-1.2-4.7-1.1-6.8-0.5
		c-5.5,1.6-11.3-0.1-16.7,1.6c-0.5,0.2-0.9-0.3-1-1c0.9-1.3,2.3-0.9,3.5-0.8c4.9,0.3,9.5-0.8,14.2-1.7c3.1-0.6,6.2-1,9,1.3
		c1.1,0.9,2.4,0.6,3.8,0.5c4-0.2,8-0.4,11.9-0.1C564.1,356.4,567.6,356.3,569,360L569,360z"/>
	<path class="st2" d="M555,515c-0.6-2.2,1.3-3.2,2.3-4.5c2.5-3.4,2.5-4.1-0.5-7.3c0.5-0.1,1.2,0.1,1.5-0.2
		c4.5-4.7,10.7-3.3,15.9-3.5c4.8-0.2,9.9,0.3,14.9,0.6c-0.2,1.1-0.7,1.9-1.9,1.9c-1.8,0.1-3.8,0.5-5.4,0c-5.6-1.9-11.1,0.2-16.7,0.1
		c-2.8-0.1-3.7,1.7-4,4.1C560.6,510.2,558.5,513,555,515z"/>
	<path class="st2" d="M638,448c3.3,2.3,5,5.3,5.1,9.6c0,4.2,1.8,8.4,0.3,12.9c-4.7,1-9.5,0.6-14.2,0.4c-4.7-0.2-8.8,0.6-12.2,4.1
		c0.9-3.9,1.9-4.9,6-5c4.7-0.1,9.3-0.2,14,0c4.4,0.2,5.6-1.5,4.8-5.9c-0.5-2.3-0.9-4.6-0.8-6.9c0.1-1.9-0.4-3.7-1.6-5.1
		C638.5,450.9,637.9,449.6,638,448z"/>
	<path class="st2" d="M411,361c-1,3.6-4.4,3.1-6.9,3.9c-1.7,0.5-3.8,0.5-5.4,0c-5.4-1.8-10.5-0.3-15.7,0.8c-3,0.6-5.1,0.1-7.1-2.1
		c-1.7-2-3.7-3.7-6-6.1c3.5-0.6,4.6,1.6,5.9,3c2.4,2.6,4.7,3.9,8.7,2.9c4.1-1,8.6-0.4,12.9-0.3C402.1,363.1,406.7,363.1,411,361
		L411,361z"/>
	<path class="st2" d="M659,411c-1.9-0.1-2.5-1.6-2.8-3c-0.5-2.1-2-3.3-3.9-4.9c-2.6,3.6-7.7-0.1-10.3,3.9c0-0.7-0.1-1.3,0-2
		c0.5-2.7,1.1-5.4-2.1-8c4.6,0.3,5.6,4.1,8.2,5.5c1.8-1.3,0-3.8,1.8-4.9C653.4,401.8,658.4,404.9,659,411z"/>
	<path class="st2" d="M593,424c0-6.5,0.1-6.4,6.3-8.6c4.5-1.6,8.9-3.5,13.4-5.1c6.5-2.3,9.3-0.9,12.3,5.7l0,0
		c-2.1-0.1-3.2-1.7-4.4-3c-1.8-2-3.9-2.5-6.3-1.6c-5.6,2.1-11.2,4.2-16.7,6.4c-1.5,0.6-2.5,1.6-2.5,3.4
		C595,422.5,594.8,423.8,593,424L593,424z"/>
	<path class="st2" d="M813.1,430.8c1.7,1.2,2,2.9,2.3,4.8c0.7,4.1,0.7,8.3,0.1,12.4c-1,7.9,1.2,15.1,4.6,22c-0.9,0-1.8-0.2-2.1-1.1
		c-1.8-4.4-4.3-8.6-4.1-13.7c0.2-4-0.1-8,0.1-12C814.2,439,813.6,434.9,813.1,430.8z"/>
	<path class="st4" d="M825.5,594.9c0.7,0.9-0.1,2.4,1.3,3.1c2.4,0,0.7-3.2,2.7-3.5c1.3,0.7,0.2,2.6,1.7,3.6c1.7-1.3,2.1-5.2,5.4-3.5
		c2.3,1.1,1.6,3.3,1.5,5.4c-3.2,0.6-6.2,0.2-9.1,0.2c-0.6,1.9,1.7,0.9,1.8,2.5c-0.7,0.6-2.6,0.6-2.6,0.1c-0.3-2.7-3.2-2.1-4.2-3.7
		c0.8-0.7,1-1.3,0-2c-0.1-0.6-0.1-1.2-0.2-1.8C824.4,595.1,825,595,825.5,594.9z M836,597.2c0.1-0.6-0.2-0.9-0.7-1
		c-0.6-0.1-0.9,0.3-1,0.8c-0.2,0.6,0.3,0.9,0.7,1C835.6,598.1,835.8,597.7,836,597.2z"/>
	<path class="st4" d="M567.5,333.9c0.7,0.9-0.1,2.4,1.3,3.1c2.4,0,0.7-3.1,2.6-3.6c1.6,0.5,0.2,3,2.3,3.5c2.2-2.2,0-5.4,1.9-8.1
		c2,3.2,0.8,6.4,1,9.2c-0.9,1.6-2.7,0.7-3.6,1.8l0.1,0.1c-1-1.5-2.1-1.5-3.1,0l0.1-0.1c-1-1.3-3.2-0.2-4-1.9c0.8-0.7,1-1.3,0-2
		c-0.1-0.6-0.1-1.2-0.2-1.8C566.4,334.1,567,334,567.5,333.9z"/>
	<path class="st2" d="M438.9,426.2c-1.8-1.9-3.7-3.8-5.6-5.6c-0.7-0.7-1.6-1.9-2.2-1.8c-4.4,0.4-5-3.3-6.8-5.8c-2.1-3-4.6-5.6-9-4.8
		c-2.4,0.4-4.9,0-7.4-0.1c4.2-2,8.7-1.2,13-0.6c2.5,0.3,4.2,3,5.4,5.4c1.1,2.3,2.4,3.6,5.1,4.6C435.2,418.7,438.8,421.2,438.9,426.2
		z"/>
	<path class="st4" d="M394.1,391.9c-2.2,0.4-4.5,0.2-6.1,2.6c-0.7,1.1-2.3,1-3.6,0.3c0-0.2-0.1-0.3,0-0.5c0.3-1,1.3-0.8,2.2-1.7
		c-1.5-0.4-2.8-1.2-3.3-2.7c-0.3-0.9,0.2-1.7,0.7-2.3c1.2-1.5,2.6-1.9,4.3-0.6c1.2,0.9,0.3,3.2,2.7,3.2c1.9-0.5,0.3-2.9,2-3.6
		c1.6,0.9,0.7,2.6,1,3.9C394,390.9,394,391.4,394.1,391.9z M386,388.2c-0.5,0.2-0.9,0.4-0.7,1c0.1,0.5,0.4,0.9,1,0.7
		c0.5-0.1,0.9-0.4,0.7-1C386.9,388.5,386.7,388.1,386,388.2z"/>
	<path class="st3" d="M472.8,315.1c2.2,1.6,2.2,1.6,5.4,1c0.5-1.2-0.3-1.7-1.1-2.2c0-0.4-0.1-0.8-0.1-1.3c2.7-0.1,2.6,3.2,5,3.9
		c2.1-2.3,0-5.5,1.6-8.2c1.3,3.2,0.3,6.2,0.7,9.1c-2.4,1.3-4.8,0.5-7,0.7c-2.1,0.1-4.2-0.4-5.6,2.1c-0.6,1.2-2.2,1.3-3.5,0.4
		c0.1-1.6,2.3-0.4,2.4-2c-0.2-0.6-1-0.4-1.6-0.7c0-0.5,0-0.9,0.1-1.4c1.3,0.4,2-0.1,2.2-1.4C471.8,315.1,472.3,315.1,472.8,315.1z"
		/>
	<path class="st2" d="M480.8,387.4c5.6,1.6,7.4,6.1,8.1,11c1,7.1,0.8,7.1,5.3,11.9c-3.4,0-5.9-1.6-6.1-4.3c-0.2-2-1-3.9-1-5.9
		c-0.1-4.7-1.7-8.4-6-10.7c-0.3-0.2-0.5-0.8-0.7-1.2C480.4,388,480.6,387.8,480.8,387.4z"/>
	<path class="st2" d="M642,407c-0.2,2.9,0.1,5.5,3.1,7.1c3.1,1.8,2,5,1.7,7.6c-0.3,2.4-2.3,3.4-4.8,3.3c0.5-0.7,1-1.3,1.5-2
		c2-2.7,2.1-5.3,0.4-7.1c-2.2-2.2-3.2-2.2-6.8,0l0,0C637.9,412.6,639.5,409.6,642,407z"/>
	<path class="st2" d="M495,289c7.6,0,15.2,0,22.8,0c2,0,4.1-0.3,5.2,2l0,0c-7.6,0-15.2,0-22.8,0C498.2,291,496.1,291.3,495,289
		L495,289z"/>
	<path class="st2" d="M512,354c-0.1,2.5,2.3,2.8,4,4c-0.8,0.4-1.2,0.7-1.4,0.6c-6.2-3-11.6-0.3-17,2.1c-1.9,0.8-3.5,2.5-6.1,1.9
		c2.1-2.1,7.1-4.8,10.6-5.6C505.5,356.2,508.9,355.6,512,354L512,354z"/>
	<path class="st2" d="M577,366c3.5,0.5,6.8-0.7,10.5-2.4c-0.2,5.8,3.6,6.8,7.7,7.6c-6.8,1.3-7,1.2-9.6-4.4c-1.7-0.3-3,1.3-4.6,1.1
		C579.3,367.9,577.4,368.4,577,366L577,366z"/>
	<path class="st3" d="M379.9,390.4c1.4-2.8,0-5.6,1.9-9c0,4.1,0,7.1,0,10.7c-2.9,0-5.8,0.1-8.7,0c-2.5-0.1-2.7-1.7-2.4-4.7
		C373.2,392,376.6,390.5,379.9,390.4z"/>
	<path class="st2" d="M514.2,475.1c-0.7,1.4-1.9,1.8-3.3,1.6c-5.5-0.7-10.4,1-15.1,3.4c-1.7,0.9-3.1,1.1-3.9-1
		c1.1-0.2,2.4-0.2,3.3-0.7C501.2,475,507.6,474.6,514.2,475.1z"/>
	<path class="st2" d="M387.8,319.9c1.4-1.8,3.5-1.5,5.4-1.8c5.8-0.8,11.7-1.5,17.5-2.2c0.8-0.1,1.5-0.6,2.2-0.9
		c1.1,1.1,0.6,1.5-0.6,2c-3.6,1.4-7.5,1.1-11.2,1.7C396.7,319.3,392.3,320.6,387.8,319.9z"/>
	<path class="st4" d="M850.1,597.9c1.5-0.7,1.9-1.2,2.6-3.2c2.1,0.2,0.4,2.9,2.6,3.3c1.8-2.1-0.3-5.4,1.5-7.7c1.4,3,1.5,3.5,0.7,9.6
		c-2.8,0.5-5.8,0.2-8.7,0c0-0.4-0.1-0.8-0.1-1.2c0,0,0,0.3,0,0.3C849.3,598.6,849.7,598.2,850.1,597.9z"/>
	<path class="st2" d="M641,426c-1.2,2.3-1.9,4.8-5.1,5.3c-1.9,0.4-2.9,2.1-2.8,4.2c0,2.2,0,4.3,0,6.5c-0.3-0.1-0.8-0.1-0.9-0.3
		c-1.6-2.2-1.9-9.1,0-10C635.4,430.2,637.1,426.4,641,426z"/>
	<path class="st2" d="M575,435c-0.3,2.4-2.5,2.9-4,3.9c-2,1.4-3.3,3.1-3.9,5.4c-1.1,4.5-1.1,4.5-6.1,4.6l0,0
		c-0.1-2.7,3.7-1.3,3.9-3.7c0.2-2,1.1-3.9,2.3-5.4C569.2,437.4,571.8,435.6,575,435L575,435z"/>
	<path class="st2" d="M735.1,360.6c1.9,4.4,5.2,5.8,9.9,5.3c4.2-0.4,8.6,0,12.8,0c2.8,0,4.8,1.1,5.4,4c-4.7-3.8-10.2-2.9-15.6-2.9
		c-2,0-4,0-6,0C736.4,366.9,735.6,366.2,735.1,360.6z"/>
	<path class="st2" d="M598,485c-0.9,1.8-2.5,3-3.9,4.3c-3.8,3.8-3.8,3.8-1.6,8.7c-0.6,1.1-1.6,0.8-2.5,0.9
		C588.1,491.7,591.1,486.4,598,485z"/>
	<path class="st2" d="M487,366c-0.9,1.8-2.6,2.5-4.4,2.9c-4.5,1.1-8.7,3-12.8,5.1c-0.7,0.3-1.4,1-2.6-0.1
		C473.2,369.4,480.1,367.8,487,366L487,366z"/>
	<path class="st2" d="M517,335c-1.3,4.6-2.4,9.2-2.1,14.1c0.1,2-0.9,3.9-2.9,4.9l0,0c0.8-3.6,1.1-7.2,1.1-10.8
		C513,339.9,514.3,337.1,517,335L517,335z"/>
	<path class="st2" d="M614.6,375.4c-2.5-3.5-4.8-3.2-7.4-1.5c-2.9,1.9-5.9,1.2-9.1-1c2.6,0,4.6,0.3,6.5-0.1c2.1-0.5,3.9-1.8,5.9-2.4
		C612.7,369.7,613.4,370.4,614.6,375.4z"/>
	<path class="st2" d="M556.1,461.4c0.4,3.2-0.7,5.3-3.7,5.4c-2.8,0.1-5.2,0.4-7,2.8c-0.3,0.4-1.2,0.4-1.9-0.4
		c1.2-2.6,2.9-4.6,6.2-4.2C552.7,465.3,554.9,464.5,556.1,461.4z"/>
	<path class="st2" d="M400.1,431.5c1.9,0.9,3.8,1.8,5.9,2.7c-0.2,4.6-1.6,8.7-2.9,12.8c-1.9-1.6-0.8-3.3-0.3-5
		c0.9-3.5,2.4-7.2-2.5-9.1C400.1,432.8,400.2,432,400.1,431.5z"/>
	<path class="st3" d="M465,313.2c1.3,1.2,0.9,2.7,0.8,4.4c-3.7,0.9-7.4,0.4-11.2,0.4c-1.6,0-1.6-0.3-1.8-4.6c2,4.1,4.7,3.7,7.5,2.8
		c0.5,0,1.1-0.1,1.6-0.1c1.7,1.1,2.3,0.2,2.5-1.4C464.6,314.2,464.8,313.7,465,313.2z"/>
	<path class="st2" d="M678,421c-2.3-1.1-4.6-1.9-7.2-2.2c-3-0.4-6.4-1.2-7.8-4.8c4,1.2,7.7,3.7,12.3,3.2
		C677.6,416.9,678,419,678,421z"/>
	<path class="st2" d="M614,477c-1.6,3.8-5.5,4.5-8.7,5.5c-2.4,0.8-4.8,1.9-7.3,2.5c0-2,1.4-3.3,3-3.4
		C605.9,481.3,609.5,478.1,614,477z"/>
	<path class="st2" d="M526,293c3.8,1,7.5,2.4,11.6,2.1c3.2-0.2,3.9,2.4,4.4,4.9l0,0c-3.3-3.1-7.5-3.3-11.6-4
		C528.5,295.7,526.5,295.5,526,293L526,293z"/>
	<path class="st2" d="M621,390c5.2,2.6,11.5,1.6,16.5,5.2c-4.9-1.2-9.9-1.1-14.7-2.5C621.5,392.3,621.1,391.2,621,390L621,390z"/>
	<path class="st2" d="M394.1,415.7c1.4,0.6,2,1.6,1.9,3.1c-0.1,1.5,0.1,3,0,4.5c-0.4,3.2,0.5,5.8,3.3,7.6c-4.4-0.6-5.1-1.3-5.2-5.4
		C394,422.2,394.1,419,394.1,415.7z"/>
	<path class="st2" d="M561,449c0,1.5,0.1,3-0.1,4.4c-0.3,1.9-1,3.5-3.4,3.5c-1.9,0-3.6,0.1-4,3.4c-1.6-4.8-1.6-4.8,4.6-5.8
		C560.1,453.2,557.5,449.6,561,449L561,449z"/>
	<path class="st2" d="M846,505.1c4.2-0.9,8.5-1.5,12.9-0.9c0.5,2.6-1.2,3.7-2.9,4.7c-0.8-2.8-3.4-2.5-5.4-2.9
		C849.1,505.7,847.3,506.4,846,505.1z"/>
	<path class="st2" d="M551,313c0.4-2.2-1.3-3.1-2.7-4.2c-1.4-1-3.3-1.6-3.3-3.8l0,0c3,0.6,4.9,2.9,7.5,4.3c0.9,0.5,1.5,1.3,1.3,2.4
		C553.4,313.2,552.1,312.9,551,313L551,313z"/>
	<path class="st2" d="M536,264.9c4.3,2,8.9,3.5,13,6c-0.1,0.1-0.2,0.4-0.3,0.4C544,270.2,539.1,269.4,536,264.9z"/>
	<path class="st2" d="M637,416c-1.9,4.1-1.9,4.1-5.7,3.3c-2.4-0.5-4.9-0.7-6.3-3.3l0,0c0.8,0.1,1.7,0,2.4,0.3
		C630.7,418.2,633.9,417.8,637,416L637,416z"/>
	<path class="st2" d="M407.4,408.1c-3.5,3.6-8,3.2-12.4,2.8c0.2-1.1,0.8-1.9,1.9-1.8C400.4,409.4,403.9,408.3,407.4,408.1z"/>
	<path class="st2" d="M696,429c-3.4-1.2-6.8-2.4-10.5-2.1c-2,0.2-4-0.4-4.5-2.9c3.4,1.2,6.8,2.4,10.5,2.1
		C693.5,425.9,695.5,426.5,696,429z"/>
	<path class="st2" d="M578,433c3.1-3.1,6.5-5.6,11-6l0,0C585.8,429.8,582.5,432.6,578,433L578,433z"/>
	<path class="st2" d="M713,436c-1.7-1.1-3.6-1-5.5-1c-1.5,0-3.2,0.4-4.5-1c2.5-1.9,5.4-0.8,8.1-0.9C712.9,433.1,713,434.7,713,436z"
		/>
	<path class="st4" d="M604.8,338.8c-1-3.1-1.2-6.3,0-9.4C606.4,332.5,606.1,335.6,604.8,338.8z"/>
	<path class="st4" d="M845.1,599.8c-1,0.7-2.6,0.1-3.1,1.9c-0.3,1.2-1.4,1.8-3.1,0.9c2.6-2.2,1.5-5.3,2.4-8.1c1.6,1,0.4,4.7,3.7,3.5
		C845,598.5,845,599.2,845.1,599.8z"/>
	<path class="st2" d="M827.2,477.9c2,3.4,1.1,7.6,3.1,11c-0.3-0.1-0.8,0-1-0.2C827.1,485.4,826.3,481.8,827.2,477.9z"/>
	<path class="st4" d="M472.8,315.1c-0.5,0-0.9,0-1.4,0c-0.5-0.6-1-1.3-1.9-0.7c-0.8,0.6-0.3,1.4-0.3,2.2c0,0.5,0,0.9-0.1,1.4
		c-1.8-0.5-2.4-1.8-1.9-3.4c0.4-1.3,1.4-2.3,2.9-2.3C471.9,312.3,472.9,313.2,472.8,315.1z"/>
	<path class="st2" d="M752,515c-3.1-1.8-7.2-2.6-8-7c1.7,1,3.3,2,5,3C750.5,511.9,751.9,513,752,515z"/>
	<path class="st2" d="M788,403.9c3.1,2.6,3.3,6.7,5.2,9.9c-1.1,0.1-2-0.2-2.4-1.3C789.9,409.7,788,407.1,788,403.9z"/>
	<path class="st2" d="M775.1,397.9c3.6,1.8,8,1.4,11.3,4c-3.4,0.4-6.5-1-9.6-1.8C775.6,399.7,775.1,399,775.1,397.9z"/>
	<path class="st2" d="M772.1,387.6c2.9,2.9,2.5,6.7,3,10.3c-1.1-0.1-2.1-0.5-2-1.7C773.4,393.3,771.9,390.5,772.1,387.6z"/>
	<path class="st2" d="M537,322c2.4-2.7,5.2-4.8,9-5l0,0C543.6,319.7,540.8,321.8,537,322L537,322z"/>
	<path class="st2" d="M532,326c-2.4,2.7-5.2,4.8-9,5l0,0C525.4,328.3,528.2,326.2,532,326L532,326z"/>
	<path class="st2" d="M765.1,725.1c-2.5,1.7-5.2,2.8-8.1,3.8C759.4,725.6,761.9,724.5,765.1,725.1z"/>
	<path class="st2" d="M618,382c0.8,0.1,1.6,0.4,1.8,1.3c0.4,2.2,0.8,4.4,1.2,6.7c0,0,0,0,0,0C617.3,388.3,618,385,618,382L618,382z"
		/>
	<path class="st2" d="M853.9,512c0.1,1.9,1.4,1.9,2.8,1.9c1.8,0.1,3.8-0.3,4.7,2c-2.5-0.3-5-0.6-7.6-1c-0.8-0.1-1.5-0.5-1.5-1.5
		C852.3,512.4,853.1,512.2,853.9,512z"/>
	<path class="st2" d="M490,427c0.1-3,1.2-5.4,4.9-7.3C493.7,423.2,492.1,425.3,490,427L490,427z"/>
	<path class="st2" d="M414,312c1-3.2,1.4-6.6,3.9-9.2C417.4,306.2,417.3,309.8,414,312z"/>
	<path class="st2" d="M732,351c2.8,2,3.2,4.9,2.9,8c-1.4-0.2-1.7-1.1-1.9-2.4C732.8,354.7,732.3,352.8,732,351z"/>
	<path class="st3" d="M394.1,391.9c0-0.5-0.1-1-0.1-1.5c2.8,0.7,2.5-1.7,3.1-3.1l0.3,0l0.3-0.2c0.3,1.4,0.4,2.9,0,4.3
		C396.6,392.5,395.3,392,394.1,391.9z"/>
	<path class="st2" d="M831,489.9c2.2,1.8,3,4.6,4.3,7C831.5,496,831.4,492.9,831,489.9z"/>
	<path class="st4" d="M465,313.2c-0.2,0.5-0.4,1-0.6,1.5c-1.8-1.2-2.4-0.4-2.5,1.4c-0.5,0-1.1,0.1-1.6,0.1
		C460.9,312.1,461.6,311.7,465,313.2z"/>
	<path class="st2" d="M755,522c-1.8-2-3-4.3-3-7C754.1,516.9,756.1,518.8,755,522z"/>
	<path class="st3" d="M615.6,445.4c0.8,3,0.4,6.1,0.5,9.2C614.4,452.6,614.2,450.4,615.6,445.4z"/>
	<path class="st2" d="M496.9,419.2c-1.2-2.8-0.8-4.5-0.7-7.3C498.6,414.6,498.1,416.3,496.9,419.2z"/>
	<path class="st2" d="M663,376c-1.2,2.3-0.1,5.5-3,7l0,0C660.2,380.3,659.6,377.3,663,376L663,376z"/>
	<path class="st2" d="M720,442c-4.1-0.7-4.3-0.9-5-5C717.1,438.3,718.7,439.9,720,442z"/>
	<path class="st2" d="M741,506c-2.4-0.8-5.2-1-6-4C737.4,502.8,740.2,502.9,741,506z"/>
	<path class="st4" d="M397.7,387.1l-0.3,0.2l-0.3,0c0.4-1.4-1.4-2-1.4-3.3c0.9-0.9,1.8-0.8,2.8-0.1
		C398.9,385.1,396.7,385.8,397.7,387.1z"/>
	<path class="st2" d="M776,720.1c-1.8,1.3-3.9,2.2-6,2.8C771.3,720.4,772.9,718.7,776,720.1z"/>
	<path class="st2" d="M414,283c-1.8-1.3-3.2-3-4.4-4.9C412.8,278.2,414,280.1,414,283z"/>
	<path class="st2" d="M422.8,299.9c0.7-1.5,3.7-1.2,3-3.8c2.1,0.2,2.8,1.2,1.1,2.8C425.9,299.9,424.3,300.1,422.8,299.9z"/>
	<path class="st3" d="M486.6,307.4c1,4.1,0.8,7.1,0.1,10.1C485.6,314.5,485.7,311.5,486.6,307.4z"/>
	<path class="st2" d="M429,275c2.3,1.4,2.9,3.5,3,6l0,0C429.7,279.7,429,277.5,429,275L429,275z"/>
	<path class="st3" d="M860.4,600.8c-1.1-4.1-0.8-7.1-0.2-10.2C861.4,593.6,861.3,596.7,860.4,600.8z"/>
	<path class="st2" d="M822.1,471.7c1.7,1.1,3.6,2,4.2,4.2C823.6,475.8,822.2,474.4,822.1,471.7z"/>
	<path class="st2" d="M974.8,573c1.1-0.9,2.3-1.8,3.3-2.6c1.3,0.4,1.8,1.4,2,2.6C978.4,572.9,976.6,572.9,974.8,573z"/>
	<path class="st2" d="M490,286c2.2,0.1,4.4,0.2,5,3l0,0C492.9,288.6,491.1,288,490,286L490,286z"/>
	<path class="st2" d="M417.8,302.9c1.4-1.4,3.2-2.4,5.1-3.1C422.5,302.9,420.2,302.9,417.8,302.9z"/>
	<path class="st2" d="M542,300c2,1.1,2.6,2.9,3,5l0,0C542.2,304.4,542.1,302.2,542,300L542,300z"/>
	<path class="st2" d="M573,364c-1.7-1-3-2.3-4-4l0,0C571.8,359.8,573.2,361.2,573,364L573,364z"/>
	<path class="st2" d="M665,373c0-1.8,0.3-3.5,2.3-4.9C667.7,370.6,666.7,372,665,373L665,373z"/>
	<path class="st2" d="M618,382c-1.8-0.8-2.3-2.4-3-5.2C617.7,378.4,618,380.1,618,382L618,382z"/>
	<path class="st2" d="M654,391c-0.2,1.8-0.9,3.3-2.8,4.9C651.2,393.1,651.6,391.5,654,391L654,391z"/>
	<path class="st2" d="M980.1,572.8c1.4,1.5,2.4,3.2,3,5.1C980.1,577.5,980.1,575.1,980.1,572.8z"/>
	<path class="st2" d="M983.1,577.8c1.4,1.5,2.4,3.2,3,5.1C983.1,582.5,983.1,580.2,983.1,577.8z"/>
	<path class="st2" d="M986.1,582.8c1.4,1.5,2.4,3.2,3.1,5.1C986.1,587.4,986.1,585.2,986.1,582.8z"/>
	<path class="st2" d="M786.1,716.2c-1.7,0.6-3.4,1.2-5.1,1.7C782.1,715.6,783.7,714.8,786.1,716.2z"/>
	<path class="st2" d="M619.1,323.8c1.6,0.8,2.9,1.8,4,3.2C620.8,327.1,619.1,326.5,619.1,323.8z"/>
	<path class="st2" d="M588.1,298.7c1.6,0.8,3,1.8,4,3.2C589.8,302.1,588,301.5,588.1,298.7z"/>
	<path class="st2" d="M701,433c-2-0.1-3.1-1.4-4-3C699.1,429.9,700.8,430.4,701,433z"/>
	<path class="st2" d="M393.2,412.1c-0.5,0.9-0.5,1.9,0,2.9c-1.1-0.1-2.7,0.5-2.7-1.3C390.6,412.3,392,412.1,393.2,412.1z"/>
	<path class="st2" d="M593.1,302.8c1.6,0.8,2.9,1.8,4,3.2C594.8,306.1,593.1,305.5,593.1,302.8z"/>
	<path class="st2" d="M589,427c0.3-2.3,2.2-2.6,4-3l0,0C592.7,426.3,590.8,426.7,589,427L589,427z"/>
	<path class="st2" d="M556.9,503.2c-2.4-1.5-2.3-3.8-1.9-6.2C556.5,498.8,557,500.9,556.9,503.2z"/>
	<path class="st2" d="M800.1,418.9c1.6,0.7,3,1.6,4.1,3C801.9,422.1,800.1,421.6,800.1,418.9z"/>
	<path class="st2" d="M879.1,542.8c1.4,1.1,2.4,2.5,3.2,4.1C879.4,546.9,878.9,545.1,879.1,542.8z"/>
	<path class="st2" d="M663,414c-2.1,0.1-3.8-0.5-4-3C661,411.1,662.1,412.4,663,414z"/>
	<path class="st3" d="M845.1,599.8c0-0.6-0.1-1.3-0.1-1.9c0-0.6,0.1-1.2,0.1-1.9c0.4,0,0.7-0.1,1.1-0.1c0.2,1.6,0.7,2.9,2.7,2.7
		c0,0.4,0.1,0.8,0.1,1.2C847.7,599.8,846.4,599.8,845.1,599.8z"/>
	<path class="st2" d="M614.1,319.7c1.6,0.8,3,1.8,4,3.2C615.8,323.1,614,322.5,614.1,319.7z"/>
	<path class="st2" d="M657,387c-0.1,2-1.4,3.1-3,4l0,0C653.9,388.9,654.5,387.2,657,387L657,387z"/>
	<path class="st4" d="M376.9,384.9c0.4,1.3,1.1,2.2,0.1,2.9c-0.2,0.2-1.1,0-1.3-0.2C375,386.5,375.8,385.8,376.9,384.9z"/>
	<path class="st2" d="M742.3,746.1c-0.8,1.5-1.8,3-3.3,4C738.9,747.8,739.5,746,742.3,746.1z"/>
	<path class="st2" d="M660,383c-0.1,2-1.4,3.1-3,4l0,0C656.9,384.9,657.5,383.2,660,383L660,383z"/>
	<path class="st2" d="M751.3,735.1c-0.8,1.5-1.8,3-3.3,4C747.9,736.8,748.5,735,751.3,735.1z"/>
	<path class="st2" d="M768.1,378.9c1,1.2,1.6,2.5,1.8,4.1C767.9,382.2,766.3,381.3,768.1,378.9z"/>
	<path class="st2" d="M404,272c-1.5-1-2.5-2.4-3.5-3.8C403.3,268,404.1,269.6,404,272z"/>
	<path class="st2" d="M552,272.1c1.5,0.3,2.9,0.7,4,1.8C553.6,275.6,552.7,274.1,552,272.1z"/>
	<path class="st2" d="M562.1,277.7c1.6,0.8,3,1.8,4,3.2C563.8,281.1,562.1,280.5,562.1,277.7z"/>
	<path class="st2" d="M863.1,521.6c1.2,1.3,2.4,2.7,3.1,4.3C863.2,525.9,862.9,523.9,863.1,521.6z"/>
	<path class="st2" d="M423,293c-1.5-1-2.5-2.3-3.5-3.8C422.3,289,423.1,290.6,423,293z"/>
	<path class="st4" d="M564.1,337.8c-2.3-0.6-2.7-1.9-1.3-3.8c0.5,0.1,0.9,0.1,1.4,0.2c0,0.8,0,1.5,0,2.3
		C564.1,336.9,564.1,337.3,564.1,337.8z"/>
	<path class="st2" d="M635,445c1.9,0.2,2.9,1.1,3,3C636.1,447.9,635.1,446.9,635,445z"/>
	<path class="st4" d="M822.1,598.8c-2.3-0.6-2.7-1.9-1.3-3.8c0.5,0.1,0.9,0.1,1.4,0.2c0,0.8,0,1.5,0,2.3
		C822.1,597.9,822.1,598.3,822.1,598.8z"/>
	<path class="st3" d="M822.2,595.1c-0.5-0.1-0.9-0.1-1.4-0.2c1.6-1.6,3.2-2.3,4.8,0c-0.6,0.1-1.2,0.1-1.7,0.2
		C823.3,595.1,822.7,595.1,822.2,595.1z"/>
	<path class="st4" d="M594.4,328.9c1,0.5,1.3,1.4,1.5,2.5c-0.8,0.9-1.7,0.6-2.7,0.3C592.7,330.4,593.3,329.6,594.4,328.9z"/>
	<path class="st3" d="M564.2,334.1c-0.5-0.1-0.9-0.1-1.4-0.2c1.6-1.6,3.2-2.3,4.8,0c-0.6,0.1-1.2,0.1-1.7,0.2
		C565.3,334.1,564.7,334.1,564.2,334.1z"/>
	<path class="st2" d="M517,335c0.8-1.8,2.3-2.1,4-2l0,0C520.2,334.8,518.7,335.1,517,335L517,335z"/>
	<path class="st4" d="M567.2,330.4c-1.3,0.7-2.2,0.6-3.5,0.3C565,328.7,565.9,329.4,567.2,330.4z"/>
	<path class="st4" d="M477,312.6c0,0.4,0.1,0.8,0.1,1.3c-0.8,0.1-1.6,0.3-2.5-0.3C474.9,312.1,475.7,311.8,477,312.6z"/>
	<path class="st4" d="M573,339.9c0.1,1.3,0,2.2-1.8,2.1c-1.7-0.1-1.2-1.2-1.1-2.1l-0.1,0.1c1,0.3,2.1,0.4,3.1,0L573,339.9z"/>
	<path class="st4" d="M608.7,447.2c-1.8,0.8-2.8,0.9-3.8,0.3C605.6,445.6,606.7,446.5,608.7,447.2z"/>
	<path class="st4" d="M821.8,591.5c1.1-2.1,2-0.6,2.9-0.4C824,592,823.1,592.3,821.8,591.5z"/>
	<path class="st4" d="M837.2,592.4c-1.3,0.8-2.2,0.6-3.5,0.4C835,590.7,835.9,591.4,837.2,592.4z"/>
	<path class="st2" d="M573,364c1.7-0.1,3.2,0.2,4,2l0,0C575.3,366.1,573.8,365.8,573,364L573,364z"/>
	<path class="st2" d="M578,433c-0.1,1.9-1.5,2-3,2l0,0C575.6,433.7,576.6,433,578,433L578,433z"/>
	<path class="st2" d="M811,427.9c1.1,0.7,1.8,1.7,2.2,2.9C811,431,811,429.4,811,427.9z"/>
	<path class="st2" d="M532,326c0.1-1.9,1.5-2,3-2l0,0C534.4,325.3,533.4,326,532,326L532,326z"/>
	<path class="st2" d="M804.1,421.8c1.2,0.4,2.2,1.1,2.9,2.2C805.5,424,804.1,424,804.1,421.8z"/>
	<path class="st2" d="M797.1,416.6c1.2,0.5,2.3,1.1,3,2.3C798.5,419,797,418.8,797.1,416.6z"/>
	<path class="st2" d="M553.9,495.2c-1.1-0.8-2.2-1.6-2.1-3.2C553.9,492.1,554,493.6,553.9,495.2z"/>
	<path class="st2" d="M793.2,413.8c1.2,0.5,2.2,1.1,3,2.2C794.6,416,793,416,793.2,413.8z"/>
	<path class="st2" d="M836.1,497.8c1.1,0.8,1.7,1.9,2.2,3.1C836.1,500.9,836,499.4,836.1,497.8z"/>
	<path class="st2" d="M383.9,325.9c0.4-1.2,1-2.3,2-3.1C386,324.4,386,325.9,383.9,325.9z"/>
	<path class="st2" d="M583.1,294.7c1.2,0.5,2.2,1.2,2.9,2.3C584.4,297,583,296.8,583.1,294.7z"/>
	<path class="st2" d="M630.1,332.7c1.2,0.6,2.2,1.2,2.9,2.3C631.4,335,630,334.8,630.1,332.7z"/>
	<path class="st2" d="M663,376c0-1.5,0.1-2.9,2-3l0,0C665,374.4,664.3,375.4,663,376L663,376z"/>
	<path class="st2" d="M764.1,371.6c1.1,0.9,1.7,2,2,3.4C763.8,374.8,764,373.2,764.1,371.6z"/>
	<path class="st2" d="M604.1,311.7c1.2,0.6,2.2,1.2,2.9,2.3C605.4,314,604,313.8,604.1,311.7z"/>
	<path class="st2" d="M867,527c1.1,0.7,1.7,1.8,2.2,3C867.1,530,867,528.5,867,527z"/>
	<path class="st2" d="M870,530.9c1.1,0.7,1.8,1.8,2.3,3C870.1,534,870,532.5,870,530.9z"/>
	<path class="st2" d="M487,366c0.2-1.1,0.5-2.2,2.3-1.6C489.1,365.8,488,365.9,487,366L487,366z"/>
	<path class="st2" d="M873,534.9c1.1,0.7,1.8,1.8,2.3,3C873.2,538,873,536.5,873,534.9z"/>
	<path class="st2" d="M876.1,538.8c1.1,0.8,1.8,1.9,2.3,3.1C876.2,542,876,540.5,876.1,538.8z"/>
	<path class="st2" d="M573.1,286.6c1.2,0.6,2.2,1.2,2.9,2.4C574.4,289,573,288.8,573.1,286.6z"/>
	<path class="st2" d="M599.1,307.6c1.2,0.6,2.2,1.2,2.9,2.4C600.4,310,599,309.8,599.1,307.6z"/>
	<path class="st2" d="M883,547.9c1.1,0.7,1.8,1.8,2.2,3C883.1,551,883,549.5,883,547.9z"/>
	<path class="st2" d="M385.8,322.9c0.4-1.2,0.9-2.3,2-3.1C388,321.4,388,322.9,385.8,322.9z"/>
	<path class="st2" d="M886,551.9c1.1,0.7,1.8,1.8,2.3,3C886.1,555,886,553.5,886,551.9z"/>
	<path class="st2" d="M609.1,315.7c1.2,0.5,2.2,1.2,2.9,2.3C610.4,318,609,317.8,609.1,315.7z"/>
	<path class="st2" d="M635.1,336.7c1.1,0.5,2.2,1.2,2.9,2.3C636.4,339,635,338.8,635.1,336.7z"/>
	<path class="st2" d="M526,293c-1.5,0-2.9-0.1-3-2l0,0C524.4,291,525.4,291.7,526,293L526,293z"/>
	<path class="st2" d="M625.1,328.6c1.2,0.6,2.2,1.2,2.9,2.4C626.4,331,625,330.8,625.1,328.6z"/>
	<path class="st2" d="M578.1,290.7c1.2,0.5,2.2,1.2,2.9,2.3C579.4,293,578,292.8,578.1,290.7z"/>
	<path class="st2" d="M549,315c-0.6,1.3-1.6,2-3,2l0,0C546.1,315.1,547.5,315,549,315L549,315z"/>
	<path class="st2" d="M381.9,329c0.4-1.2,1-2.3,2-3.1C384,327.4,384,328.9,381.9,329z"/>
	<path class="st2" d="M990.1,589.6c1.1,0.9,1.7,2,2,3.3C989.9,592.8,990,591.2,990.1,589.6z"/>
	<path class="st2" d="M568.1,282.6c1.2,0.6,2.2,1.3,3,2.4C569.4,285,568,284.8,568.1,282.6z"/>
	<path class="st2" d="M889,555.9c1.1,0.7,1.8,1.8,2.3,3C889.2,559,889,557.5,889,555.9z"/>
	<path class="st2" d="M373,338c0.7-1.1,1.7-1.8,2.9-2.3C376,337.8,374.6,338,373,338z"/>
	<path class="st2" d="M755.4,730.1c-0.6,1.2-1.2,2.2-2.4,2.9C753,731.4,753.2,730,755.4,730.1z"/>
	<path class="st2" d="M368,342c0.7-1.1,1.8-1.8,2.9-2.3C371,341.8,369.6,342,368,342z"/>
	<path class="st2" d="M531.1,261.8c1.3,0.4,2.4,1,3.2,2.1C532.8,264,531.1,264.2,531.1,261.8z"/>
	<path class="st2" d="M528.1,259.8c1.2,0.3,2.3,0.9,3.1,2C529.6,262,528.1,262.1,528.1,259.8z"/>
	<path class="st2" d="M746.4,741.1c-0.6,1.2-1.3,2.2-2.4,2.9C744,742.4,744.3,741,746.4,741.1z"/>
	<path class="st2" d="M525.1,257.9c1.2,0.4,2.3,1,3.1,2C526.6,260,525.1,260,525.1,257.9z"/>
	<path class="st2" d="M522,255.9c1.2,0.4,2.3,1,3.1,2C523.6,258,522.1,258,522,255.9z"/>
	<path class="st2" d="M517.1,252.8c1.3,0.4,2.4,1,3.2,2.1C518.8,255,517.1,255.2,517.1,252.8z"/>
	<path class="st2" d="M514.1,250.8c1.2,0.3,2.3,0.9,3.1,2C515.6,253,514.1,253.1,514.1,250.8z"/>
	<path class="st2" d="M511.1,248.9c1.2,0.4,2.3,1,3.1,2C512.6,251,511.1,251,511.1,248.9z"/>
	<path class="st3" d="M822.1,598.8c0-0.5,0-0.9,0.1-1.4c0.7,0.2,1.3,0.2,1.9-0.4c1,0.7,0.8,1.3,0,2
		C823.4,598.9,822.7,598.9,822.1,598.8z"/>
	<path class="st4" d="M463.2,310.9c-0.5-0.1-0.9-0.4-0.6-0.9c0.1-0.2,0.5-0.5,0.7-0.5c0.5,0.1,0.7,0.6,0.6,1
		C463.9,310.7,463.5,310.8,463.2,310.9z"/>
	<path class="st2" d="M407,450.9c1.7-0.2,3.4-0.9,4.8,0.8C410.1,451.9,408.3,452.5,407,450.9z"/>
	<path class="st3" d="M564.1,337.8c0-0.5,0-0.9,0.1-1.4c0.7,0.2,1.3,0.2,1.9-0.4c1,0.7,0.8,1.3,0,2
		C565.4,337.9,564.7,337.9,564.1,337.8z"/>
	<path class="st2" d="M488,429c0.1-1.3,0.7-1.9,2-2l0,0C489.9,428.3,489.3,428.9,488,429L488,429z"/>
	<path class="st2" d="M862,516.9c1.6,1.1,1.1,2.6,1,4.1C861.6,519.9,862.1,518.3,862,516.9z"/>
	<path class="st2" d="M324,373c-0.1-0.8,0.2-1.5,0.9-2C326.5,372.4,325.3,372.7,324,373z"/>
	<path class="st2" d="M640.1,340.7c0.8,0.2,1.4,0.8,1.9,1.4C640,343.4,640.2,341.9,640.1,340.7z"/>
	<path class="st2" d="M521,333c0.1-1.3,0.7-1.9,2-2l0,0C522.9,332.3,522.3,332.9,521,333L521,333z"/>
	<path class="st3" d="M850.1,597.9c-0.4,0.4-0.8,0.7-1.2,1.1c0.1-1.1,0.1-2.3,0.2-3.5C850.6,595.9,849.8,597.1,850.1,597.9z"/>
	<path class="st2" d="M737.4,752.1c-0.5,1.1-1.1,2-2.2,2.6C734.9,753,735.6,752.1,737.4,752.1z"/>
	<path class="st2" d="M537,322c-0.1,1.3-0.7,1.9-2,2l0,0C535.1,322.7,535.7,322.1,537,322L537,322z"/>
	<path class="st2" d="M841.1,503.8c0.7,0.2,1.6,0.2,2,1C841.4,506.5,841.2,505.1,841.1,503.8z"/>
	<path class="st2" d="M434.9,250.8c0.6-0.6,1.3-0.8,2.1-0.7C436.7,251.6,436.2,252.4,434.9,250.8z"/>
	<path class="st2" d="M551,313c-0.1,1.3-0.7,1.9-2,2l0,0C549.1,313.7,549.7,313.1,551,313L551,313z"/>
	<path class="st2" d="M438.9,249.9c0.6-0.6,1.3-0.8,2.1-0.7C440.7,250.6,440.2,251.4,438.9,249.9z"/>
	<path class="st3" d="M592.2,451.8c-0.6,0.2,0.3,2-1.3,1.1c0-0.6,0.1-1.2,0.1-1.9c0.4,0,0.7-0.1,1.1-0.1
		C592.3,451.2,592.3,451.5,592.2,451.8z"/>
	<path class="st3" d="M591.1,336.9c-0.5,0.8-1,0.4-1.4-0.1c0.1-0.6,0.1-1.2,0.2-1.8c0.4,0,0.7,0.1,1.1,0.1
		C591,335.6,591,336.3,591.1,336.9z"/>
	<path class="st2" d="M326.7,365.1c0.1-0.7,0.2-1.4,0.3-2.1C328.1,363.9,327.7,364.5,326.7,365.1z"/>
	<path class="st4" d="M594.5,451.5c0.3-0.3,0.6-0.7,0.9-1c0.3,0.3,0.6,0.6,1,0.9c-0.3,0.3-0.6,0.6-1,1
		C595.1,452,594.8,451.7,594.5,451.5z"/>
	<path class="st4" d="M592.1,450.9c-0.4,0-0.7,0.1-1.1,0.1c-0.1-0.5,0.1-0.9,0.7-0.8C591.9,450.3,592,450.7,592.1,450.9z"/>
	<path class="st4" d="M846.1,595.9c-0.4,0-0.7,0.1-1.1,0.1c-0.1-0.5,0.1-0.9,0.7-0.8C845.9,595.3,846,595.7,846.1,595.9z"/>
	<path class="st4" d="M590.9,335c-0.4,0-0.7-0.1-1.1-0.1c0.1-0.2,0.2-0.7,0.4-0.7C590.9,334.1,591,334.5,590.9,335z"/>
	<path class="st4" d="M851,592.4c-0.2,0.1-0.4,0.2-0.7,0.3c-0.1,0-0.2-0.2-0.3-0.3c0.2-0.1,0.4-0.2,0.6-0.3
		C850.7,592.1,850.9,592.3,851,592.4z"/>
	<path class="st4" d="M848.5,592c0.1,0.2,0.2,0.4,0.3,0.6c0,0.1-0.2,0.2-0.3,0.3c-0.1-0.2-0.2-0.4-0.3-0.6
		C848.3,592.2,848.4,592.1,848.5,592z"/>
	<path class="st4" d="M850,590.5c-0.2,0.1-0.4,0.3-0.7,0.3c-0.1,0-0.2-0.2-0.3-0.3c0.2-0.1,0.4-0.3,0.7-0.3
		C849.8,590.2,849.9,590.4,850,590.5z"/>
	<path class="st0" d="M449,544.9c1.3,1.1,2.6,0.8,4.1,0.3c5.3-1.6,5.3-1.5,8.6,2.8c1.3,1.7,2.8,3.3,4.2,5c0.9,1,1.9,1.8,3.3,2
		c2.6,0.4,5.6-1.5,7.6,1.9c0.4,0.6,2.2-0.1,3.3-0.5c1.9-0.7,3.8-1.3,5.6-2c2.2-0.8,3.9,0.1,5.4,1.5c1.7,1.6,0,3-0.5,4.5
		c-0.4,1.1-1,2.1-1.4,3.2c-0.5,1.2-0.4,2.6,0.9,3c5.7,1.5,5.2,5.5,3.9,9.8c3,2.2,5.7,0.8,7.3-1.1c2.3-2.7,4.6-2.7,7.5-2
		c4.6,1.2,4.8,1.2,7.1-2.7c2.3-3.9,5.7-6.4,9.3-8.8c4.2-2.7,8.3-5.4,12.4-8.1c-1-3-3.7-4.5-5.5-7c3.1-5.4,9.8-5,13.8-8.8
		c0.3,0.4,0.9,0.8,1.2,0.5c1.7-1.8,3.2-3.8,2.3-6.5c-0.4-1.1-0.7-2.2,0.3-3.7c1.4-0.4,3.1-0.8,4.7,0.3c0.9,4.5,0.9,4.5,3.6,5.3
		c0.3,0.3,0.7,0.7,1,1c0,0.5-0.1,1,0,1.5c2.6,7.7,3.3,15.8,6.1,23.4c0.9,2.5,3,3.9,5.3,3.9c3.9,0,7.5,1.3,11.4,1.3
		c5,0,5.7,1,4.6,6.1c-0.5,2.1-0.7,4.2,0.2,6.5c4.9,1,10-0.2,15.4,0.9c0,8.3,0,16.4,0,24.5c0,0.3,0,0.6,0,1c-0.3,0.1-0.8,0.1-0.9,0.3
		c-0.9,1.2-2,13.4-1.4,14.7c0.2,0.4,0.6,0.8,0.8,1.2c0.8,1.7,2.2,2.9,3.4,4.2c2.3,2.5,3.3,5.5,3.8,8.7c-1.7,1.3-3.4,0.9-5,0.8
		c-2.6-0.1-4.5,0.6-5.7,3c-7-1.1-13,2.4-19.3,4.3c-0.8,0.2-1.3,1-1.7,1.7h0c-1.9,0.1-2.9,1.1-3,3c-0.3,0.3-0.7,0.7-1,1
		c-1,0.1-2.1,0.3-2.5,1.2c-1.7,4-5.1,4-8.6,3.8c-1.1-0.7-1-1.9-1-3c-0.1-1.3-0.7-2-2-2l0,0c-0.2-1.6,0.6-3.6-2-4
		c-1.9-2.8-3.1-2.8-5,0c-2,0.1-4-0.1-6,0.2c-5.3,0.8-5.3,0.9-8-4c-2.4,0-5.2-1.3-6.6,2.2c-0.3,0.9-0.7,9.5-0.4,11.2
		c1.4-1,1-2.4,1-3.7c0.1-1.6-0.2-3.3,0.5-4.9c0.5-1.1,0.5-2.8,2.2-2.9c1.8-0.2,2.8,0.7,3.3,2.4c0.5,1.7,1.5,3.5,3.3,3
		c3.2-0.8,6.4-1.5,9.7-1.9c0.7-0.1,0.8-1,1-1.6c1.7,0,3.3,0,5,0c-0.3,1.4-0.8,2.9-0.9,4.3c-0.2,1.8-0.1,3.7,1.9,4.7l0,0
		c0.5,2.4-1.9,3.8-2,6c-2.3,0.5-4.6,1-5,3.9c-0.4,3.2-1.2,6.4-2.6,9.4c-0.7,1.5-0.2,2.5,1.6,2.8c0.4,0.9,1.1,1.6,2,2
		c0.4,3.1-1.1,6.2-0.1,9.3c0.3,0.9-0.2,1.9-0.7,2.8c-2,3.5-4.5,6.1-9,5.8c-1.7-0.1-3.7,0.1-3.9,2.2c-0.4,4.1-1.4,8.6,0.5,12.3
		c1.6,3.2,5.8,1,8.8,1.6c0.2,0,0.3,0,0.5,0c0.3,0.3,0.7,0.7,1,1c0.6,3,1.8,5.9,2,9l0,0c-1.1,0.1-2,0.6-1.9,1.8
		c0.1,3-1.7,4.8-4.1,6.2c-0.9,0.5-1.6,1.1-2,2c-0.9-0.4-1.4-1.2-1.8-2.1c0.5-2.5,0.2-4.8-1.3-6.9c-2.8-2.4-5.5-4.9-8.3-7.1
		c-1.5-1.2-1.9-2.5-1.7-4.3c0.7-4.9-0.4-9.5-3-13.7c-0.6-1-0.7-2.2-1.2-3.2c-2.2-4.1-4.9-7.8-7.2-11.9c-1.3-2.4-4-3.9-3.7-7.2
		c0.1-1.1-1.3-1.4-1.8-2.3c0-1.7,0-3.4,0-5.6c-2.3,1.4-4.3,0-6.3,0.4c-0.5,0-0.8-0.2-0.8-0.7c0.1-2.2-1.3-2.4-3-2.4
		c-5.2-2.9-10.3-5.9-15.6-8.6c-2.9-1.5-5.2-3.4-6.7-6.4c-3.3-6.7-7.4-12.9-12.5-18.5c-3-3.3-3.9-7.2-3.6-11.9
		c0.4-6.1-0.9-12.2-3.2-18c-1.8-4.6-2.3-8.9,0.6-13.2c2.3-3.5,1.7-7.3,0-10.5c-4.1-7.7-7-15.8-9.3-24.1c-0.5-1.8-1.5-3.3-2.5-4.9
		C448.7,546.3,447.7,545.6,449,544.9z M550.2,600.4c-1.3-1.6-2.4-1-3.5,0.3c-1.2,0.6-1.2,2.5-3.2,2.4c-1.3-1.8-3.6-3.2-2.7-6.3
		c-1.6,0.3-3,0.7-3.2,2.4c0.6,1.6,3.1,1.6,2.8,3.9c-1.4,0.1-2.6,0.5-3.9-0.3c-1-1.2,0.2-3-1.3-4.2c-0.4-0.1-0.9-0.2-1.4-0.2
		c-1.8,0.1-3.4,0.7-3.6,2.7c-0.2,2.1,1.3,2.6,3.1,3.1c5.6,1.6,11.2,1.2,16.8,0.4C551.6,603.2,551.6,601.8,550.2,600.4z M522.1,666.4
		c-0.6,0-1.3-0.1-1.9,0c-1.6,0.2-2.9,1.1-2.9,2.8c-0.1,1.8,1.2,2.3,2.8,2.9c3.7,1.2,7.2,1.6,10.9,0.5c-0.6-5.2-2.1-6.2-5.8-4.3
		c0.9,1.2,3.6-0.1,3.4,2.6c-1.6,0.4-3.2,0.5-4.8,0.1C522.5,669.9,523.7,668,522.1,666.4z M533.3,662.9c-3.2,7.5-1.7,10.1,5.4,10.2
		c1.1,0,2.3,0.3,3.7-0.9c-0.3-2.8,0.9-5.9-0.8-9.1c-2,2.5,0.4,5.8-1.8,8c-2.2-0.4-1.2-2.2-1.9-3.2c-0.2-0.4-0.4-0.5-1-0.1
		c-1.3,0.5,0.1,3-2.2,3.2C533.2,668.6,534.9,665.8,533.3,662.9z M527.7,655.3c-0.2-0.3-0.4-0.7-0.6-1c-2.9,0.9-5.8,2-6.8,5.9
		C522.7,658.6,525.2,656.9,527.7,655.3z M544.8,672.7c0.4-3,0.8-6-0.3-9C544.2,666.7,543.3,669.7,544.8,672.7z M514.3,664.7
		c2.2-0.3,3.1-1.2,3.3-3.4C515.5,661.7,514.5,662.5,514.3,664.7z M518.4,664.6c1.7,0.1,2.8,1,3.8-1
		C521,663.7,520.1,663.1,518.4,664.6z M532.2,596.3c0.9,0.5,2,1.3,2.9-0.2C534,595.3,533.1,595.3,532.2,596.3z"/>
	<path class="st0" d="M640,686c3.7,3.5,8,5.9,13.2,6c5.8,0.2,11.6-0.2,17.4,0.9c5.1,0.9,10.2-0.4,15.3-1.3c1.3-0.3,2.6-0.5,3.9-0.5
		c11.9-0.3,23.7-1.3,35.5-3.7c3.8-0.8,7.8-1.4,11.8-2.2c1,2.3-0.1,4.3-0.2,6.4c-0.3,6.3-0.7,12.5-1.7,18.7
		c-0.6,3.7-0.5,7.6-0.9,11.4c-0.5,4.9-1.1,9.9-1.5,14.8c-0.4,5.6-0.9,11.2-1.5,16.8c-0.6,5.1-0.7,10.2-2.2,15.2
		c-2.8,4.7-7.2,5.3-12.1,4.6c-1-2.2-1.2-5-4.2-5.9c-1.6-1-2.8-2.4-3.9-3.8c-0.3-2.8-2.5-2.2-4.1-2.2c-9.1-0.1-18.2-0.1-27.2,0
		c-4.3,0-8.6,0.2-12.4-2.4c-1-0.7-2.2-0.6-3.4-0.6c-0.6-0.4-1.2-0.7-1.8-1.1c-0.6-0.3-1.1-0.8-1.7-0.8c-11.4-0.1-22.7-0.1-34.1,0
		c-1.9,0-4.4,0.1-5.2,2.8l-0.3,0.2l-0.4,0c-1.5-0.1-2.9-0.2-4.4-0.6c-2-0.6-2.8-1.6-3-3.8c-0.9-9.2-1-18.4-0.9-27.7c2.1-1,3-3,4-5
		c2.1,0,3.8-0.5,4-3c1.6-0.8,2.6-2,3.3-3.6c1.1-2.6,2.8-4.1,5.8-4.7c4-0.8,5.8-3.7,5.9-8c0.1-1.8,0-3.6,0-5.4c0-1.2-0.1-2.4,1-3.1
		c1.8-1.2,2-2.9,2-4.8c0-1.7,0.6-3.2,2-4.4C638.8,685,639.5,685.2,640,686z M663.6,727c-0.3-1.2-0.6-2.4-1.1-4.1
		c-1.2,1.6-0.8,2.8-0.3,4c1.4,2.8,3.7,2.5,5.9,1.4c2.1-1.1,2.3-3.4,0.7-6.8c-1.6,1.4-0.2,3.6-1.3,5.1
		C666.3,727.5,664.9,726.8,663.6,727z M678,727c0.7,0,1.3,0,2,0c1.5,0.4-0.4,2.7,1.6,2.8c0.7-0.9-0.4-2,0.4-2.8
		c2.3,0,4.6,0.4,7.1-0.3c-0.2-1.7,0.5-3.3-0.5-4.9c-1.4,0.9,0.2,3.2-1.9,3.7c-2.4,0.1-1.6-3.7-4.2-3.5c-1.1,1.1,1.9,2,0.2,3.2
		c-4.8,0.5-4.8,0.5-6.6-3.9c-0.2,3.3,0.1,6.2-2.1,8.6c2,0,2.8-0.6,2.9-2C677.3,727.6,677.7,727.3,678,727z M671.8,717.4
		c-0.2,3.2-1.7,6.4,0.6,9.9C673.3,722.7,673.3,721.1,671.8,717.4z M665.8,721.8c0.5-0.1,0.9-0.3,0.8-0.9c-0.1-0.2-0.3-0.5-0.6-0.6
		c-0.6-0.3-0.8,0.2-0.9,0.7C665,721.4,665.2,721.8,665.8,721.8z M681.5,721.9c-0.4-0.6-0.9-0.7-1.6-0.5c-0.5,0.2-0.7,0.7-0.4,1.1
		c0.2,0.3,0.9,0.3,1.3,0.3C681.2,722.8,681.6,722.5,681.5,721.9z M689,719.1c-0.1-0.2-0.3-0.4-0.5-0.7c-0.2,0.2-0.5,0.4-0.6,0.7
		c-0.2,0.6,0.2,0.8,0.7,0.7C689.1,719.8,689.2,719.6,689,719.1z"/>
	<path class="st0" d="M598.1,758c1.1,0.7,1.2,1.9,1.8,3.2c-6,4.2-5.7,9.9-3.5,15.8c1.1,2.8,0.2,4.7-1.3,6.8
		c-2.3,3.3-6.1,5.1-8.3,8.5c-0.7,1.1-2.2,0.9-3.2,0.5c-1.5-0.6-3.2-1.3-3.6-3.1c-2.2-9.2-8.8-16.2-12.5-24.7
		c-2.8-6.5-6.7-12.6-11.9-17.6c-0.6-0.6-1.2-1.2-1.9-1.5c-5.9-2.3-8-7.4-9.8-12.9c2.2-2.5,2.9-6.8,7.6-6.7c1.2,3-0.1,6.2,1.2,9.2
		c3,0.1,5.7,1.2,8.4,2.4l0,0c0.2,1.4,1,2,2.4,2c4-0.2,6.9,1.2,9.2,4.6c1.4,2.1,3.9,3.4,6.7,3c1.1-1.6,0.7-3.1,0.8-4.5
		c0.3-4.4,1.9-5.4,6.5-4.2c1.2,1.8-0.2,4.1,1.6,6c3.5,3.6,8,6.5,8.4,12.3C596.5,757.8,597.4,757.8,598.1,758z M575.8,755.1
		c0.1-0.5-0.1-0.9-0.7-0.7c-0.4,0.1-0.4,0.4-0.1,0.6c-0.2,1.7-0.4,3.3-0.7,5c-3.3,1-4.5-1.5-5.8-4.4c-1,3.1-0.5,5,1.8,6
		c2.1,0.9,4.2,0.9,5.4-1.7C576.2,758.3,576.2,756.7,575.8,755.1z M585.8,749.7c-2.5,9.6-1.4,11,7.3,10.3c0.3,0,0.6-0.3,0.8-0.5
		c-0.3-4.9-1.4-5.9-5.7-4.5c0.6,1.7,3.6,0,3.5,2.6c-1.5,0.9-3,0.8-4.3,0.1C586.2,755.3,587.7,752.6,585.8,749.7z M582.4,754.3
		c-1.1,3.1,0.4,6.2-1.8,8.5C583.8,761.1,584,760,582.4,754.3z M578.4,760.2c1-4.9,1-6.3-0.5-10.4
		C577.7,753.7,577.2,756.7,578.4,760.2z M583.5,752.5c-0.1-0.3-0.2-0.6-0.4-0.8c-0.5-0.3-0.8-0.1-1,0.4c-0.2,0.3-0.1,0.7,0.3,0.8
		C582.8,753,583.2,752.9,583.5,752.5z M572.9,754c-0.1-0.4-0.2-1-0.8-0.7c-0.2,0.1-0.5,0.3-0.6,0.6c-0.2,0.5,0.2,0.9,0.7,1
		C572.8,754.9,572.9,754.4,572.9,754z M590.4,761.6c-0.3,0.2-0.6,0.3-0.8,0.5c-0.3,0.3-0.2,0.6,0.3,0.7c0.5,0.2,0.9,0,1-0.6
		C590.9,762.1,590.6,761.9,590.4,761.6z"/>
	<path class="st2" d="M598.1,758c-0.6-0.2-1.6-0.2-1.6-0.9c-0.3-5.8-4.9-8.7-8.4-12.3c-1.8-1.9-0.3-4.2-1.6-6
		c-4.6-1.2-6.1-0.2-6.5,4.2c-0.1,1.5,0.3,3-0.8,4.5c-2.8,0.4-5.3-0.9-6.7-3c-2.3-3.4-5.2-4.9-9.2-4.6c-1.3,0.1-2.2-0.6-2.4-2
		c3.2-0.1,6.3-0.1,9.3,1.3c2.9,1.3,3.1,5.7,7,6c1.3-1.2,0.5-2.8,0.8-4.2c1-3.6,3.1-5.2,6.9-5.1c2.3,0.1,3.8,0.8,3.9,3.4
		c0.2,4.1,3.7,6.4,5.6,9.5c0.9,1.5,3,1,4.7,1.1c1.6,0.1,3.5-0.2,3.6,2.3c-1.6-0.3-3.2-0.5-4.8,0C597,754.2,597.7,756.1,598.1,758z"
		/>
	<path class="st2" d="M661.8,758.1c1.2-0.1,2.4-0.1,3.4,0.6c3.8,2.6,8.1,2.4,12.4,2.4c9.1-0.1,18.2,0,27.2,0c1.7,0,3.9-0.6,4.1,2.2
		c-11.4-0.1-22.8-0.2-34.2-0.2C669.8,763,665.6,761.1,661.8,758.1z"/>
	<path class="st2" d="M610,727c-0.1,9.2,0,18.5,0.9,27.7c0.2,2.2,1,3.2,3,3.8c1.5,0.4,2.9,0.5,4.4,0.6c-0.4,0.9-1,1.7-2.2,2.2
		c-2.9-1.9-7.1-1.7-9.3-5.3c3.6-2.4,2.4-6,1.8-9c-1.2-5.9-0.4-11.8-0.6-17.7C608,728,608.6,727.2,610,727z"/>
	<path class="st2" d="M561,738c-2.7-1.2-5.4-2.3-8.4-2.4c-1.3-3.1,0-6.2-1.2-9.2c-4.7-0.1-5.4,4.2-7.6,6.7c-0.6-1-1.2-2.1-1.9-3.1
		c0.4-0.9,1.2-1.5,2-2c2.3-1.4,4.1-3.1,4.1-6.2c0-1.2,0.8-1.7,1.9-1.8c0.2,1.4-0.5,3.4,1.4,3.8c2.8,0.6,2.5,2.6,2.6,4.5
		c0.1,1.6-0.3,3.3,0.6,5.2C557,734.3,560.7,733.9,561,738z"/>
	<path class="st2" d="M619,758.9c0.8-2.7,3.2-2.8,5.2-2.8c11.4-0.2,22.7-0.1,34.1,0c0.6,0,1.1,0.6,1.7,0.8c-8.6,0-17.2,0.2-25.9,0.1
		C629,757,623.9,757.2,619,758.9z"/>
	<path class="st2" d="M505.7,666.1c2.1-0.4,4.1,1,6.3-0.4c0,2.2,0,3.9,0,5.6C510.6,668.8,507.7,667.9,505.7,666.1z"/>
	<path class="st2" d="M712.8,767.1c2.9,0.9,3.1,3.7,4.2,5.9c-1.5,0.4-2.5,0-2.9-1.7C713.7,769.8,713.3,768.4,712.8,767.1z"/>
	<path class="st2" d="M538.9,721c1.5,2.1,1.7,4.5,1.3,6.9C537.8,726,539.3,723.3,538.9,721z"/>
	<path class="st2" d="M501.9,663c1.6,0,3.1,0.2,3,2.4C503.7,664.8,502.6,664.1,501.9,663z"/>
	<path class="st2" d="M602,603c0-8.1,0-16.2,0-24.5c-5.4-1.1-10.5,0.1-15.4-0.9c-0.8-2.3-0.6-4.4-0.2-6.5c1.1-5.1,0.5-6.1-4.6-6.1
		c-3.8,0-7.5-1.2-11.4-1.3c-2.3,0-4.4-1.4-5.3-3.9c-2.8-7.6-3.5-15.8-6.1-23.4c-0.2-0.4,0-1,0-1.5c4.1,3.2,4.2,8.2,4.8,12.6
		c0.6,4.2,2.6,7.8,3.6,11.8c0.4,1.5,1.8,2.6,3.4,2.5c4-0.3,7.8,1.3,11.8,1.2c5.3-0.1,7.1,2.3,6,7.5c-0.3,1.6-1,3.2,0.2,5.1
		c4.6,1,9.6-0.3,14.5,0.7c1.1,2.4,0.6,4.7,0.6,7c0.1,5,0,10,0,14.9C604,600.2,604.1,602.1,602,603z"/>
	<path class="st4" d="M576.6,689c2.1,1.6,0.6,4.1,2.9,4.1c2.4,0,0.4-3.1,2.4-3.6c1.6,0.6,0.4,2.6,1.7,3.4c2,0.3,1-2.2,2.4-2.6
		c1.8-0.1,0.4,2.5,2.1,2.6c1.6-0.1,0.5-2.2,1.9-2.5c1.5,0,0.3,2.3,2.1,2.4c1.5-0.5,0.1-2.5,1.4-3.3c1.5,0.5,0.2,2.6,2,3.2
		c1.1-1.8,1.9-4.6,5.1-3.3c0.5,2.3-2.4,0.9-2.3,2.6c0.1,2,2.9,0.5,3.2,2.7c-4.4,1.1-8.8,0-13.1,0.3c-2,0.2-3.7-0.3-5.3,2.2
		c-1.5,2.3-3-0.3-3.5-2.4c-1.9,1-2,4-4.9,2.8C576.9,695.5,576.1,692.4,576.6,689z"/>
	<path class="st2" d="M597,637c1.2-2.4,3.2-3.1,5.7-3c1.6,0.1,3.3,0.5,5-0.8c-0.5-3.2-1.5-6.2-3.8-8.7c-1.3-1.3-2.6-2.6-3.4-4.2
		c-0.2-0.4-0.6-0.8-0.8-1.2c-0.7-1.3,0.5-13.5,1.4-14.7c0.2-0.2,0.6-0.2,0.9-0.3c-0.3,3.9,0.5,7.9-0.7,11.8
		c-0.6,2.1,0.8,3.8,2.3,5.2c2.2,2.1,4,4.4,4.7,7.4c0.6,2.5,2.7,3.7,4.7,4.9c2.8,1.6,4,4,4.7,7.3c-2.6-0.1-2.8-2-3.6-3.3
		c-1.4-2.2-3-3-5.7-2.7C604.5,635,600.7,635.8,597,637z"/>
	<path class="st2" d="M638,685c-1.4,1.1-2,2.6-2,4.4c0,1.9-0.2,3.6-2,4.8c-1.1,0.7-1,2-1,3.1c0,1.8,0,3.6,0,5.4
		c-0.2,4.4-1.9,7.2-5.9,8c-3,0.6-4.7,2.1-5.8,4.7c-0.7,1.6-1.7,2.8-3.3,3.6c1.5-4.7,2.5-9.6,8.9-10.3c2.3-0.3,3.9-2.4,4-5.1
		c0.1-1.8,0.1-3.7,0-5.5c-0.1-2.5,0.2-4.6,2.3-6.7c2.6-2.6,2.3-7.4,0.1-10.6c-0.5-0.7-1.2-1.2-0.6-2.5
		C635.7,679.6,637.9,681.4,638,685z"/>
	<path class="st2" d="M547,710c-0.2,0-0.3,0-0.5,0c-3-0.5-7.2,1.6-8.8-1.6c-1.9-3.6-0.8-8.2-0.5-12.3c0.2-2.1,2.2-2.3,3.9-2.2
		c4.5,0.3,7-2.3,9-5.8c0.5-0.9,1-1.9,0.7-2.8c-1.1-3.2,0.4-6.2,0.1-9.3c0.6,0.1,1.7,0.3,1.6,0.9c-1,4.9,1.9,10.4-2.4,14.9
		c-2.4,2.5-3.8,3.5-10.6,4.8c-1,3.4-0.6,7-0.3,10.4c1.5,1.5,3.3,0.9,4.9,1C545.6,708.1,546.8,708.3,547,710z"/>
	<path class="st2" d="M558,534c-2.7-0.9-2.7-0.9-3.6-5.3c-1.6-1.1-3.3-0.7-4.7-0.3c-1,1.5-0.6,2.5-0.3,3.7c0.9,2.7-0.6,4.7-2.3,6.5
		c-0.3,0.3-0.9-0.1-1.2-0.5c1.6-2.5,2.2-4.9,1.3-7.9c-1-3.2-0.2-3.9,3.5-4.2c1.4-0.1,3,0.5,4.2-0.9c1.7,0.2,2.4,1.2,1.6,2.7
		C555.3,530.3,556.7,532.1,558,534z"/>
	<path class="st2" d="M621.8,648.1c-0.6-2.1-3-2.8-2.5-5c4.3,1.9,5.2,3.9,3.4,7.6c-2,4.1-4.5,7.9-4.3,12.8
		C615.1,657.3,620.1,653.1,621.8,648.1z"/>
	<path class="st2" d="M576,643c0.4-0.7,0.8-1.5,1.7-1.7c6.3-1.9,12.3-5.4,19.3-4.3c-0.2,1.1-0.7,2-1.9,1.9
		c-6.1-0.5-11.5,2.5-17.2,3.9C577.3,643,576.7,642.9,576,643z"/>
	<path class="st2" d="M549,674c-1.7-0.3-2.3-1.3-1.6-2.8c1.4-3,2.2-6.1,2.6-9.4c0.4-2.9,2.7-3.4,5-3.9
		C551.1,662.6,550.2,668.4,549,674z"/>
	<path class="st3" d="M686,558c-1.4,0.4-3.1-0.6-4.2,0.9c-0.5,0-0.9,0-1.4,0c0.2-1.8,0.4-3.5,0.6-5.7c1.3,1,0.5,2.8,2,3.2
		c1.9-0.2,1.4-1.8,1.6-2.9c0.4-1.8-1-4,1.2-5.3C686.3,551.4,686.1,554.7,686,558z"/>
	<path class="st4" d="M661.1,558.1c-1.9,2.9-3.6,3.8-5.9,3c-2.5-1-2.8-2.9-2.2-5.4c2.2,0.1,1.1,2.6,2.4,3.2c1.6,0.7,2.9,0.5,3.9-1
		C660,558,660.6,558,661.1,558.1z"/>
	<path class="st2" d="M561,652c3.5,0.2,6.9,0.2,8.6-3.8c0.4-0.9,1.5-1.2,2.5-1.2c-0.1,2-1.5,3.4-2.6,4.7
		C567.1,654.6,564.1,654.6,561,652z"/>
	<path class="st3" d="M661.1,558.1c-0.6-0.1-1.1-0.1-1.7-0.2c0-1.2,0.1-2.5,0.1-3.7c0.4,0,0.8-0.1,1.2-0.1c0.2,0.7-0.1,1.9,0.7,2.1
		c0.8,0.3,1.4-0.5,1.5-1.4c1.8,1.2,3.5,3.1,5.8,1.1c0.3-1,0-1.7-0.7-2.2c0-0.4-0.1-0.8-0.1-1.2c2.9,0.7,2.7,2.8,2.4,5.1
		C667.3,558.6,664.2,557.8,661.1,558.1z"/>
	<path class="st0" d="M686,558c0.1-3.3,0.3-6.6-0.1-9.9c0.8,0,1.5,0,2.3,0c-0.4,3.3-0.2,6.6-0.1,9.9C687.3,558,686.7,558,686,558z"
		/>
	<path class="st4" d="M680.4,558.9c0.5,0,0.9,0,1.4,0c-1.2,3.9-4.2,1.5-6.4,2.1c-0.2-1.2-0.3-2.1-0.4-3c0.4,0,0.9,0,1.3,0
		C677.5,559.2,678.8,559.9,680.4,558.9z"/>
	<path class="st2" d="M556,643c2.6,0.4,1.8,2.4,2,4c-1,0.2-1.8,0.4-1.6,1.8c0.2,1.1,0.4,2.1,0.6,3.2c-2.1-0.9-2.2-2.8-1.9-4.7
		C555.2,645.9,555.7,644.5,556,643L556,643z"/>
	<path class="st2" d="M550,720c-0.2-3.1-1.4-6-2-9C551.4,713.6,552.2,717.3,550,720z"/>
	<path class="st0" d="M668.1,553.8c0.7,0.5,1.1,1.1,0.7,2.2c-2.3,2-4,0.1-5.8-1.1c0.3-0.6,0.9-0.8,1.5-0.8
		C665.7,554.7,666.9,553.8,668.1,553.8z"/>
	<path class="st2" d="M624,669c3.3,2.6,3.3,2.6,4.5,5.8C625.5,673.7,623.9,672,624,669L624,669z"/>
	<path class="st2" d="M555,658c0.1-2.2,2.5-3.6,2-6c1.3,0.2,2.2,0.8,1.7,2.2C558.1,656,557.4,657.9,555,658z"/>
	<path class="st3" d="M688,558c-0.1-3.3-0.3-6.6,0.1-9.9C689.9,551.5,689.8,555.1,688,558z"/>
	<path class="st3" d="M672.6,557.4c-1.4-3-0.4-6-0.2-9c1.4,2.7,0.8,5.5,0.9,8.2C673.1,556.9,672.8,557.2,672.6,557.4z"/>
	<path class="st4" d="M676.8,556.9c-0.8-1.8-0.8-3-0.2-4.2c0.4,0.1,0.8,0.1,0.9,0.3C678.2,554.3,677.9,555.5,676.8,556.9z"/>
	<path class="st2" d="M618,719c-0.2,2.5-1.9,3.1-4,3C614.9,720.4,616,719.1,618,719z"/>
	<path class="st2" d="M573,646c0.1-1.9,1.1-2.9,3-3C575.9,644.9,574.9,645.9,573,646z"/>
	<path class="st2" d="M624,669c-1.3-0.2-2.6-0.4-2.5-2.5C623.4,666.3,623.8,667.5,624,669L624,669z"/>
	<path class="st4" d="M668.1,553.8c-1.2,0-2.4,0.9-3.6,0.2c0.7-1.6,1.8-2.3,3.5-1.5C668,553,668,553.4,668.1,553.8z"/>
	<path class="st3" d="M676.3,558c-0.4,0-0.9,0-1.3,0c-0.9,0.1-1.7,0.2-2.4-0.6c0.2-0.3,0.5-0.5,0.7-0.8c1,0,2-0.2,2.9,0
		C677.6,556.9,677.2,557.5,676.3,558z"/>
	<path class="st4" d="M667.2,550.9c-0.5-0.2-0.9-0.4-0.6-0.9c0.1-0.2,0.5-0.5,0.7-0.5c0.5,0.1,0.7,0.6,0.6,1
		C667.9,550.7,667.5,550.8,667.2,550.9z"/>
	<path class="st2" d="M558,647c1.3,0.1,1.9,0.8,2,2C558.7,648.9,558.1,648.3,558,647z"/>
	<path class="st4" d="M660.8,554.1c-0.4,0-0.8,0.1-1.2,0.1c-0.2-0.6,0.1-0.9,0.6-0.9C660.7,553.2,660.9,553.5,660.8,554.1z"/>
	<path class="st0" d="M486.1,504.2c0.3-1.1,0.4-2.3,1.9-2.3c-0.1,0.5-0.2,1-0.2,1.4c0,0.9,0.4,1.6,1.4,1.5c0.4,0,0.8-0.5,1-0.8
		c0.4-0.9-0.1-1.5-0.9-1.8c-0.4-0.2-1-0.1-1.4-0.2c0.6-1.9,1.8-1.3,3-0.8c1.3,0.6,0.7,2.6,2.5,3.1c2.1-2.2-0.4-5.8,2.2-8.5
		c0.6,3.6,0.4,6.6,0.3,9.9c-3.5,0.4-6.7,0.4-9.9,0C486,505.2,486,504.7,486.1,504.2z"/>
	<path class="st0" d="M468,500.1c1.7,0.9-0.2,3.4,2.2,4.2c2.5-1.5,1.5-4.2,2.2-6.5c-0.3,1.6,0.5,2.9,0.7,4.3c0.1,1,0,2.1,1.4,2.2
		c1.9,0.1,1.3-1.4,1.5-2.5c0.1-0.3,0.2-0.6,0.4-1.3c1.5,1.8,0.8,3.4,0.7,5.3c-3.2,0-6.3,0.7-9.3-0.4c0-0.9,0.1-1.8-0.7-2.5
		c-0.1-0.7-0.2-1.3-0.3-2C467.3,500.7,467.6,500.4,468,500.1z"/>
	<path class="st2" d="M486.1,504.2c0,0.5,0,1-0.1,1.6c-2.2,0.3-4.4,0.5-6.7,0.1c0-2.1,3.5-0.4,2.9-2.9c0.4,0,0.8-0.1,1.2-0.1
		C484.2,503.4,484.6,504.8,486.1,504.2z"/>
	<path class="st2" d="M498.7,496.8c0,3,0,6,0,9C497.4,502.6,497.3,499.5,498.7,496.8z"/>
	<path class="st2" d="M468,500.1c-0.3,0.3-0.7,0.6-1,0.9c-0.7,0-1.3,0-2,0c-0.4,0-0.7,0-1.1,0C464.9,499.1,466.4,499.3,468,500.1z"
		/>
	<path class="st0" d="M463.9,501c0.4,0,0.7,0,1.1,0c-0.5,1-0.2,1.9,0.1,2.9c0,0.3,0,0.6,0,0.8C462.9,504,462.4,502.8,463.9,501z"/>
	<path class="st0" d="M468.1,497.6c-1.3,0.1-2.1,0.7-3.2-0.3C465.9,496.5,466.8,496.3,468.1,497.6z"/>
	<path class="st0" d="M477.7,508.1c-0.8,1-1.7,0.8-2.6,0.6C475.5,506.5,476.9,508.5,477.7,508.1z"/>
	<path class="st0" d="M483.4,502.9c-0.4,0-0.8,0.1-1.2,0.1c-0.6-0.6-1.2-1.1-0.8-2.4C482.6,500.9,483.1,501.8,483.4,502.9z"/>
	<path class="st2" d="M465,504.7c0-0.3,0-0.6,0-0.8c0.8,0,1.6-0.2,2.2-0.9c0.7,0.7,0.7,1.6,0.7,2.5C466.9,505.3,466,505,465,504.7z"
		/>
	<path class="st0" d="M595.4,452.3c0.3-0.3,0.6-0.6,1-1c1.4-0.3,2.9-0.9,3.7,1.6C598.2,453.4,596.7,454.3,595.4,452.3z"/>
	<path class="st0" d="M608,451c-0.2,0.4-0.5,0.9-0.7,1.3c-0.3,0.7-0.9,1-1.6,0.7c-0.2-0.1-0.4-0.5-0.5-0.8c-0.1-0.9,0.6-1,1.3-1.1
		C607,451,607.5,451,608,451L608,451z"/>
	<path class="st0" d="M580,451c0.5,0.1,1,0.2,1.4,0.5c0.7,0.4,0.7,1.1,0.3,1.7c-0.1,0.2-0.6,0.4-0.8,0.3c-0.5-0.1-0.8-0.5-0.9-1
		C580,452,580,451.5,580,451C580,451,580,451,580,451z"/>
	<path class="st0" d="M586,335c-0.1,0.1-0.3,0.2-0.3,0.4c-0.3,1,0,2.4-1.7,2.1c-0.2,0-0.6-0.4-0.6-0.6c-0.1-1.8,1.3-1.3,2.3-1.6
		C585.8,335.3,585.9,335.1,586,335L586,335z"/>
	<path class="st0" d="M824,597c-0.5,0.6-1.2,0.6-1.9,0.4c0-0.8,0-1.5,0-2.3c0.5,0,1.1,0,1.6,0C823.9,595.8,823.9,596.4,824,597z"/>
	<path class="st0" d="M836,597.2c-0.2,0.4-0.4,0.9-1,0.7c-0.5-0.1-0.9-0.4-0.7-1c0.1-0.5,0.4-0.9,1-0.8
		C835.8,596.3,836.1,596.6,836,597.2z"/>
	<path class="st0" d="M566,336c-0.5,0.6-1.2,0.6-1.9,0.4c0-0.8,0-1.5,0-2.3c0.5,0,1.1,0,1.6,0C565.9,334.8,565.9,335.4,566,336z"/>
	<path class="st0" d="M573.1,340c-1,0.4-2.1,0.3-3.1,0C571,338.5,572,338.6,573.1,340z"/>
	<path class="st0" d="M386,388.2c0.6-0.1,0.9,0.3,1,0.8c0.2,0.6-0.3,0.9-0.7,1c-0.6,0.2-0.9-0.3-1-0.7
		C385.1,388.7,385.5,388.4,386,388.2z"/>
	<path class="st0" d="M469.1,316.5c0.1-0.7-0.5-1.6,0.3-2.2c0.9-0.6,1.4,0.2,1.9,0.7C471.1,316.3,470.4,316.9,469.1,316.5z"/>
	<path class="st0" d="M461.9,316c0.1-1.8,0.7-2.6,2.5-1.4C464.2,316.2,463.6,317.1,461.9,316z"/>
	<path class="st4" d="M550.2,604.6c-5.6,0.8-11.2,1.2-16.8-0.4c-1.8-0.5-3.3-1-3.1-3.1c0.2-2,1.8-2.6,3.6-2.7c0.5,0,1,0.2,1.4,0.2
		c1.5,1.1,0.3,3,1.3,4.2c1.2,0.8,2.5,0.4,3.9,0.3c0.3-2.3-2.2-2.3-2.8-3.9c0.2-1.7,1.6-2.1,3.2-2.4c-0.9,3.1,1.4,4.5,2.7,6.3
		c2,0.2,2.1-1.8,3.2-2.4c0.3,0.3,0.5,0.5,0.8,0.8c-0.8,2,0.5,2.2,2,2.3C549.7,604,549.9,604.3,550.2,604.6z M534,601.7
		c-0.3-1.2-0.8-1.5-1.2-1.3c-0.4,0.2-0.7,0.7-0.4,1.1c0.1,0.2,0.5,0.4,0.8,0.4C533.6,601.9,534,601.6,534,601.7z"/>
	<path class="st2" d="M551,643c-0.2,0.6-0.2,1.5-1,1.6c-3.3,0.4-6.5,1.1-9.7,1.9c-1.9,0.5-2.8-1.4-3.3-3c-0.5-1.6-1.5-2.6-3.3-2.4
		c-1.8,0.2-1.7,1.8-2.2,2.9c-0.7,1.6-0.4,3.3-0.5,4.9c-0.1,1.2,0.4,2.6-1,3.7c-0.3-1.7,0.1-10.3,0.4-11.2c1.4-3.6,4.2-2.2,6.6-2.2
		c2.7,4.9,2.7,4.8,8,4C547,642.9,549,643.1,551,643L551,643z"/>
	<path class="st4" d="M522.1,666.4c1.5,1.6,0.3,3.4,1.7,4.6c1.5,0.4,3.1,0.4,4.8-0.1c0.1-2.7-2.6-1.4-3.4-2.6
		c3.7-1.9,5.2-0.9,5.8,4.3c-3.7,1.1-7.3,0.8-10.9-0.5c-1.6-0.5-2.8-1.1-2.8-2.9c0.1-1.7,1.3-2.6,2.9-2.8
		C520.8,666.4,521.5,666.4,522.1,666.4z M520.9,669.4c0.1-0.6-0.2-0.9-0.7-1c-0.2,0-0.6,0.2-0.8,0.4c-0.3,0.5-0.1,0.9,0.4,1.1
		C520.3,670.1,520.7,669.9,520.9,669.4z"/>
	<path class="st4" d="M533.3,662.9c1.5,2.8-0.1,5.7,1.4,8c2.4-0.1,1-2.7,2.2-3.2c0.5-0.4,0.7-0.3,1,0.1c0.7,1-0.3,2.8,1.9,3.2
		c2.3-2.1-0.2-5.4,1.8-8c1.7,3.2,0.5,6.4,0.8,9.1c-1.4,1.2-2.5,0.9-3.7,0.9C531.7,673.1,530.2,670.4,533.3,662.9z"/>
	<path class="st2" d="M527.7,655.3c-2.5,1.6-4.9,3.2-7.4,4.9c1-3.8,3.9-4.9,6.8-5.9C527.3,654.6,527.5,655,527.7,655.3z"/>
	<path class="st3" d="M544.8,672.7c-1.5-3-0.6-6-0.3-9C545.6,666.6,545.2,669.6,544.8,672.7z"/>
	<path class="st2" d="M551,643c1.9-2.8,3.1-2.8,5,0l0,0C554.3,643,552.7,643,551,643L551,643z"/>
	<path class="st2" d="M514.3,664.7c0.2-2.2,1.1-3.1,3.3-3.4C517.4,663.5,516.5,664.4,514.3,664.7z"/>
	<path class="st4" d="M518.4,664.6c1.6-1.5,2.5-1,3.8-1C521.2,665.6,520.1,664.8,518.4,664.6z"/>
	<path class="st4" d="M532.2,596.3c0.9-1,1.7-1,2.9-0.2C534.2,597.6,533.1,596.8,532.2,596.3z"/>
	<path class="st4" d="M546.7,600.7c1.1-1.3,2.2-1.8,3.5-0.3c-0.3,0.3-0.6,0.6-0.8,0.9c-0.6,0.1-1.3,0.1-1.9,0.2
		C547.2,601.2,547,601,546.7,600.7z"/>
	<path class="st1" d="M550.2,600.4c1.4,1.4,1.4,2.8,0,4.1c-0.2-0.3-0.5-0.6-0.7-0.8c0.5-0.8,0.5-1.6-0.1-2.4
		C549.6,601,549.9,600.7,550.2,600.4z"/>
	<path class="st3" d="M677,727.9c-0.1,1.4-0.9,2.1-2.9,2c2.1-2.5,1.9-5.3,2.1-8.6c1.8,4.4,1.8,4.4,6.6,3.9c1.7-1.2-1.3-2.1-0.2-3.2
		c2.6-0.3,1.8,3.6,4.2,3.5c2.1-0.6,0.6-2.9,1.9-3.7c1,1.5,0.3,3.2,0.5,4.9c-2.5,0.7-4.8,0.4-7.1,0.3c-0.7,0-1.3,0-2,0
		c-0.7,0-1.3,0-2,0C677.3,726.9,677,727.3,677,727.9z"/>
	<path class="st4" d="M663.6,727c1.3-0.1,2.6,0.5,3.9-0.4c1.1-1.5-0.3-3.7,1.3-5.1c1.6,3.4,1.5,5.7-0.7,6.8
		c-2.2,1.1-4.5,1.4-5.9-1.4C662.7,726.9,663.1,727,663.6,727z"/>
	<path class="st4" d="M671.8,717.4c1.5,3.7,1.6,5.3,0.6,9.9C670.1,723.8,671.6,720.6,671.8,717.4z"/>
	<path class="st3" d="M663.6,727c-0.5,0-0.9,0-1.4-0.1c-0.5-1.2-0.9-2.4,0.3-4C663,724.6,663.3,725.8,663.6,727z"/>
	<path class="st4" d="M680,727c0.7,0,1.3,0,2,0c-0.8,0.8,0.3,1.9-0.4,2.8C679.6,729.7,681.5,727.4,680,727z"/>
	<path class="st4" d="M665.8,721.8c-0.6,0-0.8-0.4-0.7-0.9c0.1-0.4,0.3-0.9,0.9-0.7c0.2,0.1,0.5,0.4,0.6,0.6
		C666.7,721.5,666.2,721.7,665.8,721.8z"/>
	<path class="st4" d="M681.5,721.9c0.1,0.6-0.3,0.9-0.7,0.9c-0.4,0-1.1,0-1.3-0.3c-0.3-0.3,0-0.9,0.4-1.1
		C680.5,721.2,681.1,721.3,681.5,721.9z"/>
	<path class="st4" d="M689,719.1c0.2,0.4,0,0.7-0.4,0.7c-0.5,0-0.9-0.1-0.7-0.7c0.1-0.3,0.4-0.4,0.6-0.7
		C688.7,718.7,688.9,718.9,689,719.1z"/>
	<path class="st4" d="M677,727.9c0-0.7,0.4-1,1.1-0.9C677.7,727.3,677.3,727.6,677,727.9z"/>
	<path class="st4" d="M585.8,749.7c1.9,2.9,0.4,5.5,1.6,8.1c1.4,0.6,2.9,0.8,4.3-0.1c0.1-2.6-2.9-0.9-3.5-2.6
		c4.3-1.4,5.5-0.4,5.7,4.5c-0.3,0.2-0.5,0.5-0.8,0.5C584.4,760.7,583.3,759.3,585.8,749.7z"/>
	<path class="st4" d="M575.7,759.9c-1.2,2.5-3.2,2.6-5.4,1.7c-2.3-1-2.9-2.9-1.8-6c1.3,2.9,2.5,5.4,5.8,4.4
		C574.8,760,575.3,759.9,575.7,759.9z"/>
	<path class="st3" d="M582.4,754.3c1.6,5.7,1.4,6.7-1.8,8.5C582.9,760.5,581.3,757.4,582.4,754.3z"/>
	<path class="st3" d="M578.4,760.2c-1.1-3.4-0.6-6.5-0.5-10.4C579.4,753.8,579.4,755.2,578.4,760.2z"/>
	<path class="st3" d="M575.7,759.9c-0.5,0-0.9,0-1.4,0.1c0.2-1.7,0.4-3.3,0.7-5l0.4,0.1l0.4,0C576.2,756.7,576.2,758.3,575.7,759.9z
		"/>
	<path class="st4" d="M583.5,752.5c-0.3,0.4-0.7,0.6-1.1,0.4c-0.4-0.1-0.4-0.4-0.3-0.8c0.2-0.5,0.6-0.7,1-0.4
		C583.3,751.8,583.4,752.2,583.5,752.5z"/>
	<path class="st4" d="M572.9,754c0,0.5-0.2,0.9-0.8,0.8c-0.5-0.1-0.9-0.4-0.7-1c0.1-0.2,0.4-0.5,0.6-0.6
		C572.7,753,572.8,753.5,572.9,754z"/>
	<path class="st4" d="M590.4,761.6c0.2,0.2,0.5,0.5,0.5,0.7c0,0.6-0.4,0.7-1,0.6c-0.4-0.1-0.6-0.4-0.3-0.7
		C589.9,761.9,590.2,761.8,590.4,761.6z"/>
	<path class="st4" d="M575.8,755.1l-0.4,0L575,755c-0.3-0.2-0.2-0.5,0.1-0.6C575.7,754.2,575.9,754.5,575.8,755.1z"/>
	<path class="st4" d="M487.9,502c0.5,0.1,1,0,1.4,0.2c0.8,0.3,1.3,0.9,0.9,1.8c-0.2,0.4-0.6,0.8-1,0.8c-1,0.1-1.4-0.5-1.4-1.5
		c0-0.5,0.1-1,0.2-1.4L487.9,502z"/>
	<path class="st4" d="M467.2,503c-0.6,0.7-1.3,0.9-2.2,0.9c-0.2-1-0.6-1.9-0.1-2.9c0.7,0,1.3,0,2,0C467,501.7,467.1,502.3,467.2,503
		z"/>
	<path class="st0" d="M549.4,601.3c0.6,0.8,0.6,1.6,0.1,2.4c-1.5,0-2.8-0.2-2-2.3C548.1,601.4,548.7,601.4,549.4,601.3z"/>
	<path class="st0" d="M534,601.7c0-0.1-0.4,0.2-0.9,0.2c-0.2,0-0.7-0.2-0.8-0.4c-0.2-0.5,0-1,0.4-1.1
		C533.3,600.2,533.7,600.5,534,601.7z"/>
	<path class="st0" d="M520.9,669.4c-0.2,0.5-0.6,0.8-1.1,0.6c-0.5-0.2-0.7-0.7-0.4-1.1c0.1-0.2,0.5-0.4,0.8-0.4
		C520.7,668.5,520.9,668.8,520.9,669.4z"/>
</g>
</svg>
