<?xml version="1.0" encoding="UTF-8" ?>
<!DOCTYPE svg PUBLIC "-//W3C//DTD SVG 1.1//EN" "http://www.w3.org/Graphics/SVG/1.1/DTD/svg11.dtd">
<svg width="36pt" height="29pt" viewBox="0 0 36 29" version="1.1" xmlns="http://www.w3.org/2000/svg">
<g id="#c8b79bff">
<path fill="#c8b79b" opacity="1.00" d=" M 0.00 0.00 L 31.38 0.00 C 31.46 1.51 31.54 3.03 31.61 4.54 C 33.07 4.58 34.54 4.62 36.00 4.67 L 36.00 25.76 C 35.32 26.59 34.64 27.41 33.94 28.23 C 24.29 28.41 14.62 28.37 4.97 28.28 C 2.50 28.62 0.94 26.66 0.00 24.68 L 0.00 0.00 M 2.47 2.43 C 2.48 9.29 2.45 16.14 2.47 23.00 C 2.51 24.08 2.52 25.99 4.04 26.01 C 12.53 26.32 21.04 26.04 29.54 26.14 C 29.06 18.32 29.32 10.47 29.38 2.64 C 20.44 2.09 11.44 2.52 2.47 2.43 Z" />
<path fill="#c8b79b" opacity="1.00" d=" M 4.78 6.76 C 12.20 6.71 19.62 6.72 27.04 6.75 C 27.03 7.28 27.01 8.33 27.01 8.85 C 19.57 8.88 12.14 8.86 4.71 8.87 C 4.73 8.34 4.76 7.29 4.78 6.76 Z" />
<path fill="#c8b79b" opacity="1.00" d=" M 4.73 11.05 C 8.07 11.02 11.42 11.03 14.76 11.06 C 14.77 14.66 14.77 18.25 14.76 21.85 C 11.42 21.87 8.07 21.88 4.73 21.86 C 4.69 18.26 4.69 14.66 4.73 11.05 Z" />
<path fill="#c8b79b" opacity="1.00" d=" M 16.99 11.06 C 20.34 11.03 23.68 11.03 27.03 11.06 C 27.02 11.59 27.02 12.65 27.01 13.18 C 23.68 13.21 20.36 13.21 17.03 13.18 C 17.02 12.65 17.00 11.59 16.99 11.06 Z" />
<path fill="#c8b79b" opacity="1.00" d=" M 17.00 15.42 C 20.33 15.40 23.66 15.40 27.00 15.42 C 26.99 15.95 26.97 17.01 26.97 17.55 C 23.66 17.55 20.35 17.55 17.04 17.55 C 17.03 17.01 17.01 15.95 17.00 15.42 Z" />
<path fill="#c8b79b" opacity="1.00" d=" M 16.99 19.68 C 19.62 19.66 22.26 19.66 24.89 19.70 C 24.88 20.24 24.85 21.30 24.84 21.83 C 22.23 21.87 19.62 21.88 17.00 21.86 C 17.00 21.32 16.99 20.23 16.99 19.68 Z" />
</g>
</svg>
