<?xml version="1.0" encoding="UTF-8" ?>
<!DOCTYPE svg PUBLIC "-//W3C//DTD SVG 1.1//EN" "http://www.w3.org/Graphics/SVG/1.1/DTD/svg11.dtd">
<svg width="35pt" height="29pt" viewBox="0 0 35 29" version="1.1" xmlns="http://www.w3.org/2000/svg">
<path fill="#c8b79b" opacity="1.00" d=" M 0.00 0.00 L 35.00 0.00 L 35.00 28.28 C 23.33 28.37 11.67 28.35 0.00 28.30 L 0.00 0.00 M 3.29 22.92 C 6.05 19.26 8.73 15.54 11.47 11.86 C 13.82 14.72 16.11 17.63 18.43 20.52 C 20.26 18.90 22.09 17.28 23.93 15.67 C 26.53 18.37 29.10 21.10 31.70 23.81 C 31.70 17.09 31.73 10.37 31.69 3.66 C 22.23 3.67 12.77 3.67 3.31 3.66 C 3.27 10.08 3.30 16.50 3.29 22.92 Z" />
<path fill="#c8b79b" opacity="1.00" d=" M 22.40 6.44 C 25.81 5.00 27.58 10.87 24.05 11.65 C 20.84 12.84 19.10 7.36 22.40 6.44 Z" />
</svg>
