<?xml version="1.0" encoding="UTF-8" ?>
<!DOCTYPE svg PUBLIC "-//W3C//DTD SVG 1.1//EN" "http://www.w3.org/Graphics/SVG/1.1/DTD/svg11.dtd">
<svg width="42pt" height="36pt" viewBox="0 0 42 36" version="1.1" xmlns="http://www.w3.org/2000/svg">
<path fill="#c8b79b" opacity="1.00" d=" M 0.00 7.15 C 2.27 4.65 4.61 2.19 7.34 0.18 C 7.67 2.84 7.64 5.52 7.31 8.18 C 4.88 8.24 2.44 8.26 0.00 8.25 L 0.00 7.15 Z" />
<path fill="#c8b79b" opacity="1.00" d=" M 8.66 0.54 C 13.42 0.65 18.19 0.29 22.93 0.69 C 25.23 2.25 23.78 5.92 24.19 8.34 C 20.88 9.00 17.89 10.78 15.81 13.44 C 12.36 13.63 8.90 13.31 5.47 13.70 C 5.22 14.06 4.70 14.77 4.44 15.13 C 7.90 15.39 11.37 15.35 14.83 15.34 C 14.55 16.38 14.29 17.42 14.08 18.47 C 11.20 18.51 8.31 18.26 5.46 18.63 C 5.21 19.00 4.72 19.73 4.48 20.10 C 7.58 20.30 10.69 20.28 13.80 20.29 C 14.04 24.96 16.76 28.99 20.66 31.43 C 13.79 31.11 6.75 32.25 0.00 30.82 L 0.00 9.38 C 2.55 9.26 5.31 9.87 7.70 8.80 C 9.48 6.48 8.35 3.23 8.66 0.54 M 5.07 23.18 C 5.01 23.62 4.90 24.51 4.84 24.95 C 7.61 25.03 10.39 25.01 13.17 25.00 C 13.17 24.51 13.17 23.55 13.18 23.06 C 10.48 23.03 7.76 22.88 5.07 23.18 Z" />
<path fill="#c8b79b" opacity="1.00" d=" M 25.39 4.11 C 27.60 4.54 28.37 6.21 28.31 8.36 C 27.52 8.29 25.93 8.16 25.14 8.09 C 25.23 6.76 25.32 5.44 25.39 4.11 Z" />
<path fill="#fcf8f0" opacity="1.00" d=" M 15.81 13.44 C 17.89 10.78 20.88 9.00 24.19 8.34 L 25.14 8.09 C 25.93 8.16 27.52 8.29 28.31 8.36 C 35.39 9.63 39.89 17.37 37.57 24.16 C 39.08 25.65 40.61 27.11 42.00 28.71 L 42.00 36.00 L 34.35 36.00 C 32.88 34.63 31.49 33.17 29.97 31.84 C 29.57 31.87 28.76 31.94 28.36 31.97 C 26.96 32.10 25.57 32.25 24.18 32.34 C 23.00 32.04 21.83 31.74 20.66 31.43 C 16.76 28.99 14.04 24.96 13.80 20.29 C 13.87 19.84 14.01 18.93 14.08 18.47 C 14.29 17.42 14.55 16.38 14.83 15.34 C 15.08 14.87 15.56 13.92 15.81 13.44 M 23.38 11.53 C 16.71 13.16 14.60 22.75 19.94 27.03 C 24.79 31.71 33.87 28.75 34.98 22.09 C 36.66 15.64 29.63 9.31 23.38 11.53 M 31.95 29.24 C 34.55 31.61 36.67 35.84 40.82 35.01 C 40.87 34.25 40.97 32.74 41.02 31.99 C 39.09 29.97 37.11 28.01 35.11 26.08 C 34.06 27.13 33.00 28.18 31.95 29.24 Z" />
<path fill="#c8b79b" opacity="1.00" d=" M 23.38 11.53 C 29.63 9.31 36.66 15.64 34.98 22.09 C 33.87 28.75 24.79 31.71 19.94 27.03 C 14.60 22.75 16.71 13.16 23.38 11.53 M 22.42 14.42 C 18.01 16.85 18.18 24.02 22.72 26.22 C 27.10 28.91 33.31 25.06 32.87 19.96 C 32.89 14.94 26.59 11.57 22.42 14.42 Z" />
<path fill="#fcf8f0" opacity="1.00" d=" M 22.42 14.42 C 26.59 11.57 32.89 14.94 32.87 19.96 C 33.31 25.06 27.10 28.91 22.72 26.22 C 18.18 24.02 18.01 16.85 22.42 14.42 M 23.44 17.18 C 21.35 18.86 21.57 22.36 24.18 23.40 C 24.43 23.61 24.94 24.03 25.20 24.24 C 25.99 24.14 27.58 23.95 28.37 23.85 L 28.36 23.63 C 30.44 21.67 30.30 18.51 28.11 16.72 C 26.59 16.29 24.62 15.76 23.44 17.18 Z" />
<path fill="#cec0a8" opacity="1.00" d=" M 23.44 17.18 C 24.62 15.76 26.59 16.29 28.11 16.72 C 28.10 19.03 28.15 21.33 28.36 23.63 L 28.37 23.85 C 27.58 23.95 25.99 24.14 25.20 24.24 C 25.06 21.81 25.74 19.24 24.95 16.89 C 23.26 18.51 24.49 21.30 24.18 23.40 C 21.57 22.36 21.35 18.86 23.44 17.18 Z" />
<path fill="#171512" opacity="0.12" d=" M 5.07 23.18 C 7.76 22.88 10.48 23.03 13.18 23.06 C 13.17 23.55 13.17 24.51 13.17 25.00 C 10.39 25.01 7.61 25.03 4.84 24.95 C 4.90 24.51 5.01 23.62 5.07 23.18 Z" />
<path fill="#c8b79b" opacity="1.00" d=" M 31.95 29.24 C 33.00 28.18 34.06 27.13 35.11 26.08 C 37.11 28.01 39.09 29.97 41.02 31.99 C 40.97 32.74 40.87 34.25 40.82 35.01 C 36.67 35.84 34.55 31.61 31.95 29.24 Z" />
<path fill="#c8b79b" opacity="1.00" d=" M 24.18 32.34 C 25.57 32.25 26.96 32.10 28.36 31.97 C 27.97 33.30 28.13 35.69 26.05 35.39 C 19.69 35.57 13.33 35.45 6.97 35.45 C 5.05 35.84 3.88 34.38 3.53 32.66 C 10.41 32.42 17.31 32.90 24.18 32.34 Z" />
</svg>
