<?xml version="1.0" encoding="UTF-8" ?>
<!DOCTYPE svg PUBLIC "-//W3C//DTD SVG 1.1//EN" "http://www.w3.org/Graphics/SVG/1.1/DTD/svg11.dtd">
<svg width="29pt" height="35pt" viewBox="0 0 29 35" version="1.1" xmlns="http://www.w3.org/2000/svg">
<path fill="#c8b79b" stroke="#c8b79b" stroke-width="0.09375" opacity="1.00" d=" M 6.94 0.00 L 7.67 0.00 C 7.76 2.46 8.55 5.16 7.46 7.48 C 5.07 8.32 2.46 7.78 0.00 7.59 L 0.00 7.23 C 2.22 4.73 4.61 2.40 6.94 0.00 Z" />
<path fill="#c8b79b" stroke="#c8b79b" stroke-width="0.09375" opacity="1.00" d=" M 23.17 0.00 L 23.31 0.00 C 24.90 1.65 24.51 3.95 24.56 6.03 C 24.42 13.68 24.66 21.35 24.47 29.00 C 24.72 31.56 21.61 31.04 19.99 31.16 C 13.68 30.90 7.31 31.59 1.05 30.79 L 0.46 29.93 C 0.05 22.97 0.42 15.98 0.29 9.01 C 2.98 8.62 6.65 10.05 8.65 7.67 C 9.35 5.24 8.91 2.64 9.01 0.14 C 13.73 0.11 18.45 0.23 23.17 0.00 M 5.32 13.38 C 5.31 13.71 5.28 14.39 5.27 14.73 C 10.27 15.20 15.31 14.83 20.33 14.91 C 20.26 14.49 20.13 13.65 20.06 13.23 C 15.15 13.14 10.20 12.87 5.32 13.38 M 5.25 18.35 C 5.26 18.65 5.29 19.26 5.30 19.57 C 10.13 20.35 15.18 19.86 20.08 19.82 C 20.08 19.41 20.08 18.58 20.07 18.16 C 15.14 18.09 10.15 17.77 5.25 18.35 M 4.90 23.14 C 5.09 23.45 5.48 24.07 5.67 24.38 C 8.43 24.74 11.26 24.61 14.01 24.22 L 13.28 22.91 C 10.50 22.57 7.65 22.54 4.90 23.14 Z" />
<path fill="#c8b79b" stroke="#c8b79b" stroke-width="0.09375" opacity="1.00" d=" M 25.67 3.72 C 26.33 4.08 27.65 4.78 28.32 5.13 C 28.84 13.40 28.35 21.72 28.56 30.01 C 28.40 31.72 28.99 33.98 27.19 35.00 L 5.00 35.00 C 4.71 34.07 4.38 33.17 3.99 32.29 C 10.36 32.01 16.75 32.44 23.12 32.08 C 24.66 32.02 25.66 30.49 25.54 29.04 C 25.73 20.61 25.44 12.16 25.67 3.72 Z" />
</svg>
