<?xml version="1.0" encoding="UTF-8" ?>
<!DOCTYPE svg PUBLIC "-//W3C//DTD SVG 1.1//EN" "http://www.w3.org/Graphics/SVG/1.1/DTD/svg11.dtd">
<svg width="36pt" height="29pt" viewBox="0 0 36 29" version="1.1" xmlns="http://www.w3.org/2000/svg">
<path fill="#af9e84" stroke="#af9e84" stroke-width="0.09375" opacity="1.00" d=" M 0.72 0.00 L 35.83 0.00 C 35.87 0.04 35.96 0.12 36.00 0.16 L 36.00 28.23 C 24.22 28.44 12.44 28.31 0.67 28.30 C 0.66 18.87 0.59 9.43 0.72 0.00 M 1.82 1.47 C 1.82 3.31 1.82 5.16 1.82 7.00 C 3.45 7.00 5.08 7.00 6.71 7.00 C 6.71 5.15 6.71 3.31 6.70 1.46 C 5.08 1.46 3.45 1.46 1.82 1.47 M 29.70 1.47 C 29.70 3.31 29.70 5.15 29.70 7.00 C 31.31 7.00 32.92 7.00 34.53 7.00 C 34.53 5.15 34.53 3.31 34.53 1.46 C 32.92 1.46 31.31 1.46 29.70 1.47 M 1.82 8.20 C 1.82 10.02 1.82 11.84 1.82 13.66 C 3.45 13.67 5.08 13.67 6.71 13.67 C 6.71 11.85 6.71 10.02 6.71 8.20 C 5.08 8.20 3.45 8.20 1.82 8.20 M 29.71 8.19 C 29.70 10.02 29.70 11.84 29.70 13.67 C 31.31 13.67 32.92 13.67 34.53 13.67 C 34.53 11.85 34.53 10.03 34.54 8.21 C 32.92 8.20 31.31 8.20 29.71 8.19 M 15.25 19.42 C 18.10 17.92 20.79 16.14 23.38 14.23 C 20.76 12.47 18.10 10.77 15.41 9.11 C 15.11 12.54 15.08 15.98 15.25 19.42 M 1.82 14.93 C 1.82 16.75 1.82 18.58 1.82 20.40 C 3.45 20.40 5.07 20.40 6.70 20.41 C 6.70 18.58 6.71 16.76 6.71 14.93 C 5.08 14.93 3.45 14.93 1.82 14.93 M 29.70 14.93 C 29.70 16.76 29.70 18.58 29.70 20.40 C 31.31 20.40 32.92 20.40 34.53 20.40 C 34.53 18.58 34.53 16.76 34.53 14.93 C 32.92 14.93 31.31 14.93 29.70 14.93 M 1.82 21.60 C 1.82 23.45 1.82 25.29 1.82 27.14 C 3.45 27.13 5.08 27.13 6.71 27.13 C 6.71 25.29 6.71 23.44 6.70 21.59 C 5.08 21.60 3.45 21.60 1.82 21.60 M 29.70 21.60 C 29.70 23.44 29.70 25.29 29.70 27.14 C 31.31 27.13 32.92 27.13 34.53 27.14 C 34.53 25.29 34.53 23.44 34.53 21.60 C 32.92 21.60 31.31 21.60 29.70 21.60 Z" />
</svg>
