<?xml version="1.0" encoding="UTF-8" ?>
<!DOCTYPE svg PUBLIC "-//W3C//DTD SVG 1.1//EN" "http://www.w3.org/Graphics/SVG/1.1/DTD/svg11.dtd">
<svg width="40pt" height="34pt" viewBox="0 0 40 34" version="1.1" xmlns="http://www.w3.org/2000/svg">
<path fill="#c8b79b" stroke="#c8b79b" stroke-width="0.09375" opacity="1.00" d=" M 3.51 0.00 L 40.00 0.00 L 40.00 4.32 C 27.68 4.34 15.37 4.33 3.05 4.33 C 3.18 2.88 3.33 1.44 3.51 0.00 Z" />
<path fill="#c8b79b" stroke="#c8b79b" stroke-width="0.09375" opacity="1.00" d=" M 5.64 6.34 C 16.25 6.33 26.87 6.33 37.48 6.34 C 37.42 11.91 37.54 17.47 37.44 23.04 C 37.66 24.98 35.93 26.63 33.99 26.26 C 25.61 26.29 17.23 26.24 8.85 26.27 C 11.84 22.78 16.12 20.63 18.98 17.03 C 18.75 15.88 18.12 14.98 17.12 14.31 C 13.26 16.38 9.47 18.56 5.65 20.68 C 5.65 15.90 5.66 11.12 5.64 6.34 M 32.45 21.61 C 32.87 21.79 33.71 22.17 34.12 22.35 C 34.45 17.82 34.55 13.24 34.15 8.71 L 32.89 8.50 C 31.68 12.64 32.55 17.28 32.45 21.61 M 27.70 10.74 C 27.42 14.57 27.43 18.41 27.70 22.24 L 29.27 21.91 C 29.72 18.34 29.70 14.66 29.29 11.08 L 27.70 10.74 M 22.88 12.55 C 22.62 15.80 22.60 19.07 22.91 22.32 C 23.34 22.14 24.19 21.80 24.61 21.62 C 24.83 18.82 24.79 15.99 24.60 13.19 C 24.17 13.03 23.31 12.71 22.88 12.55 Z" />
<path fill="#c8b79b" stroke="#c8b79b" stroke-width="0.09375" opacity="1.00" d=" M 0.00 26.22 C 5.36 22.98 10.86 19.96 16.36 16.96 C 12.21 20.59 7.96 24.12 3.77 27.71 C 2.76 28.78 1.41 29.09 0.00 28.77 L 0.00 26.22 Z" />
<path fill="#c8b79b" stroke="#c8b79b" stroke-width="0.09375" opacity="1.00" d=" M 13.22 28.20 C 14.69 28.20 16.15 28.21 17.62 28.21 C 17.29 30.15 16.97 32.08 16.54 34.00 L 12.16 34.00 C 12.58 32.08 12.91 30.14 13.22 28.20 Z" />
<path fill="#c8b79b" stroke="#c8b79b" stroke-width="0.09375" opacity="1.00" d=" M 25.47 28.21 C 26.93 28.20 28.40 28.20 29.86 28.19 C 30.18 30.14 30.52 32.08 30.96 34.00 L 26.56 34.00 C 26.14 32.08 25.80 30.14 25.47 28.21 Z" />
</svg>
